<?xml version="1.0" encoding="UTF-8"?>
<svg width="241px" height="35px" viewBox="0 0 241 35" version="1.1" xmlns="http://www.w3.org/2000/svg" xmlns:xlink="http://www.w3.org/1999/xlink">
    <!-- Generator: Sketch 55.1 (78136) - https://sketchapp.com -->
    <title>1: Atoms / logos / Admiralty / Product / Digital List of Lights</title>
    <desc>Created with Sketch.</desc>
    <defs>
        <polygon id="path-1" points="0 35 240.806 35 240.806 0 0 0"></polygon>
    </defs>
    <g id="-" stroke="none" stroke-width="1" fill="none" fill-rule="evenodd">
        <g id="1_00119009-UKHO-Styles-1" transform="translate(-395.000000, -2940.000000)">
            <g id="1:-Atoms-/-logos-/-Admiralty-/-Product-/-Digital-List-of-Lights" transform="translate(395.000000, 2940.000000)">
                <g id="Group-49">
                    <polygon id="Fill-1" fill="#00A280" points="0 33.842 101.525 33.842 101.525 0 0 0"></polygon>
                    <path d="M29.7041,13.2236 L27.7631,18.6156 L31.6231,18.6156 L29.7041,13.2236 Z M33.8771,24.8966 L32.7021,21.5886 L26.6841,21.5886 L25.5091,24.8966 L21.8411,24.8966 L28.0991,8.7896 L31.2871,8.7896 L37.5431,24.8966 L33.8771,24.8966 Z" id="Fill-2" fill="#FFFFFE"></path>
                    <g id="Group-48">
                        <path d="M45.7637,11.9853 L43.1267,11.9853 L43.1267,21.6693 L45.2847,21.6693 C48.4967,21.6693 50.7027,19.4883 50.7027,16.8303 C50.7027,14.2883 49.0477,11.9853 45.7637,11.9853 M45.5707,24.8813 L39.6737,24.8813 L39.6737,8.7743 L45.8357,8.7743 C51.3267,8.7743 54.3937,13.0413 54.3937,16.8303 C54.3937,20.3003 51.8047,24.8813 45.5707,24.8813" id="Fill-3" fill="#FFFFFE"></path>
                        <polygon id="Fill-5" fill="#FFFFFE" points="56.5522 24.8964 56.5522 8.7904 60.0032 8.7904 60.0032 21.6844 67.0292 21.6844 67.0292 24.8964"></polygon>
                        <polygon id="Fill-7" fill="#FFFFFE" points="69.1587 24.8964 69.1587 8.7904 72.6117 8.7904 72.6117 21.6844 79.6337 21.6844 79.6337 24.8964"></polygon>
                        <path d="M120.6538,11.5986 C120.0788,11.5986 119.1258,11.5726 118.5798,11.5436 C119.3588,9.5806 119.9608,7.7946 120.7438,6.0106 C121.5168,7.7946 122.5868,10.9656 122.8138,11.5436 C122.0068,11.5726 121.4318,11.5986 120.6538,11.5986 M122.5288,2.4936 L119.4428,2.4936 C117.5428,7.7656 115.6998,12.5796 113.9738,16.9316 L116.6228,16.9316 C116.7918,16.4436 117.1718,15.3736 117.8008,13.7336 C118.6958,13.7026 119.7858,13.6736 120.6538,13.6736 C121.6908,13.6736 122.5288,13.7026 123.5598,13.7336 C123.9368,14.7696 124.3398,15.8076 124.7158,16.9316 L128.0258,16.9316 C125.9528,11.8886 124.1378,7.0756 122.5288,2.4936" id="Fill-9" fill="#092648"></path>
                        <path d="M136.2788,14.6816 L134.0028,14.6816 C133.9158,13.0406 133.9158,11.5156 133.9158,9.8396 C133.9158,8.1976 133.9158,6.4106 134.0028,4.7416 L136.2788,4.7416 C138.7798,4.7416 140.8848,6.3826 140.8848,9.6976 C140.8848,13.0406 138.7798,14.6816 136.2788,14.6816 M136.2458,2.4936 L130.9208,2.4936 C130.9798,4.9126 131.0098,7.4206 131.0098,9.8136 C131.0098,12.2346 130.9798,14.5396 130.9208,16.9326 L136.2458,16.9326 C142.3528,16.9326 144.0808,12.6356 144.0808,9.7266 C144.0808,6.7856 142.3528,2.4936 136.2458,2.4936" id="Fill-11" fill="#092648"></path>
                        <path d="M149.8349,16.9326 C149.7769,15.1716 149.7539,12.9546 149.7539,11.3146 C149.7539,9.6706 149.7769,8.6906 149.8349,7.0436 C151.3629,9.1786 152.7729,11.3406 154.0689,13.5306 L154.4709,13.5306 C155.6799,11.5996 157.1769,9.3226 158.8179,6.7576 C158.8469,8.3696 158.9049,9.9276 158.9049,11.4536 C158.9049,13.3286 158.8769,15.3466 158.8179,16.9326 L161.8709,16.9326 C161.8129,14.5396 161.7529,12.1776 161.7529,9.7546 C161.7529,7.3626 161.8129,4.9126 161.8709,2.4946 L158.7339,2.4946 C157.3499,4.8836 155.9399,7.1306 154.6439,8.9786 C153.1179,6.8706 151.7079,4.7406 150.4149,2.4946 L147.1889,2.4946 C147.2439,4.9976 147.3319,7.4786 147.3319,9.8706 C147.3319,12.2906 147.2439,14.6266 147.1889,16.9326 L149.8349,16.9326 Z" id="Fill-13" fill="#092648"></path>
                        <path d="M169.7861,16.9326 C169.7001,15.4576 169.7001,12.0886 169.7001,9.6706 C169.7001,7.3926 169.7001,3.9906 169.7861,2.4946 L166.6751,2.4946 C166.7651,3.9906 166.7651,7.3926 166.7651,9.6706 C166.7651,12.0886 166.7651,15.4576 166.6751,16.9326 L169.7861,16.9326 Z" id="Fill-15" fill="#092648"></path>
                        <path d="M179.4302,9.0908 L177.5872,9.0908 C177.5542,8.3438 177.5542,7.5928 177.5542,6.8428 C177.5542,6.0938 177.5542,5.3448 177.5872,4.5958 L179.4302,4.5958 C180.7832,4.5958 181.9632,5.2878 181.9632,6.8428 C181.9632,8.4028 180.7832,9.0908 179.4302,9.0908 M182.4782,10.6778 C184.2942,9.8408 184.9282,8.1118 184.9282,6.8428 C184.9282,5.1148 183.7192,2.4938 179.9202,2.4938 L174.5912,2.4938 C174.6522,4.9968 174.7062,7.4778 174.7062,9.8718 C174.7062,12.2908 174.6522,14.6248 174.5912,16.9328 L177.5872,16.9328 C177.5542,15.8918 177.5292,14.8268 177.5292,13.7888 C177.5292,12.9278 177.5542,12.0618 177.5872,11.1958 L179.4302,11.1958 C180.8982,13.3288 182.1612,15.2898 183.1102,16.9328 L186.6272,16.9328 C185.1002,14.8268 183.6922,12.6948 182.4782,10.6778" id="Fill-17" fill="#092648"></path>
                        <path d="M195.0517,11.5986 C194.4767,11.5986 193.5257,11.5706 192.9817,11.5436 C193.7567,9.5806 194.3617,7.7946 195.1377,6.0076 C195.9117,7.7946 196.9827,10.9656 197.2127,11.5436 C196.4047,11.5706 195.8277,11.5986 195.0517,11.5986 M196.9227,2.4936 L193.8417,2.4936 C191.9437,7.7656 190.1027,12.5796 188.3707,16.9316 L191.0257,16.9316 C191.1947,16.4426 191.5677,15.3726 192.1987,13.7336 C193.0947,13.7026 194.1897,13.6716 195.0517,13.6716 C196.0877,13.6716 196.9227,13.7026 197.9547,13.7336 C198.3357,14.7696 198.7357,15.8076 199.1107,16.9316 L202.4187,16.9316 C200.3487,11.8886 198.5337,7.0756 196.9227,2.4936" id="Fill-19" fill="#092648"></path>
                        <path d="M214.5693,16.9326 C213.0453,16.8736 211.4033,16.8736 209.8453,16.8736 C208.2963,16.8736 206.7983,16.8736 205.1843,16.9326 C205.2433,14.5096 205.2993,12.0346 205.2993,9.6086 C205.2993,7.2186 205.2433,4.8836 205.1843,2.4946 L208.2963,2.4946 C208.2373,4.7406 208.2093,7.3336 208.2093,9.6086 C208.2093,11.3976 208.2373,12.8956 208.2963,14.6816 L211.1163,14.6816 C212.3233,14.6816 213.6483,14.6816 214.5693,14.6266 L214.5693,16.9326 Z" id="Fill-21" fill="#092648"></path>
                        <path d="M226.0488,4.7685 C224.8048,4.7125 223.2818,4.6805 221.8148,4.6805 C221.7858,6.4965 221.7558,8.4305 221.7558,10.2435 C221.7558,12.4625 221.7858,14.7115 221.8148,16.9325 L218.7048,16.9325 C218.7638,14.7115 218.7918,12.5795 218.7918,10.3035 C218.7918,8.5125 218.7638,6.4395 218.7048,4.6805 C217.1508,4.6805 215.5948,4.7125 214.4728,4.7685 L214.4728,2.4945 C216.4028,2.5475 218.3328,2.5805 220.2568,2.5805 C222.1908,2.5805 224.1158,2.5475 226.0488,2.4945 L226.0488,4.7685 Z" id="Fill-23" fill="#092648"></path>
                        <path d="M235.7695,11.8154 C235.7375,12.5934 235.7375,13.2304 235.7375,13.7754 L235.8255,16.8324 L232.7155,16.8324 C232.7475,16.1094 232.7765,14.8714 232.7765,13.5704 C232.8065,12.2184 232.8065,10.7514 232.8065,10.4324 C231.3935,7.9264 229.5495,5.1294 227.6795,2.3924 L231.3055,2.3924 C232.3125,4.3254 233.4085,6.1664 234.5895,7.8654 C235.8515,6.1114 236.9775,4.2384 238.0425,2.3924 L240.8055,2.3924 C238.7345,5.5344 236.8615,8.4144 235.7945,10.4064 C235.7945,10.5794 235.7945,11.0414 235.7695,11.8154" id="Fill-25" fill="#092648"></path>
                        <path d="M116.4658,23.0683 L114.7828,23.0683 L114.7828,30.7463 L116.3288,30.7463 C118.7818,30.7463 120.6598,29.2703 120.6598,26.9103 C120.6598,24.7973 118.9228,23.0683 116.4658,23.0683 M116.6038,31.5483 L113.9008,31.5483 L113.9008,22.2693 L116.6038,22.2693 C119.3348,22.2693 121.5418,24.2293 121.5418,26.9103 C121.5418,29.6293 119.3478,31.5483 116.6038,31.5483" id="Fill-27" fill="#092648"></path>
                        <mask id="mask-2" fill="white">
                            <use xlink:href="#path-1"></use>
                        </mask>
                        <g id="Clip-30"></g>
                        <path d="M122.803,31.549 L123.6,31.549 L123.6,25.293 L122.803,25.293 L122.803,31.549 Z M123.201,24.035 L122.484,23.318 L123.201,22.601 L123.916,23.318 L123.201,24.035 Z" id="Fill-29" fill="#092648" mask="url(#mask-2)"></path>
                        <path d="M127.3828,25.8164 C126.2108,25.8164 125.7278,26.7444 125.7278,27.3804 C125.7278,28.3184 126.5558,28.8844 127.5058,28.8844 C128.7748,28.8844 129.2588,27.9604 129.2588,27.3804 C129.2588,26.3844 128.4448,25.8164 127.3828,25.8164 L127.3828,25.8164 Z M126.7198,31.3174 C125.7568,31.8684 125.1058,32.3084 125.1058,33.0954 C125.1058,33.6904 125.6998,34.3114 127.4518,34.3114 C128.9148,34.3114 129.8648,33.7864 129.8648,32.8334 C129.8648,31.8384 128.4038,31.7964 126.7198,31.3174 L126.7198,31.3174 Z M129.3978,25.9854 C129.7008,26.2874 130.0318,26.8674 130.0318,27.3804 C130.0318,28.5104 129.0088,29.5474 127.6038,29.5474 C127.2458,29.5474 126.9408,29.5054 126.6378,29.3954 C126.2238,29.6844 126.0048,29.8904 126.0048,30.1134 C126.0048,30.4174 126.1288,30.4874 128.1278,30.9154 C129.8518,31.2864 130.6388,31.7014 130.6388,32.8614 C130.6388,33.9814 129.4508,35.0004 127.4798,35.0004 C124.9128,35.0004 124.3348,33.7454 124.3348,33.0954 C124.3348,32.3764 124.8588,31.6174 125.9478,31.0804 C125.4238,30.8864 125.1888,30.6244 125.1888,30.2224 C125.1888,29.8084 125.5358,29.4914 126.0448,29.1594 C125.2858,28.7054 124.9528,28.0694 124.9528,27.3804 C124.9528,26.1344 126.0048,25.1274 127.4098,25.1274 C127.7408,25.1274 128.0728,25.1834 128.4038,25.2934 L130.7478,25.2934 L130.7478,25.9854 L129.3978,25.9854 Z" id="Fill-31" fill="#092648" mask="url(#mask-2)"></path>
                        <path d="M131.815,31.549 L132.617,31.549 L132.617,25.293 L131.815,25.293 L131.815,31.549 Z M132.216,24.035 L131.499,23.318 L132.216,22.601 L132.934,23.318 L132.216,24.035 Z" id="Fill-32" fill="#092648" mask="url(#mask-2)"></path>
                        <path d="M136.5732,31.7011 C135.7722,31.7011 134.6822,31.2861 134.6822,29.6011 L134.6822,25.9841 L133.7182,25.9841 L133.7182,25.2931 L134.6822,25.2931 L134.6822,23.7471 L135.4842,23.7471 L135.4842,25.2931 L137.7722,25.2931 L137.7722,25.9841 L135.4842,25.9841 L135.4842,29.5591 C135.4842,30.6801 136.1442,30.9961 136.7392,30.9961 C137.3042,30.9961 137.7172,30.8181 138.0622,30.5551 L138.0622,31.3281 C137.6352,31.5491 137.1252,31.7011 136.5732,31.7011" id="Fill-33" fill="#092648" mask="url(#mask-2)"></path>
                        <path d="M142.7549,28.413 C141.8859,28.413 140.7419,28.497 140.2299,28.773 C139.7889,29.009 139.5409,29.408 139.5409,29.892 C139.5409,30.637 140.1469,31.011 140.8519,31.011 C141.4989,31.011 142.1489,30.692 142.7549,30.156 L142.7549,28.413 Z M142.7549,31.548 L142.7549,30.888 C142.2729,31.3 141.6109,31.702 140.7689,31.702 C139.5809,31.702 138.7269,30.983 138.7269,29.935 C138.7269,29.422 138.9199,28.678 139.7889,28.192 C140.3809,27.862 141.5269,27.738 142.7549,27.738 L142.7549,27.324 C142.7549,26.107 142.0109,25.845 141.3349,25.845 C140.5759,25.845 139.7069,26.122 139.1679,26.397 L139.3349,25.611 C139.8859,25.374 140.6029,25.156 141.4589,25.156 C142.7259,25.156 143.5549,25.833 143.5549,27.283 L143.5549,31.548 L142.7549,31.548 Z" id="Fill-34" fill="#092648" mask="url(#mask-2)"></path>
                        <path d="M146.8413,31.7011 C145.9453,31.7011 144.9503,31.2861 144.9503,29.4911 L144.9503,22.2681 L145.7513,22.2681 L145.7513,29.5591 C145.7513,30.7891 146.4543,30.9821 146.9383,30.9821 C147.3233,30.9821 147.7373,30.8461 148.0403,30.5971 L148.0403,31.3681 C147.7373,31.5351 147.3503,31.7011 146.8413,31.7011" id="Fill-35" fill="#092648" mask="url(#mask-2)"></path>
                        <polygon id="Fill-36" fill="#092648" mask="url(#mask-2)" points="151.5332 31.5488 151.5332 22.2688 152.4152 22.2688 152.4152 30.7468 156.8312 30.7468 156.8312 31.5488"></polygon>
                        <path d="M157.895,31.549 L158.697,31.549 L158.697,25.293 L157.895,25.293 L157.895,31.549 Z M158.296,24.035 L157.581,23.318 L158.296,22.601 L159.014,23.318 L158.296,24.035 Z" id="Fill-37" fill="#092648" mask="url(#mask-2)"></path>
                        <path d="M162.1606,31.7168 C161.2766,31.7168 160.3386,31.3978 159.9656,31.2338 L159.9656,30.4298 C160.5466,30.7458 161.3886,30.9838 162.2296,30.9838 C163.1676,30.9838 163.6476,30.5418 163.6476,29.9358 C163.6476,29.6008 163.4686,29.3128 162.6296,28.9658 C160.9746,28.2768 160.6286,28.0958 160.4076,27.8738 C160.1876,27.6538 159.9656,27.3248 159.9656,26.8808 C159.9656,25.9438 160.7386,25.1558 162.2156,25.1558 C162.9726,25.1558 163.4286,25.3338 164.0366,25.5568 L164.0366,26.3438 C163.3296,26.0388 162.7826,25.8598 162.1336,25.8598 C161.2496,25.8598 160.7386,26.2868 160.7386,26.7978 C160.7386,27.1588 160.9046,27.4208 161.8006,27.7798 C163.3296,28.4008 163.5256,28.4968 163.8986,28.8018 C164.2426,29.0778 164.4346,29.4898 164.4346,29.9068 C164.4346,31.1358 163.2496,31.7168 162.1606,31.7168" id="Fill-38" fill="#092648" mask="url(#mask-2)"></path>
                        <path d="M167.8462,31.7011 C167.0462,31.7011 165.9572,31.2861 165.9572,29.6011 L165.9572,25.9841 L164.9892,25.9841 L164.9892,25.2931 L165.9572,25.2931 L165.9572,23.7471 L166.7562,23.7471 L166.7562,25.2931 L169.0452,25.2931 L169.0452,25.9841 L166.7562,25.9841 L166.7562,29.5591 C166.7562,30.6801 167.4172,30.9961 168.0122,30.9961 C168.5762,30.9961 168.9922,30.8181 169.3362,30.5551 L169.3362,31.3281 C168.9062,31.5491 168.3992,31.7011 167.8462,31.7011" id="Fill-39" fill="#092648" mask="url(#mask-2)"></path>
                        <path d="M175.7529,25.873 C174.1799,25.873 173.2709,27.114 173.2709,28.429 C173.2709,29.738 174.1799,30.984 175.7529,30.984 C177.3239,30.984 178.2379,29.738 178.2379,28.429 C178.2379,27.114 177.3239,25.873 175.7529,25.873 M175.7529,31.701 C173.8089,31.701 172.4569,30.1 172.4569,28.429 C172.4569,26.758 173.8089,25.155 175.7529,25.155 C177.6969,25.155 179.0499,26.758 179.0499,28.429 C179.0499,30.1 177.6969,31.701 175.7529,31.701" id="Fill-40" fill="#092648" mask="url(#mask-2)"></path>
                        <path d="M182.6601,22.8349 C181.9851,22.8349 181.4041,23.0579 181.4041,24.2569 L181.4041,25.2929 L183.4601,25.2929 L183.4601,25.9839 L181.4041,25.9839 L181.4041,31.5489 L180.6051,31.5489 L180.6051,25.9839 L179.6541,25.9839 L179.6541,25.2929 L180.6051,25.2929 L180.6051,24.3259 C180.6051,22.7249 181.4611,22.1159 182.6331,22.1159 C183.0341,22.1159 183.4051,22.2009 183.7501,22.3389 L183.7501,23.1109 C183.4871,22.9869 183.0891,22.8349 182.6601,22.8349" id="Fill-41" fill="#092648" mask="url(#mask-2)"></path>
                        <polygon id="Fill-42" fill="#092648" mask="url(#mask-2)" points="187.2158 31.5488 187.2158 22.2688 188.0998 22.2688 188.0998 30.7468 192.5128 30.7468 192.5128 31.5488"></polygon>
                        <path d="M193.65,31.549 L194.45,31.549 L194.45,25.293 L193.65,25.293 L193.65,31.549 Z M194.05,24.035 L193.333,23.318 L194.05,22.601 L194.767,23.318 L194.05,24.035 Z" id="Fill-43" fill="#092648" mask="url(#mask-2)"></path>
                        <path d="M198.3711,25.8164 C197.1971,25.8164 196.7171,26.7444 196.7171,27.3804 C196.7171,28.3184 197.5441,28.8844 198.4971,28.8844 C199.7671,28.8844 200.2471,27.9604 200.2471,27.3804 C200.2471,26.3844 199.4321,25.8164 198.3711,25.8164 L198.3711,25.8164 Z M197.7081,31.3174 C196.7431,31.8684 196.0941,32.3084 196.0941,33.0954 C196.0941,33.6904 196.6881,34.3114 198.4401,34.3114 C199.9031,34.3114 200.8531,33.7864 200.8531,32.8334 C200.8531,31.8384 199.3921,31.7964 197.7081,31.3174 L197.7081,31.3174 Z M200.3861,25.9854 C200.6871,26.2874 201.0191,26.8674 201.0191,27.3804 C201.0191,28.5104 199.9991,29.5474 198.5931,29.5474 C198.2341,29.5474 197.9301,29.5054 197.6261,29.3954 C197.2121,29.6844 196.9931,29.8904 196.9931,30.1134 C196.9931,30.4174 197.1151,30.4874 199.1151,30.9154 C200.8421,31.2864 201.6251,31.7014 201.6251,32.8614 C201.6251,33.9814 200.4391,35.0004 198.4691,35.0004 C195.9011,35.0004 195.3231,33.7454 195.3231,33.0954 C195.3231,32.3764 195.8461,31.6174 196.9361,31.0804 C196.4121,30.8864 196.1781,30.6244 196.1781,30.2224 C196.1781,29.8084 196.5231,29.4914 197.0331,29.1594 C196.2731,28.7054 195.9411,28.0694 195.9411,27.3804 C195.9411,26.1344 196.9931,25.1274 198.3981,25.1274 C198.7291,25.1274 199.0611,25.1834 199.3921,25.2934 L201.7361,25.2934 L201.7361,25.9854 L200.3861,25.9854 Z" id="Fill-44" fill="#092648" mask="url(#mask-2)"></path>
                        <path d="M207.3984,31.5488 L207.3984,27.6538 C207.3984,26.4678 206.4594,25.8738 205.5224,25.8738 C204.6944,25.8738 204.0454,26.3008 203.5634,26.7318 L203.5634,31.5488 L202.7614,31.5488 L202.7614,22.2688 L203.5634,22.2688 L203.5634,25.9728 C204.0184,25.6118 204.7354,25.1548 205.6344,25.1548 C206.9694,25.1548 208.1974,26.0248 208.1974,27.7228 L208.1974,31.5488 L207.3984,31.5488 Z" id="Fill-45" fill="#092648" mask="url(#mask-2)"></path>
                        <path d="M211.8389,31.7011 C211.0379,31.7011 209.9489,31.2861 209.9489,29.6011 L209.9489,25.9841 L208.9819,25.9841 L208.9819,25.2931 L209.9489,25.2931 L209.9489,23.7471 L210.7489,23.7471 L210.7489,25.2931 L213.0399,25.2931 L213.0399,25.9841 L210.7489,25.9841 L210.7489,29.5591 C210.7489,30.6801 211.4099,30.9961 212.0049,30.9961 C212.5699,30.9961 212.9849,30.8181 213.3289,30.5551 L213.3289,31.3281 C212.9009,31.5491 212.3899,31.7011 211.8389,31.7011" id="Fill-46" fill="#092648" mask="url(#mask-2)"></path>
                        <path d="M216.459,31.7168 C215.576,31.7168 214.637,31.3978 214.264,31.2338 L214.264,30.4298 C214.843,30.7458 215.687,30.9838 216.526,30.9838 C217.466,30.9838 217.946,30.5418 217.946,29.9358 C217.946,29.6008 217.768,29.3128 216.927,28.9658 C215.272,28.2768 214.927,28.0958 214.704,27.8738 C214.484,27.6538 214.264,27.3248 214.264,26.8808 C214.264,25.9438 215.037,25.1558 216.513,25.1558 C217.271,25.1558 217.728,25.3338 218.335,25.5568 L218.335,26.3438 C217.63,26.0388 217.079,25.8598 216.431,25.8598 C215.548,25.8598 215.037,26.2868 215.037,26.7978 C215.037,27.1588 215.203,27.4208 216.1,27.7798 C217.63,28.4008 217.822,28.4968 218.196,28.8018 C218.541,29.0778 218.733,29.4898 218.733,29.9068 C218.733,31.1358 217.548,31.7168 216.459,31.7168" id="Fill-47" fill="#092648" mask="url(#mask-2)"></path>
                    </g>
                </g>
            </g>
        </g>
    </g>
</svg>