<?xml version="1.0" encoding="UTF-8"?>
<svg width="242px" height="35px" viewBox="0 0 242 35" version="1.1" xmlns="http://www.w3.org/2000/svg" xmlns:xlink="http://www.w3.org/1999/xlink">
    <!-- Generator: Sketch 55.1 (78136) - https://sketchapp.com -->
    <title>1: Atoms / logos / Admiralty / Product / Digital Radio Signals</title>
    <desc>Created with Sketch.</desc>
    <defs>
        <polygon id="path-1" points="0.9432 0.3951 14.083 0.3951 14.083 14.8321 0.9432 14.8321"></polygon>
        <polygon id="path-3" points="0 35 241.083 35 241.083 0 0 0"></polygon>
    </defs>
    <g id="-" stroke="none" stroke-width="1" fill="none" fill-rule="evenodd">
        <g id="1_00119009-UKHO-Styles-1" transform="translate(-395.000000, -3131.000000)">
            <g id="1:-Atoms-/-logos-/-Admiralty-/-Product-/-Digital-Radio-Signals" transform="translate(395.000000, 3131.000000)">
                <g id="Group-50" transform="translate(0.000000, -1.000000)">
                    <polygon id="Fill-1" fill="#6DC8E6" points="0 34.88 101.642 34.88 101.642 0.999 0 0.999"></polygon>
                    <path d="M25.6105,14.0837 L23.5825,19.7167 L27.6135,19.7167 L25.6105,14.0837 Z M29.9655,26.2787 L28.7385,22.8207 L22.4555,22.8207 L21.2285,26.2787 L17.3985,26.2787 L23.9315,9.4517 L27.2625,9.4517 L33.7975,26.2787 L29.9655,26.2787 Z" id="Fill-2" fill="#FFFFFE"></path>
                    <g id="Group-49" transform="translate(0.000000, 1.000000)">
                        <path d="M45.3098,12.0398 L42.6678,12.0398 L42.6678,21.7398 L44.8298,21.7398 C48.0478,21.7398 50.2578,19.5558 50.2578,16.8918 C50.2578,14.3448 48.5998,12.0398 45.3098,12.0398 M45.1188,24.9608 L39.2108,24.9608 L39.2108,8.8198 L45.3818,8.8198 C50.8808,8.8198 53.9548,13.0968 53.9548,16.8918 C53.9548,20.3708 51.3608,24.9608 45.1188,24.9608" id="Fill-3" fill="#FFFFFE"></path>
                        <path d="M60.8933,12.0398 L59.3563,12.0398 L59.3563,15.8088 L60.8453,15.8088 C62.5013,15.8088 63.1263,14.9208 63.1263,13.8878 C63.1263,12.7608 62.3343,12.0398 60.8933,12.0398 L60.8933,12.0398 Z M64.9033,24.9608 L60.6283,18.9078 L59.3563,18.9078 L59.3563,24.9608 L55.8973,24.9608 L55.8973,8.8198 L61.2283,8.8198 C65.7193,8.8198 66.5853,12.2798 66.5853,13.8178 C66.5853,15.8578 65.4323,17.2018 64.0153,18.0188 L69.2493,24.9608 L64.9033,24.9608 Z" id="Fill-5" fill="#FFFFFE"></path>
                        <path d="M74.7971,25.2956 C71.7471,25.2956 70.0901,23.2316 69.2501,21.4296 L72.2981,19.8196 C72.5631,20.8526 73.1881,22.1736 74.8211,22.1736 C75.7811,22.1736 76.7181,21.4046 76.7181,20.3236 C76.7181,17.5626 69.9471,17.9946 69.9471,13.1206 C69.9471,10.7176 72.0591,8.4846 74.9171,8.4846 C76.8621,8.4846 78.6401,9.4696 79.7911,11.3446 L76.9101,12.9516 C76.5021,12.2316 75.8051,11.6316 74.9171,11.6316 C73.9811,11.6316 73.4511,12.1586 73.4511,12.8796 C73.4511,15.0166 80.3201,14.7286 80.3201,19.9656 C80.3201,22.4376 78.4231,25.2956 74.7971,25.2956" id="Fill-7" fill="#FFFFFE"></path>
                        <path d="M120.7961,11.6003 C120.2201,11.6003 119.2681,11.5743 118.7191,11.5433 C119.4981,9.5833 120.1021,7.7973 120.8841,6.0133 C121.6621,7.7973 122.7311,10.9663 122.9581,11.5433 C122.1521,11.5743 121.5751,11.6003 120.7961,11.6003 M122.6711,2.4983 L119.5851,2.4983 C117.6821,7.7683 115.8381,12.5823 114.1081,16.9313 L116.7601,16.9313 C116.9311,16.4423 117.3091,15.3743 117.9391,13.7333 C118.8361,13.7033 119.9271,13.6743 120.7961,13.6743 C121.8351,13.6743 122.6711,13.7033 123.7071,13.7333 C124.0821,14.7693 124.4861,15.8063 124.8631,16.9313 L128.1761,16.9313 C126.1011,11.8873 124.2841,7.0783 122.6711,2.4983" id="Fill-9" fill="#092648"></path>
                        <path d="M136.4382,14.6814 L134.1592,14.6814 C134.0732,13.0414 134.0732,11.5184 134.0732,9.8414 C134.0732,8.2004 134.0732,6.4144 134.1592,4.7444 L136.4382,4.7444 C138.9422,4.7444 141.0512,6.3854 141.0512,9.7004 C141.0512,13.0414 138.9422,14.6814 136.4382,14.6814 M136.4072,2.4974 L131.0762,2.4974 C131.1352,4.9164 131.1662,7.4244 131.1662,9.8154 C131.1662,12.2364 131.1352,14.5394 131.0762,16.9304 L136.4072,16.9304 C142.5192,16.9304 144.2492,12.6374 144.2492,9.7264 C144.2492,6.7904 142.5192,2.4974 136.4072,2.4974" id="Fill-11" fill="#092648"></path>
                        <path d="M150.0109,16.9314 C149.9519,15.1724 149.9279,12.9534 149.9279,11.3154 C149.9279,9.6724 149.9519,8.6934 150.0109,7.0494 C151.5399,9.1804 152.9499,11.3404 154.2499,13.5304 L154.6499,13.5304 C155.8629,11.6014 157.3609,9.3254 159.0029,6.7614 C159.0319,8.3724 159.0909,9.9294 159.0909,11.4544 C159.0909,13.3274 159.0609,15.3464 159.0029,16.9314 L162.0599,16.9314 C162.0019,14.5404 161.9419,12.1794 161.9419,9.7554 C161.9419,7.3654 162.0019,4.9154 162.0599,2.4984 L158.9189,2.4984 C157.5329,4.8874 156.1229,7.1334 154.8249,8.9804 C153.2969,6.8744 151.8859,4.7434 150.5909,2.4984 L147.3619,2.4984 C147.4179,5.0014 147.5069,7.4804 147.5069,9.8734 C147.5069,12.2914 147.4179,14.6254 147.3619,16.9314 L150.0109,16.9314 Z" id="Fill-13" fill="#092648"></path>
                        <path d="M169.9812,16.9314 C169.8962,15.4584 169.8962,12.0894 169.8962,9.6724 C169.8962,7.3954 169.8962,3.9944 169.9812,2.4984 L166.8712,2.4984 C166.9582,3.9944 166.9582,7.3954 166.9582,9.6724 C166.9582,12.0894 166.9582,15.4584 166.8712,16.9314 L169.9812,16.9314 Z" id="Fill-15" fill="#092648"></path>
                        <path d="M179.6389,9.0925 L177.7949,9.0925 C177.7639,8.3465 177.7639,7.5955 177.7639,6.8465 C177.7639,6.0955 177.7639,5.3485 177.7949,4.5995 L179.6389,4.5995 C180.9929,4.5995 182.1749,5.2915 182.1749,6.8465 C182.1749,8.4045 180.9929,9.0925 179.6389,9.0925 M182.6909,10.6785 C184.5069,9.8425 185.1429,8.1135 185.1429,6.8465 C185.1429,5.1175 183.9299,2.4985 180.1289,2.4985 L174.7959,2.4985 C174.8559,5.0015 174.9099,7.4805 174.9099,9.8735 C174.9099,12.2915 174.8559,14.6255 174.7959,16.9315 L177.7949,16.9315 C177.7639,15.8925 177.7369,14.8255 177.7369,13.7885 C177.7369,12.9275 177.7639,12.0615 177.7949,11.1965 L179.6389,11.1965 C181.1089,13.3275 182.3729,15.2895 183.3249,16.9315 L186.8429,16.9315 C185.3159,14.8255 183.9049,12.6965 182.6909,10.6785" id="Fill-17" fill="#092648"></path>
                        <path d="M195.2795,11.6003 C194.7035,11.6003 193.7515,11.5713 193.2055,11.5433 C193.9815,9.5833 194.5885,7.7973 195.3645,6.0113 C196.1405,7.7973 197.2085,10.9663 197.4415,11.5433 C196.6325,11.5713 196.0565,11.6003 195.2795,11.6003 M197.1515,2.4983 L194.0685,2.4983 C192.1685,7.7683 190.3225,12.5823 188.5905,16.9313 L191.2465,16.9313 C191.4155,16.4403 191.7915,15.3713 192.4225,13.7333 C193.3195,13.7033 194.4155,13.6713 195.2795,13.6713 C196.3155,13.6713 197.1515,13.7033 198.1855,13.7333 C198.5655,14.7693 198.9665,15.8063 199.3415,16.9313 L202.6545,16.9313 C200.5815,11.8873 198.7645,7.0783 197.1515,2.4983" id="Fill-19" fill="#092648"></path>
                        <path d="M214.8166,16.9314 C213.2906,16.8714 211.6486,16.8714 210.0906,16.8714 C208.5346,16.8714 207.0396,16.8714 205.4226,16.9314 C205.4796,14.5094 205.5396,12.0354 205.5396,9.6114 C205.5396,7.2234 205.4796,4.8874 205.4226,2.4984 L208.5346,2.4984 C208.4776,4.7434 208.4496,7.3364 208.4496,9.6114 C208.4496,11.3974 208.4776,12.8974 208.5346,14.6824 L211.3616,14.6824 C212.5696,14.6824 213.8946,14.6824 214.8166,14.6254 L214.8166,16.9314 Z" id="Fill-21" fill="#092648"></path>
                        <path d="M226.3088,4.7722 C225.0648,4.7152 223.5408,4.6842 222.0718,4.6842 C222.0428,6.5002 222.0108,8.4312 222.0108,10.2452 C222.0108,12.4652 222.0428,14.7102 222.0718,16.9312 L218.9588,16.9312 C219.0158,14.7102 219.0458,12.5822 219.0458,10.3062 C219.0458,8.5152 219.0158,6.4442 218.9588,4.6842 C217.4028,4.6842 215.8428,4.7152 214.7198,4.7722 L214.7198,2.4992 C216.6538,2.5522 218.5828,2.5842 220.5118,2.5842 C222.4478,2.5842 224.3738,2.5522 226.3088,2.4992 L226.3088,4.7722 Z" id="Fill-23" fill="#092648"></path>
                        <g id="Group-27" transform="translate(227.000000, 2.000000)">
                            <mask id="mask-2" fill="white">
                                <use xlink:href="#path-1"></use>
                            </mask>
                            <g id="Clip-26"></g>
                            <path d="M9.0412,9.8171 C9.0092,10.5951 9.0092,11.2291 9.0092,11.7741 L9.0992,14.8321 L5.9832,14.8321 C6.0162,14.1091 6.0452,12.8711 6.0452,11.5721 C6.0732,10.2201 6.0732,8.7521 6.0732,8.4331 C4.6602,5.9291 2.8142,3.1331 0.9432,0.3951 L4.5722,0.3951 C5.5822,2.3281 6.6792,4.1701 7.8602,5.8681 C9.1242,4.1141 10.2512,2.2441 11.3182,0.3951 L14.0832,0.3951 C12.0082,3.5371 10.1352,6.4171 9.0682,8.4071 C9.0682,8.5821 9.0682,9.0411 9.0412,9.8171" id="Fill-25" fill="#092648" mask="url(#mask-2)"></path>
                        </g>
                        <path d="M116.5964,23.07 L114.9114,23.07 L114.9114,30.748 L116.4584,30.748 C118.9154,30.748 120.7944,29.27 120.7944,26.91 C120.7944,24.798 119.0544,23.07 116.5964,23.07 M116.7354,31.549 L114.0274,31.549 L114.0274,22.27 L116.7354,22.27 C119.4684,22.27 121.6784,24.232 121.6784,26.91 C121.6784,29.63 119.4824,31.549 116.7354,31.549" id="Fill-28" fill="#092648"></path>
                        <mask id="mask-4" fill="white">
                            <use xlink:href="#path-3"></use>
                        </mask>
                        <g id="Clip-31"></g>
                        <path d="M122.8,31.55 L123.602,31.55 L123.602,25.295 L122.8,25.295 L122.8,31.55 Z M123.202,24.038 L122.483,23.32 L123.202,22.601 L123.919,23.32 L123.202,24.038 Z" id="Fill-30" fill="#092648" mask="url(#mask-4)"></path>
                        <path d="M127.3171,25.8181 C126.1431,25.8181 125.6601,26.7441 125.6601,27.3801 C125.6601,28.3171 126.4881,28.8831 127.4411,28.8831 C128.7121,28.8831 129.1951,27.9601 129.1951,27.3801 C129.1951,26.3841 128.3801,25.8181 127.3171,25.8181 L127.3171,25.8181 Z M126.6541,31.3141 C125.6871,31.8681 125.0381,32.3071 125.0381,33.0951 C125.0381,33.6901 125.6331,34.3101 127.3851,34.3101 C128.8491,34.3101 129.8031,33.7861 129.8031,32.8341 C129.8031,31.8381 128.3381,31.7971 126.6541,31.3141 L126.6541,31.3141 Z M129.3321,25.9841 C129.6361,26.2881 129.9661,26.8661 129.9661,27.3801 C129.9661,28.5121 128.9461,29.5471 127.5381,29.5471 C127.1781,29.5471 126.8761,29.5061 126.5721,29.3961 C126.1561,29.6841 125.9351,29.8921 125.9351,30.1141 C125.9351,30.4191 126.0611,30.4881 128.0631,30.9141 C129.7901,31.2881 130.5751,31.6991 130.5751,32.8621 C130.5751,33.9801 129.3881,35.0001 127.4111,35.0001 C124.8451,35.0001 124.2651,33.7461 124.2651,33.0951 C124.2651,32.3781 124.7901,31.6181 125.8811,31.0801 C125.3571,30.8861 125.1221,30.6251 125.1221,30.2241 C125.1221,29.8091 125.4671,29.4901 125.9771,29.1621 C125.2171,28.7061 124.8861,28.0701 124.8861,27.3801 C124.8861,26.1351 125.9351,25.1281 127.3451,25.1281 C127.6751,25.1281 128.0061,25.1841 128.3381,25.2951 L130.6871,25.2951 L130.6871,25.9841 L129.3321,25.9841 Z" id="Fill-32" fill="#092648" mask="url(#mask-4)"></path>
                        <path d="M131.683,31.55 L132.485,31.55 L132.485,25.295 L131.683,25.295 L131.683,31.55 Z M132.084,24.038 L131.366,23.32 L132.084,22.601 L132.801,23.32 L132.084,24.038 Z" id="Fill-33" fill="#092648" mask="url(#mask-4)"></path>
                        <path d="M136.3776,31.6989 C135.5796,31.6989 134.4856,31.2879 134.4856,29.6029 L134.4856,25.9849 L133.5206,25.9849 L133.5206,25.2959 L134.4856,25.2959 L134.4856,23.7479 L135.2876,23.7479 L135.2876,25.2959 L137.5796,25.2959 L137.5796,25.9849 L135.2876,25.9849 L135.2876,29.5579 C135.2876,30.6779 135.9496,30.9969 136.5436,30.9969 C137.1096,30.9969 137.5236,30.8189 137.8696,30.5549 L137.8696,31.3269 C137.4406,31.5499 136.9326,31.6989 136.3776,31.6989" id="Fill-34" fill="#092648" mask="url(#mask-4)"></path>
                        <path d="M142.6296,28.4157 C141.7626,28.4157 140.6166,28.4977 140.1056,28.7727 C139.6646,29.0107 139.4146,29.4097 139.4146,29.8927 C139.4146,30.6387 140.0216,31.0107 140.7266,31.0107 C141.3746,31.0107 142.0226,30.6937 142.6296,30.1557 L142.6296,28.4157 Z M142.6296,31.5497 L142.6296,30.8867 C142.1496,31.3007 141.4856,31.6987 140.6426,31.6987 C139.4566,31.6987 138.5996,30.9817 138.5996,29.9347 C138.5996,29.4237 138.7946,28.6777 139.6646,28.1917 C140.2566,27.8617 141.4036,27.7397 142.6296,27.7397 L142.6296,27.3247 C142.6296,26.1077 141.8846,25.8467 141.2096,25.8467 C140.4496,25.8467 139.5796,26.1247 139.0416,26.3977 L139.2086,25.6117 C139.7586,25.3767 140.4776,25.1567 141.3346,25.1567 C142.6026,25.1567 143.4326,25.8347 143.4326,27.2837 L143.4326,31.5497 L142.6296,31.5497 Z" id="Fill-35" fill="#092648" mask="url(#mask-4)"></path>
                        <path d="M146.7204,31.6989 C145.8234,31.6989 144.8304,31.2879 144.8304,29.4909 L144.8304,22.2709 L145.6294,22.2709 L145.6294,29.5579 C145.6294,30.7889 146.3334,30.9829 146.8194,30.9829 C147.2044,30.9829 147.6174,30.8449 147.9244,30.5969 L147.9244,31.3689 C147.6174,31.5349 147.2334,31.6989 146.7204,31.6989" id="Fill-36" fill="#092648" mask="url(#mask-4)"></path>
                        <path d="M153.6672,23.07 L152.0942,23.07 L152.0942,26.385 L153.8752,26.385 C155.1052,26.385 155.6722,25.694 155.6722,24.658 C155.6722,23.9 155.1182,23.07 153.6672,23.07 L153.6672,23.07 Z M156.7622,31.549 L153.6152,27.186 L152.0942,27.186 L152.0942,31.549 L151.2102,31.549 L151.2102,22.27 L153.6002,22.27 C155.8102,22.27 156.5542,23.709 156.5542,24.632 C156.5542,25.764 155.9742,26.799 154.6362,27.102 L157.8522,31.549 L156.7622,31.549 Z" id="Fill-37" fill="#092648" mask="url(#mask-4)"></path>
                        <path d="M162.2902,28.4157 C161.4202,28.4157 160.2712,28.4977 159.7632,28.7727 C159.3192,29.0107 159.0712,29.4097 159.0712,29.8927 C159.0712,30.6387 159.6782,31.0107 160.3852,31.0107 C161.0312,31.0107 161.6812,30.6937 162.2902,30.1557 L162.2902,28.4157 Z M162.2902,31.5497 L162.2902,30.8867 C161.8062,31.3007 161.1432,31.6987 160.3012,31.6987 C159.1112,31.6987 158.2572,30.9817 158.2572,29.9347 C158.2572,29.4237 158.4522,28.6777 159.3192,28.1917 C159.9142,27.8617 161.0602,27.7397 162.2902,27.7397 L162.2902,27.3247 C162.2902,26.1077 161.5442,25.8467 160.8672,25.8467 C160.1072,25.8467 159.2382,26.1247 158.6992,26.3977 L158.8642,25.6117 C159.4152,25.3767 160.1342,25.1567 160.9922,25.1567 C162.2612,25.1567 163.0882,25.8347 163.0882,27.2837 L163.0882,31.5497 L162.2902,31.5497 Z" id="Fill-38" fill="#092648" mask="url(#mask-4)"></path>
                        <path d="M169.2087,26.5232 C168.6457,26.1352 167.9547,25.8742 167.4277,25.8742 C165.9107,25.8742 164.9837,27.0762 164.9837,28.4302 C164.9837,29.7402 165.8547,30.9832 167.4277,30.9832 C168.1457,30.9832 168.8227,30.6092 169.2087,30.2112 L169.2087,26.5232 Z M169.2657,31.5492 L169.2657,30.9132 C168.6837,31.4942 167.8557,31.6992 167.4277,31.6992 C165.4797,31.6992 164.1687,30.0992 164.1687,28.4302 C164.1687,26.7322 165.5357,25.1582 167.4277,25.1582 C167.9387,25.1582 168.6567,25.3772 169.2087,25.7642 L169.2087,22.2702 L170.0097,22.2702 L170.0097,31.5492 L169.2657,31.5492 Z" id="Fill-39" fill="#092648" mask="url(#mask-4)"></path>
                        <path d="M171.532,31.55 L172.333,31.55 L172.333,25.295 L171.532,25.295 L171.532,31.55 Z M171.932,24.038 L171.215,23.32 L171.932,22.601 L172.649,23.32 L171.932,24.038 Z" id="Fill-40" fill="#092648" mask="url(#mask-4)"></path>
                        <path d="M176.8352,25.8737 C175.2612,25.8737 174.3502,27.1167 174.3502,28.4307 C174.3502,29.7397 175.2612,30.9837 176.8352,30.9837 C178.4092,30.9837 179.3202,29.7397 179.3202,28.4307 C179.3202,27.1167 178.4092,25.8737 176.8352,25.8737 M176.8352,31.6997 C174.8902,31.6997 173.5352,30.1007 173.5352,28.4307 C173.5352,26.7567 174.8902,25.1567 176.8352,25.1567 C178.7822,25.1567 180.1362,26.7567 180.1362,28.4307 C180.1362,30.1007 178.7822,31.6997 176.8352,31.6997" id="Fill-41" fill="#092648" mask="url(#mask-4)"></path>
                        <path d="M186.2844,31.6989 C184.7504,31.6989 184.0224,30.8589 183.5644,29.8909 L184.2814,29.5049 C184.6814,30.3469 185.2904,30.9129 186.3114,30.9129 C187.5404,30.9129 188.1504,29.9489 188.1504,29.0629 C188.1504,27.0609 184.0494,26.5229 184.0494,24.1899 C184.0494,23.0989 184.9174,22.1179 186.3814,22.1179 C187.0284,22.1179 187.8584,22.3929 188.4794,23.2769 L187.8454,23.7889 C187.5404,23.2769 186.9744,22.9049 186.3414,22.9049 C185.5114,22.9049 184.9584,23.4709 184.9584,24.1619 C184.9584,25.8729 189.0594,26.5629 189.0594,29.0099 C189.0594,30.5829 187.8044,31.6989 186.2844,31.6989" id="Fill-42" fill="#092648" mask="url(#mask-4)"></path>
                        <path d="M190.345,31.55 L191.147,31.55 L191.147,25.295 L190.345,25.295 L190.345,31.55 Z M190.746,24.038 L190.029,23.32 L190.746,22.601 L191.465,23.32 L190.746,24.038 Z" id="Fill-43" fill="#092648" mask="url(#mask-4)"></path>
                        <path d="M195.0002,25.8181 C193.8262,25.8181 193.3442,26.7441 193.3442,27.3801 C193.3442,28.3171 194.1722,28.8831 195.1242,28.8831 C196.3962,28.8831 196.8782,27.9601 196.8782,27.3801 C196.8782,26.3841 196.0622,25.8181 195.0002,25.8181 L195.0002,25.8181 Z M194.3382,31.3141 C193.3722,31.8681 192.7222,32.3071 192.7222,33.0951 C192.7222,33.6901 193.3172,34.3101 195.0702,34.3101 C196.5322,34.3101 197.4842,33.7861 197.4842,32.8341 C197.4842,31.8381 196.0222,31.7971 194.3382,31.3141 L194.3382,31.3141 Z M197.0172,25.9841 C197.3222,26.2881 197.6542,26.8661 197.6542,27.3801 C197.6542,28.5121 196.6302,29.5471 195.2212,29.5471 C194.8622,29.5471 194.5592,29.5061 194.2552,29.3961 C193.8412,29.6841 193.6202,29.8921 193.6202,30.1141 C193.6202,30.4191 193.7442,30.4881 195.7462,30.9141 C197.4752,31.2881 198.2612,31.6991 198.2612,32.8621 C198.2612,33.9801 197.0702,35.0001 195.0972,35.0001 C192.5302,35.0001 191.9482,33.7461 191.9482,33.0951 C191.9482,32.3781 192.4762,31.6181 193.5662,31.0801 C193.0402,30.8861 192.8072,30.6251 192.8072,30.2241 C192.8072,29.8091 193.1502,29.4901 193.6602,29.1621 C192.9022,28.7061 192.5702,28.0701 192.5702,27.3801 C192.5702,26.1351 193.6202,25.1281 195.0282,25.1281 C195.3612,25.1281 195.6922,25.1841 196.0222,25.2951 L198.3702,25.2951 L198.3702,25.9841 L197.0172,25.9841 Z" id="Fill-44" fill="#092648" mask="url(#mask-4)"></path>
                        <path d="M204.0363,31.5495 L204.0363,27.6555 C204.0363,26.4685 203.0973,25.8735 202.1613,25.8735 C201.3293,25.8735 200.6823,26.3045 200.2003,26.7325 L200.2003,31.5495 L199.3963,31.5495 L199.3963,25.2945 L200.2003,25.2945 L200.2003,25.9705 C200.6533,25.6125 201.3733,25.1575 202.2693,25.1575 C203.6083,25.1575 204.8373,26.0265 204.8373,27.7235 L204.8373,31.5495 L204.0363,31.5495 Z" id="Fill-45" fill="#092648" mask="url(#mask-4)"></path>
                        <path d="M209.8547,28.4157 C208.9847,28.4157 207.8357,28.4977 207.3287,28.7727 C206.8837,29.0107 206.6357,29.4097 206.6357,29.8927 C206.6357,30.6387 207.2437,31.0107 207.9477,31.0107 C208.5957,31.0107 209.2467,30.6937 209.8547,30.1557 L209.8547,28.4157 Z M209.8547,31.5497 L209.8547,30.8867 C209.3707,31.3007 208.7087,31.6987 207.8667,31.6987 C206.6777,31.6987 205.8227,30.9817 205.8227,29.9347 C205.8227,29.4237 206.0157,28.6777 206.8837,28.1917 C207.4797,27.8617 208.6247,27.7397 209.8547,27.7397 L209.8547,27.3247 C209.8547,26.1077 209.1087,25.8467 208.4327,25.8467 C207.6737,25.8467 206.8017,26.1247 206.2637,26.3977 L206.4297,25.6117 C206.9827,25.3767 207.6997,25.1567 208.5567,25.1567 C209.8257,25.1567 210.6537,25.8347 210.6537,27.2837 L210.6537,31.5497 L209.8547,31.5497 Z" id="Fill-46" fill="#092648" mask="url(#mask-4)"></path>
                        <path d="M214.0803,31.6989 C213.1833,31.6989 212.1903,31.2879 212.1903,29.4909 L212.1903,22.2709 L212.9883,22.2709 L212.9883,29.5579 C212.9883,30.7889 213.6943,30.9829 214.1773,30.9829 C214.5643,30.9829 214.9803,30.8449 215.2823,30.5969 L215.2823,31.3689 C214.9803,31.5349 214.5903,31.6989 214.0803,31.6989" id="Fill-47" fill="#092648" mask="url(#mask-4)"></path>
                        <path d="M218.4055,31.7155 C217.5215,31.7155 216.5815,31.3955 216.2095,31.2315 L216.2095,30.4305 C216.7905,30.7475 217.6325,30.9825 218.4735,30.9825 C219.4135,30.9825 219.8955,30.5415 219.8955,29.9345 C219.8955,29.6025 219.7155,29.3125 218.8755,28.9675 C217.2175,28.2765 216.8725,28.0985 216.6515,27.8755 C216.4295,27.6555 216.2095,27.3245 216.2095,26.8825 C216.2095,25.9425 216.9835,25.1565 218.4625,25.1565 C219.2185,25.1565 219.6765,25.3355 220.2835,25.5585 L220.2835,26.3435 C219.5795,26.0405 219.0255,25.8615 218.3775,25.8615 C217.4945,25.8615 216.9835,26.2875 216.9835,26.7995 C216.9835,27.1595 217.1505,27.4205 218.0465,27.7795 C219.5795,28.4005 219.7715,28.4975 220.1435,28.8015 C220.4895,29.0775 220.6825,29.4895 220.6825,29.9075 C220.6825,31.1355 219.4955,31.7155 218.4055,31.7155" id="Fill-48" fill="#092648" mask="url(#mask-4)"></path>
                    </g>
                </g>
            </g>
        </g>
    </g>
</svg>