<?xml version="1.0" encoding="UTF-8"?>
<svg width="244px" height="35px" viewBox="0 0 244 35" version="1.1" xmlns="http://www.w3.org/2000/svg" xmlns:xlink="http://www.w3.org/1999/xlink">
    <!-- Generator: Sketch 55.1 (78136) - https://sketchapp.com -->
    <title>1: Atoms / logos / Admiralty / Product / Passage Planner</title>
    <desc>Created with Sketch.</desc>
    <defs>
        <polygon id="path-1" points="0.1509 0.4051 13.424 0.4051 13.424 14.9901 0.1509 14.9901"></polygon>
        <polygon id="path-3" points="0 35 243.424 35 243.424 0 0 0"></polygon>
    </defs>
    <g id="-" stroke="none" stroke-width="1" fill="none" fill-rule="evenodd">
        <g id="1_00119009-UKHO-Styles-1" transform="translate(-703.000000, -2940.000000)">
            <g id="1:-Atoms-/-logos-/-Admiralty-/-Product-/-Passage-Planner" transform="translate(703.000000, 2940.000000)">
                <g id="Group-53">
                    <path d="M121.9159,11.7054 C121.3339,11.7054 120.3729,11.6794 119.8179,11.6494 C120.6059,9.6684 121.2149,7.8634 122.0069,6.0624 C122.7909,7.8634 123.8689,11.0644 124.0999,11.6494 C123.2859,11.6794 122.7039,11.7054 121.9159,11.7054 M123.8119,2.5094 L120.6919,2.5094 C118.7709,7.8334 116.9059,12.6984 115.1609,17.0914 L117.8399,17.0914 C118.0109,16.6004 118.3919,15.5214 119.0309,13.8614 C119.9369,13.8304 121.0379,13.8034 121.9159,13.8034 C122.9629,13.8034 123.8119,13.8304 124.8569,13.8614 C125.2349,14.9074 125.6449,15.9564 126.0219,17.0914 L129.3729,17.0914 C127.2749,11.9984 125.4369,7.1364 123.8119,2.5094" id="Fill-1" fill="#092648"></path>
                    <path d="M137.7181,14.8206 L135.4151,14.8206 C135.3271,13.1616 135.3271,11.6226 135.3271,9.9286 C135.3271,8.2706 135.3271,6.4666 135.4151,4.7786 L137.7181,4.7786 C140.2461,4.7786 142.3741,6.4346 142.3741,9.7866 C142.3741,13.1616 140.2461,14.8206 137.7181,14.8206 M137.6851,2.5076 L132.3001,2.5076 C132.3581,4.9516 132.3891,7.4866 132.3891,9.9016 C132.3891,12.3466 132.3581,14.6756 132.3001,17.0906 L137.6851,17.0906 C143.8601,17.0906 145.6071,12.7536 145.6071,9.8156 C145.6071,6.8436 143.8601,2.5076 137.6851,2.5076" id="Fill-3" fill="#092648"></path>
                    <path d="M151.4261,17.0912 C151.3671,15.3142 151.3431,13.0752 151.3431,11.4182 C151.3431,9.7572 151.3671,8.7672 151.4261,7.1062 C152.9731,9.2592 154.3971,11.4452 155.7071,13.6562 L156.1131,13.6562 C157.3371,11.7052 158.8521,9.4062 160.5111,6.8142 C160.5401,8.4452 160.5981,10.0182 160.5981,11.5602 C160.5981,13.4502 160.5681,15.4902 160.5111,17.0912 L163.5981,17.0912 C163.5391,14.6762 163.4781,12.2902 163.4781,9.8432 C163.4781,7.4282 163.5391,4.9522 163.5981,2.5092 L160.4271,2.5092 C159.0261,4.9222 157.6011,7.1922 156.2881,9.0572 C154.7461,6.9322 153.3221,4.7762 152.0121,2.5092 L148.7491,2.5092 C148.8081,5.0402 148.8981,7.5432 148.8981,9.9612 C148.8981,12.4032 148.8081,14.7652 148.7491,17.0912 L151.4261,17.0912 Z" id="Fill-5" fill="#092648"></path>
                    <path d="M171.6014,17.0912 C171.5154,15.6062 171.5154,12.2022 171.5154,9.7572 C171.5154,7.4552 171.5154,4.0222 171.6014,2.5092 L168.4564,2.5092 C168.5474,4.0222 168.5474,7.4552 168.5474,9.7572 C168.5474,12.2022 168.5474,15.6062 168.4564,17.0912 L171.6014,17.0912 Z" id="Fill-7" fill="#092648"></path>
                    <path d="M181.3548,9.1727 L179.4908,9.1727 C179.4588,8.4187 179.4588,7.6587 179.4588,6.9027 C179.4588,6.1467 179.4588,5.3887 179.4908,4.6297 L181.3548,4.6297 C182.7258,4.6297 183.9168,5.3307 183.9168,6.9027 C183.9168,8.4757 182.7258,9.1727 181.3548,9.1727 M184.4378,10.7747 C186.2738,9.9277 186.9128,8.1847 186.9128,6.9027 C186.9128,5.1567 185.6918,2.5097 181.8508,2.5097 L176.4608,2.5097 C176.5248,5.0407 176.5778,7.5437 176.5778,9.9597 C176.5778,12.4037 176.5248,14.7657 176.4608,17.0917 L179.4908,17.0917 C179.4588,16.0427 179.4358,14.9667 179.4358,13.9197 C179.4358,13.0467 179.4588,12.1727 179.4908,11.2987 L181.3548,11.2987 C182.8388,13.4507 184.1188,15.4337 185.0788,17.0917 L188.6348,17.0917 C187.0888,14.9667 185.6648,12.8137 184.4378,10.7747" id="Fill-9" fill="#092648"></path>
                    <path d="M197.1542,11.7054 C196.5722,11.7054 195.6132,11.6784 195.0582,11.6494 C195.8422,9.6684 196.4562,7.8634 197.2402,6.0604 C198.0242,7.8634 199.1052,11.0644 199.3372,11.6494 C198.5222,11.6784 197.9382,11.7054 197.1542,11.7054 M199.0472,2.5094 L195.9292,2.5094 C194.0122,7.8334 192.1492,12.6984 190.3952,17.0914 L193.0812,17.0914 C193.2522,16.5994 193.6322,15.5184 194.2672,13.8604 C195.1732,13.8304 196.2812,13.7984 197.1542,13.7984 C198.2012,13.7984 199.0472,13.8304 200.0892,13.8604 C200.4762,14.9074 200.8802,15.9564 201.2602,17.0914 L204.6042,17.0914 C202.5112,11.9984 200.6752,7.1354 199.0472,2.5094" id="Fill-11" fill="#092648"></path>
                    <path d="M216.8905,17.0912 C215.3505,17.0332 213.6905,17.0332 212.1175,17.0332 C210.5455,17.0332 209.0315,17.0332 207.4015,17.0912 C207.4595,14.6462 207.5185,12.1452 207.5185,9.6962 C207.5185,7.2802 207.4595,4.9222 207.4015,2.5092 L210.5455,2.5092 C210.4885,4.7762 210.4575,7.3962 210.4575,9.6962 C210.4575,11.5022 210.4885,13.0152 210.5455,14.8212 L213.4005,14.8212 C214.6195,14.8212 215.9585,14.8212 216.8905,14.7652 L216.8905,17.0912 Z" id="Fill-13" fill="#092648"></path>
                    <path d="M228.5008,4.8055 C227.2428,4.7495 225.7028,4.7175 224.2158,4.7175 C224.1898,6.5525 224.1568,8.5035 224.1568,10.3365 C224.1568,12.5805 224.1898,14.8495 224.2158,17.0925 L221.0738,17.0925 C221.1328,14.8495 221.1628,12.6975 221.1628,10.3955 C221.1628,8.5885 221.1328,6.4965 221.0738,4.7175 C219.5028,4.7175 217.9298,4.7495 216.7928,4.8055 L216.7928,2.5085 C218.7448,2.5645 220.6958,2.5945 222.6428,2.5945 C224.5998,2.5945 226.5448,2.5645 228.5008,2.5085 L228.5008,4.8055 Z" id="Fill-15" fill="#092648"></path>
                    <g id="Group-19" transform="translate(230.000000, 2.000000)">
                        <mask id="mask-2" fill="white">
                            <use xlink:href="#path-1"></use>
                        </mask>
                        <g id="Clip-18"></g>
                        <path d="M8.3309,9.9251 C8.2999,10.7121 8.2999,11.3551 8.2999,11.9031 L8.3879,14.9901 L5.2409,14.9901 C5.2739,14.2621 5.3059,13.0121 5.3059,11.6971 C5.3329,10.3331 5.3329,8.8491 5.3329,8.5291 C3.9079,5.9951 2.0399,3.1711 0.1509,0.4051 L3.8169,0.4051 C4.8359,2.3561 5.9449,4.2181 7.1379,5.9371 C8.4149,4.1621 9.5539,2.2701 10.6299,0.4051 L13.4249,0.4051 C11.3279,3.5801 9.4359,6.4891 8.3569,8.5001 C8.3569,8.6741 8.3569,9.1401 8.3309,9.9251" id="Fill-17" fill="#092648" mask="url(#mask-2)"></path>
                    </g>
                    <path d="M116.8207,23.6039 L114.9347,23.6039 L114.9347,27.4289 L116.8347,27.4289 C118.2047,27.4289 118.8127,26.4139 118.8127,25.5029 C118.8127,24.7249 118.4557,23.6039 116.8207,23.6039 M116.8067,28.1939 L114.9347,28.1939 L114.9347,31.7029 L114.0917,31.7029 L114.0917,22.8389 L116.7417,22.8389 C118.8517,22.8389 119.6567,24.2099 119.6567,25.4779 C119.6567,26.8349 118.7197,28.1939 116.8067,28.1939" id="Fill-20" fill="#092648"></path>
                    <path d="M123.993,28.7079 C123.161,28.7079 122.068,28.7879 121.579,29.0509 C121.158,29.2749 120.92,29.6589 120.92,30.1199 C120.92,30.8319 121.501,31.1879 122.173,31.1879 C122.793,31.1879 123.412,30.8839 123.993,30.3699 L123.993,28.7079 Z M123.993,31.7019 L123.993,31.0679 C123.531,31.4639 122.899,31.8469 122.093,31.8469 C120.96,31.8469 120.142,31.1609 120.142,30.1589 C120.142,29.6719 120.326,28.9589 121.158,28.4979 C121.724,28.1809 122.819,28.0619 123.993,28.0619 L123.993,27.6659 C123.993,26.5059 123.281,26.2549 122.634,26.2549 C121.909,26.2549 121.079,26.5199 120.564,26.7829 L120.722,26.0309 C121.25,25.8079 121.936,25.5959 122.754,25.5959 C123.967,25.5959 124.758,26.2419 124.758,27.6259 L124.758,31.7019 L123.993,31.7019 Z" id="Fill-22" fill="#092648"></path>
                    <path d="M128.3558,31.8602 C127.5108,31.8602 126.6148,31.5562 126.2598,31.3992 L126.2598,30.6342 C126.8128,30.9372 127.6168,31.1602 128.4218,31.1602 C129.3188,31.1602 129.7808,30.7392 129.7808,30.1582 C129.7808,29.8422 129.6088,29.5652 128.8048,29.2352 C127.2228,28.5762 126.8928,28.4052 126.6798,28.1942 C126.4698,27.9842 126.2598,27.6662 126.2598,27.2452 C126.2598,26.3472 126.9978,25.5962 128.4088,25.5962 C129.1338,25.5962 129.5698,25.7672 130.1498,25.9782 L130.1498,26.7292 C129.4778,26.4392 128.9498,26.2682 128.3288,26.2682 C127.4848,26.2682 126.9978,26.6762 126.9978,27.1652 C126.9978,27.5072 127.1558,27.7582 128.0128,28.1022 C129.4778,28.6952 129.6618,28.7882 130.0168,29.0762 C130.3478,29.3412 130.5318,29.7372 130.5318,30.1332 C130.5318,31.3072 129.3978,31.8602 128.3558,31.8602" id="Fill-24" fill="#092648"></path>
                    <path d="M133.7875,31.8602 C132.9445,31.8602 132.0465,31.5562 131.6915,31.3992 L131.6915,30.6342 C132.2445,30.9372 133.0485,31.1602 133.8535,31.1602 C134.7515,31.1602 135.2125,30.7392 135.2125,30.1582 C135.2125,29.8422 135.0415,29.5652 134.2365,29.2352 C132.6545,28.5762 132.3245,28.4052 132.1135,28.1942 C131.9015,27.9842 131.6915,27.6662 131.6915,27.2452 C131.6915,26.3472 132.4295,25.5962 133.8405,25.5962 C134.5675,25.5962 135.0015,25.7672 135.5815,25.9782 L135.5815,26.7292 C134.9095,26.4392 134.3815,26.2682 133.7625,26.2682 C132.9185,26.2682 132.4295,26.6762 132.4295,27.1652 C132.4295,27.5072 132.5875,27.7582 133.4465,28.1022 C134.9095,28.6952 135.0935,28.7882 135.4505,29.0762 C135.7795,29.3412 135.9635,29.7372 135.9635,30.1332 C135.9635,31.3072 134.8295,31.8602 133.7875,31.8602" id="Fill-26" fill="#092648"></path>
                    <path d="M141.079,28.7079 C140.248,28.7079 139.154,28.7879 138.665,29.0509 C138.242,29.2749 138.007,29.6589 138.007,30.1199 C138.007,30.8319 138.587,31.1879 139.259,31.1879 C139.879,31.1879 140.498,30.8839 141.079,30.3699 L141.079,28.7079 Z M141.079,31.7019 L141.079,31.0679 C140.617,31.4639 139.985,31.8469 139.179,31.8469 C138.046,31.8469 137.228,31.1609 137.228,30.1589 C137.228,29.6719 137.412,28.9589 138.242,28.4979 C138.81,28.1809 139.905,28.0619 141.079,28.0619 L141.079,27.6659 C141.079,26.5059 140.366,26.2549 139.72,26.2549 C138.995,26.2549 138.165,26.5199 137.65,26.7829 L137.808,26.0309 C138.336,25.8079 139.022,25.5959 139.84,25.5959 C141.052,25.5959 141.844,26.2419 141.844,27.6259 L141.844,31.7019 L141.079,31.7019 Z" id="Fill-28" fill="#092648"></path>
                    <path d="M145.9046,26.2284 C144.7836,26.2284 144.3226,27.1124 144.3226,27.7184 C144.3226,28.6164 145.1136,29.1564 146.0246,29.1564 C147.2376,29.1564 147.6986,28.2734 147.6986,27.7184 C147.6986,26.7694 146.9206,26.2284 145.9046,26.2284 L145.9046,26.2284 Z M145.2716,31.4784 C144.3476,32.0044 143.7286,32.4274 143.7286,33.1794 C143.7286,33.7454 144.2956,34.3394 145.9706,34.3394 C147.3686,34.3394 148.2796,33.8394 148.2796,32.9284 C148.2796,31.9784 146.8816,31.9394 145.2716,31.4784 L145.2716,31.4784 Z M147.8296,26.3874 C148.1206,26.6774 148.4356,27.2304 148.4356,27.7184 C148.4356,28.8004 147.4616,29.7914 146.1156,29.7914 C145.7736,29.7914 145.4836,29.7494 145.1926,29.6444 C144.7976,29.9204 144.5866,30.1184 144.5866,30.3304 C144.5866,30.6204 144.7046,30.6864 146.6176,31.0954 C148.2656,31.4514 149.0176,31.8474 149.0176,32.9554 C149.0176,34.0234 147.8836,34.9994 145.9966,34.9994 C143.5446,34.9994 142.9906,33.7984 142.9906,33.1794 C142.9906,32.4934 143.4906,31.7674 144.5326,31.2534 C144.0316,31.0694 143.8066,30.8184 143.8066,30.4364 C143.8066,30.0404 144.1366,29.7374 144.6266,29.4204 C143.9006,28.9854 143.5836,28.3794 143.5836,27.7184 C143.5836,26.5324 144.5866,25.5694 145.9316,25.5694 C146.2476,25.5694 146.5656,25.6224 146.8816,25.7284 L149.1226,25.7284 L149.1226,26.3874 L147.8296,26.3874 Z" id="Fill-30" fill="#092648"></path>
                    <path d="M152.9193,26.2816 C151.7583,26.2816 150.9943,27.2186 150.8613,28.1286 L154.7523,28.1286 C154.6863,27.2046 154.0683,26.2816 152.9193,26.2816 L152.9193,26.2816 Z M150.8093,28.8146 C150.8883,30.1456 151.6273,31.1756 153.1963,31.1756 C154.0933,31.1756 154.7923,30.8716 155.4763,30.4086 L155.4763,31.1616 C154.8193,31.6086 153.9213,31.8596 153.1043,31.8596 C151.4163,31.8596 150.0443,30.7536 150.0443,28.6816 C150.0443,27.1656 151.1253,25.5956 152.9593,25.5956 C154.1453,25.5956 155.5843,26.5446 155.5843,28.7476 L155.5843,28.8146 L150.8093,28.8146 Z" id="Fill-32" fill="#092648"></path>
                    <path d="M162.7684,23.6039 L160.8824,23.6039 L160.8824,27.4289 L162.7824,27.4289 C164.1524,27.4289 164.7604,26.4139 164.7604,25.5029 C164.7604,24.7249 164.4034,23.6039 162.7684,23.6039 M162.7544,28.1939 L160.8824,28.1939 L160.8824,31.7029 L160.0394,31.7029 L160.0394,22.8389 L162.6894,22.8389 C164.7994,22.8389 165.6034,24.2099 165.6034,25.4779 C165.6034,26.8349 164.6684,28.1939 162.7544,28.1939" id="Fill-34" fill="#092648"></path>
                    <path d="M168.7801,31.8465 C167.9231,31.8465 166.9721,31.4505 166.9721,29.7375 L166.9721,22.8395 L167.7381,22.8395 L167.7381,29.8025 C167.7381,30.9765 168.4091,31.1605 168.8721,31.1605 C169.2421,31.1605 169.6371,31.0295 169.9281,30.7915 L169.9281,31.5315 C169.6371,31.6875 169.2681,31.8465 168.7801,31.8465" id="Fill-36" fill="#092648"></path>
                    <path d="M174.5419,28.7079 C173.7099,28.7079 172.6169,28.7879 172.1279,29.0509 C171.7049,29.2749 171.4689,29.6589 171.4689,30.1199 C171.4689,30.8319 172.0499,31.1879 172.7219,31.1879 C173.3419,31.1879 173.9609,30.8839 174.5419,30.3699 L174.5419,28.7079 Z M174.5419,31.7019 L174.5419,31.0679 C174.0799,31.4639 173.4479,31.8469 172.6419,31.8469 C171.5089,31.8469 170.6909,31.1609 170.6909,30.1589 C170.6909,29.6719 170.8749,28.9589 171.7049,28.4979 C172.2729,28.1809 173.3679,28.0619 174.5419,28.0619 L174.5419,27.6659 C174.5419,26.5059 173.8289,26.2549 173.1829,26.2549 C172.4579,26.2549 171.6279,26.5199 171.1129,26.7829 L171.2709,26.0309 C171.7989,25.8079 172.4849,25.5959 173.3029,25.5959 C174.5149,25.5959 175.3069,26.2419 175.3069,27.6259 L175.3069,31.7019 L174.5419,31.7019 Z" id="Fill-38" fill="#092648"></path>
                    <path d="M181.7416,31.702 L181.7416,27.983 C181.7416,26.849 180.8446,26.281 179.9476,26.281 C179.1566,26.281 178.5366,26.691 178.0756,27.1 L178.0756,31.702 L177.3086,31.702 L177.3086,25.728 L178.0756,25.728 L178.0756,26.375 C178.5106,26.03 179.1966,25.595 180.0536,25.595 C181.3326,25.595 182.5066,26.426 182.5066,28.049 L182.5066,31.702 L181.7416,31.702 Z" id="Fill-40" fill="#092648"></path>
                    <path d="M188.9139,31.702 L188.9139,27.983 C188.9139,26.849 188.0169,26.281 187.1199,26.281 C186.3279,26.281 185.7079,26.691 185.2469,27.1 L185.2469,31.702 L184.4829,31.702 L184.4829,25.728 L185.2469,25.728 L185.2469,26.375 C185.6829,26.03 186.3689,25.595 187.2259,25.595 C188.5059,25.595 189.6789,26.426 189.6789,28.049 L189.6789,31.702 L188.9139,31.702 Z" id="Fill-42" fill="#092648"></path>
                    <path d="M194.201,26.2816 C193.04,26.2816 192.275,27.2186 192.142,28.1286 L196.034,28.1286 C195.969,27.2046 195.349,26.2816 194.201,26.2816 L194.201,26.2816 Z M192.091,28.8146 C192.171,30.1456 192.909,31.1756 194.477,31.1756 C195.375,31.1756 196.073,30.8716 196.76,30.4086 L196.76,31.1616 C196.1,31.6086 195.203,31.8596 194.386,31.8596 C192.697,31.8596 191.326,30.7536 191.326,28.6816 C191.326,27.1656 192.407,25.5956 194.24,25.5956 C195.428,25.5956 196.865,26.5446 196.865,28.7476 L196.865,28.8146 L192.091,28.8146 Z" id="Fill-44" fill="#092648"></path>
                    <path d="M200.8329,26.3211 C200.1869,26.3211 199.6459,26.7701 199.2649,27.2311 L199.2649,31.7011 L198.4979,31.7011 L198.4979,25.7271 L199.2649,25.7271 L199.2649,26.4931 C199.6069,26.1231 200.2149,25.6211 200.9789,25.6211 C201.2029,25.6211 201.5469,25.7011 201.7569,25.8201 L201.7569,26.6641 C201.4929,26.4131 201.1779,26.3211 200.8329,26.3211" id="Fill-46" fill="#092648"></path>
                    <mask id="mask-4" fill="white">
                        <use xlink:href="#path-3"></use>
                    </mask>
                    <g id="Clip-49"></g>
                    <polygon id="Fill-48" fill="#6B97C3" mask="url(#mask-4)" points="0 36 102.596 36 102.596 0 0 0"></polygon>
                    <path d="M37.3817,13.2538 L35.4007,18.7588 L39.3387,18.7588 L37.3817,13.2538 Z M41.6387,25.1718 L40.4407,21.7938 L34.2987,21.7938 L33.0987,25.1718 L29.3557,25.1718 L35.7417,8.7258 L38.9977,8.7258 L45.3837,25.1718 L41.6387,25.1718 Z" id="Fill-50" fill="#FFFFFE" mask="url(#mask-4)"></path>
                    <path d="M52.8495,12.0057 L51.0385,12.0057 L51.0385,16.3607 L52.8735,16.3607 C54.1705,16.3607 55.4425,15.8227 55.4425,14.1347 C55.4425,13.0577 54.8065,12.0057 52.8495,12.0057 M53.0945,19.6407 L51.0385,19.6407 L51.0385,25.1707 L47.5145,25.1707 L47.5145,8.7257 L53.0445,8.7257 C57.0105,8.7257 59.1615,11.1247 59.1615,14.3057 C59.1615,17.4867 56.5205,19.6407 53.0945,19.6407" id="Fill-51" fill="#FFFFFE" mask="url(#mask-4)"></path>
                    <path d="M66.8729,12.0057 L65.0619,12.0057 L65.0619,16.3607 L66.8969,16.3607 C68.1939,16.3607 69.4659,15.8227 69.4659,14.1347 C69.4659,13.0577 68.8299,12.0057 66.8729,12.0057 M67.1179,19.6407 L65.0619,19.6407 L65.0619,25.1707 L61.5379,25.1707 L61.5379,8.7257 L67.0689,8.7257 C71.0339,8.7257 73.1869,11.1247 73.1869,14.3057 C73.1869,17.4867 70.5439,19.6407 67.1179,19.6407" id="Fill-52" fill="#FFFFFE" mask="url(#mask-4)"></path>
                </g>
            </g>
        </g>
    </g>
</svg>