<?xml version="1.0" encoding="UTF-8"?>
<svg width="250px" height="35px" viewBox="0 0 250 35" version="1.1" xmlns="http://www.w3.org/2000/svg" xmlns:xlink="http://www.w3.org/1999/xlink">
    <!-- Generator: Sketch 55.1 (78136) - https://sketchapp.com -->
    <title>1: Atoms / logos / Admiralty / Product / Total Tide White</title>
    <desc>Created with Sketch.</desc>
    <defs>
        <polygon id="path-1" points="0.5202 0.4554 14.101 0.4554 14.101 15.3744 0.5202 15.3744"></polygon>
        <polygon id="path-3" points="0 35 249.101 35 249.101 0 0 0"></polygon>
    </defs>
    <g id="-" stroke="none" stroke-width="1" fill="none" fill-rule="evenodd">
        <g id="1_00119009-UKHO-Styles-1" transform="translate(-703.000000, -3477.000000)">
            <g id="1:-Atoms-/-logos-/-Admiralty-/-Product-/-Total-Tide-white" transform="translate(703.000000, 3477.000000)">
                <g id="Group-41">
                    <polygon id="Fill-1" fill="#FFD128" points="0 35 105.001 35 105.001 0 0 0"></polygon>
                    <path d="M40.1871,13.6807 L38.1761,19.2657 L42.1751,19.2657 L40.1871,13.6807 Z M44.5081,25.7697 L43.2911,22.3447 L37.0591,22.3447 L35.8421,25.7697 L32.0421,25.7697 L38.5241,9.0887 L41.8261,9.0887 L48.3071,25.7697 L44.5081,25.7697 Z" id="Fill-2" fill="#FFFFFF"></path>
                    <polygon id="Fill-3" fill="#FFFFFF" points="53.8072 12.4151 53.8072 25.7691 50.2322 25.7691 50.2322 12.4151 45.4652 12.4151 45.4652 9.0881 58.5742 9.0881 58.5742 12.4151"></polygon>
                    <polygon id="Fill-4" fill="#FFFFFF" points="68.4801 12.4151 68.4801 25.7691 64.9041 25.7691 64.9041 12.4151 60.1371 12.4151 60.1371 9.0881 73.2471 9.0881 73.2471 12.4151"></polygon>
                    <g id="Group-40">
                        <path d="M124.7789,11.9683 C124.1859,11.9683 123.2009,11.9423 122.6329,11.9113 C123.4399,9.8853 124.0619,8.0393 124.8739,6.1953 C125.6749,8.0393 126.7789,11.3133 127.0169,11.9113 C126.1809,11.9423 125.5859,11.9683 124.7789,11.9683 M126.7189,2.5623 L123.5279,2.5623 C121.5619,8.0083 119.6539,12.9813 117.8689,17.4793 L120.6089,17.4793 C120.7849,16.9743 121.1749,15.8693 121.8279,14.1723 C122.7549,14.1433 123.8829,14.1123 124.7789,14.1123 C125.8519,14.1123 126.7189,14.1433 127.7879,14.1723 C128.1779,15.2443 128.5949,16.3163 128.9829,17.4793 L132.4079,17.4793 C130.2619,12.2663 128.3849,7.2943 126.7189,2.5623" id="Fill-5" fill="#FFFFFF"></path>
                        <path d="M140.9469,15.1534 L138.5929,15.1534 C138.5039,13.4564 138.5039,11.8834 138.5039,10.1504 C138.5039,8.4544 138.5039,6.6094 138.5929,4.8834 L140.9469,4.8834 C143.5359,4.8834 145.7139,6.5784 145.7139,10.0054 C145.7139,13.4564 143.5359,15.1534 140.9469,15.1534 M140.9149,2.5624 L135.4049,2.5624 C135.4659,5.0594 135.4979,7.6534 135.4979,10.1224 C135.4979,12.6254 135.4659,15.0084 135.4049,17.4794 L140.9149,17.4794 C147.2299,17.4794 149.0189,13.0404 149.0189,10.0334 C149.0189,6.9964 147.2299,2.5624 140.9149,2.5624" id="Fill-7" fill="#FFFFFF"></path>
                        <path d="M154.9742,17.479 C154.9142,15.659 154.8892,13.367 154.8892,11.674 C154.8892,9.977 154.9142,8.963 154.9742,7.263 C156.5542,9.467 158.0142,11.701 159.3552,13.963 L159.7722,13.963 C161.0232,11.968 162.5722,9.615 164.2692,6.966 C164.2992,8.633 164.3582,10.243 164.3582,11.818 C164.3582,13.755 164.3272,15.838 164.2692,17.479 L167.4282,17.479 C167.3682,15.007 167.3062,12.565 167.3062,10.063 C167.3062,7.592 167.3682,5.061 167.4282,2.562 L164.1832,2.562 C162.7492,5.029 161.2912,7.353 159.9502,9.26 C158.3702,7.084 156.9122,4.881 155.5722,2.562 L152.2362,2.562 C152.2962,5.148 152.3852,7.711 152.3852,10.182 C152.3852,12.683 152.2962,15.096 152.2362,17.479 L154.9742,17.479 Z" id="Fill-9" fill="#FFFFFF"></path>
                        <path d="M175.6178,17.479 C175.5278,15.956 175.5278,12.476 175.5278,9.977 C175.5278,7.622 175.5278,4.107 175.6178,2.562 L172.4018,2.562 C172.4898,4.107 172.4898,7.622 172.4898,9.977 C172.4898,12.476 172.4898,15.956 172.4018,17.479 L175.6178,17.479 Z" id="Fill-11" fill="#FFFFFF"></path>
                        <path d="M185.5953,9.3765 L183.6903,9.3765 C183.6553,8.6045 183.6553,7.8295 183.6553,7.0555 C183.6553,6.2795 183.6553,5.5075 183.6903,4.7315 L185.5953,4.7315 C186.9953,4.7315 188.2143,5.4485 188.2143,7.0555 C188.2143,8.6665 186.9953,9.3765 185.5953,9.3765 M188.7483,11.0155 C190.6283,10.1505 191.2833,8.3645 191.2833,7.0555 C191.2833,5.2695 190.0323,2.5625 186.1033,2.5625 L180.5883,2.5625 C180.6523,5.1475 180.7073,7.7115 180.7073,10.1825 C180.7073,12.6825 180.6523,15.0965 180.5883,17.4795 L183.6903,17.4795 C183.6553,16.4045 183.6283,15.3035 183.6283,14.2305 C183.6283,13.3415 183.6553,12.4455 183.6903,11.5525 L185.5953,11.5525 C187.1153,13.7555 188.4213,15.7805 189.4053,17.4795 L193.0413,17.4795 C191.4623,15.3035 190.0063,13.1005 188.7483,11.0155" id="Fill-13" fill="#FFFFFF"></path>
                        <path d="M201.7613,11.9683 C201.1633,11.9683 200.1813,11.9373 199.6163,11.9113 C200.4183,9.8853 201.0453,8.0393 201.8493,6.1933 C202.6513,8.0393 203.7553,11.3133 203.9943,11.9113 C203.1603,11.9373 202.5633,11.9683 201.7613,11.9683 M203.6953,2.5623 L200.5103,2.5623 C198.5433,8.0083 196.6363,12.9813 194.8473,17.4793 L197.5923,17.4793 C197.7673,16.9723 198.1563,15.8663 198.8083,14.1723 C199.7353,14.1433 200.8663,14.1103 201.7613,14.1103 C202.8313,14.1103 203.6953,14.1433 204.7653,14.1723 C205.1573,15.2443 205.5723,16.3163 205.9593,17.4793 L209.3823,17.4793 C207.2403,12.2663 205.3653,7.2943 203.6953,2.5623" id="Fill-15" fill="#FFFFFF"></path>
                        <path d="M221.9537,17.479 C220.3757,17.418 218.6797,17.418 217.0667,17.418 C215.4607,17.418 213.9147,17.418 212.2437,17.479 C212.3057,14.977 212.3637,12.417 212.3637,9.912 C212.3637,7.444 212.3057,5.029 212.2437,2.562 L215.4607,2.562 C215.4017,4.881 215.3727,7.562 215.3727,9.912 C215.3727,11.759 215.4017,13.307 215.4607,15.153 L218.3817,15.153 C219.6297,15.153 220.9997,15.153 221.9537,15.096 L221.9537,17.479 Z" id="Fill-17" fill="#FFFFFF"></path>
                        <path d="M233.8316,4.9112 C232.5476,4.8542 230.9706,4.8212 229.4506,4.8212 C229.4216,6.6962 229.3896,8.6952 229.3896,10.5672 C229.3896,12.8612 229.4216,15.1842 229.4506,17.4792 L226.2336,17.4792 C226.2936,15.1842 226.3226,12.9812 226.3226,10.6302 C226.3226,8.7802 226.2936,6.6382 226.2336,4.8212 C224.6256,4.8212 223.0146,4.8542 221.8526,4.9112 L221.8526,2.5612 C223.8526,2.6172 225.8476,2.6502 227.8406,2.6502 C229.8406,2.6502 231.8326,2.6172 233.8316,2.5612 L233.8316,4.9112 Z" id="Fill-19" fill="#FFFFFF"></path>
                        <g id="Group-23" transform="translate(235.000000, 2.000000)">
                            <mask id="mask-2" fill="white">
                                <use xlink:href="#path-1"></use>
                            </mask>
                            <g id="Clip-22"></g>
                            <path d="M8.8902,10.1924 C8.8562,10.9974 8.8562,11.6534 8.8562,12.2154 L8.9492,15.3744 L5.7302,15.3744 C5.7622,14.6284 5.7912,13.3494 5.7912,12.0054 C5.8242,10.6084 5.8242,9.0904 5.8242,8.7654 C4.3612,6.1744 2.4522,3.2844 0.5202,0.4554 L4.2732,0.4554 C5.3132,2.4524 6.4482,4.3554 7.6692,6.1094 C8.9762,4.2984 10.1412,2.3624 11.2432,0.4554 L14.1012,0.4554 C11.9572,3.7034 10.0192,6.6784 8.9172,8.7354 C8.9172,8.9154 8.9172,9.3904 8.8902,10.1924" id="Fill-21" fill="#FFFFFF" mask="url(#mask-2)"></path>
                        </g>
                        <polygon id="Fill-24" fill="#FFFFFF" points="121.8531 24.146 121.8531 32.357 120.9971 32.357 120.9971 24.146 118.0671 24.146 118.0671 23.371 124.7831 23.371 124.7831 24.146"></polygon>
                        <path d="M126.7769,26.8609 C125.2529,26.8609 124.3719,28.0659 124.3719,29.3349 C124.3719,30.6029 125.2529,31.8099 126.7769,31.8099 C128.3019,31.8099 129.1839,30.6029 129.1839,29.3349 C129.1839,28.0659 128.3019,26.8609 126.7769,26.8609 M126.7769,32.5049 C124.8919,32.5049 123.5809,30.9539 123.5809,29.3349 C123.5809,27.7159 124.8919,26.1639 126.7769,26.1639 C128.6639,26.1639 129.9749,27.7159 129.9749,29.3349 C129.9749,30.9539 128.6639,32.5049 126.7769,32.5049" id="Fill-26" fill="#FFFFFF"></path>
                        <path d="M133.2828,32.5049 C132.5078,32.5049 131.4528,32.1029 131.4528,30.4709 L131.4528,26.9689 L130.5118,26.9689 L130.5118,26.2989 L131.4528,26.2989 L131.4528,24.7999 L132.2278,24.7999 L132.2278,26.2989 L134.4478,26.2989 L134.4478,26.9689 L132.2278,26.9689 L132.2278,30.4299 C132.2278,31.5149 132.8678,31.8219 133.4448,31.8219 C133.9938,31.8219 134.3928,31.6489 134.7298,31.3939 L134.7298,32.1449 C134.3158,32.3569 133.8188,32.5049 133.2828,32.5049" id="Fill-28" fill="#FFFFFF"></path>
                        <path d="M139.4146,29.3223 C138.5716,29.3223 137.4596,29.4013 136.9656,29.6703 C136.5376,29.8973 136.2986,30.2843 136.2986,30.7543 C136.2986,31.4773 136.8856,31.8373 137.5656,31.8373 C138.1946,31.8373 138.8266,31.5263 139.4146,31.0073 L139.4146,29.3223 Z M139.4146,32.3563 L139.4146,31.7163 C138.9466,32.1163 138.3016,32.5043 137.4866,32.5043 C136.3366,32.5043 135.5086,31.8093 135.5086,30.7943 C135.5086,30.2983 135.6936,29.5743 136.5376,29.1093 C137.1116,28.7883 138.2266,28.6673 139.4146,28.6673 L139.4146,28.2643 C139.4146,27.0873 138.6916,26.8343 138.0356,26.8343 C137.3006,26.8343 136.4566,27.1013 135.9356,27.3683 L136.0956,26.6073 C136.6316,26.3803 137.3266,26.1653 138.1556,26.1653 C139.3876,26.1653 140.1896,26.8223 140.1896,28.2253 L140.1896,32.3563 L139.4146,32.3563 Z" id="Fill-30" fill="#FFFFFF"></path>
                        <path d="M143.6461,32.5049 C142.7751,32.5049 141.8111,32.1029 141.8111,30.3659 L141.8111,23.3699 L142.5861,23.3699 L142.5861,30.4299 C142.5861,31.6249 143.2701,31.8099 143.7391,31.8099 C144.1121,31.8099 144.5131,31.6749 144.8091,31.4329 L144.8091,32.1849 C144.5131,32.3439 144.1381,32.5049 143.6461,32.5049" id="Fill-32" fill="#FFFFFF"></path>
                        <polygon id="Fill-34" fill="#FFFFFF" points="148.2232 24.146 148.2232 32.357 147.3642 32.357 147.3642 24.146 144.4372 24.146 144.4372 23.371 151.1532 23.371 151.1532 24.146"></polygon>
                        <mask id="mask-4" fill="white">
                            <use xlink:href="#path-3"></use>
                        </mask>
                        <g id="Clip-37"></g>
                        <path d="M152.066,32.357 L152.841,32.357 L152.841,26.299 L152.066,26.299 L152.066,32.357 Z M152.456,25.081 L151.757,24.386 L152.456,23.69 L153.149,24.386 L152.456,25.081 Z" id="Fill-36" fill="#FFFFFF" mask="url(#mask-4)"></path>
                        <path d="M158.9557,27.4878 C158.4067,27.1148 157.7397,26.8608 157.2317,26.8608 C155.7587,26.8608 154.8637,28.0258 154.8637,29.3348 C154.8637,30.6028 155.7057,31.8098 157.2317,31.8098 C157.9277,31.8098 158.5817,31.4478 158.9557,31.0618 L158.9557,27.4878 Z M159.0117,32.3558 L159.0117,31.7408 C158.4477,32.3038 157.6437,32.5048 157.2317,32.5048 C155.3447,32.5048 154.0727,30.9538 154.0727,29.3348 C154.0727,27.6888 155.3977,26.1638 157.2317,26.1638 C157.7267,26.1638 158.4227,26.3788 158.9557,26.7528 L158.9557,23.3698 L159.7317,23.3698 L159.7317,32.3558 L159.0117,32.3558 Z" id="Fill-38" fill="#FFFFFF" mask="url(#mask-4)"></path>
                        <path d="M163.8297,26.8609 C162.6517,26.8609 161.8767,27.8109 161.7437,28.7329 L165.6867,28.7329 C165.6227,27.7969 164.9937,26.8609 163.8297,26.8609 L163.8297,26.8609 Z M161.6897,29.4279 C161.7687,30.7779 162.5177,31.8219 164.1097,31.8219 C165.0197,31.8219 165.7307,31.5149 166.4277,31.0469 L166.4277,31.8099 C165.7577,32.2639 164.8487,32.5169 164.0177,32.5169 C162.3067,32.5169 160.9147,31.3939 160.9147,29.2949 C160.9147,27.7569 162.0087,26.1639 163.8707,26.1639 C165.0737,26.1639 166.5337,27.1279 166.5337,29.3629 L166.5337,29.4279 L161.6897,29.4279 Z" id="Fill-39" fill="#FFFFFF" mask="url(#mask-4)"></path>
                    </g>
                </g>
            </g>
        </g>
    </g>
</svg>