<?xml version="1.0" standalone="no"?>
<!DOCTYPE svg PUBLIC "-//W3C//DTD SVG 1.1//EN" "http://www.w3.org/Graphics/SVG/1.1/DTD/svg11.dtd" >
<svg>
<metadata>
Created by FontForge 20120731 at Mon Apr  1 13:55:19 2019
 By www-data
Copyright 1999 International Typeface Corporation. All rights reserved. "ITC" is a trademark of International Typeface Corporation Registered in the U.S. Patent and Trademark Office and may be registered in certain jurisdictions;"Johnston"  is a trademark of International Typeface Corporation and may be registered in certain jurisdictions.
</metadata>
<defs>
<font id="JohnstonITCStd-Bold" horiz-adv-x="597" >
  <font-face 
    font-family="Johnston ITC Std Light"
    font-weight="700"
    font-stretch="normal"
    units-per-em="1000"
    panose-1="2 0 8 4 3 0 0 2 0 3"
    ascent="800"
    descent="-200"
    x-height="460"
    cap-height="672"
    bbox="-126 -262 1160 937"
    underline-thickness="106"
    underline-position="-3"
    stemh="134"
    stemv="144"
    unicode-range="U+0020-FB02"
  />
<missing-glyph horiz-adv-x="500" 
d="M12 0v665h475v-665h-475zM88 618l162 -243l161 243h-323zM60 575v-484c0 -1 161 242 161 242zM440 575l-162 -242l162 -243v485zM411 48l-161 242l-162 -242h323z" />
    <glyph glyph-name="f_i" unicode="fi" horiz-adv-x="676" 
d="M631 594l-92 -92l-92 92l92 92zM609 0h-141v460h141v-460zM411 548c-20 11 -58 25 -99 25c-50 0 -71 -29 -71 -68v-45h139v-110h-139v-350h-141v350h-75v110h75v58c0 100 67 168 183 168c56 0 96 -10 128 -22v-116z" />
    <glyph glyph-name="f_l" unicode="fl" horiz-adv-x="790" 
d="M763 18c-40 -19 -81 -28 -120 -28c-107 0 -159 74 -159 166v516h141v-501c0 -31 10 -61 61 -61c20 0 54 8 77 23v-115zM411 548c-20 11 -58 25 -99 25c-50 0 -71 -29 -71 -68v-45h139v-110h-139v-350h-141v350h-75v110h75v58c0 100 67 168 183 168c56 0 96 -10 128 -22
v-116z" />
    <glyph glyph-name=".notdef" horiz-adv-x="500" 
d="M12 0v665h475v-665h-475zM88 618l162 -243l161 243h-323zM60 575v-484c0 -1 161 242 161 242zM440 575l-162 -242l162 -243v485zM411 48l-161 242l-162 -242h323z" />
    <glyph glyph-name="space" unicode=" " horiz-adv-x="204" 
 />
    <glyph glyph-name="exclam" unicode="!" horiz-adv-x="310" 
d="M229 538l-41 -354h-66l-41 354v134h148v-134zM241 58l-86 -86l-86 86l86 87z" />
    <glyph glyph-name="quotedbl" unicode="&#x22;" horiz-adv-x="512" 
d="M417 566l-27 -148h-62l-27 148v106h116v-106zM211 566l-27 -148h-62l-27 148v106h116v-106z" />
    <glyph glyph-name="numbersign" unicode="#" horiz-adv-x="705" 
d="M696 512l-21 -102h-106l-31 -147h106l-21 -102h-107l-42 -200h-119l42 200h-163l-42 -200h-119l42 200h-106l21 102h107l31 147h-107l21 102h107l42 199h119l-42 -199h163l42 199h119l-42 -199h106zM450 410h-163l-31 -147h163z" />
    <glyph glyph-name="dollar" unicode="$" 
d="M516 205c0 -118 -76 -201 -182 -216v-84h-71v82c-105 7 -164 49 -208 110l83 76c26 -38 61 -66 125 -73v195c-83 39 -177 87 -177 211c0 90 68 167 177 178v89h71v-90c60 -8 110 -36 151 -82l-76 -83c-24 24 -50 40 -75 48v-147c84 -40 182 -93 182 -214zM263 454v116
c-37 -9 -50 -34 -50 -59c0 -23 20 -41 50 -57zM390 182c0 34 -23 57 -56 77v-153c32 12 56 38 56 76z" />
    <glyph glyph-name="percent" unicode="%" horiz-adv-x="858" 
d="M799 151c0 -91 -74 -165 -165 -165s-165 74 -165 165s74 165 165 165s165 -74 165 -165zM711 672l-437 -672h-129l437 672h129zM389 521c0 -91 -74 -165 -165 -165s-165 74 -165 165s74 165 165 165s165 -74 165 -165zM699 151c0 36 -29 65 -65 65s-65 -29 -65 -65
s29 -65 65 -65s65 29 65 65zM289 521c0 36 -29 65 -65 65s-65 -29 -65 -65s29 -65 65 -65s65 29 65 65z" />
    <glyph glyph-name="ampersand" unicode="&#x26;" horiz-adv-x="726" 
d="M735 0h-186l-79 78c-67 -67 -145 -92 -204 -92c-143 0 -225 93 -225 195c0 70 42 137 125 190c-45 51 -66 94 -66 141c0 107 95 174 200 174c132 0 189 -83 189 -156c0 -57 -35 -125 -118 -173l100 -98c21 26 44 61 62 99h140c-21 -51 -69 -130 -115 -185zM358 518
c0 30 -25 48 -58 48c-32 0 -59 -21 -59 -56c0 -18 16 -48 48 -75c53 28 69 60 69 83zM384 162l-127 125c-45 -28 -66 -58 -66 -99c0 -35 31 -76 92 -76c33 0 68 15 101 50z" />
    <glyph glyph-name="quoteright" unicode="&#x2019;" horiz-adv-x="286" 
d="M218 580c0 -57 -23 -146 -143 -146c-27 0 -59 6 -71 13c77 21 85 55 85 129v96h129v-92z" />
    <glyph glyph-name="parenleft" unicode="(" horiz-adv-x="391" 
d="M360 -161h-143c-81 149 -133 324 -133 491s52 342 133 491h143c-90 -158 -141 -302 -141 -491s51 -333 141 -491z" />
    <glyph glyph-name="parenright" unicode=")" horiz-adv-x="391" 
d="M307 330c0 -167 -52 -342 -133 -491h-143c90 158 141 302 141 491s-51 333 -141 491h143c81 -149 133 -324 133 -491z" />
    <glyph glyph-name="asterisk" unicode="*" horiz-adv-x="404" 
d="M373 450l-47 -81l-94 72l17 -124h-94l17 124l-94 -72l-47 81l109 44l-109 45l47 81l94 -72l-17 124h94l-17 -124l94 72l47 -81l-109 -45z" />
    <glyph glyph-name="plus" unicode="+" 
d="M502 281h-149v-159h-109v159h-149v109h149v159h109v-159h149v-109z" />
    <glyph glyph-name="comma" unicode="," horiz-adv-x="280" 
d="M213 45c0 -57 -23 -146 -143 -146c-27 0 -59 6 -71 13c77 21 85 55 85 129v96h129v-92z" />
    <glyph glyph-name="hyphen" unicode="-" horiz-adv-x="429" 
d="M379 191h-329v116h329v-116z" />
    <glyph glyph-name="period" unicode="." horiz-adv-x="280" 
d="M209 0h-138v137h138v-137z" />
    <glyph glyph-name="slash" unicode="/" horiz-adv-x="397" 
d="M408 800l-246 -929h-133l246 929h133z" />
    <glyph glyph-name="zero" unicode="0" 
d="M545 337c0 -189 -75 -349 -247 -349s-247 160 -247 349s75 349 247 349s247 -160 247 -349zM395 337c0 163 -50 219 -97 219s-97 -56 -97 -219s50 -219 97 -219s97 56 97 219z" />
    <glyph glyph-name="one" unicode="1" 
d="M370 0h-144v602l144 98v-700z" />
    <glyph glyph-name="two" unicode="2" 
d="M494 0h-419c118 191 247 426 247 481c0 43 -27 69 -68 69c-69 0 -138 -64 -169 -108v162c49 45 116 82 189 82c112 0 197 -94 197 -200c0 -86 -87 -237 -166 -357h189v-129z" />
    <glyph glyph-name="three" unicode="3" 
d="M507 214c0 -131 -108 -228 -233 -228c-105 0 -175 60 -221 131l106 93c17 -43 44 -90 106 -90c60 0 100 45 100 108c0 44 -31 105 -116 105c-23 0 -60 -8 -75 -14l109 224h-210v129h429l-127 -260c55 -21 132 -74 132 -198z" />
    <glyph glyph-name="four" unicode="4" 
d="M590 117h-87v-117h-136v117h-381l517 577v-455h87v-122zM371 236v131l-119 -131h119z" />
    <glyph glyph-name="five" unicode="5" 
d="M509 672l-64 -129h-177l-5 -110c8 1 19 2 27 2c123 0 215 -97 215 -221c0 -131 -108 -228 -233 -228c-105 0 -175 60 -221 131l106 93c17 -43 44 -90 106 -90c60 0 100 45 100 108c0 44 -35 109 -120 109c-48 0 -89 -17 -123 -37l24 372h365z" />
    <glyph glyph-name="six" unicode="6" 
d="M548 197c0 -93 -75 -211 -225 -211c-147 0 -245 100 -245 255c0 144 71 278 230 431h190c-88 -78 -189 -191 -229 -279c22 8 37 14 81 14c114 0 198 -93 198 -210zM404 203c0 38 -29 83 -88 83c-27 0 -57 -9 -85 -35c-3 -14 -4 -23 -4 -32c0 -42 26 -100 93 -100
c45 0 84 34 84 84z" />
    <glyph glyph-name="seven" unicode="7" 
d="M563 672l-328 -672h-154l265 543h-289v129h506z" />
    <glyph glyph-name="eight" unicode="8" 
d="M526 192c0 -105 -88 -206 -228 -206c-119 0 -228 77 -228 196c0 80 44 135 120 184c-47 36 -82 82 -82 145c0 102 76 175 190 175c122 0 190 -82 190 -172c0 -58 -37 -104 -83 -141c74 -44 121 -103 121 -181zM367 500c0 35 -28 63 -69 63c-33 0 -69 -19 -69 -60
c0 -28 16 -50 68 -79c47 18 70 56 70 76zM387 201c0 38 -34 71 -90 100c-79 -44 -88 -75 -88 -110c0 -42 38 -76 89 -76c54 0 89 35 89 86z" />
    <glyph glyph-name="nine" unicode="9" 
d="M525 431c0 -144 -66 -265 -230 -431h-193c95 85 182 186 228 278c-22 -8 -33 -13 -77 -13c-114 0 -198 93 -198 210c0 93 75 211 225 211c147 0 245 -100 245 -255zM376 453c0 36 -27 100 -93 100c-45 0 -84 -34 -84 -84c0 -38 29 -83 88 -83c27 0 57 9 85 35
c3 14 4 23 4 32z" />
    <glyph glyph-name="colon" unicode=":" horiz-adv-x="280" 
d="M209 272h-138v137h138v-137zM209 0h-138v137h138v-137z" />
    <glyph glyph-name="semicolon" unicode=";" horiz-adv-x="280" 
d="M217 272h-137v137h137v-137zM213 45c0 -57 -23 -146 -143 -146c-27 0 -59 6 -71 13c77 21 85 55 85 129v96h129v-92z" />
    <glyph glyph-name="less" unicode="&#x3c;" 
d="M502 122l-407 159v109l407 159v-109l-268 -104l268 -105v-109z" />
    <glyph glyph-name="equal" unicode="=" 
d="M502 378h-407v109h407v-109zM502 184h-407v109h407v-109z" />
    <glyph glyph-name="greater" unicode="&#x3e;" 
d="M502 281l-407 -159v109l268 105l-268 104v109l407 -159v-109z" />
    <glyph glyph-name="question" unicode="?" horiz-adv-x="455" 
d="M407 502c0 -63 -33 -103 -99 -162c-40 -36 -50 -47 -50 -59c0 -7 4 -16 10 -24l-93 -80c-44 42 -56 76 -56 108c0 47 19 69 83 130c50 48 62 62 62 84c0 31 -21 53 -58 53c-43 0 -70 -27 -96 -76l-93 84c46 79 106 126 202 126c95 0 188 -63 188 -184zM268 58l-86 -86
l-86 86l86 87z" />
    <glyph glyph-name="at" unicode="@" horiz-adv-x="980" 
d="M935 325c0 -223 -139 -277 -199 -277c-72 0 -124 33 -152 99c-52 -40 -114 -64 -158 -64c-80 0 -154 47 -154 137c0 39 17 85 77 119c47 27 125 45 213 49c-2 68 -54 74 -96 74c-55 0 -118 -24 -163 -55l27 117c52 23 115 40 176 40c114 0 179 -56 179 -185v-106
c0 -89 13 -130 60 -130c34 0 100 32 100 182c0 192 -172 347 -347 347c-185 0 -348 -163 -348 -361c0 -196 132 -357 357 -357c82 0 159 11 250 41l34 -79c-84 -29 -172 -45 -280 -45c-279 0 -451 191 -451 439c0 242 196 438 438 438c243 0 437 -198 437 -423zM566 217
c-3 19 -4 40 -4 63v27c-57 -5 -97 -14 -121 -25c-34 -16 -46 -34 -46 -61c0 -23 18 -50 71 -50c24 0 64 16 100 46z" />
    <glyph glyph-name="A" unicode="A" horiz-adv-x="681" 
d="M668 0h-153l-49 138h-251l-49 -138h-153l261 672h133zM421 262l-80 225l-81 -225h161z" />
    <glyph glyph-name="B" unicode="B" horiz-adv-x="602" 
d="M553 196c0 -129 -103 -196 -209 -196h-270v672h222c149 0 214 -91 214 -178c0 -67 -46 -116 -96 -137c65 -14 139 -73 139 -161zM371 478c0 39 -28 71 -90 71h-63v-147h65c54 0 88 27 88 76zM408 200c0 47 -36 79 -101 79h-89v-156h101c53 0 89 32 89 77z" />
    <glyph glyph-name="C" unicode="C" horiz-adv-x="688" 
d="M642 476c-73 48 -147 75 -214 75c-137 0 -221 -107 -221 -215c0 -130 106 -215 222 -215c77 0 150 34 212 89v-161c-65 -39 -154 -63 -223 -63c-198 0 -364 161 -364 350c0 200 167 350 365 350c76 0 165 -23 223 -52v-158z" />
    <glyph glyph-name="D" unicode="D" horiz-adv-x="742" 
d="M688 336c0 -145 -108 -336 -368 -336h-246v672h257c229 0 357 -178 357 -336zM534 336c0 106 -69 202 -206 202h-110v-404h90c134 0 226 91 226 202z" />
    <glyph glyph-name="E" unicode="E" horiz-adv-x="577" 
d="M526 0h-452v672h452v-134h-308v-126h219v-134h-219v-144h308v-134z" />
    <glyph glyph-name="F" unicode="F" horiz-adv-x="552" 
d="M526 538h-308v-126h219v-134h-219v-278h-144v672h452v-134z" />
    <glyph glyph-name="G" unicode="G" horiz-adv-x="732" 
d="M662 36c-73 -33 -155 -50 -241 -50c-199 0 -367 155 -367 350c0 197 167 350 376 350c76 0 170 -20 228 -47v-157c-66 38 -151 69 -225 69c-137 0 -226 -107 -226 -215c0 -127 105 -219 228 -219c26 0 51 2 83 14v126h-112v133h256v-354z" />
    <glyph glyph-name="H" unicode="H" horiz-adv-x="724" 
d="M650 0h-144v278h-288v-278h-144v672h144v-260h288v260h144v-672z" />
    <glyph glyph-name="I" unicode="I" horiz-adv-x="292" 
d="M218 0h-144v672h144v-672z" />
    <glyph glyph-name="J" unicode="J" horiz-adv-x="495" 
d="M427 211c0 -162 -111 -225 -206 -225c-120 0 -176 82 -200 150l129 56c1 -45 33 -71 67 -71c39 0 66 24 66 84v467h144v-461z" />
    <glyph glyph-name="K" unicode="K" horiz-adv-x="703" 
d="M694 0h-199l-277 286v-286h-144v672h144v-276l259 276h194l-327 -330z" />
    <glyph glyph-name="L" unicode="L" horiz-adv-x="542" 
d="M511 0h-437v672h144v-538h293v-134z" />
    <glyph glyph-name="M" unicode="M" horiz-adv-x="830" 
d="M756 0h-144v449l-197 -235l-197 235v-449h-144v672h136l205 -251l205 251h136v-672z" />
    <glyph glyph-name="N" unicode="N" horiz-adv-x="769" 
d="M695 0h-135l-342 438v-438h-144v672h144l333 -426v426h144v-672z" />
    <glyph glyph-name="O" unicode="O" horiz-adv-x="834" 
d="M780 336c0 -173 -148 -350 -363 -350s-363 177 -363 350s148 350 363 350s363 -177 363 -350zM627 336c0 122 -90 215 -210 215s-210 -93 -210 -215s90 -215 210 -215s210 93 210 215z" />
    <glyph glyph-name="P" unicode="P" horiz-adv-x="573" 
d="M550 444c0 -130 -108 -218 -248 -218h-84v-226h-144v672h226c162 0 250 -98 250 -228zM398 451c0 44 -26 87 -106 87h-74v-178h75c53 0 105 22 105 91z" />
    <glyph glyph-name="Q" unicode="Q" horiz-adv-x="839" 
d="M785 71l-87 -99l-82 72c-56 -36 -123 -58 -199 -58c-215 0 -363 177 -363 350s148 350 363 350s363 -177 363 -350c0 -71 -25 -142 -68 -201zM627 336c0 122 -90 215 -210 215s-210 -93 -210 -215s90 -215 210 -215c32 0 62 7 89 19l-68 59l87 99l77 -67
c16 31 25 66 25 105z" />
    <glyph glyph-name="R" unicode="R" horiz-adv-x="640" 
d="M630 0h-181l-178 252h-53v-252h-144v672h222c187 0 223 -144 223 -208c0 -85 -48 -141 -107 -175zM375 461c0 47 -33 77 -93 77h-64v-157h62c69 0 95 37 95 80z" />
    <glyph glyph-name="S" unicode="S" horiz-adv-x="538" 
d="M500 208c0 -103 -79 -222 -230 -222c-127 0 -196 86 -231 161l127 67c11 -43 37 -98 105 -98c40 0 79 32 79 77c0 115 -282 97 -282 300c0 100 88 193 207 193c81 0 155 -41 203 -119l-120 -67c-17 30 -46 55 -83 55c-39 0 -61 -22 -61 -52c0 -89 286 -77 286 -295z" />
    <glyph glyph-name="T" unicode="T" horiz-adv-x="578" 
d="M553 538h-192v-538h-144v538h-192v134h528v-134z" />
    <glyph glyph-name="U" unicode="U" horiz-adv-x="770" 
d="M701 303c0 -182 -128 -315 -316 -315s-316 133 -316 315v369h144v-373c0 -122 77 -178 172 -178s172 56 172 178v373h144v-369z" />
    <glyph glyph-name="V" unicode="V" horiz-adv-x="674" 
d="M660 672l-255 -672h-136l-255 672h155l170 -475l168 475h153z" />
    <glyph glyph-name="W" unicode="W" horiz-adv-x="982" 
d="M965 672l-208 -672h-136l-130 440l-130 -440h-136l-208 672h143l133 -438l132 438h132l132 -438l133 438h143z" />
    <glyph glyph-name="X" unicode="X" horiz-adv-x="717" 
d="M688 0h-168l-161 231l-162 -231h-168l246 352l-224 320h168l139 -200l140 200h168l-224 -320z" />
    <glyph glyph-name="Y" unicode="Y" horiz-adv-x="648" 
d="M634 672l-238 -376v-296h-144v296l-238 376h166l144 -240l144 240h166z" />
    <glyph glyph-name="Z" unicode="Z" horiz-adv-x="660" 
d="M614 0h-586l339 538h-316v134h561l-339 -538h341v-134z" />
    <glyph glyph-name="bracketleft" unicode="[" horiz-adv-x="343" 
d="M312 -158h-229v976h229v-107h-101v-762h101v-107z" />
    <glyph glyph-name="backslash" unicode="\" horiz-adv-x="437" 
d="M408 -129h-133l-246 929h133z" />
    <glyph glyph-name="bracketright" unicode="]" horiz-adv-x="342" 
d="M259 -158h-229v107h101v762h-101v107h229v-976z" />
    <glyph glyph-name="asciicircum" unicode="^" 
d="M512 360h-109l-104 215l-105 -215h-109l159 326h109z" />
    <glyph glyph-name="underscore" unicode="_" horiz-adv-x="395" 
d="M401 -194h-407v89h407v-89z" />
    <glyph glyph-name="quoteleft" unicode="&#x2018;" horiz-adv-x="286" 
d="M282 673c-77 -21 -85 -55 -85 -129v-96h-129v92c0 57 23 146 143 146c27 0 59 -6 71 -13z" />
    <glyph glyph-name="a" unicode="a" horiz-adv-x="527" 
d="M459 0h-130v43c-42 -29 -97 -50 -141 -50c-80 0 -154 47 -154 137c0 39 17 86 77 120c47 27 124 44 211 49c-2 67 -53 73 -94 73c-55 0 -118 -24 -163 -55l27 117c52 23 115 40 176 40c114 0 191 -56 191 -185v-289zM322 125v91c-66 -6 -95 -13 -119 -25
c-26 -12 -38 -31 -38 -56c0 -20 13 -47 65 -47c11 0 57 11 92 37z" />
    <glyph glyph-name="b" unicode="b" horiz-adv-x="610" 
d="M564 234c0 -118 -80 -241 -227 -241c-55 0 -102 29 -132 60v-53h-134v672h141v-250c33 25 80 52 132 52c115 0 220 -93 220 -240zM416 234c0 54 -32 118 -107 118c-34 0 -65 -16 -97 -49v-140c21 -23 52 -48 92 -48c48 0 112 33 112 119z" />
    <glyph glyph-name="c" unicode="c" horiz-adv-x="488" 
d="M446 24c-42 -24 -97 -38 -146 -38c-158 0 -254 116 -254 244s96 244 254 244c49 0 104 -14 146 -38v-131c-38 29 -83 44 -129 44c-80 0 -126 -54 -126 -119s46 -119 126 -119c49 0 88 15 129 44v-131z" />
    <glyph glyph-name="d" unicode="d" horiz-adv-x="610" 
d="M539 0h-134v53c-30 -31 -77 -60 -132 -60c-147 0 -227 123 -227 241c0 139 102 240 220 240c52 0 95 -19 132 -47v245h141v-672zM398 163v140c-32 33 -63 49 -97 49c-75 0 -107 -64 -107 -118c0 -86 64 -119 112 -119c40 0 71 25 92 48z" />
    <glyph glyph-name="e" unicode="e" horiz-adv-x="564" 
d="M524 196h-335c2 -61 49 -103 131 -103c62 0 144 29 192 68v-118c-52 -34 -138 -57 -217 -57c-154 0 -249 97 -249 244c0 125 92 244 245 244c104 0 232 -50 233 -278zM382 286c-8 60 -46 83 -92 83c-55 0 -90 -36 -98 -83h190z" />
    <glyph glyph-name="f" unicode="f" horiz-adv-x="422" 
d="M411 548c-20 11 -58 25 -99 25c-50 0 -71 -29 -71 -68v-45h139v-110h-139v-350h-141v350h-75v110h75v58c0 100 67 168 183 168c56 0 96 -10 128 -22v-116z" />
    <glyph glyph-name="g" unicode="g" horiz-adv-x="534" 
d="M516 -95c0 -106 -124 -159 -251 -159c-195 0 -259 82 -259 143c0 60 44 94 81 109c-36 23 -42 46 -42 72c0 30 18 58 63 86c-40 27 -66 70 -66 131c0 77 64 187 214 187c33 0 64 -4 92 -14h165v-110h-56c9 -21 16 -47 16 -73c0 -86 -81 -168 -202 -168
c-39 0 -78 7 -109 19c-8 -8 -13 -17 -13 -28c0 -31 60 -39 220 -66c63 -11 147 -39 147 -129zM335 291c0 44 -31 81 -79 81c-46 0 -78 -37 -78 -83s37 -78 82 -78c38 0 75 28 75 80zM395 -113c0 39 -81 30 -231 70c-25 -17 -41 -35 -41 -58c0 -25 26 -58 145 -58
c96 0 127 23 127 46z" />
    <glyph glyph-name="h" unicode="h" horiz-adv-x="602" 
d="M536 0h-141v244c0 79 -42 109 -89 109c-38 0 -63 -13 -94 -38v-315h-141v672h141v-250c34 27 76 52 140 52c82 0 184 -50 184 -208v-266z" />
    <glyph glyph-name="i" unicode="i" horiz-adv-x="280" 
d="M235 594l-92 -92l-92 92l92 92zM213 0h-141v460h141v-460z" />
    <glyph glyph-name="j" unicode="j" horiz-adv-x="277" 
d="M226 594l-92 -92l-91 92l91 92zM205 -45c0 -99 -36 -183 -160 -183c-23 0 -75 6 -86 8v110c10 -4 40 -9 50 -9c52 0 55 34 55 81v498h141v-505z" />
    <glyph glyph-name="k" unicode="k" horiz-adv-x="574" 
d="M566 0h-186l-168 206v-206h-141v672h141v-369l144 157h179l-201 -209z" />
    <glyph glyph-name="l" unicode="l" horiz-adv-x="358" 
d="M331 15c-40 -19 -67 -25 -106 -25c-107 0 -159 74 -159 166v516h141v-501c0 -31 10 -61 61 -61c20 0 40 5 63 20v-115z" />
    <glyph glyph-name="m" unicode="m" horiz-adv-x="926" 
d="M860 0h-141v244c0 79 -42 109 -89 109c-29 0 -63 -13 -98 -37c3 -15 4 -32 4 -50v-266h-141v244c0 79 -42 109 -89 109c-38 0 -63 -13 -94 -38v-315h-141v460h134v-44c35 30 79 58 147 58c50 0 107 -18 144 -68c40 33 107 68 180 68c82 0 184 -50 184 -208v-266z" />
    <glyph glyph-name="n" unicode="n" horiz-adv-x="602" 
d="M536 0h-141v244c0 79 -42 109 -89 109c-38 0 -63 -13 -94 -38v-315h-141v460h134v-44c35 30 79 58 147 58c82 0 184 -50 184 -208v-266z" />
    <glyph glyph-name="o" unicode="o" horiz-adv-x="600" 
d="M554 230c0 -125 -99 -244 -254 -244s-254 119 -254 244s99 244 254 244s254 -119 254 -244zM409 230c0 64 -40 117 -109 117s-109 -53 -109 -117s40 -117 109 -117s109 53 109 117z" />
    <glyph glyph-name="p" unicode="p" horiz-adv-x="610" 
d="M564 232c0 -147 -105 -246 -220 -246c-52 0 -99 27 -132 52v-250h-141v672h134v-46c30 31 77 60 132 60c147 0 227 -124 227 -242zM416 232c0 86 -64 120 -112 120c-40 0 -71 -25 -92 -48v-147c32 -33 63 -49 97 -49c75 0 107 70 107 124z" />
    <glyph glyph-name="q" unicode="q" horiz-adv-x="610" 
d="M539 -212h-141v250c-33 -25 -80 -52 -132 -52c-115 0 -220 99 -220 246c0 118 80 242 227 242c55 0 102 -29 132 -60v46h134v-672zM398 157v147c-21 23 -52 48 -92 48c-48 0 -112 -34 -112 -120c0 -54 32 -124 107 -124c34 0 65 16 97 49z" />
    <glyph glyph-name="r" unicode="r" horiz-adv-x="407" 
d="M391 329c-24 13 -50 24 -84 24c-35 0 -69 -15 -95 -37v-316h-141v460h134v-45c28 26 66 53 118 53c29 0 48 -6 68 -18v-121z" />
    <glyph glyph-name="s" unicode="s" horiz-adv-x="485" 
d="M443 136c0 -53 -46 -150 -207 -150c-73 0 -160 25 -188 37v126c48 -26 121 -57 187 -57c42 0 66 13 66 33c0 15 -8 21 -44 32c-120 37 -152 54 -181 82c-21 20 -36 50 -36 86c0 90 81 149 192 149c76 0 127 -15 171 -32v-118c-51 28 -120 46 -160 46
c-45 0 -60 -15 -60 -32c0 -16 10 -24 70 -44c116 -39 130 -48 152 -65c26 -21 38 -56 38 -93z" />
    <glyph glyph-name="t" unicode="t" horiz-adv-x="440" 
d="M415 16c-35 -16 -74 -25 -126 -25c-95 0 -182 52 -182 162v197h-82v110h82v123h141v-123h150v-110h-150v-170c0 -59 30 -76 77 -76c40 0 73 18 90 31v-119z" />
    <glyph glyph-name="u" unicode="u" horiz-adv-x="602" 
d="M531 0h-134v44c-35 -30 -79 -58 -147 -58c-82 0 -184 50 -184 208v266h141v-244c0 -79 42 -109 89 -109c38 0 63 13 94 38v315h141v-460z" />
    <glyph glyph-name="v" unicode="v" horiz-adv-x="546" 
d="M538 460l-210 -460h-110l-210 460h159l106 -278l109 278h156z" />
    <glyph glyph-name="w" unicode="w" horiz-adv-x="784" 
d="M774 460l-184 -460h-113l-85 261l-85 -261h-113l-184 460h156l83 -263l83 263h120l83 -263l83 263h156z" />
    <glyph glyph-name="x" unicode="x" horiz-adv-x="553" 
d="M537 0h-172l-88 145l-89 -145h-172l176 245l-162 215h170l76 -118l77 118h170l-162 -215z" />
    <glyph glyph-name="y" unicode="y" horiz-adv-x="577" 
d="M565 460l-281 -560c-50 -100 -105 -136 -184 -136c-31 0 -73 7 -83 10v112c14 -4 40 -8 57 -8c41 0 62 21 76 47l67 128l-201 407h161l111 -261l118 261h159z" />
    <glyph glyph-name="z" unicode="z" horiz-adv-x="511" 
d="M473 0h-441l218 350h-189v110h406l-212 -350h218v-110z" />
    <glyph glyph-name="braceleft" unicode="{" horiz-adv-x="385" 
d="M344 -158h-68c-134 0 -156 67 -156 154v175c0 56 -27 91 -92 108v102c65 17 92 52 92 108v175c0 87 22 154 156 154h68v-107h-23c-66 0 -75 -34 -75 -94v-148c0 -98 -47 -120 -90 -139c43 -19 90 -41 90 -139v-148c0 -60 9 -94 75 -94h23v-107z" />
    <glyph glyph-name="bar" unicode="|" horiz-adv-x="275" 
d="M192 -236h-109v922h109v-922z" />
    <glyph glyph-name="braceright" unicode="}" horiz-adv-x="385" 
d="M357 279c-65 -17 -92 -52 -92 -108v-175c0 -87 -22 -154 -156 -154h-68v107h23c66 0 75 34 75 94v148c0 98 47 120 90 139c-43 19 -90 41 -90 139v148c0 60 -9 94 -75 94h-23v107h68c134 0 156 -67 156 -154v-175c0 -56 27 -91 92 -108v-102z" />
    <glyph glyph-name="asciitilde" unicode="~" 
d="M549 296c-42 -29 -90 -55 -142 -55c-79 0 -137 65 -208 65c-57 0 -112 -38 -151 -77v143c45 30 101 56 156 56c81 0 146 -65 208 -65c53 0 102 41 137 76v-143z" />
    <glyph glyph-name="exclamdown" unicode="&#xa1;" horiz-adv-x="310" 
d="M241 390l-86 -87l-86 87l86 86zM229 -224h-148v134l41 354h66l41 -354v-134z" />
    <glyph glyph-name="cent" unicode="&#xa2;" 
d="M503 24c-31 -17 -69 -30 -106 -35v-84h-75v83c-137 16 -219 124 -219 242s82 226 219 242v79h75v-80c37 -5 75 -18 106 -35v-131c-32 24 -68 39 -106 43v-236c39 4 72 19 106 43v-131zM322 120v220c-48 -18 -74 -61 -74 -110s26 -92 74 -110z" />
    <glyph glyph-name="sterling" unicode="&#xa3;" 
d="M559 129l-57 -129h-443c59 62 82 151 91 254h-90l51 129h55c4 60 6 100 19 158c22 94 95 145 171 145c67 0 114 -27 159 -64l-75 -128c-28 44 -56 55 -73 55c-30 0 -46 -21 -51 -56c-7 -44 -8 -60 -11 -110h153l-51 -129h-117c-4 -42 -14 -85 -28 -125h297z" />
    <glyph glyph-name="fraction" unicode="&#x2044;" horiz-adv-x="149" 
d="M233 800l-246 -929h-113l246 929h113z" />
    <glyph glyph-name="yen" unicode="&#xa5;" 
d="M608 672l-174 -275h83v-102h-147v-75h147v-102h-147v-118h-144v118h-147v102h147v75h-147v102h83l-174 275h166l144 -240l144 240h166z" />
    <glyph glyph-name="florin" unicode="&#x192;" 
d="M549 657l-21 -115c-27 15 -56 25 -84 25c-44 0 -69 -11 -87 -114h155l-21 -109h-154l-67 -364c-30 -161 -130 -191 -224 -191c-10 0 -48 1 -71 6l22 117c10 -3 29 -7 49 -7c47 0 65 31 73 76l67 363h-69l20 109h69c22 131 62 233 199 233c44 0 114 -17 144 -29z" />
    <glyph glyph-name="section" unicode="&#xa7;" horiz-adv-x="575" 
d="M531 225c0 -76 -48 -123 -114 -146c54 -36 96 -83 96 -151c0 -75 -76 -172 -233 -172c-78 0 -192 50 -236 121l97 84c35 -53 89 -87 143 -87c61 0 86 34 86 54c0 84 -326 112 -326 292c0 79 55 125 122 148c-49 35 -86 80 -86 146c0 75 61 172 218 172
c78 0 168 -34 212 -105l-103 -75c-25 38 -66 61 -108 61c-61 0 -76 -33 -76 -53c0 -84 308 -109 308 -289zM390 207c0 39 -49 66 -108 95c-63 -9 -97 -38 -97 -68c0 -34 47 -59 106 -87c62 8 99 31 99 60z" />
    <glyph glyph-name="currency" unicode="&#xa4;" horiz-adv-x="652" 
d="M566 176c-21 -22 -43 -45 -64 -66c-24 22 -46 45 -70 68c-35 -23 -75 -34 -114 -34c-35 0 -78 9 -115 34c-23 -23 -46 -46 -69 -68c-22 21 -44 44 -65 66c23 21 46 44 69 66c-24 39 -34 79 -34 112s9 74 34 112c-23 23 -46 45 -69 67c21 22 43 45 65 66
c23 -22 46 -45 69 -68c38 25 80 33 115 33c36 0 79 -9 114 -33c23 23 46 46 70 68c21 -21 43 -44 64 -66c-23 -22 -46 -44 -69 -67c26 -40 34 -81 34 -112c0 -32 -9 -72 -34 -112c23 -22 46 -45 69 -66zM438 355c0 69 -59 118 -120 118c-68 0 -121 -53 -121 -118
s54 -120 121 -120c66 0 120 54 120 120z" />
    <glyph glyph-name="quotesingle" unicode="'" horiz-adv-x="286" 
d="M201 566l-27 -148h-62l-27 148v106h116v-106z" />
    <glyph glyph-name="quotedblleft" unicode="&#x201c;" horiz-adv-x="512" 
d="M508 673c-77 -21 -85 -55 -85 -129v-96h-129v92c0 57 23 146 143 146c27 0 59 -6 71 -13zM282 655c-77 -21 -85 -55 -85 -129v-78h-129v74c0 57 23 146 143 146c27 0 59 -6 71 -13z" />
    <glyph glyph-name="guillemotleft" unicode="&#xab;" horiz-adv-x="571" 
d="M547 74h-146l-148 193l148 193h146l-148 -193zM303 74h-146l-148 193l148 193h146l-148 -193z" />
    <glyph glyph-name="guilsinglleft" unicode="&#x2039;" horiz-adv-x="327" 
d="M303 74h-146l-148 193l148 193h146l-148 -193z" />
    <glyph glyph-name="guilsinglright" unicode="&#x203a;" horiz-adv-x="327" 
d="M318 267l-148 -193h-146l148 193l-148 193h146z" />
    <glyph glyph-name="endash" unicode="&#x2013;" horiz-adv-x="572" 
d="M512 191h-452v106h452v-106z" />
    <glyph glyph-name="dagger" unicode="&#x2020;" horiz-adv-x="505" 
d="M456 356h-135v-505h-137v505h-135v104h135v212h137v-212h135v-104z" />
    <glyph glyph-name="daggerdbl" unicode="&#x2021;" horiz-adv-x="505" 
d="M456 162h-135v-311h-137v311h-135v104h135v90h-135v104h135v212h137v-212h135v-104h-135v-90h135v-104z" />
    <glyph glyph-name="periodcentered" unicode="&#xb7;" horiz-adv-x="280" 
d="M209 273h-138v137h138v-137z" />
    <glyph glyph-name="paragraph" unicode="&#xb6;" horiz-adv-x="643" 
d="M579 -150h-102v722h-82v-722h-102v364c-62 0 -110 4 -146 29c-60 42 -96 95 -96 193s46 161 106 203c36 25 93 33 155 33h267v-822z" />
    <glyph glyph-name="bullet" unicode="&#x2022;" horiz-adv-x="500" 
d="M390 302c0 -77 -63 -140 -140 -140s-140 63 -140 140s63 140 140 140s140 -63 140 -140z" />
    <glyph glyph-name="quotesinglbase" unicode="&#x201a;" horiz-adv-x="286" 
d="M207 7c0 -57 -23 -146 -143 -146c-27 0 -59 6 -71 13c77 21 85 55 85 129v96h129v-92z" />
    <glyph glyph-name="quotedblbase" unicode="&#x201e;" horiz-adv-x="512" 
d="M433 26c0 -57 -23 -146 -143 -146c-27 0 -59 6 -71 13c77 21 85 55 85 129v78h129v-74zM207 8c0 -57 -23 -146 -143 -146c-27 0 -59 6 -71 13c77 21 85 55 85 129v96h129v-92z" />
    <glyph glyph-name="quotedblright" unicode="&#x201d;" horiz-adv-x="512" 
d="M444 598c0 -57 -23 -146 -143 -146c-27 0 -59 6 -71 13c77 21 85 55 85 129v78h129v-74zM218 580c0 -57 -23 -146 -143 -146c-27 0 -59 6 -71 13c77 21 85 55 85 129v96h129v-92z" />
    <glyph glyph-name="guillemotright" unicode="&#xbb;" horiz-adv-x="571" 
d="M562 267l-148 -193h-146l148 193l-148 193h146zM318 267l-148 -193h-146l148 193l-148 193h146z" />
    <glyph glyph-name="ellipsis" unicode="&#x2026;" horiz-adv-x="1000" 
d="M902 0h-137v137h137v-137zM568 0h-137v137h137v-137zM235 0h-137v137h137v-137z" />
    <glyph glyph-name="perthousand" unicode="&#x2030;" horiz-adv-x="1210" 
d="M1160 151c0 -91 -74 -165 -165 -165s-165 74 -165 165s74 165 165 165s165 -74 165 -165zM790 151c0 -91 -74 -165 -165 -165s-165 74 -165 165s74 165 165 165s165 -74 165 -165zM702 672l-437 -672h-129l437 672h129zM380 521c0 -91 -74 -165 -165 -165
s-165 74 -165 165s74 165 165 165s165 -74 165 -165zM1060 151c0 36 -29 65 -65 65s-65 -29 -65 -65s29 -65 65 -65s65 29 65 65zM690 151c0 36 -29 65 -65 65s-65 -29 -65 -65s29 -65 65 -65s65 29 65 65zM280 521c0 36 -29 65 -65 65s-65 -29 -65 -65s29 -65 65 -65
s65 29 65 65z" />
    <glyph glyph-name="questiondown" unicode="&#xbf;" horiz-adv-x="455" 
d="M359 390l-86 -87l-86 87l86 86zM438 -112c-46 -79 -106 -126 -202 -126c-95 0 -188 63 -188 184c0 63 33 103 99 162c40 36 50 47 50 59c0 7 -4 16 -10 24l93 80c44 -42 56 -76 56 -108c0 -47 -19 -69 -83 -130c-50 -48 -62 -62 -62 -84c0 -31 21 -53 58 -53
c43 0 70 27 96 76z" />
    <glyph glyph-name="grave" unicode="`" horiz-adv-x="500" 
d="M324 519h-141l-148 132h146z" />
    <glyph glyph-name="acute" unicode="&#xb4;" horiz-adv-x="500" 
d="M468 651l-148 -132h-141l143 132h146z" />
    <glyph glyph-name="circumflex" unicode="&#x2c6;" horiz-adv-x="500" 
d="M450 519h-126l-71 84l-71 -84h-126l118 132h158z" />
    <glyph glyph-name="tilde" unicode="&#x2dc;" horiz-adv-x="500" 
d="M434 656c-7 -84 -32 -134 -107 -134c-51 0 -100 36 -143 36c-16 0 -26 -15 -27 -43h-85c5 75 27 137 90 137c66 0 128 -39 159 -39c14 0 27 14 28 43h85z" />
    <glyph glyph-name="macron" unicode="&#xaf;" horiz-adv-x="500" 
d="M409 545h-310v81h310v-81z" />
    <glyph glyph-name="breve" unicode="&#x2d8;" horiz-adv-x="500" 
d="M412 678c0 -88 -71 -159 -159 -159s-159 71 -159 159h89c0 -39 31 -70 70 -70s70 31 70 70h89z" />
    <glyph glyph-name="dotaccent" unicode="&#x2d9;" horiz-adv-x="500" 
d="M318 521h-130v130h130v-130z" />
    <glyph glyph-name="dieresis" unicode="&#xa8;" horiz-adv-x="500" 
d="M417 520h-130v130h130v-130zM221 520h-130v130h130v-130z" />
    <glyph glyph-name="ring" unicode="&#x2da;" horiz-adv-x="500" 
d="M357 622c0 -57 -46 -103 -103 -103s-103 46 -103 103s46 103 103 103s103 -46 103 -103zM299 622c0 25 -20 45 -45 45s-45 -20 -45 -45s20 -45 45 -45s45 20 45 45z" />
    <glyph glyph-name="cedilla" unicode="&#xb8;" horiz-adv-x="500" 
d="M345 -115c0 -54 -45 -98 -112 -98c-17 0 -35 2 -48 4v68c10 -5 22 -9 36 -9c25 0 40 16 40 41c0 21 -17 40 -46 40h-8l14 72h68l-7 -39c38 -4 63 -39 63 -79z" />
    <glyph glyph-name="hungarumlaut" unicode="&#x2dd;" horiz-adv-x="500" 
d="M547 651l-148 -132h-115l129 132h134zM346 651l-148 -132h-115l129 132h134z" />
    <glyph glyph-name="ogonek" unicode="&#x2db;" horiz-adv-x="500" 
d="M361 -211c-13 -4 -47 -8 -58 -8c-71 0 -116 46 -116 111c0 49 12 72 41 111h80c-30 -39 -41 -59 -41 -93c0 -46 37 -50 53 -50c17 0 30 4 41 9v-80z" />
    <glyph glyph-name="caron" unicode="&#x2c7;" horiz-adv-x="500" 
d="M450 651l-118 -132h-158l-118 132h126l71 -84l71 84h126z" />
    <glyph glyph-name="emdash" unicode="&#x2014;" horiz-adv-x="748" 
d="M686 191h-624v106h624v-106z" />
    <glyph glyph-name="AE" unicode="&#xc6;" horiz-adv-x="1041" 
d="M990 0h-452v138h-262l-91 -138h-172l455 672h522v-134h-308v-126h219v-134h-219v-144h308v-134zM538 262v275l-181 -275h181z" />
    <glyph glyph-name="ordfeminine" unicode="&#xaa;" horiz-adv-x="348" 
d="M304 378h-91v23c-26 -16 -58 -28 -84 -28c-52 0 -101 31 -101 91c0 26 12 58 51 80c30 17 76 27 129 31c-3 33 -28 37 -53 37c-33 0 -72 -15 -110 -41l20 88c35 16 76 27 115 27c74 0 124 -37 124 -121v-187zM209 464v49c-37 -4 -54 -7 -68 -14c-15 -7 -21 -17 -21 -31
c0 -10 6 -25 36 -25c6 0 32 6 53 21z" />
    <glyph glyph-name="Lslash" unicode="&#x141;" horiz-adv-x="542" 
d="M511 0h-437v261l-63 -48v103l63 48v308h144v-198l130 100v-103l-130 -100v-237h293v-134z" />
    <glyph glyph-name="Oslash" unicode="&#xd8;" horiz-adv-x="834" 
d="M780 336c0 -173 -148 -350 -363 -350c-68 0 -130 18 -182 48l-63 -78l-76 61l62 76c-66 66 -104 155 -104 243c0 173 148 350 363 350c68 0 129 -18 182 -47l63 78l76 -61l-62 -77c66 -66 104 -155 104 -243zM627 336c0 50 -15 95 -41 131l-263 -325
c28 -13 60 -21 94 -21c120 0 210 93 210 215zM511 530c-28 13 -60 21 -94 21c-120 0 -210 -93 -210 -215c0 -50 15 -95 41 -131z" />
    <glyph glyph-name="OE" unicode="&#x152;" horiz-adv-x="1130" 
d="M1079 0h-452v57c-55 -44 -126 -71 -210 -71c-215 0 -363 177 -363 350s148 350 363 350c84 0 155 -27 210 -71v57h452v-134h-308v-126h219v-134h-219v-144h308v-134zM627 336c0 122 -90 215 -210 215s-210 -93 -210 -215s90 -215 210 -215s210 93 210 215z" />
    <glyph glyph-name="ordmasculine" unicode="&#xba;" horiz-adv-x="390" 
d="M360 527c0 -81 -64 -158 -165 -158s-165 77 -165 158s64 159 165 159s165 -78 165 -159zM259 527c0 38 -24 69 -64 69s-64 -31 -64 -69s24 -68 64 -68s64 30 64 68z" />
    <glyph glyph-name="ae" unicode="&#xe6;" horiz-adv-x="842" 
d="M802 196h-335c2 -61 49 -103 131 -103c62 0 144 29 192 68v-118c-52 -34 -138 -57 -217 -57c-83 0 -149 28 -192 77c-57 -53 -117 -77 -193 -77c-95 0 -154 61 -154 133c0 39 19 85 79 119c47 27 116 43 209 46v10c0 71 -52 78 -94 78c-55 0 -118 -24 -163 -55l27 117
c52 23 115 40 176 40c64 0 114 -18 146 -56c41 34 93 56 155 56c104 0 232 -50 233 -278zM660 286c-8 60 -46 83 -92 83c-55 0 -90 -36 -98 -83h190zM342 127c-8 22 -14 47 -17 73c-61 -3 -90 -9 -115 -20c-19 -9 -39 -23 -39 -56c0 -20 19 -42 59 -42c41 0 77 15 112 45z
" />
    <glyph glyph-name="dotlessi" unicode="&#x131;" horiz-adv-x="280" 
d="M213 0h-141v460h141v-460z" />
    <glyph glyph-name="lslash" unicode="&#x142;" horiz-adv-x="358" 
d="M331 18c-40 -19 -81 -28 -120 -28c-107 0 -159 74 -159 166v107l-57 -44v97l57 44v312h141v-204l115 89v-97l-115 -89v-200c0 -31 10 -61 61 -61c20 0 54 8 77 23v-115z" />
    <glyph glyph-name="oslash" unicode="&#xf8;" horiz-adv-x="600" 
d="M554 230c0 -125 -99 -244 -254 -244c-44 0 -84 10 -118 26l-49 -63l-65 51l48 60c-45 46 -70 107 -70 170c0 125 99 244 254 244c44 0 84 -10 118 -26l49 63l65 -51l-48 -60c45 -46 70 -107 70 -170zM415 232c0 23 -5 44 -13 62l-143 -183c11 -3 24 -5 38 -5
c75 0 118 57 118 126zM340 348c-11 3 -24 5 -38 5c-75 0 -118 -57 -118 -126c0 -23 5 -44 13 -62z" />
    <glyph glyph-name="oe" unicode="&#x153;" horiz-adv-x="922" 
d="M882 196h-335c2 -61 49 -103 131 -103c62 0 144 29 192 68v-118c-52 -34 -138 -57 -217 -57c-78 0 -138 27 -179 70c-45 -44 -107 -70 -174 -70c-155 0 -254 119 -254 244s99 244 254 244c73 0 134 -29 177 -74c41 44 99 74 172 74c104 0 232 -50 233 -278zM740 286
c-8 60 -46 83 -92 83c-55 0 -90 -36 -98 -83h190zM409 230c0 64 -40 117 -109 117s-109 -53 -109 -117s40 -117 109 -117s109 53 109 117z" />
    <glyph glyph-name="germandbls" unicode="&#xdf;" horiz-adv-x="605" 
d="M551 207c0 -132 -92 -221 -208 -221c-35 0 -75 10 -85 14v121c12 -7 27 -13 55 -13c63 0 93 53 93 105c0 64 -48 116 -117 116h-28v105c8 -1 20 -2 27 -2c39 0 77 20 77 62c0 37 -30 66 -71 66c-29 0 -89 -9 -89 -133v-427h-141v429c0 197 126 257 236 257
c120 0 212 -71 212 -168c0 -59 -28 -102 -92 -132c66 -13 131 -83 131 -179z" />
    <glyph glyph-name="onesuperior" unicode="&#xb9;" horiz-adv-x="394" 
d="M244 270h-95v361l95 59v-420z" />
    <glyph glyph-name="logicalnot" unicode="&#xac;" 
d="M502 214h-120v164h-287v109h407v-273z" />
    <glyph glyph-name="mu" unicode="&#xb5;" horiz-adv-x="610" 
d="M578 533l-94 -533h-131l9 57c-27 -50 -59 -73 -105 -73c-44 0 -77 19 -104 59l-44 -257h-140l131 747h141l-37 -212c-12 -66 -15 -111 -15 -131c0 -61 27 -90 83 -90c70 0 99 57 121 182l44 251h141z" />
    <glyph glyph-name="trademark" unicode="&#x2122;" horiz-adv-x="408" 
d="M394 475h-52v107l-48 -57l-50 57v-107h-51v197h43l58 -68l58 68h42v-197zM176 623h-56v-148h-51v148h-55v49h162v-49z" />
    <glyph glyph-name="Eth" unicode="&#xd0;" horiz-adv-x="742" 
d="M688 336c0 -145 -108 -336 -368 -336h-246v299h-86v105h86v268h257c229 0 357 -178 357 -336zM534 336c0 106 -69 202 -206 202h-110v-134h143v-105h-143v-165h90c134 0 226 91 226 202z" />
    <glyph glyph-name="onehalf" unicode="&#xbd;" horiz-adv-x="865" 
d="M780 0h-276c77 115 163 256 163 289c0 25 -18 41 -45 41c-46 0 -91 -38 -112 -65v97c32 27 77 50 125 50c74 0 130 -57 130 -120c0 -52 -58 -143 -110 -215h125v-77zM492 697l-189 -711h-83l189 711h83zM195 270h-95v361l95 59v-420z" />
    <glyph glyph-name="plusminus" unicode="&#xb1;" 
d="M502 327h-149v-159h-109v159h-149v109h149v159h109v-159h149v-109zM502 0h-407v109h407v-109z" />
    <glyph glyph-name="Thorn" unicode="&#xde;" horiz-adv-x="573" 
d="M550 331c0 -130 -108 -218 -248 -218h-84v-113h-144v672h144v-113h82c162 0 250 -98 250 -228zM398 338c0 44 -26 87 -106 87h-74v-178h75c53 0 105 22 105 91z" />
    <glyph glyph-name="onequarter" unicode="&#xbc;" horiz-adv-x="853" 
d="M773 69h-53v-69h-95v69h-241l336 359v-276h53v-83zM492 697l-189 -711h-83l189 711h83zM195 270h-95v361l95 59v-420zM627 150v57l-53 -57h53z" />
    <glyph glyph-name="divide" unicode="&#xf7;" 
d="M353 445h-109v94h109v-94zM502 281h-407v109h407v-109zM353 132h-109v94h109v-94z" />
    <glyph glyph-name="brokenbar" unicode="&#xa6;" horiz-adv-x="275" 
d="M192 428h-109v390h109v-390zM192 -158h-109v390h109v-390z" />
    <glyph glyph-name="degree" unicode="&#xb0;" horiz-adv-x="348" 
d="M314 566c0 -77 -63 -140 -140 -140s-140 63 -140 140s63 140 140 140s140 -63 140 -140zM232 566c0 33 -25 58 -58 58s-58 -25 -58 -58s25 -58 58 -58s58 25 58 58z" />
    <glyph glyph-name="thorn" unicode="&#xfe;" horiz-adv-x="610" 
d="M564 232c0 -147 -105 -246 -220 -246c-52 0 -99 27 -132 52v-250h-141v884h141v-251c30 28 74 53 125 53c147 0 227 -124 227 -242zM416 232c0 86 -64 120 -112 120c-40 0 -71 -25 -92 -48v-147c32 -33 63 -49 97 -49c75 0 107 70 107 124z" />
    <glyph glyph-name="threequarters" unicode="&#xbe;" horiz-adv-x="964" 
d="M884 69h-53v-69h-95v69h-241l336 359v-276h53v-83zM604 697l-189 -711h-83l189 711h83zM350 398c0 -78 -72 -136 -154 -136c-69 0 -116 36 -146 78l70 56c11 -26 29 -54 70 -54c40 0 66 27 66 65c0 26 -21 63 -77 63c-15 0 -39 -5 -49 -9l72 135h-139v77h283l-83 -156
c36 -12 87 -44 87 -119zM738 150v57l-53 -57h53z" />
    <glyph glyph-name="twosuperior" unicode="&#xb2;" horiz-adv-x="394" 
d="M326 270h-276c77 115 163 256 163 289c0 25 -18 41 -45 41c-46 0 -91 -38 -112 -65v97c32 27 77 50 125 50c74 0 130 -57 130 -120c0 -52 -58 -143 -110 -215h125v-77z" />
    <glyph glyph-name="registered" unicode="&#xae;" horiz-adv-x="397" 
d="M355 544c0 -86 -72 -154 -157 -154s-156 68 -156 154s71 154 156 154s157 -68 157 -154zM308 544c0 60 -51 107 -110 107s-109 -47 -109 -107s50 -107 109 -107s110 47 110 107zM269 471h-43l-37 60h-5v-60h-37v150h48c26 0 56 -14 56 -44c0 -17 -9 -32 -24 -40zM214 577
c0 9 -12 9 -18 9h-12v-21h15c9 0 15 3 15 12z" />
    <glyph glyph-name="minus" unicode="&#x2212;" 
d="M502 281h-407v109h407v-109z" />
    <glyph glyph-name="eth" unicode="&#xf0;" horiz-adv-x="587" 
d="M541 242c0 -117 -84 -256 -257 -256c-155 0 -238 119 -238 244c0 141 103 232 199 232c30 0 59 -5 85 -19c-9 21 -27 52 -48 84l-96 -31l-25 74l74 24c-25 34 -48 63 -61 78h174c9 -11 17 -22 25 -33l107 34l25 -74l-85 -27c74 -113 121 -224 121 -330zM393 230
c0 27 -4 56 -13 78c-20 22 -57 43 -93 43c-69 0 -96 -57 -96 -121c0 -44 23 -117 93 -117c63 0 109 53 109 117z" />
    <glyph glyph-name="multiply" unicode="&#xd7;" 
d="M488 223l-77 -77l-112 113l-113 -113l-77 77l113 113l-113 112l77 77l112 -112l112 112l78 -77l-112 -112z" />
    <glyph glyph-name="threesuperior" unicode="&#xb3;" horiz-adv-x="394" 
d="M335 398c0 -78 -72 -136 -154 -136c-69 0 -116 36 -146 78l70 56c11 -26 29 -54 70 -54c40 0 66 27 66 65c0 26 -21 63 -77 63c-15 0 -39 -5 -49 -9l72 135h-139v77h283l-83 -156c36 -12 87 -44 87 -119z" />
    <glyph glyph-name="copyright" unicode="&#xa9;" horiz-adv-x="726" 
d="M691 305c0 -179 -147 -324 -328 -324s-328 145 -328 324s147 324 328 324s328 -145 328 -324zM613 305c0 137 -111 247 -250 247s-251 -110 -251 -247s112 -247 251 -247s250 110 250 247zM505 154c-35 -24 -77 -46 -141 -46c-127 0 -190 103 -190 198
c0 108 77 198 195 198c47 0 86 -12 136 -39v-87c-71 43 -104 49 -136 49c-81 0 -112 -73 -112 -121c0 -61 31 -120 107 -120c39 0 69 7 141 58v-90z" />
    <glyph glyph-name="Aacute" unicode="&#xc1;" horiz-adv-x="681" 
d="M529 863l-148 -132h-141l143 132h146zM668 0h-153l-49 138h-251l-49 -138h-153l261 672h133zM421 262l-80 225l-81 -225h161z" />
    <glyph glyph-name="Acircumflex" unicode="&#xc2;" horiz-adv-x="681" 
d="M541 731h-126l-71 84l-71 -84h-126l118 132h158zM668 0h-153l-49 138h-251l-49 -138h-153l261 672h133zM421 262l-80 225l-81 -225h161z" />
    <glyph glyph-name="Adieresis" unicode="&#xc4;" horiz-adv-x="681" 
d="M508 732h-130v130h130v-130zM312 732h-130v130h130v-130zM668 0h-153l-49 138h-251l-49 -138h-153l261 672h133zM421 262l-80 225l-81 -225h161z" />
    <glyph glyph-name="Agrave" unicode="&#xc0;" horiz-adv-x="681" 
d="M445 731h-141l-148 132h146zM668 0h-153l-49 138h-251l-49 -138h-153l261 672h133zM421 262l-80 225l-81 -225h161z" />
    <glyph glyph-name="Aring" unicode="&#xc5;" horiz-adv-x="681" 
d="M443 834c0 -57 -46 -103 -103 -103s-103 46 -103 103s46 103 103 103s103 -46 103 -103zM668 0h-153l-49 138h-251l-49 -138h-153l261 672h133zM385 834c0 25 -20 45 -45 45s-45 -20 -45 -45s20 -45 45 -45s45 20 45 45zM421 262l-80 225l-81 -225h161z" />
    <glyph glyph-name="Atilde" unicode="&#xc3;" horiz-adv-x="681" 
d="M525 868c-7 -84 -32 -134 -107 -134c-51 0 -100 36 -143 36c-16 0 -26 -15 -27 -43h-85c5 75 27 137 90 137c66 0 128 -39 159 -39c14 0 27 14 28 43h85zM668 0h-153l-49 138h-251l-49 -138h-153l261 672h133zM421 262l-80 225l-81 -225h161z" />
    <glyph glyph-name="Ccedilla" unicode="&#xc7;" horiz-adv-x="688" 
d="M642 476c-73 48 -147 75 -214 75c-137 0 -221 -107 -221 -215c0 -130 106 -215 222 -215c77 0 150 34 212 89v-161c-61 -37 -145 -61 -213 -63l-11 -50c42 -5 69 -43 69 -87c0 -63 -49 -111 -125 -111c-19 0 -53 5 -69 9v77c12 -7 34 -15 54 -15c28 0 48 19 48 46
c0 23 -19 45 -51 45c-3 0 -11 0 -14 -1l18 94c-165 33 -293 177 -293 343c0 200 167 350 365 350c76 0 165 -23 223 -52v-158z" />
    <glyph glyph-name="Eacute" unicode="&#xc9;" horiz-adv-x="577" 
d="M482 863l-148 -132h-141l143 132h146zM526 0h-452v672h452v-134h-308v-126h219v-134h-219v-144h308v-134z" />
    <glyph glyph-name="Ecircumflex" unicode="&#xca;" horiz-adv-x="577" 
d="M494 731h-126l-71 84l-71 -84h-126l118 132h158zM526 0h-452v672h452v-134h-308v-126h219v-134h-219v-144h308v-134z" />
    <glyph glyph-name="Edieresis" unicode="&#xcb;" horiz-adv-x="577" 
d="M461 732h-130v130h130v-130zM265 732h-130v130h130v-130zM526 0h-452v672h452v-134h-308v-126h219v-134h-219v-144h308v-134z" />
    <glyph glyph-name="Egrave" unicode="&#xc8;" horiz-adv-x="577" 
d="M398 731h-141l-148 132h146zM526 0h-452v672h452v-134h-308v-126h219v-134h-219v-144h308v-134z" />
    <glyph glyph-name="Iacute" unicode="&#xcd;" horiz-adv-x="292" 
d="M364 863l-148 -132h-141l143 132h146zM218 0h-144v672h144v-672z" />
    <glyph glyph-name="Icircumflex" unicode="&#xce;" horiz-adv-x="292" 
d="M346 731h-126l-71 84l-71 -84h-126l118 132h158zM218 0h-144v672h144v-672z" />
    <glyph glyph-name="Idieresis" unicode="&#xcf;" horiz-adv-x="292" 
d="M313 732h-130v130h130v-130zM117 732h-130v130h130v-130zM218 0h-144v672h144v-672z" />
    <glyph glyph-name="Igrave" unicode="&#xcc;" horiz-adv-x="292" 
d="M220 731h-141l-148 132h146zM218 0h-144v672h144v-672z" />
    <glyph glyph-name="Ntilde" unicode="&#xd1;" horiz-adv-x="769" 
d="M569 868c-7 -84 -32 -134 -107 -134c-51 0 -100 36 -143 36c-16 0 -26 -15 -27 -43h-85c5 75 27 137 90 137c66 0 128 -39 159 -39c14 0 27 14 28 43h85zM695 0h-135l-342 438v-438h-144v672h144l333 -426v426h144v-672z" />
    <glyph glyph-name="Oacute" unicode="&#xd3;" horiz-adv-x="834" 
d="M605 863l-148 -132h-141l143 132h146zM780 336c0 -173 -148 -350 -363 -350s-363 177 -363 350s148 350 363 350s363 -177 363 -350zM627 336c0 122 -90 215 -210 215s-210 -93 -210 -215s90 -215 210 -215s210 93 210 215z" />
    <glyph glyph-name="Ocircumflex" unicode="&#xd4;" horiz-adv-x="834" 
d="M617 731h-126l-71 84l-71 -84h-126l118 132h158zM780 336c0 -173 -148 -350 -363 -350s-363 177 -363 350s148 350 363 350s363 -177 363 -350zM627 336c0 122 -90 215 -210 215s-210 -93 -210 -215s90 -215 210 -215s210 93 210 215z" />
    <glyph glyph-name="Odieresis" unicode="&#xd6;" horiz-adv-x="834" 
d="M584 732h-130v130h130v-130zM388 732h-130v130h130v-130zM780 336c0 -173 -148 -350 -363 -350s-363 177 -363 350s148 350 363 350s363 -177 363 -350zM627 336c0 122 -90 215 -210 215s-210 -93 -210 -215s90 -215 210 -215s210 93 210 215z" />
    <glyph glyph-name="Ograve" unicode="&#xd2;" horiz-adv-x="834" 
d="M521 731h-141l-148 132h146zM780 336c0 -173 -148 -350 -363 -350s-363 177 -363 350s148 350 363 350s363 -177 363 -350zM627 336c0 122 -90 215 -210 215s-210 -93 -210 -215s90 -215 210 -215s210 93 210 215z" />
    <glyph glyph-name="Otilde" unicode="&#xd5;" horiz-adv-x="834" 
d="M601 868c-7 -84 -32 -134 -107 -134c-51 0 -100 36 -143 36c-16 0 -26 -15 -27 -43h-85c5 75 27 137 90 137c66 0 128 -39 159 -39c14 0 27 14 28 43h85zM780 336c0 -173 -148 -350 -363 -350s-363 177 -363 350s148 350 363 350s363 -177 363 -350zM627 336
c0 122 -90 215 -210 215s-210 -93 -210 -215s90 -215 210 -215s210 93 210 215z" />
    <glyph glyph-name="Scaron" unicode="&#x160;" horiz-adv-x="538" 
d="M476 863l-118 -132h-158l-118 132h126l71 -84l71 84h126zM500 208c0 -103 -79 -222 -230 -222c-127 0 -196 86 -231 161l127 67c11 -43 37 -98 105 -98c40 0 79 32 79 77c0 115 -282 97 -282 300c0 100 88 193 207 193c81 0 155 -41 203 -119l-120 -67
c-17 30 -46 55 -83 55c-39 0 -61 -22 -61 -52c0 -89 286 -77 286 -295z" />
    <glyph glyph-name="Uacute" unicode="&#xda;" horiz-adv-x="770" 
d="M573 863l-148 -132h-141l143 132h146zM701 303c0 -182 -128 -315 -316 -315s-316 133 -316 315v369h144v-373c0 -122 77 -178 172 -178s172 56 172 178v373h144v-369z" />
    <glyph glyph-name="Ucircumflex" unicode="&#xdb;" horiz-adv-x="770" 
d="M585 731h-126l-71 84l-71 -84h-126l118 132h158zM701 303c0 -182 -128 -315 -316 -315s-316 133 -316 315v369h144v-373c0 -122 77 -178 172 -178s172 56 172 178v373h144v-369z" />
    <glyph glyph-name="Udieresis" unicode="&#xdc;" horiz-adv-x="770" 
d="M552 732h-130v130h130v-130zM356 732h-130v130h130v-130zM701 303c0 -182 -128 -315 -316 -315s-316 133 -316 315v369h144v-373c0 -122 77 -178 172 -178s172 56 172 178v373h144v-369z" />
    <glyph glyph-name="Ugrave" unicode="&#xd9;" horiz-adv-x="770" 
d="M489 731h-141l-148 132h146zM701 303c0 -182 -128 -315 -316 -315s-316 133 -316 315v369h144v-373c0 -122 77 -178 172 -178s172 56 172 178v373h144v-369z" />
    <glyph glyph-name="Yacute" unicode="&#xdd;" horiz-adv-x="648" 
d="M542 863l-148 -132h-141l143 132h146zM634 672l-238 -376v-296h-144v296l-238 376h166l144 -240l144 240h166z" />
    <glyph glyph-name="Ydieresis" unicode="&#x178;" horiz-adv-x="648" 
d="M491 732h-130v130h130v-130zM295 732h-130v130h130v-130zM634 672l-238 -376v-296h-144v296l-238 376h166l144 -240l144 240h166z" />
    <glyph glyph-name="Zcaron" unicode="&#x17d;" horiz-adv-x="660" 
d="M530 863l-118 -132h-158l-118 132h126l71 -84l71 84h126zM614 0h-586l339 538h-316v134h561l-339 -538h341v-134z" />
    <glyph glyph-name="aacute" unicode="&#xe1;" horiz-adv-x="527" 
d="M452 651l-148 -132h-141l143 132h146zM459 0h-130v43c-42 -29 -97 -50 -141 -50c-80 0 -154 47 -154 137c0 39 17 86 77 120c47 27 124 44 211 49c-2 67 -53 73 -94 73c-55 0 -118 -24 -163 -55l27 117c52 23 115 40 176 40c114 0 191 -56 191 -185v-289zM322 125v91
c-66 -6 -95 -13 -119 -25c-26 -12 -38 -31 -38 -56c0 -20 13 -47 65 -47c11 0 57 11 92 37z" />
    <glyph glyph-name="acircumflex" unicode="&#xe2;" horiz-adv-x="527" 
d="M464 519h-126l-71 84l-71 -84h-126l118 132h158zM459 0h-130v43c-42 -29 -97 -50 -141 -50c-80 0 -154 47 -154 137c0 39 17 86 77 120c47 27 124 44 211 49c-2 67 -53 73 -94 73c-55 0 -118 -24 -163 -55l27 117c52 23 115 40 176 40c114 0 191 -56 191 -185v-289z
M322 125v91c-66 -6 -95 -13 -119 -25c-26 -12 -38 -31 -38 -56c0 -20 13 -47 65 -47c11 0 57 11 92 37z" />
    <glyph glyph-name="adieresis" unicode="&#xe4;" horiz-adv-x="527" 
d="M431 520h-130v130h130v-130zM235 520h-130v130h130v-130zM459 0h-130v43c-42 -29 -97 -50 -141 -50c-80 0 -154 47 -154 137c0 39 17 86 77 120c47 27 124 44 211 49c-2 67 -53 73 -94 73c-55 0 -118 -24 -163 -55l27 117c52 23 115 40 176 40c114 0 191 -56 191 -185
v-289zM322 125v91c-66 -6 -95 -13 -119 -25c-26 -12 -38 -31 -38 -56c0 -20 13 -47 65 -47c11 0 57 11 92 37z" />
    <glyph glyph-name="agrave" unicode="&#xe0;" horiz-adv-x="527" 
d="M368 519h-141l-148 132h146zM459 0h-130v43c-42 -29 -97 -50 -141 -50c-80 0 -154 47 -154 137c0 39 17 86 77 120c47 27 124 44 211 49c-2 67 -53 73 -94 73c-55 0 -118 -24 -163 -55l27 117c52 23 115 40 176 40c114 0 191 -56 191 -185v-289zM322 125v91
c-66 -6 -95 -13 -119 -25c-26 -12 -38 -31 -38 -56c0 -20 13 -47 65 -47c11 0 57 11 92 37z" />
    <glyph glyph-name="aring" unicode="&#xe5;" horiz-adv-x="527" 
d="M365 622c0 -57 -46 -103 -103 -103s-103 46 -103 103s46 103 103 103s103 -46 103 -103zM459 0h-130v43c-42 -29 -97 -50 -141 -50c-80 0 -154 47 -154 137c0 39 17 86 77 120c47 27 124 44 211 49c-2 67 -53 73 -94 73c-55 0 -118 -24 -163 -55l27 117
c52 23 115 40 176 40c114 0 191 -56 191 -185v-289zM307 622c0 25 -20 45 -45 45s-45 -20 -45 -45s20 -45 45 -45s45 20 45 45zM322 125v91c-66 -6 -95 -13 -119 -25c-26 -12 -38 -31 -38 -56c0 -20 13 -47 65 -47c11 0 57 11 92 37z" />
    <glyph glyph-name="atilde" unicode="&#xe3;" horiz-adv-x="527" 
d="M448 656c-7 -84 -32 -134 -107 -134c-51 0 -100 36 -143 36c-16 0 -26 -15 -27 -43h-85c5 75 27 137 90 137c66 0 128 -39 159 -39c14 0 27 14 28 43h85zM459 0h-130v43c-42 -29 -97 -50 -141 -50c-80 0 -154 47 -154 137c0 39 17 86 77 120c47 27 124 44 211 49
c-2 67 -53 73 -94 73c-55 0 -118 -24 -163 -55l27 117c52 23 115 40 176 40c114 0 191 -56 191 -185v-289zM322 125v91c-66 -6 -95 -13 -119 -25c-26 -12 -38 -31 -38 -56c0 -20 13 -47 65 -47c11 0 57 11 92 37z" />
    <glyph glyph-name="ccedilla" unicode="&#xe7;" horiz-adv-x="488" 
d="M446 24c-36 -20 -81 -34 -124 -37l-4 -23c38 -4 63 -39 63 -79c0 -54 -45 -98 -112 -98c-17 0 -35 2 -48 4v68c10 -5 22 -9 36 -9c25 0 40 16 40 41c0 21 -17 40 -46 40h-8l11 58c-131 20 -208 126 -208 241c0 128 96 244 254 244c49 0 104 -14 146 -38v-131
c-38 29 -83 44 -129 44c-80 0 -126 -54 -126 -119s46 -119 126 -119c49 0 88 15 129 44v-131z" />
    <glyph glyph-name="eacute" unicode="&#xe9;" horiz-adv-x="564" 
d="M470 651l-148 -132h-141l143 132h146zM524 196h-335c2 -61 49 -103 131 -103c62 0 144 29 192 68v-118c-52 -34 -138 -57 -217 -57c-154 0 -249 97 -249 244c0 125 92 244 245 244c104 0 232 -50 233 -278zM382 286c-8 60 -46 83 -92 83c-55 0 -90 -36 -98 -83h190z" />
    <glyph glyph-name="ecircumflex" unicode="&#xea;" horiz-adv-x="564" 
d="M482 519h-126l-71 84l-71 -84h-126l118 132h158zM524 196h-335c2 -61 49 -103 131 -103c62 0 144 29 192 68v-118c-52 -34 -138 -57 -217 -57c-154 0 -249 97 -249 244c0 125 92 244 245 244c104 0 232 -50 233 -278zM382 286c-8 60 -46 83 -92 83c-55 0 -90 -36 -98 -83
h190z" />
    <glyph glyph-name="edieresis" unicode="&#xeb;" horiz-adv-x="564" 
d="M449 520h-130v130h130v-130zM253 520h-130v130h130v-130zM524 196h-335c2 -61 49 -103 131 -103c62 0 144 29 192 68v-118c-52 -34 -138 -57 -217 -57c-154 0 -249 97 -249 244c0 125 92 244 245 244c104 0 232 -50 233 -278zM382 286c-8 60 -46 83 -92 83
c-55 0 -90 -36 -98 -83h190z" />
    <glyph glyph-name="egrave" unicode="&#xe8;" horiz-adv-x="564" 
d="M386 519h-141l-148 132h146zM524 196h-335c2 -61 49 -103 131 -103c62 0 144 29 192 68v-118c-52 -34 -138 -57 -217 -57c-154 0 -249 97 -249 244c0 125 92 244 245 244c104 0 232 -50 233 -278zM382 286c-8 60 -46 83 -92 83c-55 0 -90 -36 -98 -83h190z" />
    <glyph glyph-name="iacute" unicode="&#xed;" horiz-adv-x="280" 
d="M358 651l-148 -132h-141l143 132h146zM213 0h-141v460h141v-460z" />
    <glyph glyph-name="icircumflex" unicode="&#xee;" horiz-adv-x="280" 
d="M340 519h-126l-71 84l-71 -84h-126l118 132h158zM213 0h-141v460h141v-460z" />
    <glyph glyph-name="idieresis" unicode="&#xef;" horiz-adv-x="280" 
d="M307 520h-130v130h130v-130zM111 520h-130v130h130v-130zM213 0h-141v460h141v-460z" />
    <glyph glyph-name="igrave" unicode="&#xec;" horiz-adv-x="280" 
d="M214 519h-141l-148 132h146zM213 0h-141v460h141v-460z" />
    <glyph glyph-name="ntilde" unicode="&#xf1;" horiz-adv-x="602" 
d="M485 656c-7 -84 -32 -134 -107 -134c-51 0 -100 36 -143 36c-16 0 -26 -15 -27 -43h-85c5 75 27 137 90 137c66 0 128 -39 159 -39c14 0 27 14 28 43h85zM536 0h-141v244c0 79 -42 109 -89 109c-38 0 -63 -13 -94 -38v-315h-141v460h134v-44c35 30 79 58 147 58
c82 0 184 -50 184 -208v-266z" />
    <glyph glyph-name="oacute" unicode="&#xf3;" horiz-adv-x="600" 
d="M488 651l-148 -132h-141l143 132h146zM554 230c0 -125 -99 -244 -254 -244s-254 119 -254 244s99 244 254 244s254 -119 254 -244zM409 230c0 64 -40 117 -109 117s-109 -53 -109 -117s40 -117 109 -117s109 53 109 117z" />
    <glyph glyph-name="ocircumflex" unicode="&#xf4;" horiz-adv-x="600" 
d="M500 519h-126l-71 84l-71 -84h-126l118 132h158zM554 230c0 -125 -99 -244 -254 -244s-254 119 -254 244s99 244 254 244s254 -119 254 -244zM409 230c0 64 -40 117 -109 117s-109 -53 -109 -117s40 -117 109 -117s109 53 109 117z" />
    <glyph glyph-name="odieresis" unicode="&#xf6;" horiz-adv-x="600" 
d="M467 520h-130v130h130v-130zM271 520h-130v130h130v-130zM554 230c0 -125 -99 -244 -254 -244s-254 119 -254 244s99 244 254 244s254 -119 254 -244zM409 230c0 64 -40 117 -109 117s-109 -53 -109 -117s40 -117 109 -117s109 53 109 117z" />
    <glyph glyph-name="ograve" unicode="&#xf2;" horiz-adv-x="600" 
d="M404 519h-141l-148 132h146zM554 230c0 -125 -99 -244 -254 -244s-254 119 -254 244s99 244 254 244s254 -119 254 -244zM409 230c0 64 -40 117 -109 117s-109 -53 -109 -117s40 -117 109 -117s109 53 109 117z" />
    <glyph glyph-name="otilde" unicode="&#xf5;" horiz-adv-x="600" 
d="M484 656c-7 -84 -32 -134 -107 -134c-51 0 -100 36 -143 36c-16 0 -26 -15 -27 -43h-85c5 75 27 137 90 137c66 0 128 -39 159 -39c14 0 27 14 28 43h85zM554 230c0 -125 -99 -244 -254 -244s-254 119 -254 244s99 244 254 244s254 -119 254 -244zM409 230
c0 64 -40 117 -109 117s-109 -53 -109 -117s40 -117 109 -117s109 53 109 117z" />
    <glyph glyph-name="scaron" unicode="&#x161;" horiz-adv-x="485" 
d="M438 651l-118 -132h-158l-118 132h126l71 -84l71 84h126zM443 136c0 -53 -46 -150 -207 -150c-73 0 -160 25 -188 37v126c48 -26 121 -57 187 -57c42 0 66 13 66 33c0 15 -8 21 -44 32c-120 37 -152 54 -181 82c-21 20 -36 50 -36 86c0 90 81 149 192 149
c76 0 127 -15 171 -32v-118c-51 28 -120 46 -160 46c-45 0 -60 -15 -60 -32c0 -16 10 -24 70 -44c116 -39 130 -48 152 -65c26 -21 38 -56 38 -93z" />
    <glyph glyph-name="uacute" unicode="&#xfa;" horiz-adv-x="602" 
d="M489 651l-148 -132h-141l143 132h146zM531 0h-134v44c-35 -30 -79 -58 -147 -58c-82 0 -184 50 -184 208v266h141v-244c0 -79 42 -109 89 -109c38 0 63 13 94 38v315h141v-460z" />
    <glyph glyph-name="ucircumflex" unicode="&#xfb;" horiz-adv-x="602" 
d="M501 519h-126l-71 84l-71 -84h-126l118 132h158zM531 0h-134v44c-35 -30 -79 -58 -147 -58c-82 0 -184 50 -184 208v266h141v-244c0 -79 42 -109 89 -109c38 0 63 13 94 38v315h141v-460z" />
    <glyph glyph-name="udieresis" unicode="&#xfc;" horiz-adv-x="602" 
d="M468 520h-130v130h130v-130zM272 520h-130v130h130v-130zM531 0h-134v44c-35 -30 -79 -58 -147 -58c-82 0 -184 50 -184 208v266h141v-244c0 -79 42 -109 89 -109c38 0 63 13 94 38v315h141v-460z" />
    <glyph glyph-name="ugrave" unicode="&#xf9;" horiz-adv-x="602" 
d="M405 519h-141l-148 132h146zM531 0h-134v44c-35 -30 -79 -58 -147 -58c-82 0 -184 50 -184 208v266h141v-244c0 -79 42 -109 89 -109c38 0 63 13 94 38v315h141v-460z" />
    <glyph glyph-name="yacute" unicode="&#xfd;" horiz-adv-x="577" 
d="M507 651l-148 -132h-141l143 132h146zM565 460l-281 -560c-50 -100 -105 -136 -184 -136c-31 0 -73 7 -83 10v112c14 -4 40 -8 57 -8c41 0 62 21 76 47l67 128l-201 407h161l111 -261l118 261h159z" />
    <glyph glyph-name="ydieresis" unicode="&#xff;" horiz-adv-x="577" 
d="M456 520h-130v130h130v-130zM260 520h-130v130h130v-130zM565 460l-281 -560c-50 -100 -105 -136 -184 -136c-31 0 -73 7 -83 10v112c14 -4 40 -8 57 -8c41 0 62 21 76 47l67 128l-201 407h161l111 -261l118 261h159z" />
    <glyph glyph-name="zcaron" unicode="&#x17e;" horiz-adv-x="511" 
d="M462 651l-118 -132h-158l-118 132h126l71 -84l71 84h126zM473 0h-441l218 350h-189v110h406l-212 -350h218v-110z" />
    <glyph glyph-name="uni00A0" unicode="&#xa0;" 
 />
    <glyph glyph-name="uni00AD" unicode="&#xad;" horiz-adv-x="429" 
d="M379 191h-329v116h329v-116z" />
    <glyph glyph-name="uni02C9" unicode="&#x2c9;" horiz-adv-x="500" 
d="M409 545h-310v81h310v-81z" />
    <glyph glyph-name="uni03A9" unicode="&#x3a9;" horiz-adv-x="783" 
d="M730 0h-288v122c61 53 126 128 126 255c0 114 -63 203 -177 203c-105 0 -185 -80 -185 -209c0 -125 70 -201 126 -249v-122h-289v122h166c-77 48 -166 132 -166 283c0 178 139 307 347 307c232 0 342 -139 342 -303c0 -137 -76 -230 -172 -287h170v-122z" />
    <glyph glyph-name="uni03BC" unicode="&#x3bc;" horiz-adv-x="610" 
d="M578 533l-94 -533h-131l9 57c-27 -50 -59 -73 -105 -73c-44 0 -77 19 -104 59l-44 -257h-140l131 747h141l-37 -212c-12 -66 -15 -111 -15 -131c0 -61 27 -90 83 -90c70 0 99 57 121 182l44 251h141z" />
    <glyph glyph-name="pi" unicode="&#x3c0;" horiz-adv-x="770" 
d="M693 108l25 -94c-24 -15 -59 -24 -108 -24c-116 0 -157 76 -157 167v235h-125v-239c0 -72 -8 -117 -22 -153h-154c15 42 24 102 24 165v227c-30 0 -75 -11 -100 -25c-9 22 -31 72 -41 94c31 19 94 39 174 39h502v-108h-106v-213c0 -48 12 -81 51 -81c16 0 27 6 37 10z
" />
    <glyph glyph-name="Euro" unicode="&#x20ac;" 
d="M595 612l-46 -119c-64 47 -117 63 -163 63c-79 0 -120 -49 -139 -106h245l-28 -93h-233v-22v-20h227l-27 -93h-183c22 -61 69 -104 150 -104c40 0 109 12 168 73v-145c-74 -52 -147 -58 -188 -58c-152 0 -247 106 -282 234h-108l28 93h65v21v21h-93l28 93h79
c35 130 130 236 284 236c92 0 162 -37 216 -74z" />
    <glyph glyph-name="litre" unicode="&#x2113;" horiz-adv-x="547" 
d="M468 49c-35 -30 -95 -66 -165 -66c-49 0 -84 14 -112 43c-31 32 -44 89 -44 135v50c-19 -17 -37 -34 -56 -52c-13 23 -26 45 -40 68c32 29 64 58 96 88v188c0 135 58 225 170 225c91 0 127 -67 127 -129c0 -96 -51 -174 -126 -253c-12 -12 -28 -30 -36 -38v-125
c0 -72 26 -97 64 -97c34 0 64 24 80 40c14 -26 28 -51 42 -77zM359 580c0 27 -11 45 -33 45c-30 0 -44 -36 -44 -89v-122c5 6 13 15 19 22c37 47 58 103 58 144z" />
    <glyph glyph-name="Omega" unicode="&#x2126;" horiz-adv-x="783" 
d="M730 0h-288v122c61 53 126 128 126 255c0 114 -63 203 -177 203c-105 0 -185 -80 -185 -209c0 -125 70 -201 126 -249v-122h-289v122h166c-77 48 -166 132 -166 283c0 178 139 307 347 307c232 0 342 -139 342 -303c0 -137 -76 -230 -172 -287h170v-122z" />
    <glyph glyph-name="estimated" unicode="&#x212e;" horiz-adv-x="704" 
d="M652 312h-480v-216c46 -45 103 -69 170 -69c115 0 180 59 232 142c12 -8 24 -15 37 -23c-62 -94 -135 -158 -269 -158c-185 0 -304 147 -304 325c0 179 116 324 306 324c192 0 305 -146 308 -325zM516 351v177c-44 42 -107 71 -172 71c-67 0 -127 -24 -172 -70v-178h344z
" />
    <glyph glyph-name="partialdiff" unicode="&#x2202;" horiz-adv-x="648" 
d="M603 454c0 -64 -8 -126 -25 -186c-49 -164 -152 -280 -306 -280c-133 0 -223 89 -223 210c0 199 141 292 263 292c67 0 117 -29 140 -64h3c1 15 2 28 2 45c0 89 -45 151 -133 151c-36 0 -76 -12 -106 -31c-11 33 -21 65 -31 97c33 24 95 44 165 44
c164 0 251 -114 251 -278zM436 322c-13 38 -42 67 -90 67c-79 0 -145 -89 -145 -196c0 -55 30 -92 78 -92c80 0 136 105 157 221z" />
    <glyph glyph-name="Delta" unicode="&#x2206;" horiz-adv-x="699" 
d="M702 0h-677v62c80 213 159 425 239 638h203c78 -213 156 -425 235 -638v-62zM521 123c-48 132 -95 264 -143 396c-9 28 -14 54 -17 65h-4c-3 -11 -7 -35 -16 -62c-48 -133 -97 -266 -145 -399h325z" />
    <glyph glyph-name="product" unicode="&#x220f;" horiz-adv-x="812" 
d="M733 -230h-153v798h-348v-798h-153v930h654v-930z" />
    <glyph glyph-name="summation" unicode="&#x2211;" horiz-adv-x="708" 
d="M662 -230h-643v82c107 130 213 258 320 388c-101 123 -202 248 -302 372v88h604v-122h-402c89 -112 178 -223 267 -335c-94 -117 -189 -234 -284 -351h440v-122z" />
    <glyph glyph-name="uni2215" unicode="&#x2215;" horiz-adv-x="149" 
d="M233 800l-246 -929h-113l246 929h113z" />
    <glyph glyph-name="uni2219" unicode="&#x2219;" horiz-adv-x="280" 
d="M209 273h-138v137h138v-137z" />
    <glyph glyph-name="radical" unicode="&#x221a;" horiz-adv-x="610" 
d="M607 729c-76 -247 -151 -494 -226 -741h-105c-46 101 -92 202 -139 304c-20 -13 -40 -26 -61 -38c-13 24 -27 47 -40 71c53 33 108 67 162 101c43 -98 86 -196 130 -294l180 597h99z" />
    <glyph glyph-name="infinity" unicode="&#x221e;" horiz-adv-x="892" 
d="M837 294c0 -112 -80 -191 -193 -191c-79 0 -152 42 -200 111h-2c-43 -60 -115 -111 -199 -111c-113 0 -196 73 -196 188c0 117 87 188 194 188c85 0 154 -45 201 -111h2c36 51 104 111 197 111c116 0 196 -76 196 -185zM725 292c0 46 -28 88 -93 88
c-53 0 -97 -35 -133 -89c34 -53 80 -89 135 -89c61 0 91 43 91 90zM385 292c-34 50 -82 88 -135 88c-56 0 -91 -39 -91 -89c0 -51 38 -89 94 -89c52 0 99 39 132 90z" />
    <glyph glyph-name="integral" unicode="&#x222b;" horiz-adv-x="543" 
d="M459 626c-9 5 -29 11 -50 11c-43 0 -71 -27 -71 -84v-578c0 -134 -68 -214 -198 -214c-35 0 -82 8 -104 18c10 35 19 71 28 106c13 -5 31 -10 51 -10c44 0 71 28 71 84v576c0 135 65 216 197 216c43 0 88 -10 107 -20c-10 -35 -20 -70 -31 -105z" />
    <glyph glyph-name="approxequal" unicode="&#x2248;" 
d="M551 423c-40 -59 -82 -93 -149 -93c-34 0 -74 9 -110 31c-29 18 -59 32 -92 32c-40 0 -66 -41 -82 -67l-71 83c36 52 77 93 149 93c41 0 76 -11 109 -30c36 -21 63 -33 93 -33c39 0 64 37 82 67zM551 188c-40 -60 -82 -93 -149 -93c-34 0 -74 8 -110 31
c-29 17 -59 32 -92 32c-40 0 -66 -41 -82 -67l-71 83c36 52 77 93 149 93c41 0 76 -12 109 -31c36 -21 63 -32 93 -32c39 0 64 36 82 66z" />
    <glyph glyph-name="notequal" unicode="&#x2260;" 
d="M518 127h-236l-47 -104h-120l47 104h-82v109h130l58 128h-188v109h237l55 121h120l-55 -121h81v-109h-130l-58 -128h188v-109z" />
    <glyph glyph-name="lessequal" unicode="&#x2264;" 
d="M518 0h-438v109h438v-109zM518 144l-438 177v102l438 176v-113l-302 -114v-2l302 -114v-112z" />
    <glyph glyph-name="greaterequal" unicode="&#x2265;" 
d="M517 0h-437v109h437v-109zM518 321l-438 -176v113l302 114v2l-302 114v112l438 -177v-102z" />
    <glyph glyph-name="lozenge" unicode="&#x25ca;" horiz-adv-x="639" 
d="M573 350c-77 -117 -153 -233 -230 -350h-69c-76 116 -153 233 -230 349c77 117 154 234 230 351h69c77 -117 153 -233 230 -350zM462 350c-51 79 -102 157 -153 236c-52 -79 -103 -157 -154 -236c51 -79 102 -157 154 -236c51 79 102 157 153 236z" />
    <glyph glyph-name="A.sc" unicode="&#xe000;" horiz-adv-x="606" 
d="M592 0h-153l-34 87h-204l-34 -87h-153l221 514h136zM364 194l-61 159l-61 -159h122z" />
    <glyph glyph-name="AE.sc" unicode="&#xe001;" horiz-adv-x="879" 
d="M833 0h-377v95h-205l-63 -95h-174l370 514h449v-113h-236v-82h182v-113h-182v-93h236v-113zM456 208v197l-130 -197h130z" />
    <glyph glyph-name="Aacute.sc" unicode="&#xe002;" horiz-adv-x="606" 
d="M503 700l-148 -132h-141l143 132h146zM592 0h-153l-34 87h-204l-34 -87h-153l221 514h136zM364 194l-61 159l-61 -159h122z" />
    <glyph glyph-name="Acircumflex.sc" unicode="&#xe003;" horiz-adv-x="606" 
d="M503 568h-126l-71 84l-71 -84h-126l118 132h158zM592 0h-153l-34 87h-204l-34 -87h-153l221 514h136zM364 194l-61 159l-61 -159h122z" />
    <glyph glyph-name="Adieresis.sc" unicode="&#xe004;" horiz-adv-x="606" 
d="M467 570h-130v130h130v-130zM271 570h-130v130h130v-130zM592 0h-153l-34 87h-204l-34 -87h-153l221 514h136zM364 194l-61 159l-61 -159h122z" />
    <glyph glyph-name="Agrave.sc" unicode="&#xe005;" horiz-adv-x="606" 
d="M399 568h-141l-148 132h146zM592 0h-153l-34 87h-204l-34 -87h-153l221 514h136zM364 194l-61 159l-61 -159h122z" />
    <glyph glyph-name="Aring.sc" unicode="&#xe006;" horiz-adv-x="606" 
d="M406 671c0 -57 -46 -103 -103 -103s-103 46 -103 103s46 103 103 103s103 -46 103 -103zM592 0h-153l-34 87h-204l-34 -87h-153l221 514h136zM348 671c0 25 -20 45 -45 45s-45 -20 -45 -45s20 -45 45 -45s45 20 45 45zM364 194l-61 159l-61 -159h122z" />
    <glyph glyph-name="Atilde.sc" unicode="&#xe007;" horiz-adv-x="606" 
d="M484 703c-7 -84 -32 -134 -107 -134c-51 0 -100 36 -143 36c-16 0 -26 -15 -27 -43h-85c5 75 27 137 90 137c66 0 128 -39 159 -39c14 0 27 14 28 43h85zM592 0h-153l-34 87h-204l-34 -87h-153l221 514h136zM364 194l-61 159l-61 -159h122z" />
    <glyph glyph-name="B.sc" unicode="&#xe008;" horiz-adv-x="534" 
d="M496 147c0 -65 -46 -147 -163 -147h-261v514h227c83 0 163 -49 163 -132c0 -37 -17 -76 -67 -105c54 -19 101 -58 101 -130zM323 362c0 29 -20 43 -57 43h-56v-91h60c31 0 53 19 53 48zM356 159c0 33 -26 49 -59 49h-87v-100h87c44 0 59 23 59 51z" />
    <glyph glyph-name="C.sc" unicode="&#xe009;" horiz-adv-x="565" 
d="M519 35c-60 -32 -128 -44 -181 -44c-186 0 -288 136 -288 266c0 137 112 266 287 266c68 0 127 -14 182 -38v-131c-63 36 -117 45 -171 45c-100 0 -152 -70 -152 -142c0 -77 58 -142 161 -142c63 0 124 25 162 57v-137z" />
    <glyph glyph-name="Ccedilla.sc" unicode="&#xe00a;" horiz-adv-x="565" 
d="M519 35c-50 -26 -104 -39 -152 -43l-5 -28c38 -4 63 -39 63 -79c0 -54 -45 -98 -112 -98c-17 0 -35 2 -48 4v68c10 -5 22 -9 36 -9c25 0 40 16 40 41c0 21 -17 40 -46 40h-8l12 62c-161 18 -249 143 -249 264c0 137 112 266 287 266c68 0 127 -14 182 -38v-131
c-63 36 -117 45 -171 45c-100 0 -152 -70 -152 -142c0 -77 58 -142 161 -142c63 0 124 25 162 57v-137z" />
    <glyph glyph-name="D.sc" unicode="&#xe00b;" horiz-adv-x="636" 
d="M586 257c0 -132 -101 -257 -286 -257h-228v514h236c148 0 278 -100 278 -257zM440 257c0 86 -62 137 -158 137h-69v-274h59c124 0 168 72 168 137z" />
    <glyph glyph-name="Eth.sc" unicode="&#xe00c;" horiz-adv-x="636" 
d="M586 257c0 -132 -101 -257 -286 -257h-228v208h-80v105h80v201h236c148 0 278 -100 278 -257zM440 257c0 86 -62 137 -158 137h-69v-81h101v-105h-101v-88h59c124 0 168 72 168 137z" />
    <glyph glyph-name="E.sc" unicode="&#xe00d;" horiz-adv-x="495" 
d="M449 0h-377v514h377v-113h-236v-82h182v-113h-182v-93h236v-113z" />
    <glyph glyph-name="Eacute.sc" unicode="&#xe00e;" horiz-adv-x="495" 
d="M447 700l-148 -132h-141l143 132h146zM449 0h-377v514h377v-113h-236v-82h182v-113h-182v-93h236v-113z" />
    <glyph glyph-name="Ecircumflex.sc" unicode="&#xe00f;" horiz-adv-x="495" 
d="M457 568h-126l-71 84l-71 -84h-126l118 132h158zM449 0h-377v514h377v-113h-236v-82h182v-113h-182v-93h236v-113z" />
    <glyph glyph-name="Edieresis.sc" unicode="&#xe010;" horiz-adv-x="495" 
d="M426 570h-130v130h130v-130zM230 570h-130v130h130v-130zM449 0h-377v514h377v-113h-236v-82h182v-113h-182v-93h236v-113z" />
    <glyph glyph-name="Egrave.sc" unicode="&#xe011;" horiz-adv-x="495" 
d="M373 568h-141l-148 132h146zM449 0h-377v514h377v-113h-236v-82h182v-113h-182v-93h236v-113z" />
    <glyph glyph-name="F.sc" unicode="&#xe012;" horiz-adv-x="481" 
d="M445 394h-232v-87h169v-120h-169v-187h-141v514h373v-120z" />
    <glyph glyph-name="G.sc" unicode="&#xe013;" horiz-adv-x="610" 
d="M551 43c-68 -34 -145 -52 -213 -52c-184 0 -288 137 -288 266c0 137 112 266 287 266c78 0 149 -15 206 -40v-131c-57 29 -144 47 -195 47c-100 0 -152 -70 -152 -142c0 -76 62 -144 161 -144c20 0 45 5 56 9v68h-96v103h234v-250z" />
    <glyph glyph-name="H.sc" unicode="&#xe014;" horiz-adv-x="641" 
d="M569 0h-141v202h-215v-202h-141v514h141v-192h215v192h141v-514z" />
    <glyph glyph-name="I.sc" unicode="&#xe015;" horiz-adv-x="285" 
d="M213 0h-141v514h141v-514z" />
    <glyph glyph-name="Iacute.sc" unicode="&#xe016;" horiz-adv-x="285" 
d="M353 700l-148 -132h-141l143 132h146zM213 0h-141v514h141v-514z" />
    <glyph glyph-name="Icircumflex.sc" unicode="&#xe017;" horiz-adv-x="285" 
d="M343 568h-126l-71 84l-71 -84h-126l118 132h158zM213 0h-141v514h141v-514z" />
    <glyph glyph-name="Idieresis.sc" unicode="&#xe018;" horiz-adv-x="285" 
d="M306 570h-131v130h131v-130zM109 570h-130v130h130v-130zM213 0h-141v514h141v-514z" />
    <glyph glyph-name="Igrave.sc" unicode="&#xe019;" horiz-adv-x="285" 
d="M229 568h-141l-148 132h146zM213 0h-141v514h141v-514z" />
    <glyph glyph-name="J.sc" unicode="&#xe01a;" horiz-adv-x="419" 
d="M347 168c0 -97 -60 -177 -169 -177c-105 0 -147 56 -173 127l113 46c5 -25 19 -48 46 -48c31 0 42 23 42 56v342h141v-346z" />
    <glyph glyph-name="K.sc" unicode="&#xe01b;" horiz-adv-x="596" 
d="M589 0h-195l-181 209v-209h-141v514h141v-195l164 195h186l-228 -246z" />
    <glyph glyph-name="L.sc" unicode="&#xe01c;" horiz-adv-x="469" 
d="M442 0h-370v514h141v-394h229v-120z" />
    <glyph glyph-name="Lslash.sc" unicode="&#xe01d;" horiz-adv-x="469" 
d="M442 0h-370v174l-64 -49v99l64 49v241h141v-133l132 101v-99l-132 -101v-162h229v-120z" />
    <glyph glyph-name="M.sc" unicode="&#xe01e;" horiz-adv-x="734" 
d="M662 0h-141v324l-154 -172l-154 172v-324h-141v514h141l154 -180l154 180h141v-514z" />
    <glyph glyph-name="N.sc" unicode="&#xe01f;" horiz-adv-x="667" 
d="M595 0h-134l-248 298v-298h-141v514h135l247 -304v304h141v-514z" />
    <glyph glyph-name="Ntilde.sc" unicode="&#xe020;" horiz-adv-x="667" 
d="M515 703c-7 -84 -32 -134 -107 -134c-51 0 -100 36 -143 36c-16 0 -26 -15 -27 -43h-85c5 75 27 137 90 137c66 0 128 -39 159 -39c14 0 27 14 28 43h85zM595 0h-134l-248 298v-298h-141v514h135l247 -304v304h141v-514z" />
    <glyph glyph-name="O.sc" unicode="&#xe021;" horiz-adv-x="656" 
d="M606 257c0 -151 -133 -266 -278 -266s-278 115 -278 266s133 266 278 266s278 -115 278 -266zM460 257c0 68 -45 142 -132 142s-132 -74 -132 -142s45 -142 132 -142s132 74 132 142z" />
    <glyph glyph-name="OE.sc" unicode="&#xe022;" horiz-adv-x="883" 
d="M837 0h-377v29c-37 -24 -82 -38 -132 -38c-164 0 -278 130 -278 266c0 151 133 266 278 266c50 0 95 -14 132 -38v29h377v-113h-236v-82h182v-113h-182v-93h236v-113zM460 257c0 68 -45 142 -132 142s-132 -74 -132 -142s45 -142 132 -142s132 74 132 142z" />
    <glyph glyph-name="Oacute.sc" unicode="&#xe023;" horiz-adv-x="656" 
d="M518 700l-148 -132h-141l143 132h146zM606 257c0 -151 -133 -266 -278 -266s-278 115 -278 266s133 266 278 266s278 -115 278 -266zM460 257c0 68 -45 142 -132 142s-132 -74 -132 -142s45 -142 132 -142s132 74 132 142z" />
    <glyph glyph-name="Ocircumflex.sc" unicode="&#xe024;" horiz-adv-x="656" 
d="M523 568h-126l-71 84l-71 -84h-126l118 132h158zM606 257c0 -151 -133 -266 -278 -266s-278 115 -278 266s133 266 278 266s278 -115 278 -266zM460 257c0 68 -45 142 -132 142s-132 -74 -132 -142s45 -142 132 -142s132 74 132 142z" />
    <glyph glyph-name="Odieresis.sc" unicode="&#xe025;" horiz-adv-x="656" 
d="M492 570h-130v130h130v-130zM296 570h-130v130h130v-130zM606 257c0 -151 -133 -266 -278 -266s-278 115 -278 266s133 266 278 266s278 -115 278 -266zM460 257c0 68 -45 142 -132 142s-132 -74 -132 -142s45 -142 132 -142s132 74 132 142z" />
    <glyph glyph-name="Ograve.sc" unicode="&#xe026;" horiz-adv-x="656" 
d="M434 568h-141l-148 132h146zM606 257c0 -151 -133 -266 -278 -266s-278 115 -278 266s133 266 278 266s278 -115 278 -266zM460 257c0 68 -45 142 -132 142s-132 -74 -132 -142s45 -142 132 -142s132 74 132 142z" />
    <glyph glyph-name="Oslash.sc" unicode="&#xe027;" horiz-adv-x="656" 
d="M606 257c0 -151 -133 -266 -278 -266c-45 0 -88 11 -127 30l-68 -84l-76 61l66 81c-45 47 -73 108 -73 178c0 151 133 266 278 266c46 0 91 -11 131 -32l68 84l76 -61l-67 -82c43 -46 70 -107 70 -175zM460 257c0 22 -5 45 -14 65l-162 -200c13 -5 28 -7 44 -7
c87 0 132 74 132 142zM377 390c-14 5 -31 9 -49 9c-87 0 -132 -74 -132 -142c0 -23 5 -47 16 -69z" />
    <glyph glyph-name="Otilde.sc" unicode="&#xe028;" horiz-adv-x="656" 
d="M509 703c-7 -84 -32 -134 -107 -134c-51 0 -100 36 -143 36c-16 0 -26 -15 -27 -43h-85c5 75 27 137 90 137c66 0 128 -39 159 -39c14 0 27 14 28 43h85zM606 257c0 -151 -133 -266 -278 -266s-278 115 -278 266s133 266 278 266s278 -115 278 -266zM460 257
c0 68 -45 142 -132 142s-132 -74 -132 -142s45 -142 132 -142s132 74 132 142z" />
    <glyph glyph-name="P.sc" unicode="&#xe029;" horiz-adv-x="522" 
d="M500 334c0 -85 -57 -185 -215 -185h-72v-149h-141v514h240c124 0 188 -94 188 -180zM357 334c0 30 -21 62 -76 62h-68v-127h66c40 0 78 12 78 65z" />
    <glyph glyph-name="Thorn.sc" unicode="&#xe02a;" horiz-adv-x="522" 
d="M500 260c0 -85 -57 -185 -215 -185h-72v-75h-141v514h141v-74h99c124 0 188 -94 188 -180zM357 260c0 30 -21 62 -76 62h-68v-127h66c40 0 78 12 78 65z" />
    <glyph glyph-name="Q.sc" unicode="&#xe02b;" horiz-adv-x="656" 
d="M624 61l-74 -85l-69 60c-45 -29 -98 -45 -153 -45c-145 0 -278 115 -278 266s133 266 278 266s278 -115 278 -266c0 -53 -17 -101 -44 -142zM460 257c0 68 -45 142 -132 142s-132 -74 -132 -142s45 -142 132 -142c19 0 37 4 52 10l-62 54l74 85l61 -53c5 15 7 31 7 46z
" />
    <glyph glyph-name="R.sc" unicode="&#xe02c;" horiz-adv-x="581" 
d="M567 0h-183l-124 177h-47v-177h-141v514h240c129 0 170 -96 170 -167c0 -49 -25 -102 -79 -135zM338 347c0 35 -22 52 -57 52h-68v-106h66c38 0 59 23 59 54z" />
    <glyph glyph-name="S.sc" unicode="&#xe02d;" horiz-adv-x="492" 
d="M456 163c0 -80 -60 -172 -212 -172c-131 0 -187 67 -221 129l108 59c18 -35 51 -78 125 -78c44 0 65 21 65 43c0 74 -271 46 -271 225c0 82 73 154 196 154c77 0 145 -29 189 -89l-98 -71c-20 35 -59 54 -96 54c-46 0 -56 -24 -56 -35c0 -72 271 -53 271 -219z" />
    <glyph glyph-name="Scaron.sc" unicode="&#xe02e;" horiz-adv-x="492" 
d="M440 700l-118 -132h-158l-118 132h126l71 -84l71 84h126zM456 163c0 -80 -60 -172 -212 -172c-131 0 -187 67 -221 129l108 59c18 -35 51 -78 125 -78c44 0 65 21 65 43c0 74 -271 46 -271 225c0 82 73 154 196 154c77 0 145 -29 189 -89l-98 -71c-20 35 -59 54 -96 54
c-46 0 -56 -24 -56 -35c0 -72 271 -53 271 -219z" />
    <glyph glyph-name="T.sc" unicode="&#xe02f;" horiz-adv-x="481" 
d="M468 394h-150v-394h-141v394h-150v120h441v-120z" />
    <glyph glyph-name="U.sc" unicode="&#xe030;" horiz-adv-x="646" 
d="M581 249c0 -140 -97 -258 -258 -258s-258 118 -258 258v265h141v-278c0 -83 53 -122 117 -122s117 39 117 122v278h141v-265z" />
    <glyph glyph-name="Uacute.sc" unicode="&#xe031;" horiz-adv-x="646" 
d="M523 700l-148 -132h-141l143 132h146zM581 249c0 -140 -97 -258 -258 -258s-258 118 -258 258v265h141v-278c0 -83 53 -122 117 -122s117 39 117 122v278h141v-265z" />
    <glyph glyph-name="Ucircumflex.sc" unicode="&#xe032;" horiz-adv-x="646" 
d="M523 568h-126l-71 84l-71 -84h-126l118 132h158zM581 249c0 -140 -97 -258 -258 -258s-258 118 -258 258v265h141v-278c0 -83 53 -122 117 -122s117 39 117 122v278h141v-265z" />
    <glyph glyph-name="Udieresis.sc" unicode="&#xe033;" horiz-adv-x="646" 
d="M492 570h-130v130h130v-130zM296 570h-130v130h130v-130zM581 249c0 -140 -97 -258 -258 -258s-258 118 -258 258v265h141v-278c0 -83 53 -122 117 -122s117 39 117 122v278h141v-265z" />
    <glyph glyph-name="Ugrave.sc" unicode="&#xe034;" horiz-adv-x="646" 
d="M419 568h-141l-148 132h146zM581 249c0 -140 -97 -258 -258 -258s-258 118 -258 258v265h141v-278c0 -83 53 -122 117 -122s117 39 117 122v278h141v-265z" />
    <glyph glyph-name="V.sc" unicode="&#xe035;" horiz-adv-x="584" 
d="M568 514l-209 -514h-134l-209 514h152l126 -340l125 340h149z" />
    <glyph glyph-name="W.sc" unicode="&#xe036;" horiz-adv-x="838" 
d="M818 514l-184 -514h-126l-89 292l-89 -292h-126l-184 514h145l100 -300l91 300h126l91 -300l100 300h145z" />
    <glyph glyph-name="X.sc" unicode="&#xe037;" horiz-adv-x="617" 
d="M594 0h-163l-122 175l-125 -175h-161l204 272l-182 242h167l99 -139l98 139h166l-184 -241z" />
    <glyph glyph-name="Y.sc" unicode="&#xe038;" horiz-adv-x="589" 
d="M573 514l-208 -289v-225h-141v225l-208 289h169l109 -157l110 157h169z" />
    <glyph glyph-name="Yacute.sc" unicode="&#xe039;" horiz-adv-x="589" 
d="M495 700l-148 -132h-141l143 132h146zM573 514l-208 -289v-225h-141v225l-208 289h169l109 -157l110 157h169z" />
    <glyph glyph-name="Ydieresis.sc" unicode="&#xe03a;" horiz-adv-x="589" 
d="M464 570h-130v130h130v-130zM268 570h-130v130h130v-130zM573 514l-208 -289v-225h-141v225l-208 289h169l109 -157l110 157h169z" />
    <glyph glyph-name="Z.sc" unicode="&#xe03b;" horiz-adv-x="546" 
d="M509 514l-247 -394h243v-120h-475l243 394h-219v120h455z" />
    <glyph glyph-name="Zcaron.sc" unicode="&#xe03c;" horiz-adv-x="546" 
d="M479 700l-118 -132h-158l-118 132h126l71 -84l71 84h126zM509 514l-247 -394h243v-120h-475l243 394h-219v120h455z" />
    <glyph glyph-name="germandbls.sc" unicode="&#xe03d;" horiz-adv-x="984" 
d="M948 163c0 -80 -60 -172 -212 -172c-131 0 -187 67 -221 129l108 59c18 -35 51 -78 125 -78c44 0 65 21 65 43c0 74 -271 46 -271 225c0 82 73 154 196 154c77 0 145 -29 189 -89l-98 -71c-20 35 -59 54 -96 54c-46 0 -56 -24 -56 -35c0 -72 271 -53 271 -219zM456 163
c0 -80 -60 -172 -212 -172c-131 0 -187 67 -221 129l108 59c18 -35 51 -78 125 -78c44 0 65 21 65 43c0 74 -271 46 -271 225c0 82 73 154 196 154c77 0 145 -29 189 -89l-98 -71c-20 35 -59 54 -96 54c-46 0 -56 -24 -56 -35c0 -72 271 -53 271 -219z" />
    <glyph glyph-name="f_i.sc" unicode="&#xe03e;" horiz-adv-x="766" 
d="M694 0h-141v514h141v-514zM445 394h-232v-87h169v-120h-169v-187h-141v514h373v-120z" />
    <glyph glyph-name="f_l.sc" unicode="&#xe03f;" horiz-adv-x="950" 
d="M923 0h-370v514h141v-394h229v-120zM445 394h-232v-87h169v-120h-169v-187h-141v514h373v-120z" />
    <glyph glyph-name="a.alt" unicode="&#xe040;" horiz-adv-x="610" 
d="M539 0h-134v53c-30 -31 -77 -60 -132 -60c-147 0 -227 123 -227 241c0 114 89 238 223 238c55 0 98 -20 136 -51v39h134v-460zM398 163v140c-32 33 -63 49 -97 49c-75 0 -107 -64 -107 -118c0 -86 64 -119 112 -119c40 0 71 25 92 48z" />
    <glyph glyph-name="aacute.alt" unicode="&#xe041;" horiz-adv-x="610" 
d="M492 651l-148 -132h-141l143 132h146zM539 0h-134v53c-30 -31 -77 -60 -132 -60c-147 0 -227 123 -227 241c0 114 89 238 223 238c55 0 98 -20 136 -51v39h134v-460zM398 163v140c-32 33 -63 49 -97 49c-75 0 -107 -64 -107 -118c0 -86 64 -119 112 -119
c40 0 71 25 92 48z" />
    <glyph glyph-name="agrave.alt" unicode="&#xe042;" horiz-adv-x="610" 
d="M388 519h-141l-148 132h146zM539 0h-134v53c-30 -31 -77 -60 -132 -60c-147 0 -227 123 -227 241c0 114 89 238 223 238c55 0 98 -20 136 -51v39h134v-460zM398 163v140c-32 33 -63 49 -97 49c-75 0 -107 -64 -107 -118c0 -86 64 -119 112 -119c40 0 71 25 92 48z" />
    <glyph glyph-name="acircumflex.alt" unicode="&#xe043;" horiz-adv-x="610" 
d="M504 519h-126l-71 84l-71 -84h-126l118 132h158zM539 0h-134v53c-30 -31 -77 -60 -132 -60c-147 0 -227 123 -227 241c0 114 89 238 223 238c55 0 98 -20 136 -51v39h134v-460zM398 163v140c-32 33 -63 49 -97 49c-75 0 -107 -64 -107 -118c0 -86 64 -119 112 -119
c40 0 71 25 92 48z" />
    <glyph glyph-name="adieresis.alt" unicode="&#xe044;" horiz-adv-x="610" 
d="M481 520h-130v130h130v-130zM285 520h-130v130h130v-130zM539 0h-134v53c-30 -31 -77 -60 -132 -60c-147 0 -227 123 -227 241c0 114 89 238 223 238c55 0 98 -20 136 -51v39h134v-460zM398 163v140c-32 33 -63 49 -97 49c-75 0 -107 -64 -107 -118
c0 -86 64 -119 112 -119c40 0 71 25 92 48z" />
    <glyph glyph-name="atilde.alt" unicode="&#xe045;" horiz-adv-x="610" 
d="M498 656c-7 -84 -32 -134 -107 -134c-51 0 -100 36 -143 36c-16 0 -26 -15 -27 -43h-85c5 75 27 137 90 137c66 0 128 -39 159 -39c14 0 27 14 28 43h85zM539 0h-134v53c-30 -31 -77 -60 -132 -60c-147 0 -227 123 -227 241c0 114 89 238 223 238c55 0 98 -20 136 -51v39
h134v-460zM398 163v140c-32 33 -63 49 -97 49c-75 0 -107 -64 -107 -118c0 -86 64 -119 112 -119c40 0 71 25 92 48z" />
    <glyph glyph-name="aring.alt" unicode="&#xe046;" horiz-adv-x="610" 
d="M415 622c0 -57 -46 -103 -103 -103s-103 46 -103 103s46 103 103 103s103 -46 103 -103zM539 0h-134v53c-30 -31 -77 -60 -132 -60c-147 0 -227 123 -227 241c0 114 89 238 223 238c55 0 98 -20 136 -51v39h134v-460zM357 622c0 25 -20 45 -45 45s-45 -20 -45 -45
s20 -45 45 -45s45 20 45 45zM398 163v140c-32 33 -63 49 -97 49c-75 0 -107 -64 -107 -118c0 -86 64 -119 112 -119c40 0 71 25 92 48z" />
    <glyph glyph-name="g.alt" unicode="&#xe047;" horiz-adv-x="602" 
d="M538 -30c0 -134 -93 -206 -243 -206c-91 0 -171 21 -246 48l34 115c43 -17 120 -40 189 -40c78 0 125 23 125 97v54c-33 -25 -80 -52 -132 -52c-115 0 -220 99 -220 246c0 118 80 242 227 242c55 0 102 -29 132 -60v46h134v-490zM397 157v147c-21 23 -52 48 -92 48
c-48 0 -112 -34 -112 -120c0 -54 32 -124 107 -124c34 0 65 16 97 49z" />
    <glyph glyph-name="i.alt" unicode="&#xe048;" horiz-adv-x="364" 
d="M227 594l-92 -92l-92 92l92 92zM343 18c-40 -19 -81 -28 -120 -28c-107 0 -159 74 -159 166v304h141v-289c0 -31 10 -61 61 -61c20 0 54 8 77 23v-115z" />
    <glyph glyph-name="iacute.alt" unicode="&#xe049;" horiz-adv-x="364" 
d="M348 651l-148 -132h-141l143 132h146zM343 18c-40 -19 -81 -28 -120 -28c-107 0 -159 74 -159 166v304h141v-289c0 -31 10 -61 61 -61c20 0 54 8 77 23v-115z" />
    <glyph glyph-name="igrave.alt" unicode="&#xe04a;" horiz-adv-x="364" 
d="M214 519h-141l-148 132h146zM343 18c-40 -19 -81 -28 -120 -28c-107 0 -159 74 -159 166v304h141v-289c0 -31 10 -61 61 -61c20 0 54 8 77 23v-115z" />
    <glyph glyph-name="icircumflex.alt" unicode="&#xe04b;" horiz-adv-x="364" 
d="M340 519h-126l-71 84l-71 -84h-126l118 132h158zM343 18c-40 -19 -81 -28 -120 -28c-107 0 -159 74 -159 166v304h141v-289c0 -31 10 -61 61 -61c20 0 54 8 77 23v-115z" />
    <glyph glyph-name="idieresis.alt" unicode="&#xe04c;" horiz-adv-x="364" 
d="M300 520h-130v130h130v-130zM104 520h-130v130h130v-130zM343 18c-40 -19 -81 -28 -120 -28c-107 0 -159 74 -159 166v304h141v-289c0 -31 10 -61 61 -61c20 0 54 8 77 23v-115z" />
    <glyph glyph-name="l.alt" unicode="&#xe04d;" horiz-adv-x="283" 
d="M212 0h-141v672h141v-672z" />
    <glyph glyph-name="lslash.alt" unicode="&#xe04e;" horiz-adv-x="283" 
d="M269 415l-57 -44v-371h-141v263l-57 -44v97l57 44v312h141v-204l57 44v-97z" />
    <glyph glyph-name="q.alt" unicode="&#xe04f;" horiz-adv-x="599" 
d="M982 -203c-51 -28 -121 -44 -175 -44c-185 0 -347 125 -479 234c-9 -1 -18 -1 -28 -1c-155 0 -254 119 -254 244s99 244 254 244s254 -119 254 -244c0 -73 -34 -145 -94 -191c64 -56 227 -177 364 -177c65 0 113 24 158 52v-117zM409 230c0 64 -40 117 -109 117
s-109 -53 -109 -117s40 -117 109 -117s109 53 109 117z" />
    <glyph glyph-name="s.alt" unicode="&#xe050;" horiz-adv-x="489" 
d="M447 139c0 -66 -51 -153 -196 -153c-73 0 -133 17 -211 72l69 83c42 -33 92 -57 144 -57c31 0 59 12 59 34c0 58 -246 73 -246 211c0 55 49 145 182 145c86 0 153 -24 199 -59l-66 -78c-29 19 -76 37 -114 37c-36 0 -51 -15 -51 -31c0 -50 231 -70 231 -204z" />
    <glyph glyph-name="scaron.alt" unicode="&#xe051;" horiz-adv-x="489" 
d="M458 651l-118 -132h-158l-118 132h126l71 -84l71 84h126zM447 139c0 -66 -51 -153 -196 -153c-73 0 -133 17 -211 72l69 83c42 -33 92 -57 144 -57c31 0 59 12 59 34c0 58 -246 73 -246 211c0 55 49 145 182 145c86 0 153 -24 199 -59l-66 -78c-29 19 -76 37 -114 37
c-36 0 -51 -15 -51 -31c0 -50 231 -70 231 -204z" />
    <glyph glyph-name="y.alt" unicode="&#xe052;" horiz-adv-x="596" 
d="M532 -30c0 -134 -93 -206 -243 -206c-91 0 -171 21 -246 48l34 115c43 -17 120 -40 189 -40c78 0 125 23 125 97v54c-34 -27 -76 -52 -140 -52c-82 0 -184 50 -184 208v266h141v-244c0 -79 42 -109 89 -109c38 0 63 13 94 38v315h141v-490z" />
    <glyph glyph-name="yacute.alt" unicode="&#xe053;" horiz-adv-x="596" 
d="M507 651l-148 -132h-141l143 132h146zM532 -30c0 -134 -93 -206 -243 -206c-91 0 -171 21 -246 48l34 115c43 -17 120 -40 189 -40c78 0 125 23 125 97v54c-34 -27 -76 -52 -140 -52c-82 0 -184 50 -184 208v266h141v-244c0 -79 42 -109 89 -109c38 0 63 13 94 38v315
h141v-490z" />
    <glyph glyph-name="ydieresis.alt" unicode="&#xe054;" horiz-adv-x="596" 
d="M456 520h-130v130h130v-130zM260 520h-130v130h130v-130zM532 -30c0 -134 -93 -206 -243 -206c-91 0 -171 21 -246 48l34 115c43 -17 120 -40 189 -40c78 0 125 23 125 97v54c-34 -27 -76 -52 -140 -52c-82 0 -184 50 -184 208v266h141v-244c0 -79 42 -109 89 -109
c38 0 63 13 94 38v315h141v-490z" />
    <glyph glyph-name="fi.alt" unicode="&#xe055;" horiz-adv-x="768" 
d="M631 594l-92 -92l-92 92l92 92zM747 18c-40 -19 -81 -28 -120 -28c-107 0 -159 74 -159 166v304h141v-289c0 -31 10 -61 61 -61c20 0 54 8 77 23v-115zM411 548c-20 11 -58 25 -99 25c-50 0 -71 -29 -71 -68v-45h139v-110h-139v-350h-141v350h-75v110h75v58
c0 100 67 168 183 168c56 0 96 -10 128 -22v-116z" />
    <glyph glyph-name="fl.alt" unicode="&#xe056;" horiz-adv-x="696" 
d="M625 0h-141v672h141v-672zM411 548c-20 11 -58 25 -99 25c-50 0 -71 -29 -71 -68v-45h139v-110h-139v-350h-141v350h-75v110h75v58c0 100 67 168 183 168c56 0 96 -10 128 -22v-116z" />
    <glyph glyph-name="zero.oldstyle" unicode="&#xf730;" horiz-adv-x="640" 
d="M592 257c0 -145 -105 -266 -272 -266s-272 121 -272 266s105 266 272 266s272 -121 272 -266zM446 257c0 61 -40 142 -126 142s-126 -81 -126 -142s40 -142 126 -142s126 81 126 142z" />
    <glyph glyph-name="one.oldstyle" unicode="&#xf731;" horiz-adv-x="329" 
d="M237 0h-144v461l144 81v-542z" />
    <glyph glyph-name="two.oldstyle" unicode="&#xf732;" horiz-adv-x="538" 
d="M489 0h-460c147 145 272 282 272 332c0 46 -35 65 -71 65c-58 0 -135 -51 -166 -83v138c54 40 123 71 196 71c112 0 188 -68 188 -174c0 -78 -66 -166 -133 -228h174v-121z" />
    <glyph glyph-name="three.oldstyle" unicode="&#xf733;" horiz-adv-x="535" 
d="M486 56c0 -131 -108 -228 -233 -228c-105 0 -175 60 -221 131l106 93c17 -43 44 -90 106 -90c60 0 100 45 100 108c0 44 -31 105 -116 105c-23 0 -60 -8 -75 -14l109 224h-210v129h429l-127 -260c55 -21 132 -74 132 -198z" />
    <glyph glyph-name="four.oldstyle" unicode="&#xf734;" horiz-adv-x="635" 
d="M602 0h-87v-158h-136v158h-361l497 536v-418h87v-118zM383 115v121l-108 -121h108z" />
    <glyph glyph-name="five.oldstyle" unicode="&#xf735;" horiz-adv-x="532" 
d="M487 514l-64 -129h-177l-5 -110c8 1 19 2 27 2c123 0 215 -97 215 -221c0 -131 -108 -228 -233 -228c-105 0 -175 60 -221 131l106 93c17 -43 44 -90 106 -90c60 0 100 45 100 108c0 44 -35 109 -120 109c-48 0 -89 -17 -123 -37l24 372h365z" />
    <glyph glyph-name="six.oldstyle" unicode="&#xf736;" horiz-adv-x="566" 
d="M518 197c0 -93 -75 -211 -225 -211c-147 0 -245 100 -245 255c0 144 71 278 230 431h190c-88 -78 -189 -191 -229 -279c22 8 37 14 81 14c114 0 198 -93 198 -210zM374 203c0 38 -29 83 -88 83c-27 0 -57 -9 -85 -35c-3 -14 -4 -23 -4 -32c0 -42 26 -100 93 -100
c45 0 84 34 84 84z" />
    <glyph glyph-name="seven.oldstyle" unicode="&#xf737;" horiz-adv-x="554" 
d="M562 514l-328 -672h-154l265 543h-289v129h506z" />
    <glyph glyph-name="eight.oldstyle" unicode="&#xf738;" horiz-adv-x="550" 
d="M503 192c0 -105 -88 -206 -228 -206c-119 0 -228 77 -228 196c0 80 44 135 120 184c-47 36 -82 82 -82 145c0 102 76 175 190 175c122 0 190 -82 190 -172c0 -58 -37 -104 -83 -141c74 -44 121 -103 121 -181zM344 500c0 35 -28 63 -69 63c-33 0 -69 -19 -69 -60
c0 -28 16 -50 68 -79c47 18 70 56 70 76zM364 201c0 38 -34 71 -90 100c-79 -44 -88 -75 -88 -110c0 -42 38 -76 89 -76c54 0 89 35 89 86z" />
    <glyph glyph-name="nine.oldstyle" unicode="&#xf739;" horiz-adv-x="564" 
d="M517 268c0 -143 -65 -263 -225 -426h-192c93 84 177 183 222 273c-22 -8 -33 -13 -77 -13c-114 0 -198 93 -198 210c0 93 75 211 225 211c147 0 245 -100 245 -255zM368 290c0 36 -27 100 -93 100c-45 0 -84 -34 -84 -84c0 -38 29 -83 88 -83c27 0 57 9 85 35
c3 14 4 23 4 32z" />
    </font>
</defs>
</svg>
