<?xml version="1.0" encoding="utf-8"?>
<!-- Generator: Adobe Illustrator 27.5.0, SVG Export Plug-In . SVG Version: 6.00 Build 0)  -->
<svg version="1.1" id="AW" xmlns="http://www.w3.org/2000/svg" xmlns:xlink="http://www.w3.org/1999/xlink" x="0px" y="0px"
	 viewBox="0 0 283.5 32.5" style="enable-background:new 0 0 283.5 32.5;" xml:space="preserve">
<style type="text/css">
	.st0{fill:#09315B;}
</style>
<g>
	<path class="st0" d="M19.1,0.2h-6.9C8,12,3.9,22.7,0,32.5h5.9c0.4-1.1,1.2-3.5,2.6-7.1c2-0.1,4.4-0.1,6.4-0.1
		c2.3,0,4.2,0.1,6.5,0.1c0.8,2.3,1.7,4.6,2.6,7.1h7.4C26.8,21.2,22.7,10.5,19.1,0.2 M14.9,20.6c-1.3,0-3.4-0.1-4.6-0.1
		c1.7-4.4,3.1-8.4,4.8-12.4c1.7,4,4.1,11.1,4.6,12.4C18,20.5,16.7,20.6,14.9,20.6"/>
	<path class="st0" d="M49.8,0.2H37.9c0.1,5.4,0.2,11,0.2,16.3c0,5.4-0.1,10.6-0.2,15.9h11.9c13.6,0,17.5-9.6,17.5-16.1
		C67.3,9.8,63.4,0.2,49.8,0.2 M49.8,27.4h-5.1c-0.2-3.7-0.2-7.1-0.2-10.8c0-3.7,0-7.7,0.2-11.4h5.1c5.6,0,10.3,3.7,10.3,11.1
		C60.1,23.8,55.4,27.4,49.8,27.4"/>
	<path class="st0" d="M80.1,32.5C80,28.5,80,23.6,80,19.9c0-3.7,0.1-5.9,0.2-9.5c3.4,4.8,6.6,9.6,9.5,14.5h0.9
		c2.7-4.3,6-9.4,9.7-15.1c0.1,3.6,0.2,7.1,0.2,10.5c0,4.2-0.1,8.7-0.2,12.2h6.8c-0.1-5.3-0.3-10.6-0.3-16c0-5.3,0.1-10.8,0.3-16.2
		h-7c-3.1,5.3-6.2,10.4-9.1,14.5c-3.4-4.7-6.6-9.5-9.5-14.5h-7.2c0.1,5.6,0.3,11.1,0.3,16.5c0,5.4-0.2,10.6-0.3,15.8H80.1z"/>
	<path class="st0" d="M124.7,32.5c-0.2-3.3-0.2-10.8-0.2-16.2c0-5.1,0-12.7,0.2-16h-6.9c0.2,3.3,0.2,10.9,0.2,16
		c0,5.4,0,12.9-0.2,16.2H124.7z"/>
	<path class="st0" d="M153.1,18.5c4.1-1.9,5.5-5.7,5.5-8.6c0-3.9-2.7-9.7-11.2-9.7h-11.9c0.1,5.6,0.3,11.1,0.3,16.5
		c0,5.4-0.1,10.6-0.3,15.8h6.7c-0.1-2.3-0.1-4.7-0.1-7c0-1.9,0.1-3.9,0.1-5.8h4.1c3.3,4.8,6.1,9.1,8.2,12.8h7.8
		C159,27.8,155.8,23,153.1,18.5 M146.3,15h-4.1c-0.1-1.7-0.1-3.3-0.1-5c0-1.7,0-3.3,0.1-5h4.1c3,0,5.7,1.5,5.7,5
		C152,13.4,149.3,15,146.3,15"/>
	<path class="st0" d="M185.4,0.2h-6.9c-4.2,11.8-8.4,22.5-12.2,32.2h5.9c0.4-1.1,1.2-3.5,2.6-7.1c2-0.1,4.4-0.1,6.4-0.1
		c2.3,0,4.2,0.1,6.5,0.1c0.8,2.3,1.7,4.6,2.6,7.1h7.4C193,21.2,189,10.5,185.4,0.2 M181.2,20.6c-1.3,0-3.4-0.1-4.6-0.1
		c1.7-4.4,3.1-8.4,4.8-12.4c1.7,4,4.1,11.1,4.6,12.4C184.2,20.5,182.9,20.6,181.2,20.6"/>
	<path class="st0" d="M224.8,32.5c-3.4-0.1-7.1-0.1-10.6-0.1c-3.5,0-6.8,0-10.4,0.1c0.1-5.4,0.3-10.9,0.3-16.3
		c0-5.3-0.1-10.6-0.3-15.9h7c-0.1,5-0.2,10.8-0.2,15.9c0,4,0.1,7.3,0.2,11.3h6.3c2.7,0,5.7,0,7.7-0.1V32.5z"/>
	<path class="st0" d="M250.5,5.3c-2.8-0.1-6.2-0.2-9.5-0.2c-0.1,4.1-0.1,8.4-0.1,12.4c0,5,0.1,10,0.1,14.9h-6.9
		c0.1-5,0.2-9.7,0.2-14.8c0-4-0.1-8.6-0.2-12.5c-3.5,0-6.9,0.1-9.5,0.2V0.2c4.3,0.1,8.6,0.2,12.9,0.2c4.3,0,8.6-0.1,12.9-0.2V5.3z"
		/>
	<path class="st0" d="M272.2,21c-0.1,1.7-0.1,3.2-0.1,4.4l0.2,6.8h-6.9c0.1-1.6,0.1-4.4,0.1-7.3c0.1-3,0.1-6.3,0.1-7
		c-3.2-5.6-7.3-11.8-11.5-18h8.1c2.3,4.3,4.7,8.4,7.3,12.2c2.8-3.9,5.3-8.1,7.7-12.2h6.2c-4.6,7-8.8,13.4-11.2,17.9
		C272.3,18.3,272.3,19.3,272.2,21"/>
</g>
</svg>
