<svg width="37" height="51" viewBox="0 0 37 51" fill="none" xmlns="http://www.w3.org/2000/svg">
<path fill-rule="evenodd" clip-rule="evenodd" d="M29.9811 38.1778C32.4266 38.4068 33.4201 36.5747 31.9681 35.8114C33.5729 35.506 34.5664 33.9793 33.1908 33.2923C33.6494 32.5289 33.5729 31.6129 32.6559 31.6129C32.503 30.7732 32.1209 30.5442 31.2038 31.0022C30.6689 30.3915 30.1339 30.5442 29.7518 31.2312C28.7583 30.1625 27.9941 31.1549 27.6884 32.9106C27.1534 32.2236 25.9307 32.3762 26.0071 34.2846C26.0071 34.2083 25.8542 33.9793 25.1664 34.132C24.7614 34.2668 24.5949 34.8781 24.4562 35.3872L24.4562 35.3872L24.4562 35.3873L24.4561 35.3875L24.456 35.3879C24.4378 35.4549 24.42 35.5202 24.4022 35.5824C24.3258 35.964 23.5616 35.506 23.3323 35.3533C22.795 35.085 22.4938 35.5241 22.1693 35.9972C22.1246 36.0624 22.0794 36.1283 22.0331 36.193C21.9351 36.2909 21.8057 36.326 21.6852 36.3588C21.6177 36.3771 21.553 36.3947 21.4981 36.422C21.1134 36.5867 21.1635 36.9883 21.1935 37.2293C21.2052 37.3234 21.2139 37.393 21.1925 37.4144C21.116 37.5671 20.8868 37.6434 20.8868 37.6434L20.4282 36.4984L19.664 37.1854L19.0526 35.964L18.2884 36.8801L17.5242 35.8114L16.9892 37.1854L16.1486 36.3457L15.8429 37.3381C15.7172 37.4218 15.5914 37.2072 15.4531 36.971C15.3392 36.7765 15.2167 36.5673 15.0786 36.4984C15.0376 36.4847 14.9942 36.4735 14.95 36.4621C14.7473 36.4098 14.53 36.3538 14.4673 36.0404C14.4673 35.735 14.3144 35.5824 14.1616 35.506C13.9323 35.277 13.2445 35.3533 12.8624 35.735C12.5632 36.0006 12.3653 35.501 12.1428 34.9394C11.8537 34.2097 11.5232 33.3754 10.8754 33.9793C10.4933 32.6816 9.95831 32.0709 9.11766 32.6053C8.73555 31.0022 8.12417 30.1625 6.97782 31.1549C6.36644 30.5442 5.9079 30.4679 5.52579 31.0785C4.68514 30.6205 4.30303 31.0785 4.2266 31.9182C3.23311 31.9182 3.30953 32.4526 3.84449 33.4449C2.08677 34.132 3.38595 35.4297 5.14368 35.8114C3.30953 36.4984 4.30303 38.4068 6.97782 38.1014C6.06075 39.1701 6.59571 40.2388 9.04124 39.5518L9.27051 39.3228C7.66563 39.9335 6.36644 39.3991 7.43636 38.2541C7.51278 38.0251 7.51278 37.8724 7.13067 37.7961C4.99083 37.9488 3.99734 37.0327 4.91441 36.3457C4.96069 36.3226 5.01397 36.2995 5.07214 36.2743L5.07214 36.2743L5.07216 36.2742C5.20611 36.2161 5.36595 36.1468 5.52579 36.0404C5.75506 35.8877 5.75506 35.6587 5.44937 35.5824C4.45587 35.3533 3.76807 35.048 3.5388 34.6663C3.30953 34.2846 3.46238 33.903 4.2266 33.7503C4.53229 33.674 4.45587 33.5213 4.2266 33.2923C3.5388 32.5289 3.69164 32.1472 4.37945 32.2236C4.60872 32.2999 4.68514 32.2236 4.60872 31.9946C4.53229 31.1549 4.91441 31.0785 5.44937 31.3839C5.60221 31.5366 5.67864 31.5366 5.75506 31.3075C6.2136 30.6205 6.51929 31.0022 6.82498 31.6129C6.82498 31.9946 6.97782 31.8419 7.13067 31.5366C7.51278 30.9259 8.42986 30.6205 8.73555 33.2159C8.65912 33.7503 9.04124 33.7503 9.19408 33.4449C9.5762 32.2236 10.8754 33.0633 10.3404 34.819C10.1876 35.048 10.4168 35.8114 10.7225 35.1243C10.7517 35.0369 10.7698 34.9606 10.7852 34.8954L10.7852 34.8954L10.7852 34.8953L10.7852 34.8953C10.8101 34.7898 10.8282 34.7135 10.8754 34.6663C11.3339 33.7503 12.786 35.1243 11.1811 37.4144C9.80547 36.7274 8.88839 37.4144 9.42335 39.0938C9.11766 39.7045 9.27051 40.2388 9.95831 40.6969C9.5762 40.6205 9.27051 40.6205 9.04124 40.6205C8.73555 40.4678 8.35343 40.3152 8.04774 40.2388C8.27701 40.3915 8.5827 40.5442 8.88839 40.6969C9.27051 41.3075 9.80547 41.6892 10.4168 41.9946C10.4645 42.0422 10.5651 42.0997 10.6842 42.1679C11.1377 42.4273 11.8597 42.8404 10.9518 43.445C12.3274 43.2159 12.8624 43.5213 12.6331 44.2083C12.3274 44.5137 11.9453 44.7427 11.4103 44.819C10.8754 44.819 10.4933 44.6663 10.1876 44.2083C10.2131 44.2846 10.2555 44.3695 10.298 44.4543C10.3829 44.6239 10.4678 44.7936 10.4168 44.8953C10.4168 45.2007 10.1876 45.4297 9.80547 45.506C9.19408 45.6587 8.65912 45.8114 8.12417 45.964L8.12416 45.964C7.5892 46.193 7.05424 46.4221 6.44286 46.7274C6.06075 46.9564 5.60221 47.1854 5.2201 47.1854C5.35378 47.3189 5.53941 47.2968 5.76186 47.2702C5.92093 47.2512 6.09883 47.2299 6.29002 47.2617C6.55814 47.2885 6.80745 47.3717 7.06765 47.4585C7.54909 47.6191 8.06781 47.7921 8.81197 47.6434C9.5762 47.4144 10.6461 47.8724 9.95831 48.7885C10.1112 48.7121 10.264 48.4068 10.4168 48.1014C10.501 47.7652 10.6161 47.4906 10.7885 47.2627C11.1028 46.946 11.439 46.7834 11.7307 46.6422C11.778 46.6193 11.8242 46.597 11.8689 46.5747C11.9172 46.5513 11.9654 46.5294 12.0133 46.5091C12.112 46.4787 12.2166 46.4497 12.3274 46.422C15.0786 45.735 15.1551 48.4831 12.786 47.4908C13.3209 48.1014 13.2445 48.7121 12.4803 48.7885C12.2443 48.8474 12.0994 48.9518 11.9401 49.0666L11.94 49.0667C11.893 49.1006 11.8447 49.1354 11.7925 49.1701C11.7925 49.1701 11.1811 49.6282 10.8754 50.0862C10.5353 50.4825 10.027 50.5429 9.72475 50.5788C9.61951 50.5913 9.53925 50.6008 9.49977 50.6205C9.49977 50.7732 9.80547 50.8495 10.1876 50.7732C10.3595 50.7159 10.5315 50.7446 10.639 50.7625C10.6748 50.7684 10.7034 50.7732 10.7225 50.7732C11.0282 50.8495 11.9453 50.7732 12.5567 50.5442C13.1087 50.3745 13.5428 50.0399 13.8851 49.776C14.1588 49.565 14.3739 49.3991 14.5437 49.3991C15.1551 49.3991 15.8429 50.0098 15.8429 50.0098C14.5437 47.6434 18.1355 47.2617 18.1355 49.0175V49.6282L18.212 49.0175C18.3648 47.1854 21.8038 47.5671 20.5047 49.9335C20.5047 49.9335 21.1925 49.2465 21.8038 49.3228C21.9736 49.3228 22.1887 49.4886 22.4625 49.6997C22.8048 49.9636 23.2388 50.2982 23.7908 50.4678C24.4022 50.6969 25.3193 50.8495 25.625 50.6969C25.625 50.735 25.6823 50.735 25.7683 50.735C25.8542 50.735 25.9689 50.735 26.0835 50.7732C26.4656 50.8495 26.7713 50.7732 26.7713 50.6205C26.7308 50.6003 26.6471 50.5854 26.5376 50.5659C26.2343 50.5119 25.7325 50.4226 25.3957 50.0862C25.09 49.6282 24.4786 49.1701 24.4786 49.1701C24.2494 49.0175 24.0201 48.8648 23.7908 48.7885C23.103 48.6358 23.0266 48.1014 23.4851 47.4908C22.1967 48.1342 21.6324 47.5 21.8734 46.9428C22.113 46.6553 22.5242 46.405 23.0378 46.3178C23.2971 46.3062 23.5988 46.3359 23.9437 46.422C25.1664 46.8037 25.625 47.2617 25.8542 48.1014C25.9307 48.4831 26.0835 48.7121 26.3128 48.7885C25.625 47.8724 26.6949 47.4144 27.5355 47.6434C28.2966 47.7955 28.8219 47.6447 29.3126 47.5038C29.561 47.4325 29.8006 47.3637 30.0575 47.3381C30.2857 47.3055 30.4721 47.3285 30.6287 47.3478C30.8393 47.3738 30.9959 47.3931 31.1274 47.2617C30.7453 47.2617 30.2868 47.1091 29.9047 46.8037C29.2933 46.4984 28.7583 46.2694 28.2234 46.0404C27.9559 45.964 27.6694 45.8877 27.3828 45.8114L27.3827 45.8114C27.0961 45.735 26.8095 45.6587 26.5421 45.5824C26.0835 45.506 25.9307 45.277 25.9307 44.9717C25.9307 44.8699 25.9986 44.7002 26.0665 44.5306C26.1005 44.4458 26.1345 44.361 26.1599 44.2846C25.8542 44.7427 25.3957 44.8953 24.9372 44.8953C24.4022 44.819 24.0201 44.59 23.7144 44.2846C23.4851 43.5976 24.0965 43.2159 25.4721 43.5213C24.5577 42.9732 25.2967 42.5223 25.7495 42.2461L25.7495 42.2461L25.7496 42.246C25.8643 42.176 25.9607 42.1172 26.0071 42.0709C26.0487 42.0472 26.0907 42.0234 26.1331 41.9995L26.1333 41.9994C26.6358 41.7157 27.1832 41.4067 27.5355 40.7732L28.4526 40.3152C28.2998 40.3533 28.1279 40.4106 27.9559 40.4678L27.9559 40.4678L27.9559 40.4679C27.7839 40.5251 27.612 40.5824 27.4591 40.6205H26.7713C27.2299 40.0862 27.4591 39.6282 27.2299 39.1701C27.8412 37.4908 26.7713 36.7274 25.3957 37.4144C23.7908 35.048 25.4721 33.5976 25.8542 34.7427C25.8972 34.7855 25.916 34.8525 25.9378 34.93C25.9548 34.9905 25.9736 35.0574 26.0071 35.1243C26.1599 35.735 26.3892 35.1243 26.3128 34.819C25.8542 33.1396 27.1534 32.2236 27.5355 33.4449C27.612 33.7503 27.9177 33.674 27.9177 33.2159C28.1469 30.5442 29.2168 30.7732 29.5225 31.5366C29.599 31.7656 29.6754 31.9946 29.8282 31.6129C30.0575 30.8495 30.516 30.6205 30.8982 31.3075C30.9746 31.4602 31.051 31.5366 31.1274 31.3839C31.8916 30.6969 32.1973 31.6129 32.0445 31.9182C31.9681 32.1472 32.0445 32.2236 32.2738 32.1472C32.7323 31.9182 33.038 32.3762 32.503 33.0633C32.1209 33.2159 31.9681 33.5213 32.4266 33.5976C33.1908 33.674 33.3437 34.0556 33.1144 34.4373C32.8851 34.8953 32.1209 35.2007 31.2038 35.4297C30.8981 35.506 30.8982 35.8114 31.1274 35.964C31.2763 36.0632 31.4573 36.1301 31.6079 36.1858C31.6892 36.2158 31.7616 36.2426 31.8152 36.2694C32.503 37.0327 31.5095 37.9488 29.5225 37.7198C29.1404 37.7961 29.1404 37.9488 29.2933 38.1778C30.4396 39.3228 29.064 39.8572 27.5355 39.2465L27.612 39.5518C29.599 40.3915 30.8982 39.3228 29.9811 38.1778ZM23.0378 46.3178C22.391 46.3467 22.0075 46.6329 21.8734 46.9428C21.3887 47.5247 21.607 48.2587 23.103 48.1014C22.9364 48.7255 23.2465 48.8961 23.8107 49.2063C24.2816 49.4653 24.9296 49.8217 25.625 50.6205C24.2251 50.9002 23.3904 50.2807 22.7155 49.7799C22.1009 49.3238 21.6188 48.9661 20.9632 49.4755C21.2689 47.4907 19.0526 47.1854 18.212 48.5594C17.2949 47.1854 15.155 47.4144 15.4607 49.4755C14.8051 48.9661 14.323 49.3238 13.7084 49.7799C13.0335 50.2807 12.1988 50.9002 10.7989 50.6205C11.5035 49.8112 12.1593 49.4561 12.6392 49.1962C13.2004 48.8923 13.5209 48.7187 13.3973 48.1014C16.2457 48.4009 14.4623 45.4692 12.0133 46.5091C11.423 46.691 11.0432 46.926 10.7885 47.2627C10.6308 47.4216 10.4787 47.6192 10.3404 47.8724C9.91546 47.5086 9.29762 47.5301 8.6018 47.5543L8.6017 47.5543C8.4216 47.5606 8.23628 47.5671 8.04773 47.5671C7.83492 47.5671 7.60565 47.5013 7.35992 47.4308C7.07618 47.3494 6.77049 47.2617 6.44285 47.2617C7.12863 46.6795 8.06057 46.4507 8.87281 46.2513C9.87088 46.0062 10.6882 45.8055 10.6461 45.048C13.3209 45.6587 13.8559 43.1396 11.6396 43.2159C11.8863 42.723 11.2408 42.2937 10.5055 41.8048C10.1022 41.5365 9.67179 41.2504 9.34692 40.9259C10.8889 40.9959 12.0452 41.6598 12.941 42.1742C13.9988 42.7816 14.6936 43.1805 15.2315 42.1472C15.2315 42.3762 15.2124 42.6052 15.1933 42.8342C15.1742 43.0633 15.155 43.2923 15.155 43.5213C15.155 43.8266 15.2315 44.132 15.3079 44.4373C15.5372 45.277 16.1485 46.193 17.0656 46.2694C17.8298 46.193 17.9827 46.422 18.1355 47.2617C18.1355 47.2617 18.1355 47.4144 18.3648 47.4907C18.3648 47.4907 18.4412 47.4144 18.4412 47.3381C18.5941 46.4984 18.7469 46.2694 19.5111 46.3457C20.4282 46.2694 21.0396 45.3533 21.2689 44.5136L21.4217 43.5976C21.4697 43.2622 21.4273 42.9568 21.3891 42.6816C21.3665 42.5183 21.3453 42.3657 21.3453 42.2236C21.8778 43.2056 22.5641 42.8058 23.6042 42.2C24.5044 41.6755 25.6697 40.9967 27.2298 40.9259C26.905 41.2504 26.4746 41.5365 26.0712 41.8048C25.336 42.2937 24.6904 42.723 24.9372 43.2159C22.6445 43.1396 23.2559 45.6587 25.8542 45.048C25.8109 45.8709 26.6779 46.0795 27.7153 46.329C28.5063 46.5193 29.3963 46.7334 30.0575 47.2617C29.7298 47.2617 29.4242 47.3494 29.1404 47.4308C28.8947 47.5013 28.6654 47.5671 28.4526 47.5671C28.1674 47.5908 27.897 47.585 27.6414 47.5795C27.075 47.5674 26.5812 47.5568 26.1599 47.8724C25.7461 47.1146 25.2077 46.8542 24.7696 46.6422C24.7223 46.6193 24.6762 46.597 24.6315 46.5747C24.0507 46.2934 23.5024 46.2389 23.0378 46.3178ZM13.4738 39.1702C15.9193 38.7122 16.6835 40.6205 14.8494 41.0786C15.3079 41.9946 13.2445 42.758 12.3274 40.2389C10.9518 41.3839 8.81196 40.0099 9.80546 39.1702C8.81196 37.3381 10.7225 36.8038 11.9453 38.6358C11.4868 37.1091 12.0981 35.7351 13.0152 36.1931C13.6266 35.5824 14.1616 35.8877 14.238 36.6511C15.4607 36.8038 14.6965 38.5595 13.4738 39.1702ZM12.0217 41.3839C12.1746 41.4602 12.3274 41.5366 12.5567 41.6129C12.4038 41.3076 12.251 41.0022 12.0981 40.6205C12.0599 40.6587 12.0026 40.6778 11.9453 40.6969C11.888 40.716 11.8307 40.735 11.7924 40.7732C11.8689 41.0022 11.9453 41.2312 12.0217 41.3839ZM26.7713 39.0938C27.7648 39.8572 25.625 41.2312 24.2493 40.0862C23.3323 42.6053 21.1924 41.9182 21.651 41.0785C19.8168 40.6205 20.581 38.7121 23.0266 39.1701C21.8038 38.4831 21.0396 36.7274 22.3388 36.6511C22.4152 35.8114 23.0266 35.506 23.5615 36.193C24.4786 35.735 25.09 37.0327 24.6315 38.5594C25.8542 36.7274 27.6884 37.2617 26.7713 39.0938ZM24.7079 40.6205C24.6697 40.5824 24.6124 40.5633 24.5551 40.5442C24.4978 40.5251 24.4404 40.506 24.4022 40.4679C24.3258 40.6205 24.2494 40.7922 24.173 40.9639L24.173 40.964C24.0965 41.1358 24.0201 41.3076 23.9437 41.4602L23.9437 41.4602C24.0965 41.3839 24.2494 41.3076 24.4787 41.2312C24.5551 41.0786 24.6315 40.8495 24.7079 40.6205ZM19.4348 37.7961L18.6705 39.0175L18.212 37.4908L17.8299 39.0175L17.0657 37.7961V39.1701L16.225 38.3305L16.5307 39.4755L15.6136 38.9411L15.3079 37.7198L16.1486 38.2541L16.225 36.8801L17.1421 37.6434L17.6006 36.3457L18.2884 37.2618L18.9762 36.2694L19.4348 37.5671L20.3518 36.8037V38.2541L21.1925 37.7198L20.8868 38.9411L19.9697 39.4755L20.2754 38.3305L19.4348 39.1701V37.7961ZM16.8364 45.735C15.8429 45.277 15.3079 44.2083 15.3843 42.9106C15.5372 41.1549 16.6835 39.7045 18.212 39.6281C19.8933 39.5518 21.1161 41.0785 21.0396 42.9869C21.0396 44.2083 20.5811 45.4297 19.5876 45.8114C19.5494 45.8114 19.6258 45.6014 19.7022 45.3915C19.7787 45.1816 19.8551 44.9717 19.8169 44.9717C19.8169 45.048 19.3583 45.8114 19.2819 45.735C19.2819 45.6675 19.2952 45.5602 19.31 45.4405C19.3446 45.1613 19.3875 44.8145 19.2898 44.7473C19.2615 44.8885 18.9464 45.8213 18.747 45.8877C18.747 45.8429 18.7499 45.7688 18.7534 45.6787C18.7681 45.3082 18.7935 44.6663 18.6705 44.6663C18.6705 44.6514 18.6647 44.6862 18.6535 44.7525C18.6077 45.0246 18.4728 45.8263 18.2884 45.8877C18.2884 45.933 18.2683 45.8507 18.2339 45.7106C18.1524 45.3781 17.9912 44.72 17.8299 44.6663C17.8299 44.7027 17.8386 44.7739 17.8497 44.8653C17.8854 45.1571 17.9463 45.6552 17.8299 45.8877C17.7535 45.964 17.2949 45.2007 17.2185 44.819C17.2185 44.9042 17.2397 45.0212 17.2623 45.1463C17.3005 45.3573 17.3429 45.5913 17.2949 45.735C17.2246 45.8052 16.8313 45.23 16.709 45.0182C16.7761 45.1928 16.8364 45.735 16.8364 45.735Z" fill="#333333"/>
<path d="M2.01037 16.9564C1.0933 15.506 0.940455 13.4449 2.69818 14.2083C2.23964 12.9869 2.54533 11.0785 3.92094 11.9946C4.37948 11.0785 4.83802 10.6205 5.4494 11.3075C6.06078 11.0785 6.36647 11.3075 6.4429 11.9182C7.05428 11.8419 7.20712 12.5289 6.82501 13.1396C7.81851 13.5976 7.20712 14.8953 6.1372 15.6587C6.82501 16.4984 5.90794 17.5671 4.68517 17.9488C4.60875 17.7197 4.53233 17.6434 4.4559 17.4907C4.99086 17.3381 6.59574 16.1167 5.29655 15.8114C4.60875 15.8114 4.99086 15.5823 5.22013 15.4297C6.21363 15.3533 7.35997 13.1396 6.06078 13.5976C5.67867 13.6739 5.67867 13.3686 6.21363 13.0633C6.51932 12.6816 6.74859 12.2999 6.36647 12.1472C6.1372 12.1472 5.98436 12.0709 6.06078 11.8419C6.06078 11.5365 5.90794 11.3839 5.52582 11.5365C5.29655 11.7655 5.29655 11.3839 4.99086 11.3075C4.53233 11.2312 4.37948 11.6129 4.22664 12.0709C4.15021 12.5289 3.99737 12.7579 3.84452 12.3762C2.92745 11.3839 2.69818 12.9106 2.92745 14.0556C3.08029 14.6663 2.92745 14.7426 2.69818 14.59C1.0933 13.6739 1.55184 15.8877 2.39249 17.0327C2.23964 16.9564 2.0868 16.9564 2.01037 16.9564Z" fill="#333333"/>
<path d="M4.9908 10.8496C4.53226 8.71218 5.44934 8.25416 6.36641 8.86485C6.28999 7.10913 7.20706 6.26943 8.04771 7.41447C8.3534 6.49844 9.04121 6.1931 9.49974 6.95645C10.264 6.88012 10.4168 7.2618 10.3404 7.94882C10.7989 8.17783 10.9518 8.55951 10.4932 9.09386C11.181 9.85722 10.4932 10.6969 9.3469 11.0023C9.95828 12.3763 7.58917 12.6816 7.35991 12.6053C7.43633 12.3763 7.28348 12.071 7.28348 12.071C8.12413 12.2236 9.57617 11.4603 8.42982 10.8496C7.74202 10.5442 8.50625 10.5442 8.73552 10.5442C10.1875 10.5442 10.6461 9.47554 9.88186 9.32287C9.42332 9.24653 9.42332 9.09386 9.88186 8.94119C10.3404 8.71218 10.6461 8.48317 10.264 8.25416C10.1111 8.10149 10.0347 8.02516 10.1111 7.79615C10.1875 7.33813 10.0347 7.18546 9.65259 7.2618C9.49974 7.2618 9.3469 7.2618 9.3469 7.03279C9.04121 6.57477 8.81194 6.72745 8.50625 7.41447C8.42982 7.4908 8.12413 8.02516 7.97129 7.64348C7.43633 6.57477 6.74852 7.41447 6.82495 8.78851C6.90137 9.3992 6.82495 9.55187 6.44283 9.17019C5.37291 8.3305 5.14365 9.78088 5.52576 11.0023C5.14365 10.9259 5.06722 10.8496 4.9908 10.8496Z" fill="#333333"/>
<path d="M3.84448 31.6892C3.69164 31.7656 3.53879 31.7656 3.46237 31.9182C1.62822 31.6129 -0.1295 29.8572 1.78107 29.0175C0.0233453 27.7198 -0.0530774 25.8877 1.47538 26.1167C0.787573 24.819 1.32253 24.132 2.23961 24.4373C2.5453 23.674 3.30952 23.674 3.69164 24.2846C4.37944 23.903 5.06725 24.59 4.99082 25.4297C5.98432 25.2007 6.5957 26.2694 5.9079 27.7198C7.20708 27.5671 7.43635 29.0938 6.44286 30.5442C6.21359 30.4678 5.98432 30.4678 5.75505 30.5442C6.97782 29.0175 6.5957 27.5671 5.37294 28.5595C5.06725 28.6358 4.83798 28.6358 4.9144 28.3304C5.67863 27.3381 6.06074 25.048 4.37944 26.1167C4.07375 26.193 4.07375 25.8877 4.2266 25.735C4.60871 25.048 4.30302 24.2846 3.69164 24.6663C3.61521 24.7427 3.38595 24.6663 3.38595 24.5136C3.30952 24.0556 2.5453 23.903 2.46887 24.6663C2.39245 24.9717 2.08676 24.7427 2.01034 24.7427C1.39895 24.5136 1.24611 25.2007 1.78107 26.193C1.85749 26.2694 2.01034 26.7274 1.47538 26.5747C-0.205923 26.1167 0.787573 28.4068 2.08676 28.9411C2.31603 29.0175 2.23961 29.3228 2.01034 29.3228C0.329036 29.7045 1.78107 31.3839 3.84448 31.6892Z" fill="#333333"/>
<path d="M1.85751 24.2846C1.78108 24.2846 1.62824 24.2846 1.55182 24.361C0.176207 23.4449 -0.893712 20.7732 1.09328 20.9259C0.099784 19.7808 -0.205907 17.7198 1.47539 18.1778C1.32255 17.3381 2.01035 16.9564 2.62174 17.2617C3.08027 16.8037 3.46239 16.8801 3.8445 17.4144C4.68515 17.2617 4.76157 17.8724 4.76157 18.4831C6.06076 18.7121 5.60222 20.4678 4.99084 21.3075C6.13718 21.7656 5.5258 23.3686 4.68515 24.2083C4.5323 24.132 4.37946 24.0556 4.15019 24.0556C5.06726 23.2159 5.60222 21.5365 4.37946 21.6892C3.92092 21.9182 3.8445 21.6129 4.22661 21.2312C4.91442 20.5442 5.5258 18.7121 4.45588 18.9411C4.22661 19.0938 4.15019 19.0175 4.22661 18.7121C4.37946 18.2541 4.30304 17.5671 3.92092 17.7198C3.76808 17.8724 3.61523 17.8724 3.61523 17.5671C3.46239 17.2617 3.30954 17.1091 2.92743 17.4144C2.851 17.5671 2.69816 17.6434 2.54531 17.4907C2.01035 17.2617 1.78108 17.5671 1.93393 18.3304C2.01035 18.6358 1.85751 18.6358 1.70466 18.5594C1.62824 18.4831 1.39897 18.3304 1.24613 18.3304C0.481898 18.2541 0.634743 19.4755 1.55182 20.7732C1.85751 21.0022 1.78108 21.5365 1.32255 21.2312C0.176207 20.7732 -0.358753 22.3762 1.85751 24.2846Z" fill="#333333"/>
<path d="M8.96486 6.34573C8.96486 4.97168 10.0348 3.82664 10.6462 5.04802C11.1047 4.05565 12.4039 2.98695 12.7096 4.20832C13.6266 3.44496 14.5437 3.44496 14.4673 4.43733C15.3079 4.51367 15.3844 5.04802 14.9258 5.58237C15.7665 6.04038 15.3079 7.03275 14.238 7.10909C14.3144 7.87245 13.8559 8.25412 12.786 8.25412C12.786 9.24649 11.4868 9.4755 10.4933 9.01748C10.7226 8.94115 10.799 8.6358 10.799 8.55947C12.1746 8.86481 12.4039 8.33046 11.7161 7.71977C11.5632 7.5671 11.7161 7.49077 11.9453 7.49077C13.2445 7.79611 14.238 7.41443 13.2445 6.65107C13.0917 6.34573 13.5502 6.42206 13.4738 6.42206C14.773 6.72741 15.2315 6.04038 14.5437 5.6587C14.4673 5.6587 14.3909 5.50603 14.4673 5.4297C15.0787 4.97168 14.9258 4.51367 14.0852 4.66634C13.9323 4.74267 13.8559 4.66634 13.9323 4.51367C14.4673 3.5213 13.2445 3.75031 12.5567 4.59C12.4039 4.74267 12.251 4.66634 12.3275 4.51367C12.5567 3.36863 11.334 3.75031 10.7226 5.50603C10.5697 5.73504 10.4169 5.73504 10.4169 5.50603C10.264 4.13199 9.19413 4.89535 9.19413 6.34573C9.19413 6.42206 8.96486 6.34573 8.96486 6.34573Z" fill="#333333"/>
<path d="M26.0071 8.94114C25.9307 8.8648 25.9307 8.71213 25.8542 8.6358C25.0136 8.94114 24.0201 8.78847 24.7079 7.87244C25.09 7.64343 24.8607 7.41442 24.5551 7.64343C23.9437 7.94877 22.1859 7.64343 23.3323 6.80373C23.5616 6.7274 23.4087 6.42205 23.103 6.57473C22.7209 6.80373 21.1925 6.49839 22.0331 5.81137C22.3388 5.73503 22.3388 5.58236 22.0331 5.50602C21.4981 5.27702 21.8803 4.58999 22.3388 4.74267C22.5681 4.97167 22.7973 4.74267 22.5681 4.58999C22.1095 3.36862 23.7144 4.13198 23.9437 4.58999C24.0201 4.89534 24.4022 4.819 24.2494 4.51366C24.0965 3.06328 25.7014 4.51366 25.7778 5.35335C25.8542 5.81137 26.2364 5.81137 26.1599 5.42969C26.3892 4.20831 27.3063 5.12435 27.3827 6.26938C27.4591 6.19305 27.612 6.11671 27.8412 6.11671C27.6884 4.97167 26.8477 3.67396 25.9307 4.66633C25.5486 3.44496 24.1729 2.98694 23.7908 3.90297C23.0266 3.06328 21.7274 3.52129 22.1859 4.43732C21.651 4.28465 21.116 5.20068 21.7274 5.58236C20.8103 6.34572 21.9567 7.10908 22.7209 6.88007C22.1859 7.71976 23.638 8.25412 24.2494 7.87244C23.8672 9.47549 25.7014 8.94114 26.0071 8.94114Z" fill="#333333"/>
<path d="M29.3697 12.4526C29.3697 12.3762 29.4461 12.2236 29.5225 12.1472C28.1469 12.0709 27.077 11.6129 28.3762 10.8495C28.529 10.8495 28.8347 10.5442 28.2234 10.5442C27.3063 10.7732 25.625 9.70448 27.0006 9.32281C27.3063 9.32281 27.3063 9.01746 26.9242 9.01746C26.6949 9.17013 26.0071 8.63578 26.3892 8.33044C26.3892 8.2541 26.6949 8.10143 26.542 7.87242C26.3892 6.95639 27.4591 7.64342 27.3827 7.10906C27.3827 7.10906 27.7648 6.26937 28.2998 7.64342C28.3762 7.71975 28.6819 8.17777 28.7583 7.71975C29.064 6.72739 30.2868 7.49074 29.9047 8.94113C29.8282 9.39914 29.9047 9.47548 30.2103 9.17013C31.5095 8.33044 31.5095 9.78082 31.2803 10.6969C31.4331 10.6205 31.586 10.6205 31.7388 10.6969C32.0445 9.17013 31.586 7.94876 30.4396 8.48311C30.516 7.10906 29.5225 5.96403 28.6055 7.03273C28.4526 6.34571 27.5355 5.73502 27.077 6.80372C26.3128 6.80372 26.2364 7.33807 26.3128 7.79609C25.7778 8.10143 26.0071 8.78845 26.3892 8.94113C25.4721 9.70448 26.9242 10.6969 27.6884 10.6205C27.077 12.0709 28.1469 12.2999 29.3697 12.4526Z" fill="#333333"/>
<path d="M31.9681 17.7961C32.0445 17.7198 32.0445 17.6434 32.1209 17.5671C31.2803 17.2617 29.8282 16.1167 31.2038 15.8114C31.6624 15.8877 31.6624 15.506 31.2038 15.4297C30.4396 15.4297 28.9111 13.2923 30.2868 13.5213C30.6689 13.8266 30.7453 13.4449 30.3632 13.2159C29.9811 12.9869 29.6754 12.1472 30.1339 12.1472C30.2103 12.2236 30.516 12.0709 30.3632 11.9182C30.2868 11.6892 30.5924 11.3839 30.8217 11.5365C31.051 11.6892 31.1274 11.6129 31.2038 11.4602C31.5859 10.9259 32.1209 11.6129 32.1973 12.0709C32.3502 12.5289 32.4266 12.6052 32.6559 12.2236C33.6494 11.4602 33.8022 12.5289 33.5729 13.903C33.3437 14.59 33.5729 14.6663 33.955 14.361C35.7892 13.7503 34.5664 16.193 34.2607 16.8801C34.49 16.8801 34.5664 16.8801 34.7957 16.8801C35.1778 16.2694 36.3242 13.4449 34.1843 13.903C34.3372 12.2999 33.955 11.0785 32.6559 11.7656C32.4266 11.0785 31.5859 10.3915 31.051 11.3075C30.7453 11.0022 29.9811 11.3839 30.1339 11.9182C29.5225 11.9946 29.5989 12.8343 30.0575 13.2923C28.6819 13.5976 30.3632 15.506 30.8981 15.6587C29.5225 16.0404 31.051 17.6434 31.9681 17.7961Z" fill="#333333"/>
<path d="M32.5794 24.2083C31.7388 23.4449 30.8981 21.6129 32.3502 21.8419C32.7323 21.9946 32.8087 21.8419 32.5794 21.4602C32.0445 21.0785 30.9746 18.7884 32.1973 19.0175C32.3502 19.2465 32.7323 19.0938 32.4266 18.7121C32.2738 18.3304 32.3502 17.6434 32.7323 17.7961C32.9616 17.8724 33.038 17.8724 33.038 17.6434C33.1144 17.2617 33.3437 17.1854 33.7258 17.3381C33.8786 17.5671 34.0315 17.5671 34.2607 17.4144C34.8721 17.3381 34.8721 17.7197 34.7957 18.2541C34.6429 18.7121 34.8721 18.6358 35.1014 18.4831C36.4006 18.0251 36.1713 19.4755 35.2542 20.6968C34.8721 21.3075 34.8721 21.6129 35.4835 21.2312C37.012 21.1549 35.8656 23.2159 34.8721 24.132C35.3307 24.2083 35.1778 24.2846 35.4071 24.361C36.3242 23.8266 37.6998 20.9259 35.942 20.6968C36.5534 19.7045 37.0884 17.7961 35.2542 17.8724C35.1778 17.1854 34.8721 16.8801 34.0315 17.1854C33.4201 16.7274 33.1144 16.9564 32.8851 17.4907C32.1973 17.4144 31.9681 17.7961 32.1973 18.7121C30.8981 18.4068 31.2038 20.3915 32.1973 21.4602C30.516 21.6129 31.5859 23.6739 32.2738 24.2083C32.3502 24.2083 32.4266 24.2083 32.5794 24.2083Z" fill="#333333"/>
<path d="M30.6689 30.4679C30.5925 30.4679 30.2103 30.4679 30.2868 30.4679C29.2168 28.4068 29.6754 27.6434 30.9746 28.0251C30.2868 26.0404 30.7453 25.3534 31.8916 25.735C31.6624 24.5137 32.0445 24.2083 32.8851 24.4373C33.3437 23.7503 33.9551 23.7503 34.2607 24.4373C35.7892 24.0556 35.6364 25.048 35.2542 26.1167C37.1648 26.2694 36.2477 27.9488 35.1778 29.0175C37.0884 30.2389 34.7957 31.9946 33.4201 32.1473C33.4965 32.1473 33.2673 31.6892 33.1144 31.6892C34.2607 31.5366 36.3242 29.7808 34.49 29.3228C34.1079 29.2465 34.1079 29.0938 34.4136 28.8648C35.5599 28.1014 36.6299 26.1931 34.8721 26.5747C34.7193 26.6511 34.3372 26.6511 34.6429 26.1931C35.025 25.6587 35.3307 24.5137 34.3372 24.819C34.2607 24.8953 34.0315 24.8953 33.9551 24.59C33.7258 24.132 33.4201 24.0556 33.1144 24.5137C33.038 24.7427 32.8851 24.819 32.7323 24.6663C31.9681 24.4373 32.0445 25.048 32.1209 25.6587C32.4266 26.1931 32.1973 26.3457 31.8152 26.1167C30.7453 25.6587 30.4396 26.3457 31.2803 28.1014C31.5859 28.5595 31.5859 28.8648 31.051 28.5595C30.1339 27.7961 29.4461 28.4831 30.6689 30.4679Z" fill="#333333"/>
<path d="M9.34691 37.4144C9.11765 37.1854 8.88838 37.0327 8.65911 36.8037C7.74204 36.9564 6.97781 36.9564 5.98431 36.9564C5.75504 37.0327 5.75504 36.8801 5.98431 36.8801C6.21358 36.8801 8.50626 36.7274 8.42984 36.651L6.82496 35.048C6.82496 35.1243 4.6087 34.6663 4.53228 34.6663C4.22659 34.59 4.37943 34.5136 4.53228 34.59C4.6087 34.6663 6.59569 34.8953 6.59569 34.8953L5.67862 33.4449C5.67862 33.5213 4.53228 33.0633 4.53228 32.9869C4.37943 32.9106 4.45586 32.8342 4.6087 32.9106L5.6022 33.2159L5.06724 31.9946C4.99082 31.8419 5.06724 31.8419 5.14366 31.9182C5.14366 31.9946 5.90789 33.5213 5.98431 33.4449C6.06074 33.4449 6.13716 31.6892 6.06074 31.6892C6.06074 31.5365 6.13716 31.5365 6.13716 31.6892C6.21358 31.6892 6.13716 33.7503 6.13716 33.7503C6.06074 33.8266 7.20708 35.2007 7.2835 35.1243C7.35992 35.1243 7.74204 32.4526 7.66561 32.4526C7.66561 32.3762 7.74204 32.3762 7.74204 32.5289C7.81846 32.4526 7.43635 35.2007 7.35992 35.3533C7.35992 35.4297 9.04122 36.9564 9.04122 36.8801C8.9648 36.8801 9.34691 33.9793 9.34691 33.9793C9.42334 33.7503 9.49976 33.8266 9.42334 33.9793C9.27049 34.9717 9.19407 35.964 9.19407 37.0327L9.49976 37.3381C9.42334 37.3381 9.42334 37.3381 9.34691 37.4144Z" fill="#333333"/>
<path d="M7.58919 38.7121C8.04773 38.4831 8.50626 38.3304 8.9648 38.1014C8.9648 38.1777 8.9648 38.1777 8.9648 38.2541C8.50626 38.4831 8.12415 38.6357 7.66561 38.8647C7.43635 38.9411 7.35992 38.7884 7.58919 38.7121Z" fill="#333333"/>
<path d="M10.8754 35.5823C10.9518 35.5059 10.9518 35.5059 10.9518 35.5823C10.7989 36.0403 10.6461 36.5746 10.5697 37.0327H10.4168C10.5697 36.5746 10.7225 36.0403 10.8754 35.5823Z" fill="#333333"/>
<path d="M4.37946 30.8495C4.30304 30.7732 4.30304 30.6969 4.30304 30.6205C3.69166 30.4678 3.1567 30.3152 2.4689 30.2388C2.08678 30.2388 2.23963 30.1625 2.4689 30.1625C2.69816 30.1625 4.1502 30.3915 4.1502 30.3915C4.1502 30.3915 3.38597 28.5594 3.38597 28.4831C2.92743 28.4068 1.85751 27.5671 1.85751 27.5671C1.62825 27.4144 1.62825 27.3381 1.85751 27.4907L3.23312 28.2541C3.1567 28.0251 2.77459 26.2694 2.77459 26.2694L2.08678 25.6587C1.85751 25.506 1.93394 25.4297 2.1632 25.5824L2.77459 26.0404V24.8953C2.77459 24.6663 2.85101 24.6663 2.85101 24.8953C2.85101 24.9717 2.85101 26.422 2.92743 26.422L3.61524 25.4297C3.76808 25.1243 3.84451 25.2007 3.69166 25.506C3.69166 25.506 3.00385 26.6511 2.92743 26.6511C2.85101 26.6511 3.46239 28.7121 3.46239 28.6358L4.60873 27.0327C4.838 26.7274 4.76158 26.9564 4.68516 27.1091C4.30304 27.7198 3.99735 28.2541 3.53881 28.8648C3.46239 28.9411 4.37946 30.6205 4.37946 30.6205C4.68516 30.1625 4.99085 29.7808 5.37296 29.3228C5.60223 29.1701 5.44938 29.3228 5.44938 29.3991C5.06727 29.7808 4.76158 30.2388 4.53231 30.7732C4.60873 30.8495 4.45589 30.8495 4.37946 30.8495Z" fill="#333333"/>
<path d="M2.69815 23.7503C2.69815 23.5976 2.62173 23.3686 2.62173 23.2159C2.23961 22.9106 1.78108 22.6052 1.32254 22.2999C1.24612 22.2236 1.24612 22.1472 1.32254 22.2236L2.54531 22.9869L2.46888 20.8495L1.32254 19.7045C1.1697 19.5518 1.24612 19.4755 1.39896 19.6281L2.46888 20.6205C2.46888 20.6205 2.54531 19.0174 2.62173 19.0174L2.01035 18.1778C1.93392 18.0251 2.01035 17.9487 2.08677 18.1014C2.08677 18.1014 2.62173 18.8648 2.62173 18.7884C2.69815 18.4831 2.69815 18.1014 2.851 17.7197C2.851 17.5671 2.92742 17.6434 2.92742 17.7197C2.851 18.1778 2.77457 18.7121 2.69815 19.1701C3.00384 18.9411 3.30953 18.7121 3.5388 18.4068C3.69165 18.2541 3.69165 18.3304 3.61522 18.4831C3.30953 18.7884 3.00384 19.1701 2.69815 19.4755C2.69815 20.0098 2.62173 20.6205 2.62173 21.1549C3.15669 20.6968 3.99734 20.0098 4.07376 20.0098C4.37945 19.7045 4.22661 20.0098 4.15018 20.0861C3.69165 20.5442 3.23311 20.9258 2.69815 21.3839C2.69815 22.1472 2.77457 22.8342 2.851 23.5976C3.23311 23.2923 3.61522 23.0632 4.07376 22.8342C4.30303 22.6816 4.30303 22.8342 4.07376 22.9106C3.61522 23.1396 3.23311 23.4449 2.851 23.7503V23.8266C2.77457 23.7503 2.77457 23.7503 2.69815 23.7503Z" fill="#333333"/>
<path d="M3.15671 16.8037C3.23314 16.651 3.23314 16.5747 3.30956 16.422C3.00387 16.0403 2.7746 15.6586 2.39249 15.277C2.23964 15.1243 2.31606 15.048 2.46891 15.2006L3.38598 16.193C3.61525 15.6586 3.84452 15.1243 3.99737 14.5899C3.7681 14.2083 3.53883 13.8266 3.30956 13.4449C3.15671 13.2922 3.30956 13.2159 3.38598 13.3686C3.61525 13.7502 3.84452 14.0556 4.07379 14.3609C4.37948 13.9029 4.60875 13.3686 4.91444 12.8342C4.83802 12.6052 4.83802 12.3762 4.76159 12.1472C4.68517 11.9945 4.76159 11.9182 4.83802 12.1472C4.91444 12.2999 4.99086 12.5289 4.99086 12.7579C5.22013 12.5289 5.37297 12.2235 5.52582 11.9945C5.67867 11.8419 5.60224 11.9945 5.60224 12.0709C5.37297 12.3762 5.14371 12.6815 4.91444 12.9869C5.22013 12.9106 5.60224 12.8342 5.90793 12.8342C6.36647 12.6815 5.98436 12.9869 5.90793 12.9106C5.60224 12.9869 5.22013 13.1396 4.76159 13.1396C4.4559 13.6739 4.22663 14.2846 3.92094 14.819C4.53232 14.7426 5.14371 14.5899 5.75509 14.4373C5.98436 14.3609 5.98436 14.5136 5.75509 14.5136C5.14371 14.7426 4.4559 14.8953 3.84452 14.9716C3.61525 15.5823 3.38598 16.1167 3.30956 16.7273C3.7681 16.651 4.15021 16.4983 4.68517 16.4983C4.83802 16.422 5.14371 16.5747 4.68517 16.5747C4.22663 16.651 3.7681 16.7273 3.38598 16.9564C3.30956 16.8037 3.23314 16.8037 3.15671 16.8037Z" fill="#333333"/>
<path d="M6.21364 11.2312C6.29006 11.1548 6.36648 11.0785 6.4429 11.0022C6.29006 10.6205 6.13721 10.2388 5.98437 9.93347C5.90795 9.7808 5.98437 9.7808 6.06079 9.85714L6.59575 10.8495C6.97786 10.3915 7.35998 9.93347 7.74209 9.47546C7.58925 9.09378 7.4364 8.7121 7.28356 8.33042C7.20713 8.10141 7.35998 8.25408 7.35998 8.25408C7.51282 8.55943 7.66567 8.94111 7.81851 9.24645C8.12421 8.94111 8.50632 8.63576 8.81201 8.25408C8.81201 8.02508 8.81201 7.71973 8.81201 7.49072C8.81201 7.33805 8.88843 7.33805 8.88843 7.49072C8.96486 7.71973 8.96486 7.94874 8.96486 8.10141C9.19412 7.94874 9.34697 7.79607 9.57624 7.6434C9.65266 7.56706 9.72908 7.56706 9.65266 7.71973C9.42339 7.94874 9.19412 8.17775 8.96486 8.40676C9.19412 8.40676 9.42339 8.48309 9.65266 8.48309C9.88193 8.48309 9.88193 8.63576 9.65266 8.55943C9.34697 8.55943 9.1177 8.55943 8.81201 8.55943C8.4299 8.94111 8.04778 9.32279 7.74209 9.70446C8.12421 9.7808 8.65916 9.7808 9.04128 9.7808C9.19412 9.7808 9.19412 9.85714 9.04128 9.85714C8.58274 9.85714 8.04778 9.7808 7.66567 9.7808C7.28356 10.2388 6.97786 10.6968 6.59575 11.1548C6.97786 11.2312 7.35998 11.2312 7.74209 11.3075C8.04778 11.3075 8.04778 11.3839 7.81851 11.3839C7.81851 11.4602 6.51933 11.3075 6.51933 11.3075C6.29006 11.3075 6.21364 11.2312 6.21364 11.2312Z" fill="#333333"/>
<path d="M10.1876 7.03271C10.6461 6.80371 11.0282 6.49836 11.4868 6.26936C11.5632 5.81134 11.5632 5.42966 11.6396 4.97165C11.6396 4.74264 11.716 4.89531 11.716 4.97165C11.716 5.35333 11.716 5.735 11.6396 6.19302C12.1746 5.88768 12.6331 5.735 13.1681 5.506C13.2445 5.27699 13.3209 4.97165 13.3973 4.74264C13.4738 4.4373 13.5502 4.51363 13.4738 4.6663C13.3973 4.89531 13.3973 5.12432 13.3209 5.35333C13.5502 5.27699 13.7795 5.20065 14.0087 5.12432C14.238 5.04798 14.238 5.20065 14.0087 5.20065C13.703 5.27699 13.3973 5.42966 13.0917 5.506C13.3209 5.65867 13.6266 5.81134 13.9323 5.88768C14.1616 5.96401 14.1616 6.04035 13.9323 5.96401C13.5502 5.88768 13.2445 5.735 12.8624 5.65867C12.4039 5.88768 11.8689 6.11668 11.4104 6.34569C11.716 6.65104 12.0217 6.88004 12.4039 7.03271C12.5567 7.10905 12.5567 7.18539 12.3274 7.10905C12.3274 7.10905 11.1811 6.49836 11.1811 6.42203C10.8754 6.65104 10.4933 6.88004 10.1876 7.10905C10.264 7.10905 10.264 7.03271 10.1876 7.03271Z" fill="#333333"/>
<path d="M9.72905 6.88004C9.80547 6.88004 9.80547 6.95638 9.88189 6.95638C9.88189 6.65103 9.80547 6.34569 9.80547 6.04035C9.80547 5.88767 9.72905 5.88767 9.72905 6.04035C9.72905 6.26935 9.72905 6.5747 9.72905 6.88004Z" fill="#333333"/>
<path d="M10.4168 7.49068C10.4168 7.56701 10.4168 7.56701 10.4168 7.64335C10.7225 7.79602 10.9518 7.94869 11.1811 8.1777C11.3339 8.25404 11.3339 8.10136 11.1811 8.10136C10.9518 7.87236 10.7225 7.64335 10.4168 7.49068Z" fill="#333333"/>
<path d="M27.077 37.4144C27.3062 37.1854 27.5355 37.0327 27.7648 36.8037C28.6819 36.9564 29.4461 37.0327 30.4396 37.0327C30.6689 37.1091 30.6689 36.8801 30.4396 36.9564C30.2103 36.9564 27.9941 36.8037 27.9941 36.7274L29.5989 35.1243C29.5989 35.2007 31.8152 34.819 31.8152 34.7426C32.1209 34.6663 32.0445 34.59 31.8152 34.6663C31.7388 34.7426 29.7518 34.9717 29.7518 34.9717L30.7453 33.5213C30.7453 33.5976 31.8916 33.1396 31.8916 33.0633C32.0445 32.9869 31.968 32.9106 31.8152 32.9869L30.8217 33.2923L31.4331 32.0709C31.5095 31.9182 31.4331 31.9182 31.3567 31.9946C31.3567 32.0709 30.5924 33.5976 30.516 33.5213C30.4396 33.5213 30.3632 31.6892 30.4396 31.6892C30.4396 31.5365 30.3632 31.5365 30.3632 31.6892V33.7503C30.4396 33.8266 29.2932 35.2007 29.2168 35.1243C29.1404 35.1243 28.7583 32.4526 28.7583 32.4526C28.7583 32.3762 28.6819 32.3762 28.6819 32.5289C28.6054 32.4526 28.9875 35.2007 29.064 35.3533C29.064 35.4297 27.3827 36.9564 27.3827 36.8801C27.4591 36.8801 27.077 34.0556 27.077 33.9793C27.0006 33.7503 27.0006 33.8266 27.0006 33.9793C27.1534 34.9717 27.2298 35.964 27.3062 37.0327L26.9241 37.3381C27.0006 37.2617 27.077 37.3381 27.077 37.4144Z" fill="#333333"/>
<path d="M28.9112 38.7121C28.4526 38.4831 28.0705 38.3305 27.5356 38.1015C27.5356 38.1778 27.5356 38.1778 27.5356 38.2541C27.9941 38.4831 28.3762 38.6358 28.8348 38.7885C28.9876 38.9411 29.064 38.7885 28.9112 38.7121Z" fill="#333333"/>
<path d="M25.5485 35.5823C25.4721 35.5059 25.4721 35.5059 25.4721 35.5823C25.625 36.0403 25.7778 36.5746 25.8542 37.0327H26.0835C25.9306 36.5746 25.7014 36.0403 25.5485 35.5823Z" fill="#333333"/>
<path d="M32.1209 30.7732C32.1209 30.6969 32.1973 30.6205 32.1973 30.5442C32.8087 30.3915 33.3436 30.2388 33.955 30.1625C34.3371 30.1625 34.1843 30.0862 33.955 30.0862C33.7258 30.0862 32.2737 30.3152 32.2737 30.3152C32.2737 30.3152 33.038 28.4831 33.038 28.4068C33.4201 28.3304 34.5664 27.4908 34.5664 27.4908C34.7957 27.3381 34.7957 27.2617 34.5664 27.4144L33.1908 28.1014C33.2672 27.8724 33.5729 26.1167 33.5729 26.1167L34.2607 25.4297C34.49 25.277 34.4136 25.2007 34.1843 25.3533L33.5729 25.8114V24.6663C33.5729 24.4373 33.4965 24.4373 33.4965 24.6663C33.5729 24.7427 33.4965 26.193 33.4201 26.193L32.7323 25.2007C32.5794 24.8953 32.503 24.9717 32.6558 25.277C32.6558 25.277 33.3436 26.422 33.4201 26.422C33.4965 26.4984 32.8851 28.4831 32.8851 28.4068L31.7388 26.8037C31.5095 26.4984 31.5859 26.7274 31.6623 26.8801C31.968 27.4908 32.3502 28.0251 32.7323 28.6358C32.8087 28.7121 31.8916 30.3915 31.8916 30.3915C31.5859 29.9335 31.2802 29.5518 30.8981 29.0938C30.6689 28.9411 30.8217 29.0938 30.8217 29.1701C31.2038 29.5518 31.5095 30.0098 31.7388 30.5442C31.968 30.6969 32.0445 30.7732 32.1209 30.7732Z" fill="#333333"/>
<path d="M33.8787 23.8266C33.8787 23.5976 33.9551 23.4449 33.9551 23.2159C34.4136 22.9106 34.7957 22.6052 35.2543 22.2999C35.3307 22.2235 35.3307 22.1472 35.2543 22.2235L34.0315 22.9869L34.1079 20.7732L35.2543 19.6281C35.4071 19.4754 35.3307 19.3991 35.1778 19.5518C35.1778 19.6281 34.1079 20.5441 34.1079 20.5441C34.1079 20.5441 34.0315 18.9411 33.9551 18.9411L34.5665 18.1014C34.6429 17.9487 34.5665 17.8724 34.49 18.0251L33.9551 18.7121C33.8787 18.4067 33.8787 18.0251 33.8022 17.6434C33.8022 17.4907 33.7258 17.567 33.7258 17.6434C33.8022 18.1014 33.8787 18.6357 33.9551 19.0938C33.6494 18.8648 33.3437 18.6357 33.1144 18.3304C32.9616 18.1777 32.9616 18.2541 33.038 18.4067C33.3437 18.7884 33.6494 19.0938 33.9551 19.3991C33.9551 20.0098 33.9551 20.5441 34.0315 21.0785C33.4965 20.6205 32.6559 19.9335 32.6559 19.9335C32.3502 19.6281 32.5031 19.9335 32.5795 20.0098C33.038 20.4678 33.4965 20.8495 34.0315 21.2312C34.0315 21.9945 33.9551 22.7579 33.8787 23.4449C33.4965 23.1396 33.1144 22.9106 32.6559 22.6816C32.4266 22.6052 32.4266 22.6816 32.6559 22.7579C33.1144 22.9869 33.4965 23.2922 33.8787 23.5976C33.8787 23.5976 33.8787 23.5976 33.8787 23.6739C33.8022 23.8266 33.8022 23.8266 33.8787 23.8266Z" fill="#333333"/>
<path d="M33.4201 16.8037C33.4201 16.7273 33.3437 16.5747 33.2672 16.422C33.5729 16.0403 33.8786 15.6586 34.1843 15.277C34.3372 15.1243 34.2607 15.048 34.1079 15.2006L33.1908 16.193C32.9616 15.6586 32.7323 15.1243 32.5794 14.5899C32.8087 14.2083 33.038 13.8266 33.2672 13.4449C33.4201 13.2922 33.2672 13.2159 33.1908 13.3686C32.9616 13.6739 32.7323 14.0556 32.503 14.3609C32.1973 13.9029 31.9681 13.3686 31.6624 12.8342C31.7388 12.6052 31.7388 12.3762 31.8152 12.2235C31.8916 12.0709 31.8152 11.9945 31.7388 12.1472C31.6624 12.3762 31.5859 12.5289 31.5859 12.7579C31.4331 12.5289 31.2038 12.2235 31.051 11.9945C30.8981 11.8419 30.9746 11.9945 30.9746 12.0709C31.2038 12.3762 31.4331 12.6815 31.6624 12.9869C31.3567 12.9106 30.9746 12.9106 30.6689 12.8342C30.2103 12.7579 30.5924 12.9869 30.6689 12.9869C31.051 13.0632 31.3567 13.2159 31.8152 13.2159C32.1209 13.7502 32.3502 14.3609 32.5794 14.8953C31.9681 14.819 31.3567 14.6663 30.7453 14.5136C30.5924 14.4373 30.516 14.5136 30.7453 14.5899C31.3567 14.819 32.0445 14.9716 32.6559 15.048C32.8851 15.6586 33.1144 16.193 33.1908 16.8037C32.7323 16.7273 32.3502 16.651 31.8152 16.5747C31.6624 16.4983 31.3567 16.651 31.8152 16.651C32.2737 16.7273 32.7323 16.8037 33.1144 17.0327C33.2672 16.88 33.3437 16.8037 33.4201 16.8037Z" fill="#333333"/>
<path d="M30.4396 11.2312C30.3632 11.1548 30.2867 11.0785 30.2103 11.0022C30.3632 10.6205 30.516 10.2388 30.6689 9.93347C30.7453 9.7808 30.6689 9.70447 30.5924 9.85714L30.0575 10.8495C29.6754 10.3915 29.2932 9.93347 28.9111 9.47546C29.064 9.09378 29.2168 8.7121 29.3697 8.40676C29.4461 8.17775 29.2932 8.33042 29.2932 8.33042C29.1404 8.63576 28.9876 9.01744 28.8347 9.32279C28.529 9.01744 28.1469 8.63576 27.8412 8.33042C27.8412 8.02508 27.8412 7.79607 27.8412 7.49072C27.8412 7.33805 27.7648 7.33805 27.7648 7.49072C27.6884 7.71973 27.6884 7.94874 27.6884 8.17775C27.4591 8.02508 27.3063 7.8724 27.077 7.71973C27.0006 7.6434 26.9241 7.6434 27.0006 7.79607C27.2298 8.02508 27.4591 8.25408 27.6884 8.48309C27.4591 8.48309 27.2298 8.55943 27.0006 8.55943C26.7713 8.48309 26.7713 8.63576 27.0006 8.63576C27.3063 8.63576 27.5355 8.63576 27.8412 8.55943C28.2233 8.94111 28.6054 9.32279 28.9111 9.70447C28.529 9.7808 27.9941 9.7808 27.6119 9.7808C27.3827 9.7808 27.4591 9.85714 27.6119 9.85714C28.0705 9.85714 28.6054 9.85714 29.064 9.7808C29.3697 10.2388 29.7518 10.6968 30.1339 11.1548C29.7518 11.2312 29.3697 11.2312 28.9876 11.3075C28.6819 11.3075 28.6819 11.3839 28.9111 11.4602L30.2103 11.3839C30.2867 11.3075 30.3632 11.3075 30.4396 11.2312Z" fill="#333333"/>
<path d="M26.3892 7.03273C25.9307 6.72739 25.5485 6.49838 25.09 6.19304C25.0136 5.73502 25.0136 5.35335 24.9372 4.89533C24.9372 4.66632 24.8607 4.81899 24.8607 4.89533C24.8607 5.27701 24.8607 5.73502 24.9372 6.1167C24.4786 5.81136 23.9437 5.65869 23.4087 5.42968C23.3323 5.20067 23.2559 4.89533 23.1794 4.66632C23.103 4.51365 23.0266 4.51365 23.103 4.66632C23.1794 4.89533 23.1794 5.12434 23.2559 5.35335C23.0266 5.27701 22.7973 5.20067 22.5681 5.12434C22.4152 5.048 22.3388 5.12434 22.5681 5.20067C22.8737 5.27701 23.1794 5.42968 23.4851 5.50602C23.1794 5.73502 22.8737 5.81136 22.6445 5.96403C22.4916 6.04037 22.4916 6.1167 22.7209 6.04037C23.103 5.96403 23.4087 5.81136 23.7908 5.65869C24.2494 5.8877 24.7079 6.1167 25.1664 6.34571C24.8607 6.65106 24.555 6.88006 24.1729 7.03273C23.9437 7.10907 24.0201 7.18541 24.2494 7.10907C24.2494 7.18541 25.3957 6.49838 25.3957 6.42205C25.7014 6.65106 26.0835 6.88006 26.3892 7.10907C26.3128 7.18541 26.3128 7.10907 26.3892 7.03273Z" fill="#333333"/>
<path d="M26.8478 6.9564C26.7713 6.9564 26.7713 6.9564 26.6949 7.03274C26.6949 6.7274 26.7713 6.42205 26.7713 6.11671C26.7713 6.04037 26.8478 5.96404 26.8478 6.11671C26.8478 6.34572 26.8478 6.65106 26.8478 6.9564Z" fill="#333333"/>
<path d="M26.1599 7.49074C26.1599 7.56708 26.1599 7.56708 26.1599 7.64341C25.8542 7.79609 25.6249 8.02509 25.3193 8.17777C25.1664 8.2541 25.1664 8.17777 25.3193 8.10143C25.6249 7.87242 25.9306 7.71975 26.1599 7.49074Z" fill="#333333"/>
<path d="M16.1486 41.3075C16.3779 41.1549 16.4543 40.9258 16.6071 40.6205C16.6071 40.7732 16.6071 40.9258 16.6071 41.0785C16.4543 41.2312 16.3014 41.2312 16.1486 41.3075Z" fill="#333333"/>
<path d="M17.0656 40.3916C17.2185 40.2389 17.3713 40.0099 17.5242 39.7809C17.5242 39.9335 17.4477 40.1625 17.4477 40.3152C17.2185 40.3152 17.2185 40.3152 17.0656 40.3916Z" fill="#333333"/>
<path d="M16.3778 40.6205C16.6071 40.4679 16.6835 40.2388 16.9128 40.0098C16.9128 40.0098 16.9892 39.8572 16.9892 39.9335C16.9892 40.0862 16.6835 40.3152 16.6835 40.4679C16.5307 40.5442 16.5307 40.5442 16.3778 40.6205Z" fill="#333333"/>
<path d="M15.6136 41.6892C15.7665 41.4602 15.9193 41.2312 16.0722 41.0785C16.0722 41.2312 15.9193 41.3839 15.8429 41.5365C15.7665 41.5365 15.6901 41.6129 15.6136 41.6892Z" fill="#333333"/>
<path d="M16.0721 42.2236C16.3014 42.0709 16.3778 41.6892 16.5307 41.4602C16.5307 41.6129 16.6071 41.9182 16.6071 42.0709C16.4542 42.0709 16.225 42.1472 16.0721 42.2236Z" fill="#333333"/>
<path d="M15.4608 42.7579C15.6901 42.4526 15.6901 42.1472 15.7665 41.9946C15.7665 42.1472 15.8429 42.2999 15.8429 42.4526C15.6901 42.5289 15.6136 42.6816 15.4608 42.7579Z" fill="#333333"/>
<path d="M15.8429 43.5213C15.9957 43.0632 15.8429 42.8342 15.9193 42.6052C15.9957 42.7579 16.1486 43.1396 16.225 43.2922C15.9957 43.3686 15.9193 43.4449 15.8429 43.5213Z" fill="#333333"/>
<path d="M15.4608 43.8266C15.5372 43.445 15.3843 43.2159 15.3843 42.9869C15.4608 43.1396 15.6136 43.445 15.6136 43.5976C15.5372 43.674 15.6136 43.7503 15.4608 43.8266Z" fill="#333333"/>
<path d="M15.9193 44.361C15.8429 43.9794 15.7664 43.9794 15.8429 43.7503C15.8429 43.903 16.1485 44.0557 16.1485 44.2084C15.9957 44.2847 15.9957 44.2847 15.9193 44.361Z" fill="#333333"/>
<path d="M16.1486 45.1244C16.0722 44.819 15.9957 44.819 15.9957 44.59C16.0722 44.6664 16.225 44.7427 16.4543 44.8954C16.225 45.048 16.3014 45.048 16.1486 45.1244Z" fill="#333333"/>
<path d="M16.3014 44.132C16.3014 43.7503 16.225 43.674 16.3014 43.5213C16.3014 43.674 16.5307 43.8266 16.6835 43.9793C16.6071 43.9793 16.4543 44.0556 16.3014 44.132Z" fill="#333333"/>
<path d="M16.9128 44.6663C16.9128 44.2847 16.8364 44.2083 16.9128 44.0556C16.9892 44.2083 17.2185 44.361 17.3714 44.59C17.2185 44.59 16.9892 44.59 16.9128 44.6663Z" fill="#333333"/>
<path d="M16.4542 44.9717C16.4542 44.59 16.3014 44.5137 16.3014 44.361C16.3778 44.4373 16.6835 44.6663 16.7599 44.819C16.6071 44.819 16.5307 44.819 16.4542 44.9717Z" fill="#333333"/>
<path d="M16.9892 43.903C17.0656 43.5213 17.0656 43.3686 17.1421 43.216C17.2185 43.3686 17.3713 43.674 17.4478 43.8266C17.2185 43.8266 17.0656 43.7503 16.9892 43.903Z" fill="#333333"/>
<path d="M17.677 43.7503C17.7535 43.3686 17.8299 43.2159 17.9063 43.0633C17.9827 43.2159 18.1356 43.5213 18.212 43.7503C18.0592 43.7503 17.8299 43.6739 17.677 43.7503Z" fill="#333333"/>
<path d="M17.5242 44.5136C17.6006 44.1319 17.5242 44.0556 17.6006 43.9029C17.677 44.0556 17.9827 44.361 18.0591 44.5136C17.8299 44.5136 17.6006 44.5136 17.5242 44.5136Z" fill="#333333"/>
<path d="M18.2884 44.5137C18.3648 44.132 18.3648 44.132 18.4412 43.903C18.4412 44.0556 18.7469 44.361 18.8234 44.5137C18.6705 44.59 18.4412 44.4373 18.2884 44.5137Z" fill="#333333"/>
<path d="M19.0526 44.59C19.1291 44.2847 19.1291 44.2083 19.2055 43.9793C19.2819 44.0557 19.5112 44.5137 19.5876 44.6664C19.4348 44.6664 19.1291 44.5137 19.0526 44.59Z" fill="#333333"/>
<path d="M18.5941 43.674C18.7469 43.3686 18.8233 43.216 18.8233 42.987C18.8998 43.0633 19.0526 43.5213 19.0526 43.674C18.8998 43.7503 18.6705 43.674 18.5941 43.674Z" fill="#333333"/>
<path d="M19.2055 43.8266C19.3583 43.445 19.4348 43.3686 19.4348 43.216C19.5112 43.2923 19.664 43.7503 19.664 43.903C19.5876 43.903 19.3583 43.7503 19.2055 43.8266Z" fill="#333333"/>
<path d="M15.69 44.59C15.6136 44.2083 15.5372 44.361 15.5372 44.132C15.5372 44.2083 15.7665 44.2847 15.8429 44.4373C15.69 44.5137 15.7665 44.5137 15.69 44.59Z" fill="#333333"/>
<path d="M16.4543 43.1396C16.6071 42.7579 16.6835 42.4525 16.6835 42.2999C16.6835 42.4525 16.8364 42.9106 16.9128 42.9869C16.7599 43.0632 16.5307 43.0632 16.4543 43.1396Z" fill="#333333"/>
<path d="M17.2949 42.9106C17.4478 42.5289 17.6006 42.2999 17.677 42.0709C17.7534 42.2236 17.8299 42.6816 17.9063 42.8343C17.677 42.8343 17.3713 42.8343 17.2949 42.9106Z" fill="#333333"/>
<path d="M18.1355 42.8343C18.3648 42.5289 18.5176 42.2236 18.5941 42.0709C18.6705 42.2236 18.7469 42.7579 18.7469 42.8343C18.5176 42.8343 18.2884 42.7579 18.1355 42.8343Z" fill="#333333"/>
<path d="M18.9762 42.9106C19.2055 42.6052 19.2819 42.3762 19.2819 42.2236C19.4347 42.3762 19.4347 42.9106 19.4347 43.0633C19.2819 42.9869 19.129 42.8343 18.9762 42.9106Z" fill="#333333"/>
<path d="M19.664 42.9869C19.8169 42.6815 19.8169 42.5289 19.8933 42.2999C20.0461 42.4525 20.0461 42.9869 20.0461 43.1396C19.8933 43.1396 19.7405 43.0632 19.664 42.9869Z" fill="#333333"/>
<path d="M20.2754 43.2923C20.4283 42.9869 20.3518 42.7579 20.4283 42.5289C20.5811 42.6816 20.5811 43.2923 20.5811 43.445C20.3518 43.3686 20.3518 43.2923 20.2754 43.2923Z" fill="#333333"/>
<path d="M19.8933 44.0556C20.0461 43.674 20.0461 43.674 20.0461 43.5213C20.199 43.674 20.199 44.132 20.199 44.2847C20.1226 44.132 20.0461 44.0556 19.8933 44.0556Z" fill="#333333"/>
<path d="M19.6641 44.7426C19.7405 44.4373 19.7405 44.361 19.8169 44.132C19.9697 44.2846 19.9697 44.7426 19.9697 44.8953C19.8169 44.8953 19.7405 44.819 19.6641 44.7426Z" fill="#333333"/>
<path d="M20.5811 43.445C20.734 43.1396 20.5811 42.9869 20.6575 42.7579C20.8104 42.9106 20.734 43.5213 20.734 43.674C20.6575 43.5976 20.6575 43.5213 20.5811 43.445Z" fill="#333333"/>
<path d="M20.4282 44.2847C20.5047 43.9793 20.5047 43.9793 20.5811 43.7503C20.7339 43.903 20.6575 44.2847 20.6575 44.4373C20.4282 44.361 20.4282 44.361 20.4282 44.2847Z" fill="#333333"/>
<path d="M20.0461 44.9717C20.2754 44.7427 20.1225 44.7427 20.3518 44.5137C20.4282 44.7427 20.2754 45.048 20.2754 45.2007C20.1225 45.048 20.1225 45.048 20.0461 44.9717Z" fill="#333333"/>
<path d="M20.7339 42.5289C20.7339 42.2236 20.6575 42.2236 20.6575 41.9945C20.8103 42.1472 20.8103 42.4526 20.8103 42.6052C20.7339 42.5289 20.8868 42.6052 20.7339 42.5289Z" fill="#333333"/>
<path d="M16.9128 41.0785C17.0657 40.9258 17.2185 40.6968 17.3714 40.4678C17.3714 40.6205 17.3714 40.7732 17.3714 41.0022C17.2185 41.0022 17.0657 41.0022 16.9128 41.0785Z" fill="#333333"/>
<path d="M17.8298 40.9259C17.9827 40.7732 17.9827 40.6969 18.0591 40.3915C18.1355 40.4679 18.2884 40.7732 18.2884 40.9259C18.212 40.9259 17.9827 40.8496 17.8298 40.9259Z" fill="#333333"/>
<path d="M17.677 40.2388C17.8299 40.0862 17.8299 39.9335 17.9063 39.6282C17.9827 39.7045 17.9827 40.0098 17.9827 40.1625C17.9063 40.2388 17.8299 40.1625 17.677 40.2388Z" fill="#333333"/>
<path d="M18.3648 40.1625C18.5177 39.9335 18.4412 39.8572 18.4412 39.6282C18.5177 39.7045 18.7469 40.0862 18.7469 40.2388C18.6705 40.2388 18.5177 40.1625 18.3648 40.1625Z" fill="#333333"/>
<path d="M18.5941 40.9258C18.7469 40.7732 18.7469 40.6205 18.8998 40.4678C18.9762 40.5442 19.0526 40.8495 19.0526 41.0022C18.8998 40.9258 18.7469 40.8495 18.5941 40.9258Z" fill="#333333"/>
<path d="M18.9762 40.2389C19.0527 40.0862 19.0527 39.8572 19.0527 39.7809C19.1291 39.8572 19.3583 40.1626 19.2819 40.3152C19.1291 40.3152 19.1291 40.2389 18.9762 40.2389Z" fill="#333333"/>
<path d="M19.4347 40.3915C19.5112 40.2388 19.5112 40.0861 19.5112 39.9335C19.5876 40.0098 19.7404 40.3152 19.7404 40.4678C19.664 40.4678 19.5876 40.3915 19.4347 40.3915Z" fill="#333333"/>
<path d="M19.8169 40.5442C19.8933 40.3152 19.8169 40.3152 19.8169 40.2389C19.8933 40.3152 19.9697 40.5442 19.9697 40.6969C19.9697 40.5442 19.9697 40.5442 19.8169 40.5442Z" fill="#333333"/>
<path d="M20.199 40.6969C20.199 40.4679 20.1226 40.6206 20.1226 40.4679C20.199 40.5442 20.2754 40.6206 20.3518 40.7732C20.2754 40.6969 20.2754 40.6969 20.199 40.6969Z" fill="#333333"/>
<path d="M19.2055 41.0022C19.2819 40.8495 19.2819 40.7732 19.3583 40.5442C19.4347 40.6205 19.5876 40.9259 19.5876 41.0785C19.4347 41.0785 19.3583 41.0022 19.2055 41.0022Z" fill="#333333"/>
<path d="M19.7404 41.1549C19.8169 41.0022 19.8169 40.9258 19.8933 40.6968C19.9697 40.7732 20.0461 41.0785 20.0461 41.2312C19.8933 41.2312 19.8169 41.2312 19.7404 41.1549Z" fill="#333333"/>
<path d="M20.199 41.3076C20.2754 41.1549 20.199 41.0786 20.2754 40.9259C20.3518 41.0022 20.4282 41.3076 20.4282 41.4603C20.2754 41.3839 20.2754 41.3839 20.199 41.3076Z" fill="#333333"/>
<path d="M17.9063 41.8419C18.0591 41.6892 18.212 41.3839 18.3648 41.1549C18.4412 41.2312 18.5177 41.6892 18.5177 41.8419C18.3648 41.8419 18.0591 41.7656 17.9063 41.8419Z" fill="#333333"/>
<path d="M18.8234 41.8419C18.9762 41.6892 19.0527 41.4602 19.1291 41.2312C19.2055 41.3076 19.3583 41.7656 19.2819 41.9182C19.1291 41.9182 18.8998 41.8419 18.8234 41.8419Z" fill="#333333"/>
<path d="M19.4348 41.9182C19.5876 41.7655 19.5876 41.6129 19.664 41.3075C19.7405 41.3839 19.8169 41.8419 19.8169 41.9945C19.664 42.0709 19.5112 41.9945 19.4348 41.9182Z" fill="#333333"/>
<path d="M19.9697 42.0709C20.0461 41.8419 20.0461 41.7655 20.1225 41.5365C20.199 41.6129 20.2754 42.0709 20.2754 42.2235C20.199 42.1472 20.0461 42.1472 19.9697 42.0709Z" fill="#333333"/>
<path d="M20.4282 42.2999C20.5046 42.0709 20.4282 41.9945 20.5046 41.7655C20.5811 41.8419 20.6575 42.2235 20.6575 42.4525C20.5811 42.4525 20.5046 42.3762 20.4282 42.2999Z" fill="#333333"/>
<path d="M16.9128 41.9945C17.1421 41.8419 17.3713 41.4602 17.4478 41.1548C17.4478 41.3075 17.5242 41.6129 17.5242 41.8419C17.4478 41.9182 17.0656 41.9182 16.9128 41.9945Z" fill="#333333"/>
<path d="M20.5047 41.1549C20.5047 41.3075 20.5811 41.3839 20.5811 41.5365C20.5811 41.5365 20.6575 41.5365 20.6575 41.6129C20.6575 41.4602 20.5811 41.3075 20.5047 41.1549Z" fill="#333333"/>
<path d="M16.9892 2.68156C17.142 2.14721 16.3014 1.68919 16.1485 2.22354C16.1485 2.75789 16.1485 2.83423 15.8428 3.29224C15.5371 3.75026 16.3778 3.90293 16.6835 3.44492C16.4542 3.59759 16.2249 3.59759 16.0721 3.36858C16.3778 3.29224 16.6071 2.68156 16.4542 2.37621C16.6835 2.22354 16.9128 2.45255 16.9892 2.68156Z" fill="#333333"/>
<path d="M18.5941 2.07087C19.2055 1.99454 19.2819 1.07851 18.7469 1.15484C18.2884 1.38385 18.212 1.30752 17.677 1.23118C17.142 1.15484 17.2949 1.99454 17.8298 2.07087C17.677 1.9182 17.5241 1.68919 17.677 1.46019C17.9063 1.68919 18.5176 1.76553 18.7469 1.46019C18.9762 1.53652 18.8233 1.9182 18.5941 2.07087Z" fill="#333333"/>
<path d="M19.664 3.36857C19.8932 3.90292 20.8103 3.75025 20.581 3.29224C20.2754 2.83422 20.2754 2.83422 20.2754 2.29987C20.1989 1.84186 19.4347 2.22354 19.5111 2.75789C19.5876 2.52888 19.7404 2.37621 20.0461 2.45254C19.8932 2.75789 20.0461 3.29224 20.3518 3.44491C20.1989 3.67392 19.8932 3.59758 19.664 3.36857Z" fill="#333333"/>
<path d="M18.8233 4.97165C18.3648 5.35333 18.8233 6.19303 19.2819 5.81135C19.5876 5.35333 19.664 5.35333 20.1225 5.20066C20.5811 4.89532 19.8933 4.36097 19.4347 4.58998C19.664 4.58998 19.9697 4.66631 19.9697 4.97165C19.5876 4.89532 19.0526 5.20066 19.0526 5.58234C18.7469 5.58234 18.6705 5.20066 18.8233 4.97165Z" fill="#333333"/>
<path d="M17.0656 4.43727C16.5306 4.13193 15.9192 4.81895 16.4542 5.1243C16.9892 5.20063 16.9892 5.35331 17.3713 5.73498C17.7534 6.11666 18.0591 5.27697 17.677 4.89529C17.7534 5.1243 17.7534 5.35331 17.4477 5.50598C17.3713 5.20063 16.9127 4.81895 16.607 4.89529C16.5306 4.58995 16.8363 4.43727 17.0656 4.43727Z" fill="#333333"/>
<path fill-rule="evenodd" clip-rule="evenodd" d="M15.3079 4.89535C14.8494 4.74268 14.6965 4.43733 15.0786 4.13199C14.4673 2.75795 14.9258 1.76558 15.9957 1.15489C15.9193 0.62054 16.1486 0.467869 16.6835 0.696876C17.677 -0.219154 18.6705 -0.219154 19.7404 0.62054C20.2754 0.391533 20.5046 0.544204 20.4282 1.15489C21.651 1.91825 21.9567 2.91062 21.3453 4.13199C21.7274 4.51367 21.8038 4.89535 21.1925 4.97169C21.1925 6.04039 19.4347 7.18543 18.6705 6.80375C18.2884 7.56711 17.9063 6.95642 17.8299 6.80375C16.5307 6.80375 15.6136 6.42207 15.3079 4.89535ZM17.6006 2.52892C15.2379 -0.287874 14.0153 4.94327 17.1167 3.91149C13.9545 4.98938 18.1357 8.32096 18.2119 4.74266C18.1356 8.17304 22.7844 5.28501 19.2964 3.90866C22.5633 5.18449 20.9601 -0.291229 18.8997 2.60526C20.9632 -0.448177 15.4607 -0.0664973 17.6006 2.52892ZM16.8364 1.53656L16.8337 1.52841C16.8355 1.53121 16.8364 1.53393 16.8364 1.53656ZM16.8337 1.52841C16.7701 1.32822 16.8218 1.12733 16.8869 0.87477L16.8869 0.874752L16.8869 0.874699C16.8954 0.841783 16.9041 0.80799 16.9128 0.773205C16.76 0.849541 16.6071 0.925877 16.3778 0.849541C16.3594 0.904891 16.3454 0.955782 16.3326 1.00221C16.2925 1.14789 16.2645 1.24967 16.1486 1.30756C16.1231 1.30756 16.191 1.32452 16.2929 1.34996L16.2929 1.34996L16.2929 1.34997C16.4862 1.39823 16.8016 1.477 16.8337 1.52841ZM19.5876 1.53656C19.5876 1.53359 19.5886 1.5305 19.5906 1.5273L19.5876 1.53656ZM19.5906 1.5273C19.6639 1.30138 19.6619 1.07546 19.5111 0.849541C19.7404 0.925877 19.9697 0.925877 20.0461 0.773205C20.0461 1.00221 20.1225 1.30756 20.1989 1.30756C20.2254 1.30756 20.1601 1.32589 20.0635 1.35302C19.8922 1.40114 19.6222 1.47695 19.5906 1.5273ZM20.8867 4.89536C20.8768 4.88542 20.8772 4.87289 20.8855 4.85861C20.8863 4.87085 20.8867 4.88311 20.8867 4.89536ZM20.8855 4.85861C20.9406 4.76326 21.3453 4.59002 21.3453 4.59002C21.3453 4.59002 21.1924 4.28468 21.1924 4.13201C21.0396 4.28468 20.8103 4.36101 20.6575 4.36101C20.7298 4.43326 20.8706 4.64228 20.8855 4.85861ZM15.6136 4.89533C15.69 4.58999 15.8429 4.43732 16.0721 4.28464C15.7664 4.28464 15.5372 4.20831 15.3843 4.05564C15.3843 4.28464 15.3079 4.43732 15.2315 4.58999C15.3843 4.51365 15.5372 4.66632 15.6136 4.89533ZM18.212 6.80372C18.212 6.72739 18.0591 6.57472 17.9063 6.49838C17.9347 6.44154 17.9738 6.38471 18.0155 6.32393C18.0859 6.22146 18.164 6.10778 18.212 5.96403C18.2348 5.9982 18.2559 6.03067 18.276 6.0617C18.391 6.2386 18.4754 6.36849 18.6705 6.49838C18.4412 6.49838 18.2884 6.65105 18.212 6.80372Z" fill="#333333"/>
<path fill-rule="evenodd" clip-rule="evenodd" d="M18.212 1.91821C18.2183 1.98095 18.2282 2.0411 18.2415 2.09868C18.2482 2.03383 18.2393 1.97277 18.212 1.91821ZM18.2415 2.09868C18.1918 2.57822 17.2894 3.26498 16.6835 3.06325C17.5242 3.44493 17.677 4.13195 17.2949 4.89531C17.9063 4.28463 18.5177 4.36096 19.1291 4.89531C19.1291 4.88605 19.1212 4.86107 19.1093 4.82323C19.0229 4.54908 18.7239 3.59987 19.664 3.06325C18.9626 3.06325 18.3899 2.74173 18.2415 2.09868ZM18.4413 3.13956C18.3649 3.36857 18.5177 3.52124 18.6705 3.67391C18.5177 3.67391 18.212 3.90292 18.212 3.97926C18.1356 3.82659 17.9827 3.67391 17.7535 3.67391C17.9827 3.44491 17.9063 3.13956 17.9063 3.13956C18.0592 3.2159 18.2884 3.2159 18.4413 3.13956Z" fill="#333333"/>
<path d="M23.9437 11.9946C23.8672 11.9183 23.8672 11.9946 23.9437 11.9946Z" fill="#333333"/>
<path d="M10.0347 41.3076C10.4933 41.4603 11.716 41.7656 12.6331 42.4527C13.8559 43.2924 14.238 43.674 15.0786 43.5977" fill="#333333"/>
<path d="M7.35994 47.0328C7.8949 47.1855 10.4933 46.8038 11.6396 45.8878C12.9388 45.1244 14.4673 44.5137 15.3079 44.2847" fill="#333333"/>
<path d="M11.5632 50.2389C13.6266 49.7046 16.225 47.1855 16.8364 46.0405Z" fill="#333333"/>
<path d="M26.3128 41.3076C25.8543 41.4603 24.6315 41.7656 23.7144 42.4527C22.4917 43.2924 22.186 43.674 21.2689 43.5977" fill="#333333"/>
<path d="M28.9876 47.0328C28.4526 47.1855 25.8542 46.8038 24.7079 45.8878C23.4087 45.1244 21.8803 44.5137 21.116 44.2847" fill="#333333"/>
<path d="M24.7079 50.2389C22.6445 49.7046 20.1226 47.1855 19.3583 46.0405Z" fill="#333333"/>
<path fill-rule="evenodd" clip-rule="evenodd" d="M23.7143 27.0331L23.6378 27.1094C23.6378 27.1094 23.3322 27.1094 22.95 26.9568C22.4151 28.1018 21.2687 28.5598 20.1224 28.9415C19.511 29.1705 18.8996 29.5522 18.4411 29.9339L18.3647 30.0102L18.2883 29.9339C17.8297 29.5522 17.2948 29.2468 16.6834 29.0178L16.6111 28.9921C15.5622 28.6185 14.4534 28.2236 13.8557 26.8804C13.55 27.0331 13.2444 27.1858 13.1679 27.1858L13.0915 27.1094V27.0331C12.633 25.6591 12.2509 24.285 12.633 22.911L12.7094 22.5293L12.8622 22.911C13.3208 23.9797 14.0086 24.8194 14.9257 25.5827L15.0785 25.6591L14.8492 25.8117C14.6964 25.9644 14.62 26.1171 14.62 26.3461C14.62 26.5751 14.7728 26.8041 15.0785 27.0331C15.3842 27.4148 15.7663 27.6438 16.1484 27.7201V27.5675C16.2248 26.8804 16.8362 26.1934 17.3712 26.4988C17.3712 26.1934 17.6005 25.8881 17.8297 25.8117L17.7533 22.2239C17.6769 22.2239 17.3712 22.1476 17.3712 22.1476C16.8362 22.682 15.9192 22.3766 15.7663 21.6896C15.1549 21.6896 14.62 20.8499 15.0021 20.1629C14.7728 19.9339 14.7728 19.2469 14.9257 18.9415V18.3308H14.62V18.5598H13.7793V18.0255H12.8622L13.0151 16.7278H13.7793V16.4988H14.7728V16.6514H15.3842V16.4224H16.1484V16.4988C16.2017 16.3391 16.2921 16.1794 16.3679 16.0456C16.4008 15.9875 16.431 15.9343 16.4541 15.8881C16.3013 15.5827 16.2248 15.2774 16.2248 14.8957C16.2248 13.7507 17.2183 12.7583 18.3647 12.7583C19.5874 12.7583 20.5809 13.7507 20.5809 14.8957C20.5809 15.5827 20.2752 16.1171 19.8167 16.4988V16.7278H20.4281V16.4988H21.498V16.6514H22.033V16.4224H23.0265V16.6514H23.4086H24.02L24.1728 17.7965H23.0265V18.3308H22.033V18.1018H21.4216V18.7888H20.3517V18.5598L19.8167 18.6362L19.1289 19.8575C19.2818 20.2392 19.2053 20.6972 19.0525 21.0026V21.1552C19.511 20.8499 19.9696 21.0789 20.2752 21.4606C21.0395 21.3079 21.3452 21.7659 21.4216 22.6056C21.8801 22.7583 21.8801 23.7507 21.498 23.9033C21.7273 24.4377 21.1923 25.201 20.7338 25.0484C20.7338 25.6591 20.046 26.2697 19.7403 25.9644C19.8167 26.4224 19.2818 26.9568 18.8996 26.9568V27.1858C18.9379 27.2239 18.9761 27.243 19.0143 27.2621C19.0525 27.2812 19.0907 27.3003 19.1289 27.3385C19.4346 27.5675 19.7403 27.7201 20.1224 27.7201C20.8102 27.7201 21.498 27.2621 21.7273 26.8804C22.1094 26.3461 22.1094 26.0407 21.7273 25.7354L21.5744 25.5827L21.7273 25.5064C22.033 25.2774 23.7143 23.2927 23.9435 22.911L24.02 22.7583L24.1728 22.8346C24.2951 22.8957 24.3195 23.0056 24.3636 23.2035L24.3636 23.2035C24.3746 23.253 24.3868 23.3079 24.4021 23.369C24.4785 24.4377 24.02 26.7278 23.7143 27.0331ZM23.5614 31.7659L23.3322 32.1476L23.7907 32.3003L23.3322 32.4529L23.5614 32.8346L23.1793 32.6056L23.0265 33.0636L22.8736 32.6056L22.4915 32.8346L22.7208 32.4529L22.2622 32.3003L22.7208 32.1476L22.4915 31.7659L22.8736 31.9949L23.0265 31.5369L23.1793 31.9949L23.5614 31.7659ZM13.9322 32.3003L13.4736 32.453L13.7793 32.911L13.3972 32.682L13.2444 33.14L13.0915 32.682L12.7094 32.911L12.9387 32.5293L12.4801 32.3766L12.9387 32.224L12.7094 31.8423L13.0151 32.0713L13.1679 31.6133L13.3208 32.0713L13.7029 31.8423L13.4736 32.224L13.9322 32.3003ZM16.3777 18.4071C16.1484 18.3308 15.4606 18.4071 15.2313 18.6361C15.3842 17.8728 16.4541 17.8728 16.7598 18.1781C16.6834 18.2545 16.3777 18.4071 16.3777 18.4071ZM16.9126 19.1705C16.8362 19.0178 16.6834 18.7888 16.4541 18.7888C16.3777 18.7125 16.1484 19.1705 16.3013 19.4759C16.3777 19.3232 16.6834 19.0942 16.9126 19.1705ZM16.8362 20.0102C16.6834 20.0102 16.4541 19.9339 16.3777 19.7049C16.4541 19.6285 16.5496 19.5713 16.6452 19.514C16.7407 19.4568 16.8362 19.3995 16.9126 19.3232C16.9891 19.5522 16.9891 19.7812 16.8362 20.0102ZM17.0655 20.7736C16.9333 20.4654 16.8265 20.4111 16.6718 20.3325C16.5583 20.2748 16.4189 20.2041 16.2249 20.0102C15.9192 20.5446 16.4541 21.0789 17.0655 20.7736ZM17.6005 18.7888C17.6005 18.0255 16.7598 17.4148 16.1484 17.7201C16.7598 17.7201 17.524 18.4835 17.6005 18.7888ZM18.059 17.8728C18.2118 17.4148 18.2118 16.9568 18.2118 16.9568C17.9826 16.9568 17.7533 16.8804 17.524 16.8041C17.506 16.8401 17.4837 16.8804 17.4601 16.923C17.384 17.0606 17.2948 17.2218 17.2948 17.3384C17.6502 17.3384 17.822 17.5678 17.9525 17.7421C17.9903 17.7926 18.0246 17.8385 18.059 17.8728ZM17.3712 17.4911C17.3777 17.4911 17.3859 17.4939 17.3956 17.4993L17.3712 17.4911ZM17.3956 17.4993C17.4988 17.5564 17.7664 17.9055 17.9061 18.2545C17.9443 18.2163 17.9635 18.1782 17.9826 18.14C18.0017 18.1018 18.0208 18.0637 18.059 18.0255C17.8378 17.6574 17.6167 17.5733 17.3956 17.4993ZM16.6834 17.4911C17.2184 17.6438 17.524 18.0255 17.7533 18.5599C17.7533 18.4835 17.8297 18.4835 17.8297 18.4835C17.7533 17.9492 17.0655 17.3385 16.6834 17.4911ZM18.8997 18.7889C18.594 19.6286 18.059 20.0102 17.2948 19.8576C17.3712 19.7812 17.3712 19.3995 17.2184 19.2469C18.2883 18.8652 18.4411 17.0331 18.4411 16.9568C18.4411 16.4988 18.3647 15.8881 17.9826 15.6591C17.7533 15.5828 17.6005 15.3537 17.5241 15.1247C18.4411 14.5141 20.2753 15.7354 18.8997 18.7889ZM19.2818 15.0484V14.8957C19.2818 14.3613 18.8996 13.9797 18.3647 13.9797C17.9062 13.9797 17.524 14.285 17.4476 14.743C17.4476 14.743 18.3647 14.1323 19.2818 15.0484ZM18.1354 21.1553C18.7468 21.1553 18.9761 20.3919 18.6704 19.9339C18.1354 20.0866 18.1354 20.4682 18.1354 21.1553ZM17.9826 21.8423L18.1354 25.6591L18.5175 25.7354L18.3647 25.5064L18.4411 21.3842L17.9826 21.8423ZM18.7303 26.2795C18.8202 25.6774 18.8685 25.3537 19.511 25.3537C19.5874 25.6591 19.3582 26.8041 18.6704 26.6514C18.6947 26.5177 18.7132 26.3936 18.7303 26.2795ZM20.3517 24.4377C19.7403 24.4377 19.7403 25.201 19.8167 25.5827C20.5045 25.7354 20.5809 24.6667 20.3517 24.4377ZM20.6574 23.598C20.5045 23.7507 20.581 24.4377 20.7338 24.743C21.4216 24.6667 21.3452 23.9033 20.6574 23.598ZM20.5045 22.7583C20.3517 22.9109 21.0395 23.598 21.3452 23.6743C21.6509 23.2163 21.498 22.7583 20.5045 22.7583ZM19.8167 22.1476C19.6639 22.3003 20.7338 22.5293 21.1159 22.5293C20.9631 21.8423 20.5045 21.5369 19.8167 22.1476ZM19.0525 22.0713H19.4346C19.4346 22.0713 19.5875 22.0713 19.6639 21.9949C19.8167 21.9186 20.046 21.7659 20.046 21.7659C20.046 21.7659 19.7403 21.4606 19.4346 21.4606C19.1289 21.4606 18.9761 21.6132 18.9761 21.6132V22.0713H19.0525ZM18.9761 25.1247L19.0525 22.3003H19.511C19.5699 22.4179 19.765 22.4903 20.0263 22.5871L20.0264 22.5872C20.1041 22.616 20.1877 22.647 20.2753 22.682C20.2753 22.911 20.3517 23.14 20.5045 23.369C20.3517 23.5217 20.2753 23.9797 20.3517 24.2087C19.8932 24.056 19.511 24.6667 19.511 25.0484C19.3582 24.972 19.1289 25.0484 18.9761 25.1247ZM19.8932 17.1858V17.4911L23.8671 17.4148L23.7907 17.1858H19.8932ZM18.1354 16.3461C18.1545 16.4224 18.1736 16.4987 18.2118 16.5751C17.2183 16.5751 16.4541 15.8117 16.3777 14.8194C16.3777 13.827 17.2183 12.9873 18.2118 12.9873C19.2053 12.9873 19.9695 13.827 19.9695 14.8194C19.9695 15.1247 19.8931 15.5064 19.6639 15.8117C19.5874 15.5827 19.511 15.43 19.4346 15.2774C19.511 15.201 19.511 15.0484 19.511 14.8957C19.511 14.2087 18.976 13.6743 18.2882 13.6743C17.6004 13.6743 17.0655 14.2087 17.0655 14.8957C17.0655 15.5064 17.524 15.9644 18.059 16.1171C18.0972 16.1934 18.1163 16.2697 18.1354 16.3461ZM16.072 17.4912H16.2249C16.3777 17.3385 16.607 17.3385 16.607 17.3385C16.6834 17.0331 16.8363 16.6515 16.9891 16.4988C16.935 16.4447 16.8808 16.4002 16.8301 16.3585L16.8301 16.3585C16.7376 16.2825 16.6563 16.2157 16.607 16.1171C16.4541 16.4225 16.2249 16.8805 16.072 17.4912ZM15.8427 17.0331V17.4148L13.1679 17.3384L13.2443 17.0331H15.8427ZM15.2314 19.7049C15.3842 19.3232 15.6899 19.1705 15.9192 19.0942C15.9574 19.0179 15.9765 18.9415 15.9956 18.8652C16.0147 18.7889 16.0338 18.7125 16.072 18.6362C15.4606 18.5598 14.8493 19.1705 15.2314 19.7049ZM15.3842 19.9339C15.5371 19.7049 15.6899 19.5522 15.9192 19.3995C15.9956 19.5522 15.9956 19.6285 15.9956 19.6285C15.8901 19.7339 15.8574 19.8757 15.8221 20.0288C15.8063 20.0974 15.79 20.1683 15.7663 20.2392C15.6135 20.1629 15.5371 20.0866 15.3842 19.9339L15.3842 19.9339ZM16.4541 21.1553C16.1484 21.0789 15.9956 20.9263 15.9191 20.6209C15.9191 20.6209 15.4606 20.3156 15.3842 20.3156C15.2313 21.0789 15.8427 21.4606 16.4541 21.1553ZM16.7598 21.3843C16.8362 21.5369 16.9891 21.7659 17.2183 21.8423C16.7598 22.0713 16.3777 22.0713 16.1484 21.6133C16.2631 21.5751 16.3586 21.5369 16.4541 21.4988C16.5496 21.4606 16.6452 21.4224 16.7598 21.3843ZM17.9062 20.5446C17.8279 20.5055 17.6896 20.6264 17.5322 20.764C17.3821 20.8953 17.2147 21.0417 17.0655 21.0789C17.2183 21.995 18.059 21.4606 17.9062 20.5446ZM18.3647 25.9644C18.5175 26.3461 18.059 27.4148 17.524 27.1858C17.5846 26.9841 17.6131 26.8038 17.6379 26.6475C17.7068 26.2124 17.7461 25.9644 18.3647 25.9644ZM16.4541 27.5675C17.1419 27.8728 17.4476 26.8804 17.2948 26.7278C16.9127 26.5751 16.5306 26.8041 16.4541 27.5675ZM24.0964 23.2926V23.5216C24.0964 24.2453 23.7713 24.9283 23.536 25.4228C23.4486 25.6064 23.3735 25.764 23.3322 25.8881C23.3191 25.9142 23.306 25.947 23.2918 25.9827C23.2229 26.1557 23.127 26.3963 22.8736 26.2697L22.5679 25.6591L22.7208 26.3461C22.1094 27.7201 21.3452 28.0255 20.1224 28.3308L19.5874 28.4071L19.5301 28.3976C19.097 28.3249 18.734 28.2641 18.4411 28.4835C18.2041 28.3257 17.9467 28.3718 17.6688 28.4215C17.4091 28.4681 17.1316 28.5178 16.8362 28.4071C16.7786 28.3907 16.7218 28.3747 16.6659 28.3589L16.6659 28.3589C15.6841 28.082 14.965 27.8792 14.3143 26.6514L14.2378 25.8881L14.085 26.0407C13.9251 26.1472 13.7653 26.2165 13.6313 26.2746L13.6313 26.2746L13.6313 26.2746C13.5732 26.2999 13.5199 26.323 13.4736 26.3461C13.3742 26.0483 13.2697 25.7866 13.1721 25.5423C12.8944 24.8473 12.6727 24.2926 12.7858 23.4453C13.2443 24.285 13.8557 25.0484 14.62 25.7354C14.4671 25.9644 14.3907 26.1171 14.3907 26.3461C14.3907 26.5751 14.5435 26.8804 14.9257 27.1858C15.3842 27.7201 15.9956 28.0255 16.6834 28.0255C17.1419 28.0255 17.6004 27.8728 17.9061 27.5674C18.1354 27.4148 18.2883 27.3384 18.4411 27.3384C18.5939 27.3384 18.7468 27.4148 18.9761 27.5674C19.3582 27.8728 19.7403 28.0255 20.1988 28.0255C20.963 28.0255 21.7273 27.5674 22.033 27.0331C22.3387 26.5751 22.5679 26.1171 22.1094 25.6591C22.4086 25.3602 22.9681 24.6713 23.4482 24.0802L23.4483 24.0801L23.4483 24.0801C23.7039 23.7654 23.9371 23.4783 24.0964 23.2926ZM18.059 32.8347V31.0026H17.3712V32.8347C17.3712 33.4453 16.9891 33.7507 16.5305 33.7507C16.072 33.7507 15.6899 33.4453 15.6899 32.8347V31.0026H15.0021V32.8347C15.0021 33.7507 15.6135 34.4377 16.607 34.4377C17.4476 34.3614 18.059 33.6744 18.059 32.8347ZM20.4281 32.6056L22.1858 34.285H21.1923L19.8167 32.8346V34.285H19.1289V30.9262H19.8167V32.3003L21.1159 30.9262H22.1094L20.4281 32.6056Z" fill="#333333"/>
<path d="M11.638 27.8728L10.5681 28.4835L11.3324 29.7812L12.4023 29.1706L12.6315 29.4759L10.4153 30.7736L10.186 30.4683L11.1031 29.9339L10.3389 28.6362L9.42179 29.1706L9.19252 28.8652L11.4088 27.5675L11.638 27.8728Z" fill="#333333"/>
<path d="M9.65109 26.1935L10.7974 25.8118L10.8739 26.1935L9.72751 26.5752L8.65759 27.8729L8.50475 27.4149L9.3454 26.4988L8.12263 26.1935L7.96979 25.7355L9.65109 26.1935Z" fill="#333333"/>
<path fill-rule="evenodd" clip-rule="evenodd" d="M10.4153 24.3615L10.3389 23.5218C10.2625 22.7584 9.65107 22.2241 8.88684 22.3004C8.12261 22.3767 7.66407 23.0638 7.7405 23.8271L7.81692 24.6668L10.4153 24.3615ZM8.19904 24.2852L8.12262 23.8271C8.0462 23.2165 8.42831 22.7584 8.96327 22.6821C9.49823 22.6058 9.95677 22.9111 10.0332 23.5981L10.1096 24.0562L8.19904 24.2852Z" fill="#333333"/>
<path fill-rule="evenodd" clip-rule="evenodd" d="M9.11609 20.5446L10.3389 19.8576L10.4153 19.3232L9.11609 20.0866C9.03967 19.7813 8.8104 19.5522 8.50471 19.5522C8.19902 19.5522 7.81691 19.7049 7.74049 20.3156L7.66406 21.079L10.2624 21.308V20.9263L9.11609 20.85V20.5446ZM8.04618 20.7737V20.4683C8.04618 20.163 8.19902 20.0103 8.42829 20.0103C8.65756 20.0866 8.8104 20.2393 8.8104 20.5446V20.85L8.04618 20.7737Z" fill="#333333"/>
<path fill-rule="evenodd" clip-rule="evenodd" d="M9.1925 18.6363C9.95673 18.8653 10.6445 18.4836 10.8738 17.7202C11.1031 16.9569 10.7974 16.1935 9.95673 16.0408C9.1925 15.8118 8.5047 16.2698 8.27543 16.9569C8.04616 17.6439 8.42828 18.4072 9.1925 18.6363ZM9.34537 18.2546C8.81041 18.1019 8.50472 17.5676 8.65756 17.0332C8.81041 16.4989 9.34537 16.1935 9.88033 16.3462C10.4153 16.4989 10.721 17.0332 10.5681 17.5676C10.4153 18.1019 9.88033 18.4073 9.34537 18.2546Z" fill="#333333"/>
<path d="M12.3259 14.6668C11.9438 15.2775 11.1031 15.5065 10.4153 15.1248C9.80391 14.7432 9.57465 13.9035 10.0332 13.2164C10.186 12.9874 10.4917 12.7584 10.7974 12.5294L11.1031 12.7584C10.721 12.9111 10.4917 13.1401 10.3389 13.4454C10.0332 13.9035 10.186 14.5142 10.6446 14.8195C11.1031 15.1248 11.7145 14.9722 12.0202 14.5142C12.173 14.3615 12.173 14.1325 12.2494 13.9035L11.7145 13.5981L11.4088 14.1325L11.1031 13.9798L11.6381 13.1401L12.6316 13.7508C12.6316 13.9798 12.4787 14.3615 12.3259 14.6668Z" fill="#333333"/>
<path fill-rule="evenodd" clip-rule="evenodd" d="M13.1665 11.8424L14.5421 12.2241L14.7714 11.9187L13.3194 11.537C13.4722 11.308 13.4722 11.0027 13.2429 10.7737C13.0901 10.5447 12.6316 10.392 12.173 10.7737L11.6381 11.2317L13.3194 13.2164L13.6251 12.9874L12.8608 12.0714L13.1665 11.8424ZM12.173 11.2317L12.4023 11.0027C12.6316 10.85 12.8608 10.85 12.9373 11.0027C13.0901 11.1554 13.0901 11.3844 12.8608 11.6134L12.6316 11.8424L12.173 11.2317Z" fill="#333333"/>
<path fill-rule="evenodd" clip-rule="evenodd" d="M16.6055 10.4683L17.0641 11.0027L17.4462 10.85L15.5356 8.71259L15.2299 8.86526L15.0771 11.6897L15.4592 11.537V10.85L16.6055 10.4683ZM15.5356 10.5447V9.24695L16.3762 10.2393L15.5356 10.5447Z" fill="#333333"/>
<path fill-rule="evenodd" clip-rule="evenodd" d="M18.3633 9.93394H18.8218C19.2039 9.93394 19.6625 9.70494 19.6625 9.32326C19.6625 8.94158 19.5096 8.48356 18.8218 8.48356L18.0576 8.40723L17.9047 11.0026H18.2869L18.3633 9.93394ZM18.4397 8.7126H18.8218C19.2039 8.7126 19.3567 8.9416 19.2803 9.24695C19.2803 9.47596 19.0511 9.62863 18.7454 9.62863H18.3632L18.4397 8.7126Z" fill="#333333"/>
<path d="M21.8023 11.9187L22.3373 10.8499L21.0381 10.1629L20.5031 11.308L20.1974 11.1553L21.3438 8.78888L21.6495 8.94155L21.1909 9.85758L22.4901 10.5446L22.9486 9.62857L23.2543 9.78125L22.1844 12.0713L21.8023 11.9187Z" fill="#333333"/>
<path d="M22.7194 12.6057L24.4771 10.6973L24.7828 10.9263L23.0251 12.8347L22.7194 12.6057Z" fill="#333333"/>
<path d="M26.2348 13.1401C25.9291 12.6821 25.3177 12.6057 24.8592 12.9111C24.4006 13.2164 24.3242 13.8271 24.6299 14.2851C24.8592 14.5905 25.0884 14.7431 25.3941 14.8195L25.0884 15.1248C24.7827 14.9721 24.5535 14.8195 24.3242 14.5141C23.8657 13.9034 23.9421 13.0637 24.6299 12.6057C25.2413 12.1477 26.0819 12.3004 26.5405 12.9111C26.7697 13.1401 26.8462 13.4454 26.8462 13.8271L26.5405 14.0561C26.5405 13.7508 26.464 13.3691 26.2348 13.1401Z" fill="#333333"/>
<path fill-rule="evenodd" clip-rule="evenodd" d="M26.8462 16.4225C26.082 16.6515 25.6998 17.3385 25.9291 18.1019C26.1584 18.8652 26.8462 19.3233 27.6104 19.0943C28.3746 18.8652 28.7568 18.1782 28.5275 17.4149C28.2982 16.6515 27.6104 16.1935 26.8462 16.4225ZM26.999 16.8041C27.534 16.6515 28.069 16.9568 28.2218 17.4912C28.3747 18.0255 28.069 18.5599 27.534 18.7125C26.999 18.8652 26.4641 18.5599 26.3112 18.0255C26.1584 17.4912 26.4641 16.9568 26.999 16.8041Z" fill="#333333"/>
<path d="M28.6803 20.392L27.9925 20.4683L28.0689 21.3844H27.7632L27.6868 20.4683L26.464 20.5447V20.163L29.0624 20.0103L29.1388 21.6134H28.8331L28.6803 20.392Z" fill="#333333"/>
<path d="M28.7567 22.9873L27.9925 22.911L27.9161 23.827H27.6104L27.6868 22.911L26.464 22.7583V22.3766L29.0624 22.6057L28.9096 24.285H28.6039L28.7567 22.9873Z" fill="#333333"/>
<path d="M26.2348 24.6667L28.7568 25.2011L28.6803 25.5828L26.1584 25.0484L26.2348 24.6667Z" fill="#333333"/>
<path d="M27.6104 27.9492C27.8397 27.4149 27.534 26.8805 27.0754 26.6515C26.5405 26.4225 26.0055 26.6515 25.7762 27.1859C25.6234 27.4912 25.6234 27.7965 25.6998 28.1782L25.3177 28.0255C25.2413 27.7202 25.3177 27.4149 25.3941 27.1095C25.6998 26.4225 26.3876 26.0408 27.1519 26.3462C27.9161 26.6515 28.1454 27.4149 27.9161 28.1019C27.7632 28.4072 27.6104 28.6362 27.3047 28.8652L26.9226 28.7126C27.2283 28.4836 27.4575 28.1782 27.6104 27.9492Z" fill="#333333"/>
<path d="M24.7063 28.5599L26.8462 30.0867L25.9291 31.4607L25.6234 31.2317L26.3876 30.163L25.8527 29.7813L25.2413 30.621L24.9356 30.392L25.547 29.5523L24.7828 29.018L24.0185 30.0867L23.7128 29.8576L24.7063 28.5599Z" fill="#333333"/>
</svg>
