<?xml version="1.0" encoding="UTF-8"?>
<svg width="260px" height="35px" viewBox="0 0 260 35" version="1.1" xmlns="http://www.w3.org/2000/svg" xmlns:xlink="http://www.w3.org/1999/xlink">
    <!-- Generator: Sketch 55.1 (78136) - https://sketchapp.com -->
    <title>1: Atoms / logos / Admiralty / Product / e-navigator fleet</title>
    <desc>Created with Sketch.</desc>
    <defs>
        <polygon id="path-1" points="0 35 259.139 35 259.139 0 0 0"></polygon>
    </defs>
    <g id="-" stroke="none" stroke-width="1" fill="none" fill-rule="evenodd">
        <g id="1_00119009-UKHO-Styles-1" transform="translate(-990.000000, -2940.000000)">
            <g id="1:-Atoms-/-logos-/-Admiralty-/-Product-/-e-navigator-fleet" transform="translate(990.000000, 2940.000000)">
                <g id="Group-42" transform="translate(0.000000, -1.000000)">
                    <polygon id="Fill-1" fill="#84BF41" points="0 35.068 102.208 35.068 102.208 0.999 0 0.999"></polygon>
                    <g id="Group-41" transform="translate(0.000000, 1.000000)">
                        <path d="M24.3475,16.1647 C23.0225,16.1647 22.1765,17.0327 21.9845,18.1657 L26.5655,18.1657 C26.3725,16.7207 25.4575,16.1647 24.3475,16.1647 L24.3475,16.1647 Z M21.9115,20.3347 C21.9605,21.8077 23.0935,22.8187 25.0715,22.8187 C26.5655,22.8187 28.5435,22.1197 29.7005,21.1807 L29.7005,24.0247 C28.4485,24.8447 26.3725,25.3967 24.4685,25.3967 C20.7545,25.3967 18.4645,23.0597 18.4645,19.5177 C18.4645,16.5047 20.6825,13.6337 24.3715,13.6337 C26.8795,13.6337 29.9665,14.8417 29.9905,20.3347 L21.9115,20.3347 Z" id="Fill-2" fill="#FFFFFE"></path>
                        <mask id="mask-2" fill="white">
                            <use xlink:href="#path-1"></use>
                        </mask>
                        <g id="Clip-5"></g>
                        <polygon id="Fill-4" fill="#FFFFFE" mask="url(#mask-2)" points="32.545 20.457 40.478 20.457 40.478 17.66 32.545 17.66"></polygon>
                        <polygon id="Fill-6" fill="#FFFFFE" mask="url(#mask-2)" points="54.9451 25.0603 46.6981 14.5023 46.6981 25.0603 43.2261 25.0603 43.2261 8.8613 46.6981 8.8613 54.7281 19.1303 54.7281 8.8613 58.2011 8.8613 58.2011 25.0603"></polygon>
                        <path d="M67.0242,19.8532 C65.4332,19.9982 64.7322,20.1662 64.1552,20.4572 C63.5272,20.7452 63.2382,21.2042 63.2382,21.8062 C63.2382,22.2902 63.5502,22.9402 64.8062,22.9402 C65.0712,22.9402 66.1802,22.6742 67.0242,22.0472 L67.0242,19.8532 Z M67.1922,25.0602 L67.1922,24.0242 C66.1802,24.7232 64.8542,25.2282 63.7932,25.2282 C61.8642,25.2282 60.0792,24.0962 60.0792,21.9272 C60.0792,20.9862 60.4902,19.8532 61.9362,19.0342 C63.0702,18.3832 64.9262,17.9722 67.0242,17.8542 C66.9752,16.2362 65.7462,16.0932 64.7562,16.0932 C63.4302,16.0932 61.9122,16.6722 60.8272,17.4172 L61.4772,14.5992 C62.7312,14.0432 64.2502,13.6332 65.7212,13.6332 C68.4702,13.6332 70.3272,14.9842 70.3272,18.0942 L70.3272,25.0602 L67.1922,25.0602 Z" id="Fill-7" fill="#FFFFFE" mask="url(#mask-2)"></path>
                        <polygon id="Fill-8" fill="#FFFFFE" mask="url(#mask-2)" points="78.9598 25.0603 76.3078 25.0603 71.2418 13.9713 75.0768 13.9713 77.6338 20.6743 80.2618 13.9713 84.0228 13.9713"></polygon>
                        <path d="M121.4549,11.6599 C120.8759,11.6599 119.9169,11.6349 119.3649,11.6039 C120.1489,9.6309 120.7569,7.8329 121.5449,6.0389 C122.3269,7.8329 123.3979,11.0229 123.6319,11.6039 C122.8179,11.6349 122.2389,11.6599 121.4549,11.6599 M123.3429,2.4979 L120.2349,2.4979 C118.3209,7.8039 116.4649,12.6479 114.7259,17.0259 L117.3949,17.0259 C117.5649,16.5359 117.9439,15.4609 118.5799,13.8079 C119.4819,13.7769 120.5799,13.7499 121.4549,13.7499 C122.4979,13.7499 123.3429,13.7769 124.3839,13.8079 C124.7609,14.8499 125.1679,15.8949 125.5459,17.0259 L128.8819,17.0259 C126.7939,11.9519 124.9639,7.1089 123.3429,2.4979" id="Fill-9" fill="#092648" mask="url(#mask-2)"></path>
                        <path d="M137.1971,14.7634 L134.9021,14.7634 C134.8131,13.1104 134.8131,11.5774 134.8131,9.8914 C134.8131,8.2394 134.8131,6.4424 134.9021,4.7584 L137.1971,4.7584 C139.7161,4.7584 141.8351,6.4104 141.8351,9.7494 C141.8351,13.1104 139.7161,14.7634 137.1971,14.7634 M137.1641,2.4984 L131.8001,2.4984 C131.8561,4.9324 131.8871,7.4584 131.8871,9.8624 C131.8871,12.2994 131.8561,14.6194 131.8001,17.0254 L137.1641,17.0254 C143.3161,17.0254 145.0551,12.7054 145.0551,9.7774 C145.0551,6.8184 143.3161,2.4984 137.1641,2.4984" id="Fill-10" fill="#092648" mask="url(#mask-2)"></path>
                        <path d="M150.8533,17.0261 C150.7943,15.2561 150.7703,13.0251 150.7703,11.3751 C150.7703,9.7181 150.7943,8.7321 150.8533,7.0791 C152.3943,9.2241 153.8113,11.4001 155.1183,13.6041 L155.5223,13.6041 C156.7423,11.6601 158.2493,9.3701 159.9043,6.7891 C159.9323,8.4131 159.9913,9.9791 159.9913,11.5151 C159.9913,13.3991 159.9603,15.4321 159.9043,17.0261 L162.9783,17.0261 C162.9193,14.6201 162.8603,12.2421 162.8603,9.8041 C162.8603,7.3991 162.9193,4.9331 162.9783,2.4991 L159.8203,2.4991 C158.4243,4.9031 157.0043,7.1651 155.6973,9.0211 C154.1613,6.9041 152.7433,4.7571 151.4373,2.4991 L148.1873,2.4991 C148.2463,5.0201 148.3343,7.5131 148.3343,9.9221 C148.3343,12.3561 148.2463,14.7091 148.1873,17.0261 L150.8533,17.0261 Z" id="Fill-11" fill="#092648" mask="url(#mask-2)"></path>
                        <path d="M170.952,17.0261 C170.866,15.5451 170.866,12.1551 170.866,9.7181 C170.866,7.4261 170.866,4.0051 170.952,2.4991 L167.819,2.4991 C167.909,4.0051 167.909,7.4261 167.909,9.7181 C167.909,12.1551 167.909,15.5451 167.819,17.0261 L170.952,17.0261 Z" id="Fill-12" fill="#092648" mask="url(#mask-2)"></path>
                        <path d="M180.6687,9.1374 L178.8137,9.1374 C178.7797,8.3854 178.7797,7.6284 178.7797,6.8754 C178.7797,6.1224 178.7797,5.3674 178.8137,4.6124 L180.6687,4.6124 C182.0327,4.6124 183.2217,5.3094 183.2217,6.8754 C183.2217,8.4424 182.0327,9.1374 180.6687,9.1374 M183.7397,10.7324 C185.5697,9.8904 186.2067,8.1524 186.2067,6.8754 C186.2067,5.1364 184.9887,2.4984 181.1627,2.4984 L175.7937,2.4984 C175.8567,5.0204 175.9097,7.5134 175.9097,9.9214 C175.9097,12.3564 175.8567,14.7084 175.7937,17.0264 L178.8137,17.0264 C178.7797,15.9814 178.7557,14.9084 178.7557,13.8664 C178.7557,12.9944 178.7797,12.1254 178.8137,11.2554 L180.6687,11.2554 C182.1477,13.3994 183.4217,15.3734 184.3787,17.0264 L187.9197,17.0264 C186.3797,14.9084 184.9627,12.7634 183.7397,10.7324" id="Fill-13" fill="#092648" mask="url(#mask-2)"></path>
                        <path d="M196.408,11.6599 C195.828,11.6599 194.872,11.6339 194.32,11.6039 C195.1,9.6309 195.712,7.8329 196.494,6.0369 C197.275,7.8329 198.352,11.0229 198.582,11.6039 C197.771,11.6339 197.19,11.6599 196.408,11.6599 M198.292,2.4979 L195.188,2.4979 C193.278,7.8039 191.423,12.6479 189.676,17.0259 L192.35,17.0259 C192.52,16.5349 192.899,15.4579 193.533,13.8059 C194.434,13.7769 195.538,13.7459 196.408,13.7459 C197.451,13.7459 198.292,13.7769 199.332,13.8059 C199.718,14.8499 200.119,15.8949 200.498,17.0259 L203.829,17.0259 C201.746,11.9519 199.916,7.1069 198.292,2.4979" id="Fill-14" fill="#092648" mask="url(#mask-2)"></path>
                        <path d="M216.0691,17.0261 C214.5361,16.9681 212.8811,16.9681 211.3131,16.9681 C209.7491,16.9681 208.2411,16.9681 206.6171,17.0261 C206.6751,14.5901 206.7321,12.0971 206.7321,9.6591 C206.7321,7.2521 206.6751,4.9031 206.6171,2.4991 L209.7491,2.4991 C209.6911,4.7571 209.6611,7.3681 209.6611,9.6591 C209.6611,11.4591 209.6911,12.9641 209.7491,14.7641 L212.5911,14.7641 C213.8081,14.7641 215.1411,14.7641 216.0691,14.7091 L216.0691,17.0261 Z" id="Fill-15" fill="#092648" mask="url(#mask-2)"></path>
                        <path d="M227.6355,4.7868 C226.3835,4.7308 224.8485,4.6988 223.3665,4.6988 C223.3415,6.5268 223.3085,8.4718 223.3085,10.2968 C223.3085,12.5318 223.3415,14.7918 223.3665,17.0258 L220.2395,17.0258 C220.2955,14.7918 220.3255,12.6478 220.3255,10.3568 C220.3255,8.5558 220.2955,6.4708 220.2395,4.6988 C218.6715,4.6988 217.1045,4.7308 215.9715,4.7868 L215.9715,2.4978 C217.9165,2.5538 219.8605,2.5838 221.8005,2.5838 C223.7485,2.5838 225.6875,2.5538 227.6355,2.4978 L227.6355,4.7868 Z" id="Fill-16" fill="#092648" mask="url(#mask-2)"></path>
                        <path d="M237.4295,11.8786 C237.3975,12.6636 237.3975,13.3026 237.3975,13.8506 L237.4855,16.9246 L234.3505,16.9246 C234.3845,16.1996 234.4145,14.9546 234.4145,13.6466 C234.4425,12.2846 234.4425,10.8076 234.4425,10.4866 C233.0215,7.9636 231.1625,5.1506 229.2805,2.3956 L232.9325,2.3956 C233.9475,4.3396 235.0525,6.1936 236.2405,7.9046 C237.5125,6.1386 238.6475,4.2536 239.7195,2.3956 L242.5035,2.3956 C240.4135,5.5586 238.5305,8.4566 237.4545,10.4596 C237.4545,10.6326 237.4545,11.0976 237.4295,11.8786" id="Fill-17" fill="#092648" mask="url(#mask-2)"></path>
                        <path d="M116.6151,26.2019 C115.4441,26.2019 114.6731,27.1469 114.5391,28.0659 L118.4661,28.0659 C118.4001,27.1349 117.7731,26.2019 116.6151,26.2019 L116.6151,26.2019 Z M114.4851,28.7579 C114.5661,30.1019 115.3111,31.1389 116.8951,31.1389 C117.8001,31.1389 118.5051,30.8339 119.1971,30.3679 L119.1971,31.1259 C118.5321,31.5799 117.6271,31.8329 116.8021,31.8329 C115.0981,31.8329 113.7141,30.7139 113.7141,28.6239 C113.7141,27.0939 114.8051,25.5109 116.6541,25.5109 C117.8521,25.5109 119.3031,26.4679 119.3031,28.6919 L119.3031,28.7579 L114.4851,28.7579 Z" id="Fill-18" fill="#092648" mask="url(#mask-2)"></path>
                        <polygon id="Fill-19" fill="#092648" mask="url(#mask-2)" points="120.501 28.704 124.881 28.704 124.881 27.972 120.501 27.972"></polygon>
                        <polygon id="Fill-20" fill="#092648" mask="url(#mask-2)" points="133.3699 31.6726 127.4069 24.0996 127.4069 31.6726 126.5559 31.6726 126.5559 22.7286 127.4069 22.7286 133.3699 30.3006 133.3699 22.7286 134.2229 22.7286 134.2229 31.6726"></polygon>
                        <path d="M139.49,28.6511 C138.652,28.6511 137.548,28.7321 137.054,28.9971 C136.629,29.2231 136.389,29.6081 136.389,30.0751 C136.389,30.7941 136.976,31.1531 137.654,31.1531 C138.279,31.1531 138.905,30.8471 139.49,30.3291 L139.49,28.6511 Z M139.49,31.6721 L139.49,31.0341 C139.023,31.4321 138.386,31.8191 137.574,31.8191 C136.428,31.8191 135.604,31.1271 135.604,30.1151 C135.604,29.6221 135.791,28.9031 136.629,28.4371 C137.202,28.1191 138.305,28.0001 139.49,28.0001 L139.49,27.5991 C139.49,26.4281 138.771,26.1761 138.12,26.1761 C137.387,26.1761 136.549,26.4421 136.03,26.7091 L136.189,25.9491 C136.721,25.7231 137.414,25.5091 138.239,25.5091 C139.465,25.5091 140.262,26.1631 140.262,27.5601 L140.262,31.6721 L139.49,31.6721 Z" id="Fill-21" fill="#092648" mask="url(#mask-2)"></path>
                        <polygon id="Fill-22" fill="#092648" mask="url(#mask-2)" points="144.3738 31.6726 143.7078 31.6726 141.0328 25.6436 141.9108 25.6436 144.0398 30.6206 146.1708 25.6436 147.0488 25.6436"></polygon>
                        <path d="M148.124,31.672 L148.895,31.672 L148.895,25.643 L148.124,25.643 L148.124,31.672 Z M148.511,24.431 L147.819,23.74 L148.511,23.049 L149.204,23.74 L148.511,24.431 Z" id="Fill-23" fill="#092648" mask="url(#mask-2)"></path>
                        <path d="M152.5047,26.1491 C151.3727,26.1491 150.9057,27.0411 150.9057,27.6521 C150.9057,28.5571 151.7047,29.1031 152.6227,29.1031 C153.8487,29.1031 154.3157,28.2121 154.3157,27.6521 C154.3157,26.6951 153.5277,26.1491 152.5047,26.1491 L152.5047,26.1491 Z M151.8647,31.4461 C150.9317,31.9781 150.3077,32.4031 150.3077,33.1631 C150.3077,33.7351 150.8807,34.3341 152.5707,34.3341 C153.9817,34.3341 154.8997,33.8291 154.8997,32.9101 C154.8997,31.9511 153.4877,31.9121 151.8647,31.4461 L151.8647,31.4461 Z M154.4467,26.3081 C154.7397,26.6011 155.0597,27.1611 155.0597,27.6521 C155.0597,28.7441 154.0737,29.7421 152.7177,29.7421 C152.3707,29.7421 152.0777,29.7031 151.7837,29.5951 C151.3857,29.8761 151.1727,30.0751 151.1727,30.2881 C151.1727,30.5811 151.2927,30.6471 153.2217,31.0591 C154.8867,31.4191 155.6457,31.8191 155.6457,32.9351 C155.6457,34.0151 154.5007,35.0001 152.5977,35.0001 C150.1217,35.0001 149.5627,33.7881 149.5627,33.1631 C149.5627,32.4711 150.0687,31.7391 151.1197,31.2181 C150.6147,31.0341 150.3877,30.7801 150.3877,30.3951 C150.3877,29.9951 150.7197,29.6901 151.2127,29.3701 C150.4817,28.9301 150.1617,28.3181 150.1617,27.6521 C150.1617,26.4561 151.1727,25.4831 152.5317,25.4831 C152.8487,25.4831 153.1707,25.5371 153.4877,25.6431 L155.7507,25.6431 L155.7507,26.3081 L154.4467,26.3081 Z" id="Fill-24" fill="#092648" mask="url(#mask-2)"></path>
                        <path d="M160.1687,28.6511 C159.3307,28.6511 158.2257,28.7321 157.7317,28.9971 C157.3077,29.2231 157.0677,29.6081 157.0677,30.0751 C157.0677,30.7941 157.6537,31.1531 158.3327,31.1531 C158.9577,31.1531 159.5837,30.8471 160.1687,30.3291 L160.1687,28.6511 Z M160.1687,31.6721 L160.1687,31.0341 C159.7017,31.4321 159.0647,31.8191 158.2527,31.8191 C157.1067,31.8191 156.2827,31.1271 156.2827,30.1151 C156.2827,29.6221 156.4697,28.9031 157.3077,28.4371 C157.8797,28.1191 158.9847,28.0001 160.1687,28.0001 L160.1687,27.5991 C160.1687,26.4281 159.4497,26.1761 158.7987,26.1761 C158.0657,26.1761 157.2277,26.4421 156.7087,26.7091 L156.8677,25.9491 C157.3997,25.7231 158.0917,25.5091 158.9177,25.5091 C160.1427,25.5091 160.9407,26.1631 160.9407,27.5601 L160.9407,31.6721 L160.1687,31.6721 Z" id="Fill-25" fill="#092648" mask="url(#mask-2)"></path>
                        <path d="M164.9578,31.819 C164.1868,31.819 163.1348,31.419 163.1348,29.796 L163.1348,26.308 L162.2038,26.308 L162.2038,25.644 L163.1348,25.644 L163.1348,24.153 L163.9068,24.153 L163.9068,25.644 L166.1148,25.644 L166.1148,26.308 L163.9068,26.308 L163.9068,29.756 C163.9068,30.834 164.5458,31.139 165.1188,31.139 C165.6628,31.139 166.0628,30.966 166.3948,30.714 L166.3948,31.46 C165.9828,31.672 165.4918,31.819 164.9578,31.819" id="Fill-26" fill="#092648" mask="url(#mask-2)"></path>
                        <path d="M170.0545,26.2019 C168.5375,26.2019 167.6595,27.3999 167.6595,28.6649 C167.6595,29.9299 168.5375,31.1259 170.0545,31.1259 C171.5725,31.1259 172.4515,29.9299 172.4515,28.6649 C172.4515,27.3999 171.5725,26.2019 170.0545,26.2019 M170.0545,31.8189 C168.1785,31.8189 166.8735,30.2749 166.8735,28.6649 C166.8735,27.0549 168.1785,25.5109 170.0545,25.5109 C171.9315,25.5109 173.2365,27.0549 173.2365,28.6649 C173.2365,30.2749 171.9315,31.8189 170.0545,31.8189" id="Fill-27" fill="#092648" mask="url(#mask-2)"></path>
                        <path d="M177.1736,26.2419 C176.5216,26.2419 175.9756,26.6949 175.5906,27.1609 L175.5906,31.6729 L174.8176,31.6729 L174.8176,25.6429 L175.5906,25.6429 L175.5906,26.4149 C175.9366,26.0419 176.5476,25.5369 177.3206,25.5369 C177.5466,25.5369 177.8926,25.6169 178.1056,25.7369 L178.1056,26.5879 C177.8396,26.3359 177.5196,26.2419 177.1736,26.2419" id="Fill-28" fill="#092648" mask="url(#mask-2)"></path>
                        <polygon id="Fill-29" fill="#092648" mask="url(#mask-2)" points="182.8279 23.5007 182.8279 26.5617 186.1959 26.5617 186.1959 27.3327 182.8279 27.3327 182.8279 31.6717 181.9769 31.6717 181.9769 22.7277 187.0879 22.7277 187.0879 23.5007"></polygon>
                        <path d="M189.9881,31.819 C189.1221,31.819 188.1651,31.419 188.1651,29.69 L188.1651,22.729 L188.9371,22.729 L188.9371,29.756 C188.9371,30.941 189.6151,31.126 190.0821,31.126 C190.4541,31.126 190.8521,30.994 191.1461,30.755 L191.1461,31.5 C190.8521,31.66 190.4801,31.819 189.9881,31.819" id="Fill-30" fill="#092648" mask="url(#mask-2)"></path>
                        <path d="M194.3523,26.2019 C193.1813,26.2019 192.4093,27.1469 192.2763,28.0659 L196.2023,28.0659 C196.1353,27.1349 195.5103,26.2019 194.3523,26.2019 L194.3523,26.2019 Z M192.2223,28.7579 C192.3013,30.1019 193.0473,31.1389 194.6323,31.1389 C195.5383,31.1389 196.2433,30.8339 196.9343,30.3679 L196.9343,31.1259 C196.2683,31.5799 195.3653,31.8329 194.5383,31.8329 C192.8333,31.8329 191.4513,30.7139 191.4513,28.6239 C191.4513,27.0939 192.5423,25.5109 194.3933,25.5109 C195.5903,25.5109 197.0403,26.4679 197.0403,28.6919 L197.0403,28.7579 L192.2223,28.7579 Z" id="Fill-31" fill="#092648" mask="url(#mask-2)"></path>
                        <path d="M201.1912,26.2019 C200.0192,26.2019 199.2482,27.1469 199.1162,28.0659 L203.0422,28.0659 C202.9752,27.1349 202.3482,26.2019 201.1912,26.2019 L201.1912,26.2019 Z M199.0612,28.7579 C199.1412,30.1019 199.8872,31.1389 201.4702,31.1389 C202.3762,31.1389 203.0812,30.8339 203.7732,30.3679 L203.7732,31.1259 C203.1072,31.5799 202.2032,31.8329 201.3772,31.8329 C199.6732,31.8329 198.2912,30.7139 198.2912,28.6239 C198.2912,27.0939 199.3802,25.5109 201.2312,25.5109 C202.4292,25.5109 203.8792,26.4679 203.8792,28.6919 L203.8792,28.7579 L199.0612,28.7579 Z" id="Fill-32" fill="#092648" mask="url(#mask-2)"></path>
                        <path d="M207.5115,31.819 C206.7395,31.819 205.6885,31.419 205.6885,29.796 L205.6885,26.308 L204.7575,26.308 L204.7575,25.644 L205.6885,25.644 L205.6885,24.153 L206.4595,24.153 L206.4595,25.644 L208.6695,25.644 L208.6695,26.308 L206.4595,26.308 L206.4595,29.756 C206.4595,30.834 207.0985,31.139 207.6705,31.139 C208.2165,31.139 208.6165,30.966 208.9485,30.714 L208.9485,31.46 C208.5355,31.672 208.0435,31.819 207.5115,31.819" id="Fill-33" fill="#092648" mask="url(#mask-2)"></path>
                        <polygon id="Fill-34" fill="#092648" mask="url(#mask-2)" points="220.6326 31.6726 220.6326 24.0856 217.1466 28.3856 213.6596 24.0856 213.6596 31.6726 212.8076 31.6726 212.8076 22.7286 213.6596 22.7286 217.1466 27.0396 220.6326 22.7286 221.4846 22.7286 221.4846 31.6726"></polygon>
                        <path d="M226.9393,28.6511 C226.1003,28.6511 224.9973,28.7321 224.5033,28.9971 C224.0783,29.2231 223.8373,29.6081 223.8373,30.0751 C223.8373,30.7941 224.4243,31.1531 225.1033,31.1531 C225.7293,31.1531 226.3543,30.8471 226.9393,30.3291 L226.9393,28.6511 Z M226.9393,31.6721 L226.9393,31.0341 C226.4753,31.4321 225.8353,31.8191 225.0223,31.8191 C223.8783,31.8191 223.0523,31.1271 223.0523,30.1151 C223.0523,29.6221 223.2393,28.9031 224.0783,28.4371 C224.6513,28.1191 225.7543,28.0001 226.9393,28.0001 L226.9393,27.5991 C226.9393,26.4281 226.2203,26.1761 225.5683,26.1761 C224.8353,26.1761 223.9993,26.4421 223.4783,26.7091 L223.6393,25.9491 C224.1713,25.7231 224.8633,25.5091 225.6883,25.5091 C226.9133,25.5091 227.7103,26.1631 227.7103,27.5601 L227.7103,31.6721 L226.9393,31.6721 Z" id="Fill-35" fill="#092648" mask="url(#mask-2)"></path>
                        <path d="M234.0457,31.6726 L234.0457,27.9196 C234.0457,26.7746 233.1407,26.2026 232.2347,26.2026 C231.4367,26.2026 230.8117,26.6136 230.3457,27.0276 L230.3457,31.6726 L229.5737,31.6726 L229.5737,25.6436 L230.3457,25.6436 L230.3457,26.2956 C230.7837,25.9496 231.4777,25.5106 232.3417,25.5106 C233.6337,25.5106 234.8167,26.3486 234.8167,27.9856 L234.8167,31.6726 L234.0457,31.6726 Z" id="Fill-36" fill="#092648" mask="url(#mask-2)"></path>
                        <path d="M240.0457,28.6511 C239.2077,28.6511 238.1027,28.7321 237.6087,28.9971 C237.1847,29.2231 236.9447,29.6081 236.9447,30.0751 C236.9447,30.7941 237.5307,31.1531 238.2097,31.1531 C238.8347,31.1531 239.4607,30.8471 240.0457,30.3291 L240.0457,28.6511 Z M240.0457,31.6721 L240.0457,31.0341 C239.5787,31.4321 238.9417,31.8191 238.1297,31.8191 C236.9837,31.8191 236.1597,31.1271 236.1597,30.1151 C236.1597,29.6221 236.3467,28.9031 237.1847,28.4371 C237.7567,28.1191 238.8617,28.0001 240.0457,28.0001 L240.0457,27.5991 C240.0457,26.4281 239.3267,26.1761 238.6757,26.1761 C237.9427,26.1761 237.1047,26.4421 236.5857,26.7091 L236.7447,25.9491 C237.2767,25.7231 237.9687,25.5091 238.7947,25.5091 C240.0197,25.5091 240.8177,26.1631 240.8177,27.5601 L240.8177,31.6721 L240.0457,31.6721 Z" id="Fill-37" fill="#092648" mask="url(#mask-2)"></path>
                        <path d="M244.7566,26.1491 C243.6246,26.1491 243.1586,27.0411 243.1586,27.6521 C243.1586,28.5571 243.9566,29.1031 244.8756,29.1031 C246.1016,29.1031 246.5676,28.2121 246.5676,27.6521 C246.5676,26.6951 245.7806,26.1491 244.7566,26.1491 L244.7566,26.1491 Z M244.1176,31.4461 C243.1856,31.9781 242.5606,32.4031 242.5606,33.1631 C242.5606,33.7351 243.1336,34.3341 244.8226,34.3341 C246.2336,34.3341 247.1526,33.8291 247.1526,32.9101 C247.1526,31.9511 245.7416,31.9121 244.1176,31.4461 L244.1176,31.4461 Z M246.6986,26.3081 C246.9926,26.6011 247.3116,27.1611 247.3116,27.6521 C247.3116,28.7441 246.3266,29.7421 244.9706,29.7421 C244.6226,29.7421 244.3296,29.7031 244.0376,29.5951 C243.6386,29.8761 243.4246,30.0751 243.4246,30.2881 C243.4246,30.5811 243.5446,30.6471 245.4746,31.0591 C247.1386,31.4191 247.8976,31.8191 247.8976,32.9351 C247.8976,34.0151 246.7536,35.0001 244.8506,35.0001 C242.3736,35.0001 241.8146,33.7881 241.8146,33.1631 C241.8146,32.4711 242.3206,31.7391 243.3716,31.2181 C242.8646,31.0341 242.6406,30.7801 242.6406,30.3951 C242.6406,29.9951 242.9726,29.6901 243.4656,29.3701 C242.7336,28.9301 242.4146,28.3181 242.4146,27.6521 C242.4146,26.4561 243.4246,25.4831 244.7816,25.4831 C245.1026,25.4831 245.4216,25.5371 245.7416,25.6431 L248.0026,25.6431 L248.0026,26.3081 L246.6986,26.3081 Z" id="Fill-38" fill="#092648" mask="url(#mask-2)"></path>
                        <path d="M251.6756,26.2019 C250.5046,26.2019 249.7316,27.1469 249.5996,28.0659 L253.5256,28.0659 C253.4586,27.1349 252.8326,26.2019 251.6756,26.2019 L251.6756,26.2019 Z M249.5466,28.7579 C249.6246,30.1019 250.3716,31.1389 251.9546,31.1389 C252.8606,31.1389 253.5656,30.8339 254.2586,30.3679 L254.2586,31.1259 C253.5926,31.5799 252.6876,31.8329 251.8626,31.8329 C250.1576,31.8329 248.7736,30.7139 248.7736,28.6239 C248.7736,27.0939 249.8646,25.5109 251.7156,25.5109 C252.9126,25.5109 254.3636,26.4679 254.3636,28.6919 L254.3636,28.7579 L249.5466,28.7579 Z" id="Fill-39" fill="#092648" mask="url(#mask-2)"></path>
                        <path d="M258.2088,26.2419 C257.5568,26.2419 257.0108,26.6949 256.6238,27.1609 L256.6238,31.6729 L255.8528,31.6729 L255.8528,25.6429 L256.6238,25.6429 L256.6238,26.4149 C256.9718,26.0419 257.5828,25.5369 258.3548,25.5369 C258.5818,25.5369 258.9258,25.6169 259.1398,25.7369 L259.1398,26.5879 C258.8748,26.3359 258.5548,26.2419 258.2088,26.2419" id="Fill-40" fill="#092648" mask="url(#mask-2)"></path>
                    </g>
                </g>
            </g>
        </g>
    </g>
</svg>