<?xml version="1.0" encoding="utf-8"?>
<!-- Generator: Adobe Illustrator 23.0.3, SVG Export Plug-In . SVG Version: 6.00 Build 0)  -->
<svg version="1.1" id="Layer_1" xmlns="http://www.w3.org/2000/svg" xmlns:xlink="http://www.w3.org/1999/xlink" x="0px" y="0px"
	 viewBox="0 0 268 40.31" style="enable-background:new 0 0 268 69.31;" xml:space="preserve">
<style type="text/css">
	.st0{clip-path:url(#SVGID_2_);}
	.st1{clip-path:url(#SVGID_4_);fill:#1A3358;}
	.st2{clip-path:url(#SVGID_6_);}
	.st3{clip-path:url(#SVGID_8_);fill:#1A3358;}
	.st4{clip-path:url(#SVGID_10_);}
	.st5{clip-path:url(#SVGID_12_);fill:#1A3358;}
	.st6{clip-path:url(#SVGID_14_);}
	.st7{clip-path:url(#SVGID_16_);fill:#1A3358;}
	.st8{clip-path:url(#SVGID_18_);}
	.st9{clip-path:url(#SVGID_20_);fill:#1A3358;}
	.st10{clip-path:url(#SVGID_22_);}
	.st11{clip-path:url(#SVGID_24_);fill:#1A3358;}
	.st12{clip-path:url(#SVGID_26_);}
	.st13{clip-path:url(#SVGID_28_);fill:#1A3358;}
	.st14{clip-path:url(#SVGID_30_);}
	.st15{clip-path:url(#SVGID_32_);fill:#1A3358;}
	.st16{clip-path:url(#SVGID_34_);}
	.st17{clip-path:url(#SVGID_36_);fill:#1A3358;}
</style>
<g>
	<defs>
		<path id="SVGID_1_" d="M19.02,23.67c-1.17,0-3.1,0-4.21-0.1c1.59-3.99,2.8-7.6,4.39-11.24c1.5,3.63,3.74,10.05,4.2,11.24
			C21.77,23.57,20.6,23.67,19.02,23.67 M22.83,5.21h-6.27c-3.85,10.69-7.6,20.46-11.1,29.28h5.37c0.35-0.99,1.11-3.15,2.4-6.48
			c1.82-0.07,4.02-0.13,5.79-0.13c2.1,0,3.81,0,5.9,0.13c0.76,2.1,1.59,4.2,2.35,6.48H34C29.78,24.26,26.1,14.49,22.83,5.21"/>
	</defs>
	<clipPath id="SVGID_2_">
		<use xlink:href="#SVGID_1_"  style="overflow:visible;"/>
	</clipPath>
	<g class="st0">
		<defs>
			<rect id="SVGID_3_" x="-349" y="-1571" width="1920" height="23678"/>
		</defs>
		<clipPath id="SVGID_4_">
			<use xlink:href="#SVGID_3_"  style="overflow:visible;"/>
		</clipPath>
		<rect x="0.47" y="0.21" class="st1" width="38.53" height="39.28"/>
	</g>
</g>
<g>
	<defs>
		<path id="SVGID_5_" d="M50.69,29.93h-4.56c-0.18-3.33-0.18-6.42-0.18-9.83s0-6.94,0.18-10.33h4.62c5.08,0,9.35,3.33,9.35,10.05
			s-4.26,10.11-9.35,10.11 M50.69,5.21H39.88c0.12,4.91,0.18,9.99,0.18,14.85s0,9.58-0.18,14.43h10.81c12.39,0,15.9-8.71,15.9-14.61
			S63.08,5.21,50.69,5.21"/>
	</defs>
	<clipPath id="SVGID_6_">
		<use xlink:href="#SVGID_5_"  style="overflow:visible;"/>
	</clipPath>
	<g class="st2">
		<defs>
			<rect id="SVGID_7_" x="-349" y="-1571" width="1920" height="23678"/>
		</defs>
		<clipPath id="SVGID_8_">
			<use xlink:href="#SVGID_7_"  style="overflow:visible;"/>
		</clipPath>
		<rect x="34.88" y="0.21" class="st3" width="36.71" height="39.28"/>
	</g>
</g>
<g>
	<defs>
		<path id="SVGID_9_" d="M78.28,34.49c-0.11-3.57-0.17-8.07-0.17-11.4c0-3.33,0-5.31,0.17-8.65c3.1,4.34,5.97,8.72,8.61,13.15h0.81
			c2.46-3.92,5.49-8.53,8.81-13.74c0,3.28,0.18,6.44,0.18,9.53c0,3.81,0,7.9-0.18,11.11h6.21c-0.1-4.84-0.21-9.64-0.21-14.49
			s0.12-9.83,0.24-14.73h-6.39c-2.85,4.78-5.67,9.35-8.31,13.1c-3.09-4.23-5.95-8.62-8.58-13.16H72.9c0.12,5.08,0.3,10.11,0.3,15
			s-0.18,9.65-0.3,14.33h5.37"/>
	</defs>
	<clipPath id="SVGID_10_">
		<use xlink:href="#SVGID_9_"  style="overflow:visible;"/>
	</clipPath>
	<g class="st4">
		<defs>
			<rect id="SVGID_11_" x="-349" y="-1571" width="1920" height="23678"/>
		</defs>
		<clipPath id="SVGID_12_">
			<use xlink:href="#SVGID_11_"  style="overflow:visible;"/>
		</clipPath>
		<rect x="67.9" y="0.21" class="st5" width="39.83" height="39.33"/>
	</g>
</g>
<g>
	<defs>
		<path id="SVGID_13_" d="M118.79,34.49c-0.18-3-0.18-9.81-0.18-14.73c0-4.62,0-11.52,0.18-14.55h-6.32c0.18,3,0.18,9.93,0.18,14.55
			c0,4.92,0,11.75-0.18,14.73H118.79"/>
	</defs>
	<clipPath id="SVGID_14_">
		<use xlink:href="#SVGID_13_"  style="overflow:visible;"/>
	</clipPath>
	<g class="st6">
		<defs>
			<rect id="SVGID_15_" x="-349" y="-1571" width="1920" height="23678"/>
		</defs>
		<clipPath id="SVGID_16_">
			<use xlink:href="#SVGID_15_"  style="overflow:visible;"/>
		</clipPath>
		<rect x="107.47" y="0.21" class="st7" width="16.32" height="39.28"/>
	</g>
</g>
<g>
	<defs>
		<path id="SVGID_17_" d="M138.38,18.59h-3.75c0-1.5,0-3,0-4.5s0-3,0-4.5h3.75c2.74,0,5.13,1.41,5.13,4.5S141.12,18.59,138.38,18.59
			 M144.5,21.8c3.07-1.38,5.05-4.43,5.04-7.8c0-3.51-2.46-8.82-10.17-8.82h-10.82c0.12,5.08,0.23,10.11,0.23,15
			s-0.1,9.65-0.23,14.32h6c0-2.1-0.12-4.27-0.12-6.37c0-1.74,0-3.5,0.12-5.25h3.75c3,4.32,5.54,8.29,7.5,11.62h7.14
			c-3.11-4.27-6-8.59-8.43-12.69"/>
	</defs>
	<clipPath id="SVGID_18_">
		<use xlink:href="#SVGID_17_"  style="overflow:visible;"/>
	</clipPath>
	<g class="st8">
		<defs>
			<rect id="SVGID_19_" x="-349" y="-1571" width="1920" height="23678"/>
		</defs>
		<clipPath id="SVGID_20_">
			<use xlink:href="#SVGID_19_"  style="overflow:visible;"/>
		</clipPath>
		<rect x="123.56" y="0.18" class="st9" width="34.39" height="39.32"/>
	</g>
</g>
<g>
	<defs>
		<path id="SVGID_21_" d="M170.04,23.67c-1.18,0-3.1,0-4.21-0.1c1.5-3.99,2.8-7.6,4.38-11.24c1.5,3.63,3.74,10.05,4.21,11.24
			C172.79,23.57,171.6,23.67,170.04,23.67 M173.88,5.21h-6.24c-3.86,10.69-7.61,20.46-11.12,29.28h5.38
			c0.35-0.99,1.11-3.16,2.39-6.48c1.82-0.07,4.05-0.13,5.8-0.13c2.1,0,3.78,0,5.9,0.13c0.76,2.1,1.5,4.2,2.34,6.48H185
			c-4.21-10.23-7.89-19.99-11.18-29.28"/>
	</defs>
	<clipPath id="SVGID_22_">
		<use xlink:href="#SVGID_21_"  style="overflow:visible;"/>
	</clipPath>
	<g class="st10">
		<defs>
			<rect id="SVGID_23_" x="-349" y="-1571" width="1920" height="23678"/>
		</defs>
		<clipPath id="SVGID_24_">
			<use xlink:href="#SVGID_23_"  style="overflow:visible;"/>
		</clipPath>
		<rect x="151.53" y="0.21" class="st11" width="38.47" height="39.28"/>
	</g>
</g>
<g>
	<defs>
		<path id="SVGID_25_" d="M209.72,34.49c-3.09-0.12-6.42-0.12-9.59-0.12c-3.16,0-6.18,0-9.46,0.12c0.12-4.9,0.24-9.93,0.24-14.85
			s-0.12-9.58-0.24-14.43H197c-0.12,4.5-0.18,9.81-0.18,14.43c0,3.63,0,6.66,0.18,10.29h5.73c2.46,0,5.15,0,7.01-0.12v4.68"/>
	</defs>
	<clipPath id="SVGID_26_">
		<use xlink:href="#SVGID_25_"  style="overflow:visible;"/>
	</clipPath>
	<g class="st12">
		<defs>
			<rect id="SVGID_27_" x="-349" y="-1571" width="1920" height="23678"/>
		</defs>
		<clipPath id="SVGID_28_">
			<use xlink:href="#SVGID_27_"  style="overflow:visible;"/>
		</clipPath>
		<rect x="185.67" y="0.21" class="st13" width="29.07" height="39.28"/>
	</g>
</g>
<g>
	<defs>
		<path id="SVGID_29_" d="M233,9.81c-2.52-0.1-5.61-0.16-8.6-0.16c0,3.67-0.12,7.59-0.12,11.28c0,4.5,0,9,0.12,13.5h-6.32
			c0.12-4.5,0.18-8.82,0.18-13.5c0-3.63,0-7.83-0.18-11.4c-3.15,0-6.32,0-8.6,0.17V5.21c3.93,0.1,7.85,0.16,11.75,0.17
			c3.9,0.01,7.82-0.04,11.76-0.17V9.81"/>
	</defs>
	<clipPath id="SVGID_30_">
		<use xlink:href="#SVGID_29_"  style="overflow:visible;"/>
	</clipPath>
	<g class="st14">
		<defs>
			<rect id="SVGID_31_" x="-349" y="-1571" width="1920" height="23678"/>
		</defs>
		<clipPath id="SVGID_32_">
			<use xlink:href="#SVGID_31_"  style="overflow:visible;"/>
		</clipPath>
		<rect x="204.49" y="0.21" class="st15" width="33.51" height="39.22"/>
	</g>
</g>
<g>
	<defs>
		<path id="SVGID_33_" d="M252.77,24.11c0,1.59,0,2.88,0,3.97l0.18,6.19h-6.32c0-1.5,0.12-3.97,0.12-6.6s0-5.73,0-6.38
			c-2.87-5.08-6.62-10.76-10.41-16.31h7.37c1.99,3.84,4.22,7.54,6.67,11.1c2.52-3.58,4.86-7.28,7.01-11.1H263
			c-4.21,6.38-8.01,12.22-10.17,16.26c0,0.35,0,1.28,0,2.85"/>
	</defs>
	<clipPath id="SVGID_34_">
		<use xlink:href="#SVGID_33_"  style="overflow:visible;"/>
	</clipPath>
	<g class="st16">
		<defs>
			<rect id="SVGID_35_" x="-349" y="-1571" width="1920" height="23678"/>
		</defs>
		<clipPath id="SVGID_36_">
			<use xlink:href="#SVGID_35_"  style="overflow:visible;"/>
		</clipPath>
		<rect x="231.35" class="st17" width="36.65" height="39.28"/>
	</g>
</g>
</svg>
