<?xml version="1.0" encoding="UTF-8"?>
<svg width="258px" height="60px" viewBox="0 0 258 60" version="1.1" xmlns="http://www.w3.org/2000/svg" xmlns:xlink="http://www.w3.org/1999/xlink">
    <!-- Generator: Sketch 55.1 (78136) - https://sketchapp.com -->
    <title>1: Atoms / Logos / Admiralty / White</title>
    <desc>Created with Sketch.</desc>
    <g id="-" stroke="none" stroke-width="1" fill="none" fill-rule="evenodd">
        <g id="1_00119009-UKHO-Styles-1" transform="translate(-1136.000000, -1273.000000)" fill="#FFFFFF" fill-rule="nonzero">
            <g id="1:-Atoms-/-Logos-/-Admiralty-White" transform="translate(1136.000000, 1273.000000)">
                <path d="M17.835,0.21 C21.105,9.495 24.78,19.26 28.995,29.49 L22.275,29.49 C21.51,27.21 20.685,25.11 19.92,23.01 C17.835,22.875 16.125,22.875 14.025,22.875 C12.255,22.875 10.05,22.935 8.235,23.01 C6.945,26.34 6.18,28.5 5.835,29.49 L0.465,29.49 C3.96,20.67 7.71,10.905 11.565,0.21 L17.835,0.21 Z M14.025,18.675 C15.6,18.675 16.77,18.57 18.405,18.57 C17.94,17.385 15.705,10.965 14.205,7.335 C12.615,10.965 11.4,14.58 9.81,18.57 C10.92,18.675 12.855,18.675 14.025,18.675 Z M45.69,0.21 C58.08,0.21 61.59,8.985 61.59,14.88 C61.59,20.775 58.08,29.49 45.69,29.49 L34.875,29.49 C35.055,24.645 35.055,19.92 35.055,15.06 C35.055,10.2 34.995,5.115 34.875,0.21 L45.69,0.21 Z M45.69,24.93 L45.75,24.93 C50.835,24.93 55.095,21.54 55.095,14.82 C55.095,8.1 50.835,4.77 45.75,4.77 L41.13,4.77 C40.95,8.16 40.95,11.7 40.95,15.105 C40.95,18.51 40.95,21.6 41.13,24.93 L45.69,24.93 Z M73.275,29.49 L73.275,29.535 L67.905,29.535 C68.025,24.855 68.205,20.1 68.205,15.21 C68.205,10.32 68.025,5.295 67.905,0.21 L74.46,0.21 C77.0897561,4.74093466 79.9536325,9.13187805 83.04,13.365 C85.68,9.615 88.5,5.055 91.35,0.27 L97.74,0.27 C97.62,5.175 97.5,10.155 97.5,15 C97.5,19.845 97.605,24.645 97.71,29.49 L91.5,29.49 C91.68,26.28 91.68,22.185 91.68,18.375 C91.68,15.285 91.5,12.135 91.5,8.85 C88.185,14.055 85.155,18.675 82.695,22.59 L81.885,22.59 C79.245,18.16 76.375,13.775 73.275,9.435 C73.11,12.78 73.11,14.76 73.11,18.09 C73.11,21.42 73.17,25.92 73.275,29.49 Z M113.79,29.49 L107.475,29.49 C107.655,26.505 107.655,19.68 107.655,14.76 C107.655,10.14 107.655,3.21 107.475,0.21 L113.79,0.21 C113.61,3.24 113.61,10.14 113.61,14.76 C113.61,19.68 113.61,26.49 113.79,29.49 Z M139.5,16.8 L139.515,16.815 C141.945,20.91 144.84,25.23 147.945,29.505 L140.805,29.505 C138.84,26.175 136.305,22.2 133.305,17.88 L129.555,17.88 C129.435,19.635 129.435,21.39 129.435,23.13 C129.435,25.23 129.555,27.405 129.555,29.505 L123.555,29.505 C123.675,24.825 123.78,20.07 123.78,15.18 C123.78,10.29 123.675,5.265 123.555,0.18 L134.37,0.18 C142.08,0.18 144.54,5.49 144.54,9 C144.549129,12.3675615 142.573861,15.4245244 139.5,16.8 Z M133.38,13.59 C136.125,13.59 138.51,12.18 138.51,9.09 C138.51,6 136.125,4.59 133.38,4.59 L129.63,4.59 C129.63,6.09 129.63,7.59 129.63,9.09 C129.63,10.59 129.63,12.09 129.63,13.59 L133.38,13.59 Z M168.885,0.21 L168.825,0.21 C172.11,9.495 175.785,19.26 180,29.49 L173.34,29.49 C172.5,27.21 171.765,25.11 171,23.01 C168.885,22.875 167.205,22.875 165.105,22.875 C163.35,22.875 161.115,22.935 159.3,23.01 C158.025,26.325 157.26,28.5 156.915,29.49 L151.53,29.49 C155.04,20.67 158.79,10.905 162.645,0.21 L168.885,0.21 Z M165.045,18.675 C166.605,18.675 167.79,18.57 169.425,18.57 C168.945,17.385 166.71,10.965 165.21,7.335 C163.635,10.965 162.33,14.58 160.83,18.57 C161.94,18.675 163.86,18.675 165.045,18.675 Z M204.72,29.49 C201.63,29.37 198.3,29.37 195.135,29.37 C191.97,29.37 188.955,29.37 185.67,29.49 C185.79,24.585 185.91,19.56 185.91,14.64 C185.91,9.72 185.79,5.055 185.67,0.21 L192,0.21 C191.88,4.71 191.82,10.02 191.82,14.64 C191.82,18.27 191.82,21.3 192,24.93 L197.73,24.93 C200.19,24.93 202.875,24.93 204.735,24.81 L204.735,29.49 L204.72,29.49 Z M228,4.815 C225.48,4.71 222.39,4.65 219.405,4.65 C219.405,8.325 219.285,12.24 219.285,15.93 C219.285,20.43 219.285,24.93 219.405,29.43 L213.09,29.43 C213.21,24.93 213.27,20.61 213.27,15.93 C213.27,12.3 213.27,8.1 213.09,4.53 C209.94,4.53 206.775,4.53 204.495,4.695 L204.495,0.21 C208.425,0.31 212.34,0.365 216.24,0.375 C220.14,0.385 224.06,0.33 228,0.21 L228,4.815 Z M247.77,19.11 C247.77,20.7 247.77,21.99 247.77,23.085 L247.95,29.28 L241.635,29.28 C241.635,27.78 241.755,25.305 241.755,22.68 C241.755,20.055 241.755,16.95 241.755,16.305 C238.89,11.22 235.14,5.55 231.345,-9.23705556e-13 L238.71,-9.23705556e-13 C240.697841,3.83753863 242.927326,7.54499617 245.385,11.1 C247.907298,7.52156855 250.245338,3.81675067 252.39,-9.23705556e-13 L258,-9.23705556e-13 C253.785,6.375 249.99,12.225 247.83,16.26 C247.83,16.605 247.83,17.535 247.83,19.11 L247.77,19.11 Z M16.14,59.31 L16.14,43.665 L8.94,52.53 L1.755,43.665 L1.755,59.31 L-8.8817842e-15,59.31 L-8.8817842e-15,40.86 L1.755,40.86 L8.94,49.755 L16.14,40.86 L17.895,40.86 L17.895,59.31 L16.14,59.31 Z M28.5,59.31 L28.5,57.99 C27.4239272,58.998284 26.0142262,59.5749798 24.54,59.61 C23.5268984,59.7234225 22.5123966,59.4091722 21.7408038,58.742926 C20.9692109,58.0766798 20.5104506,57.1188144 20.4749186,56.1 C20.4655198,54.6372793 21.2847114,53.2951995 22.59,52.635 C24.4723054,51.9132946 26.4881923,51.6063067 28.5,51.735 L28.5,50.91 C28.644088,50.1085316 28.399048,49.2862592 27.8397446,48.6944038 C27.2804413,48.1025484 26.4733301,47.8114333 25.665,47.91 C24.1683303,47.9638076 22.7004876,48.3371613 21.36,49.005 L21.69,47.505 C23.0242596,46.9208831 24.4635152,46.6146585 25.92,46.605 C27.0684898,46.4772543 28.2123229,46.8818644 29.0250392,47.7033509 C29.8377554,48.5248375 30.2300652,49.6729475 30.09,50.82 L30.09,59.31 L28.5,59.31 Z M28.5,53.07 C26.7941926,52.9826291 25.0876413,53.2271499 23.475,53.79 C22.6248388,54.2013583 22.0876219,55.0655768 22.095,56.01 C22.095,57.51 23.31,58.23 24.705,58.23 C26.1335014,58.1431269 27.4819526,57.5408542 28.5,56.535 L28.5,53.07 Z M38.22,48.105 C36.9109803,48.2291887 35.7217627,48.9197021 34.965,49.995 L34.965,59.31 L33.36,59.31 L33.36,46.875 L34.965,46.875 L34.965,48.465 C35.8555004,47.3957187 37.1463486,46.7394471 38.535,46.65 C39.0950958,46.6653007 39.6442015,46.8089919 40.14,47.07 L40.14,48.825 C39.6240865,48.3346144 38.9311473,48.0747622 38.22,48.105 Z M42.54,44.37 L41.04,42.945 L42.54,41.52 L43.965,42.945 L42.54,44.37 Z M41.745,46.875 L43.335,46.875 L43.335,59.31 L41.745,59.31 L41.745,46.875 Z M50.61,59.61 C49.005,59.61 46.845,58.785 46.845,55.44 L46.845,48.24 L45,48.24 L45,46.875 L46.92,46.875 L46.92,43.8 L48.51,43.8 L48.51,46.875 L53.01,46.875 L53.01,48.24 L48.51,48.24 L48.51,55.35 C48.51,57.57 49.83,58.215 51.015,58.215 C51.9654737,58.2289574 52.8919956,57.9165871 53.64,57.33 L53.64,58.83 C52.7132346,59.3115641 51.6844119,59.5636257 50.64,59.565 L50.61,59.61 Z M55.92,44.37 L54.42,42.945 L55.92,41.52 L57.345,42.945 L55.92,44.37 Z M55.125,46.875 L56.715,46.875 L56.715,59.31 L55.125,59.31 L55.125,46.875 Z M77.415,59.31 L77.415,51.57 C77.4474126,50.6395772 77.1024188,49.7355477 76.4583865,49.0632684 C75.8143542,48.390989 74.9259567,48.0075311 73.995,48 C72.4561995,48.1284399 71.0216257,48.8296681 69.975,49.965 C70.1457727,50.5188733 70.231746,51.0954002 70.23,51.675 L70.23,59.28 L68.64,59.28 L68.64,51.57 C68.6724787,50.6369912 68.3254536,49.7306496 67.6781595,49.0579159 C67.0308653,48.3851822 66.1385674,48.0034939 65.205,48 C63.7725278,48.1188116 62.4282487,48.7404743 61.41,49.755 L61.41,59.28 L59.82,59.28 L59.82,46.875 L61.41,46.875 L61.41,48.375 C62.578784,47.3525129 64.0589087,46.7551769 65.61,46.68 C67.1972533,46.7002215 68.6564378,47.5552124 69.45,48.93 C70.75172,47.5748184 72.5230473,46.7696697 74.4,46.68 C75.6940465,46.7258468 76.9142673,47.2941828 77.7820424,48.2552367 C78.6498175,49.2162906 79.0910534,50.4880042 79.005,51.78 L79.005,59.385 L77.415,59.385 L77.415,59.31 Z M83.1,53.295 C83.0337841,54.6270068 83.5371733,55.9243208 84.4844906,56.8630521 C85.4318079,57.8017835 86.7336513,58.2933404 88.065,58.215 C89.7741043,58.1896535 91.4320984,57.6282441 92.805,56.61 L92.805,58.11 C91.338242,59.0736723 89.6249362,59.594434 87.87,59.61 C86.1135235,59.6891671 84.4078454,59.0090536 83.1877468,57.7430218 C81.9676482,56.47699 81.3510046,54.7473534 81.495,52.995 C81.4343414,51.3339799 82.0436959,49.7182561 83.1861107,48.5109634 C84.3285255,47.3036707 85.9081634,46.6060889 87.57,46.575 C90,46.605 93,48.57 93,53.16 L93,53.295 L83.1,53.295 Z M87.48,48 C85.302175,48.0484824 83.4860177,49.6798376 83.205,51.84 L91.305,51.84 C91.2968476,49.728454 89.5914979,48.0164166 87.48,48 Z M105.825,59.31 L100.5,59.31 L100.5,40.86 L105.885,40.86 C108.421462,40.7420238 110.897576,41.65632 112.748697,43.3943958 C114.599818,45.1324716 115.668124,47.5461412 115.71,50.085 C115.71,55.485 111.345,59.31 105.885,59.31 L105.825,59.31 Z M105.54,42.45 L102.195,42.45 L102.195,57.72 L105.27,57.72 C110.16,57.72 113.895,54.72 113.895,50.085 C113.838178,47.9510584 112.915843,45.9320134 111.340012,44.4919812 C109.764181,43.051949 107.670413,42.3148065 105.54,42.45 Z M125.355,59.31 L125.355,57.99 C124.282757,58.9948851 122.879015,59.5713267 121.41,59.61 C120.396898,59.7234225 119.382397,59.4091722 118.610804,58.742926 C117.839211,58.0766798 117.380451,57.1188144 117.345,56.1 C117.328381,54.635307 118.149694,53.2897518 119.46,52.635 C121.336668,51.9117529 123.348016,51.604677 125.355,51.735 L125.355,50.91 C125.497973,50.1114239 125.254726,49.292285 124.699076,48.7011685 C124.143427,48.110052 123.340885,47.8166494 122.535,47.91 C121.033631,47.9644383 119.561027,48.3377025 118.215,49.005 L118.545,47.505 C119.880278,46.9240569 121.318877,46.6179721 122.775,46.605 C123.92349,46.4772543 125.067323,46.8818644 125.880039,47.7033509 C126.692755,48.5248375 127.085065,49.6729475 126.945,50.82 L126.945,59.31 L125.355,59.31 Z M125.355,53.07 C123.649245,52.9837701 121.942912,53.2282597 120.33,53.79 C119.485677,54.2056382 118.954843,55.068972 118.965,56.01 C118.965,57.51 120.165,58.23 121.575,58.23 C122.999905,58.1463494 124.344726,57.5433143 125.355,56.535 L125.355,53.07 Z M134.61,59.61 C133.02,59.61 130.845,58.785 130.845,55.44 L130.845,48.24 L129,48.24 L129,46.875 L130.92,46.875 L130.92,43.8 L132.51,43.8 L132.51,46.875 L137.01,46.875 L137.01,48.24 L132.51,48.24 L132.51,55.35 C132.51,57.57 133.83,58.215 135.015,58.215 C135.966241,58.2339027 136.894379,57.9209876 137.64,57.33 L137.64,58.83 C136.713862,59.31323 135.684626,59.565393 134.64,59.565 L134.61,59.61 Z M147,59.31 L147,57.99 C145.927757,58.9948851 144.524015,59.5713267 143.055,59.61 C142.051647,59.7056778 141.053247,59.3833542 140.29525,58.7190419 C139.537252,58.0547295 139.086756,57.1072338 139.049919,56.1 C139.04052,54.6372793 139.859711,53.2951995 141.165,52.635 C143.042037,51.9131405 145.053078,51.6061112 147.06,51.735 L147.06,50.91 C147.06,48.495 145.56,47.91 144.24,47.91 C142.74333,47.9638076 141.275488,48.3371613 139.935,49.005 L140.25,47.505 C141.585278,46.9240569 143.023877,46.6179721 144.48,46.605 C145.629531,46.4782489 146.774124,46.8825863 147.588966,47.7032691 C148.403807,48.5239518 148.799959,49.6714038 148.665,50.82 L148.665,59.31 L147,59.31 Z M147,53.07 C145.294245,52.9837701 143.587912,53.2282597 141.975,53.79 C141.130677,54.2056382 140.599843,55.068972 140.61,56.01 C140.61,57.51 141.81,58.23 143.22,58.23 C144.644905,58.1463494 145.989726,57.5433143 147,56.535 L147,53.07 Z M161.475,59.61 C159.083736,59.6990147 156.903283,58.249406 156.06,56.01 L157.56,55.245 C158.170239,56.9373788 159.780998,58.0613038 161.58,58.05 C162.563504,58.0753695 163.513883,57.6937413 164.206711,56.9952338 C164.89954,56.2967264 165.273397,55.3432643 165.24,54.36 C165.24,50.385 157.08,49.32 157.08,44.67 C157.116389,43.4955102 157.636289,42.3882097 158.516725,41.6100177 C159.397161,40.8318258 160.559933,40.4518611 161.73,40.56 C163.417183,40.5903953 164.97939,41.4557905 165.9,42.87 L164.64,43.875 C164.007326,42.8140466 162.874869,42.1515595 161.64,42.12 C160.938354,42.0661106 160.245629,42.3045716 159.725825,42.7789284 C159.206021,43.2532852 158.905352,43.9213641 158.895,44.625 C158.895,48.03 167.055001,49.395 167.055001,54.255 C167.055688,55.7042901 166.468909,57.0919702 165.428677,58.1011083 C164.388445,59.1102464 162.983602,59.6546562 161.535,59.61 L161.475,59.61 Z M175.905,59.6100692 C172.317623,59.5769352 169.43313,56.6478306 169.454997,53.0603684 C169.477115,49.4729061 172.397303,46.5793865 175.984816,46.5902759 C179.572329,46.6012268 182.474848,49.5124704 182.475,53.1 C182.467062,54.8345215 181.770403,56.494846 180.538285,57.7157118 C179.306167,58.9365776 177.639521,59.6179748 175.905,59.6100692 Z M175.905,48.03 C173.835544,47.9750463 171.939358,49.1801503 171.110442,51.0771382 C170.281525,52.9741261 170.685371,55.1842631 172.131579,56.6655298 C173.577786,58.1467965 175.777617,58.603457 177.693912,57.8202084 C179.610208,57.0369597 180.860377,55.1701781 180.855,53.1 C180.917307,51.7554158 180.420906,50.4449054 179.483431,49.4790224 C178.545957,48.5131394 177.250845,47.9778491 175.905,48 L175.905,48.03 Z M188.715,59.61 C186.945,59.61 184.965,58.785 184.965,55.215 L184.965,40.86 L186.555,40.86 L186.555,55.35 C186.555,57.795 187.95,58.185 188.91,58.185 C189.708221,58.1742081 190.481609,57.90589 191.115,57.42 L191.115,58.92 C190.385322,59.3433326 189.558537,59.5706984 188.715,59.58 L188.715,59.61 Z M201.15,59.31 L201.15,57.96 C200.003587,58.9508454 198.554163,59.5221511 197.04,59.58 C195.665924,59.6544408 194.325016,59.1410696 193.351973,58.1680267 C192.37893,57.1949837 191.865559,55.8540755 191.94,54.48 L191.94,46.875 L193.5,46.875 L193.5,54.615 C193.485414,55.5900557 193.878859,56.5268654 194.585284,57.1991082 C195.291709,57.8713511 196.246865,58.2178879 197.22,58.155 C198.687991,58.0922984 200.079314,57.4822569 201.12,56.445 L201.12,46.875 L202.71,46.875 L202.71,59.31 L201.15,59.31 Z M210.105,59.61 C208.5,59.61 206.34,58.785 206.34,55.44 L206.34,48.24 L204.42,48.24 L204.42,46.875 L206.34,46.875 L206.34,43.8 L207.93,43.8 L207.93,46.875 L212.43,46.875 L212.43,48.24 L207.93,48.24 L207.93,55.35 C207.93,57.57 209.25,58.215 210.435,58.215 C211.386241,58.2339027 212.314379,57.9209876 213.06,57.33 L213.06,58.83 C212.133862,59.31323 211.104626,59.565393 210.06,59.565 L210.105,59.61 Z M214.875,44.37 L213.45,42.945 L214.875,41.52 L216.3,42.945 L214.875,44.37 Z M214.08,46.875 L215.67,46.875 L215.67,59.31 L214.08,59.31 L214.08,46.875 Z M224.265,59.61 C220.675589,59.5851878 217.783556,56.6596662 217.799999,53.0702072 C217.816582,49.4807483 220.735409,46.581959 224.324896,46.5901552 C227.914384,46.5983862 230.82,49.510503 230.82,53.1 C230.795267,56.7026406 227.867726,59.61 224.265,59.61 Z M224.265,48.03 C222.194387,47.9688999 220.293688,49.169965 219.460001,51.0663129 C218.626313,52.9626608 219.026308,55.1751747 220.471193,56.6595859 C221.916078,58.143997 224.116994,58.6035427 226.035146,57.8213252 C227.953298,57.0391077 229.205221,55.1715074 229.2,53.1 C229.262122,51.7580582 228.767734,50.4499567 227.833567,49.484556 C226.8994,48.5191552 225.608259,47.982029 224.265,48 L224.265,48.03 Z M242.67,59.31 L242.67,51.57 C242.693092,50.5897787 242.303374,49.6449363 241.595945,48.9660323 C240.888515,48.2871283 239.928442,47.9366062 238.95,48 C237.484065,48.0586737 236.093018,48.6632441 235.05,49.695 L235.05,59.28 L233.46,59.28 L233.46,46.875 L235.05,46.875 L235.05,48.225 C236.196413,47.2341546 237.645837,46.6628489 239.16,46.605 C240.535306,46.530954 241.877445,47.0439244 242.852771,48.0163899 C243.828097,48.9888553 244.345007,50.3294826 244.275,51.705 L244.275,59.31 L242.67,59.31 Z M251.16,59.64 C249.658026,59.5937044 248.177802,59.2681568 246.795,58.68 L246.795,57.09 C248.186109,57.8089191 249.729105,58.1843815 251.295,58.185 C253.155,58.185 254.115,57.3 254.115,56.1 C254.115,55.44 253.77,54.855 252.09,54.18 C248.79,52.8 248.115,52.44 247.665,52.005 C247.120587,51.4888137 246.806997,50.7751267 246.795,50.025 C246.795,48.165 248.295,46.605 251.295,46.605 C252.541771,46.6192651 253.772277,46.8898743 254.91,47.4 L254.91,48.9 C253.719172,48.3304308 252.419822,48.0234978 251.1,48 C249.345,48 248.325,48.855 248.325,49.86 C248.325,50.58 248.655,51.105 250.44,51.81 C251.935222,52.2496495 253.345167,52.9394067 254.61,53.85 C255.285525,54.3767864 255.683298,55.183383 255.69,56.04 C255.69,58.485 253.32,59.64 251.19,59.64 L251.16,59.64 Z" id="Combined-Shape"></path>
            </g>
        </g>
    </g>
</svg>