<?xml version="1.0" encoding="UTF-8"?>
<svg width="244px" height="35px" viewBox="0 0 244 35" version="1.1" xmlns="http://www.w3.org/2000/svg" xmlns:xlink="http://www.w3.org/1999/xlink">
    <!-- Generator: Sketch 55.1 (78136) - https://sketchapp.com -->
    <title>1: Atoms / logos / Admiralty / Product / Digital Publications</title>
    <desc>Created with Sketch.</desc>
    <defs>
        <polygon id="path-1" points="0 35 243.586 35 243.586 0 0 0"></polygon>
    </defs>
    <g id="-" stroke="none" stroke-width="1" fill="none" fill-rule="evenodd">
        <g id="1_00119009-UKHO-Styles-1" transform="translate(-395.000000, -3477.000000)">
            <g id="1:-Atoms-/-logos-/-Admiralty-/-Product-/-Digital-Publications" transform="translate(395.000000, 3476.000000)">
                <g id="Group-38">
                    <polygon id="Fill-1" fill="#62B0A1" points="0 35.231 102.697 35.231 102.697 0.999 0 0.999"></polygon>
                    <path d="M35.4815,14.5271 L33.5255,19.9641 L37.4155,19.9641 L35.4815,14.5271 Z M39.6855,26.2951 L38.5025,22.9601 L32.4375,22.9601 L31.2525,26.2951 L27.5565,26.2951 L33.8635,10.0551 L37.0775,10.0551 L43.3815,26.2951 L39.6855,26.2951 Z" id="Fill-2" fill="#FFFFFF"></path>
                    <g id="Group-37" transform="translate(0.000000, 1.000000)">
                        <path d="M52.0079,12.2942 L49.3509,12.2942 L49.3509,22.0562 L51.5249,22.0562 C54.7619,22.0562 56.9859,19.8562 56.9859,17.1752 C56.9859,14.6142 55.3199,12.2942 52.0079,12.2942 M51.8149,25.2952 L45.8699,25.2952 L45.8699,9.0552 L52.0799,9.0552 C57.6139,9.0552 60.7059,13.3572 60.7059,17.1752 C60.7059,20.6782 58.0979,25.2952 51.8149,25.2952" id="Fill-3" fill="#FFFFFF"></path>
                        <path d="M68.6544,12.2942 L66.8664,12.2942 L66.8664,16.5952 L68.6784,16.5952 C69.9604,16.5952 71.2154,16.0632 71.2154,14.3972 C71.2154,13.3342 70.5874,12.2942 68.6544,12.2942 M68.8964,19.8332 L66.8664,19.8332 L66.8664,25.2952 L63.3864,25.2952 L63.3864,9.0552 L68.8474,9.0552 C72.7614,9.0552 74.8874,11.4242 74.8874,14.5652 C74.8874,17.7072 72.2784,19.8332 68.8964,19.8332" id="Fill-5" fill="#FFFFFF"></path>
                        <path d="M117.9093,23.6013 L116.3053,23.6013 L116.3053,30.9353 L117.7793,30.9353 C120.1263,30.9353 121.9173,29.5263 121.9173,27.2693 C121.9173,25.2513 120.2573,23.6013 117.9093,23.6013 M118.0423,31.7023 L115.4593,31.7023 L115.4593,22.8353 L118.0423,22.8353 C120.6523,22.8353 122.7593,24.7103 122.7593,27.2693 C122.7593,29.8713 120.6653,31.7023 118.0423,31.7023" id="Fill-7" fill="#FFFFFF"></path>
                        <mask id="mask-2" fill="white">
                            <use xlink:href="#path-1"></use>
                        </mask>
                        <g id="Clip-10"></g>
                        <path d="M124.406,31.7 L125.168,31.7 L125.168,25.725 L124.406,25.725 L124.406,31.7 Z M124.789,24.524 L124.102,23.84 L124.789,23.154 L125.475,23.84 L124.789,24.524 Z" id="Fill-9" fill="#FFFFFF" mask="url(#mask-2)"></path>
                        <path d="M129.0362,26.2307 C127.9152,26.2307 127.4532,27.1097 127.4532,27.7167 C127.4532,28.6157 128.2432,29.1547 129.1532,29.1547 C130.3652,29.1547 130.8242,28.2727 130.8242,27.7167 C130.8242,26.7667 130.0502,26.2307 129.0362,26.2307 L129.0362,26.2307 Z M128.4032,31.4777 C127.4782,32.0037 126.8592,32.4287 126.8592,33.1797 C126.8592,33.7477 127.4272,34.3407 129.1002,34.3407 C130.4972,34.3407 131.4062,33.8377 131.4062,32.9287 C131.4062,31.9787 130.0112,31.9387 128.4032,31.4777 L128.4032,31.4777 Z M130.9572,26.3877 C131.2482,26.6747 131.5612,27.2297 131.5612,27.7167 C131.5612,28.7997 130.5922,29.7897 129.2462,29.7897 C128.9032,29.7897 128.6132,29.7507 128.3242,29.6437 C127.9272,29.9207 127.7192,30.1187 127.7192,30.3307 C127.7192,30.6217 127.8352,30.6887 129.7462,31.0967 C131.3942,31.4517 132.1412,31.8457 132.1412,32.9547 C132.1412,34.0257 131.0112,34.9997 129.1282,34.9997 C126.6762,34.9997 126.1252,33.7987 126.1252,33.1797 C126.1252,32.4927 126.6252,31.7677 127.6642,31.2517 C127.1612,31.0677 126.9392,30.8167 126.9392,30.4347 C126.9392,30.0407 127.2682,29.7367 127.7582,29.4197 C127.0332,28.9857 126.7142,28.3767 126.7142,27.7167 C126.7142,26.5307 127.7192,25.5687 129.0612,25.5687 C129.3772,25.5687 129.6942,25.6207 130.0112,25.7257 L132.2482,25.7257 L132.2482,26.3877 L130.9572,26.3877 Z" id="Fill-11" fill="#FFFFFF" mask="url(#mask-2)"></path>
                        <path d="M133.385,31.7 L134.151,31.7 L134.151,25.725 L133.385,25.725 L133.385,31.7 Z M133.769,24.524 L133.084,23.84 L133.769,23.154 L134.454,23.84 L133.769,24.524 Z" id="Fill-12" fill="#FFFFFF" mask="url(#mask-2)"></path>
                        <path d="M138.0469,31.846 C137.2839,31.846 136.2409,31.451 136.2409,29.841 L136.2409,26.388 L135.3199,26.388 L135.3199,25.726 L136.2409,25.726 L136.2409,24.247 L137.0059,24.247 L137.0059,25.726 L139.1929,25.726 L139.1929,26.388 L137.0059,26.388 L137.0059,29.802 C137.0059,30.87 137.6389,31.174 138.2069,31.174 C138.7479,31.174 139.1439,31.001 139.4699,30.752 L139.4699,31.492 C139.0619,31.701 138.5749,31.846 138.0469,31.846" id="Fill-13" fill="#FFFFFF" mask="url(#mask-2)"></path>
                        <path d="M144.1329,28.7078 C143.3039,28.7078 142.2099,28.7868 141.7239,29.0528 C141.3039,29.2738 141.0649,29.6598 141.0649,30.1208 C141.0649,30.8308 141.6439,31.1878 142.3159,31.1878 C142.9349,31.1878 143.5549,30.8818 144.1329,30.3708 L144.1329,28.7078 Z M144.1329,31.7008 L144.1329,31.0678 C143.6739,31.4628 143.0419,31.8458 142.2379,31.8458 C141.1029,31.8458 140.2869,31.1598 140.2869,30.1578 C140.2869,29.6698 140.4729,28.9578 141.3039,28.4978 C141.8699,28.1788 142.9589,28.0618 144.1329,28.0618 L144.1329,27.6638 C144.1329,26.5038 143.4229,26.2548 142.7769,26.2548 C142.0529,26.2548 141.2219,26.5178 140.7109,26.7818 L140.8679,26.0298 C141.3949,25.8058 142.0779,25.5948 142.8959,25.5948 C144.1059,25.5948 144.8979,26.2428 144.8979,27.6238 L144.8979,31.7008 L144.1329,31.7008 Z" id="Fill-14" fill="#FFFFFF" mask="url(#mask-2)"></path>
                        <path d="M148.42,31.846 C147.559,31.846 146.613,31.451 146.613,29.737 L146.613,22.836 L147.375,22.836 L147.375,29.802 C147.375,30.974 148.053,31.16 148.508,31.16 C148.879,31.16 149.275,31.029 149.564,30.791 L149.564,31.53 C149.275,31.687 148.903,31.846 148.42,31.846" id="Fill-15" fill="#FFFFFF" mask="url(#mask-2)"></path>
                        <path d="M155.9542,23.6013 L154.0682,23.6013 L154.0682,27.4263 L155.9682,27.4263 C157.3382,27.4263 157.9432,26.4143 157.9432,25.5013 C157.9432,24.7243 157.5902,23.6013 155.9542,23.6013 M155.9422,28.1943 L154.0682,28.1943 L154.0682,31.7023 L153.2252,31.7023 L153.2252,22.8353 L155.8732,22.8353 C157.9812,22.8353 158.7852,24.2073 158.7852,25.4763 C158.7852,26.8323 157.8512,28.1943 155.9422,28.1943" id="Fill-16" fill="#FFFFFF" mask="url(#mask-2)"></path>
                        <path d="M164.3956,31.701 L164.3956,31.055 C163.9616,31.397 163.2806,31.834 162.4206,31.834 C161.1426,31.834 159.9716,31.002 159.9716,29.379 L159.9716,25.726 L160.7356,25.726 L160.7356,29.447 C160.7356,30.583 161.6286,31.147 162.5286,31.147 C163.3166,31.147 163.9326,30.74 164.3956,30.331 L164.3956,25.726 L165.1616,25.726 L165.1616,31.701 L164.3956,31.701 Z" id="Fill-17" fill="#FFFFFF" mask="url(#mask-2)"></path>
                        <path d="M169.4229,26.281 C168.9229,26.281 168.2639,26.532 167.7259,26.899 L167.7259,30.422 C168.0929,30.802 168.7379,31.16 169.4229,31.16 C170.9259,31.16 171.7579,29.975 171.7579,28.721 C171.7579,27.426 170.8729,26.281 169.4229,26.281 M169.4229,31.846 C169.0129,31.846 168.2249,31.649 167.6719,31.095 L167.6719,31.701 L166.9599,31.701 L166.9599,22.835 L167.7259,22.835 L167.7259,26.176 C168.2519,25.805 168.9349,25.595 169.4229,25.595 C171.2309,25.595 172.5329,27.095 172.5329,28.721 C172.5329,30.319 171.2819,31.846 169.4229,31.846" id="Fill-18" fill="#FFFFFF" mask="url(#mask-2)"></path>
                        <path d="M175.7471,31.846 C174.8911,31.846 173.9401,31.451 173.9401,29.737 L173.9401,22.836 L174.7051,22.836 L174.7051,29.802 C174.7051,30.974 175.3771,31.16 175.8391,31.16 C176.2061,31.16 176.6011,31.029 176.8931,30.791 L176.8931,31.53 C176.6011,31.687 176.2351,31.846 175.7471,31.846" id="Fill-19" fill="#FFFFFF" mask="url(#mask-2)"></path>
                        <path d="M178.023,31.7 L178.786,31.7 L178.786,25.725 L178.023,25.725 L178.023,31.7 Z M178.404,24.524 L177.718,23.84 L178.404,23.154 L179.09,23.84 L178.404,24.524 Z" id="Fill-20" fill="#FFFFFF" mask="url(#mask-2)"></path>
                        <path d="M183.3653,31.846 C181.5093,31.846 180.2183,30.319 180.2183,28.722 C180.2183,27.045 181.6273,25.595 183.3653,25.595 C184.1153,25.595 184.7353,25.778 185.3153,26.043 L185.3153,26.793 C184.6713,26.453 184.0913,26.281 183.3653,26.281 C181.9453,26.281 180.9953,27.439 180.9953,28.722 C180.9953,29.976 181.8643,31.16 183.3653,31.16 C184.1413,31.16 185.0003,30.779 185.3153,30.569 L185.3153,31.346 C184.6413,31.687 183.8953,31.846 183.3653,31.846" id="Fill-21" fill="#FFFFFF" mask="url(#mask-2)"></path>
                        <path d="M190.0264,28.7078 C189.1954,28.7078 188.1034,28.7868 187.6154,29.0528 C187.1944,29.2738 186.9554,29.6598 186.9554,30.1208 C186.9554,30.8308 187.5344,31.1878 188.2094,31.1878 C188.8284,31.1878 189.4474,30.8818 190.0264,30.3708 L190.0264,28.7078 Z M190.0264,31.7008 L190.0264,31.0678 C189.5624,31.4628 188.9324,31.8458 188.1304,31.8458 C186.9974,31.8458 186.1784,31.1598 186.1784,30.1578 C186.1784,29.6698 186.3664,28.9578 187.1944,28.4978 C187.7614,28.1788 188.8544,28.0618 190.0264,28.0618 L190.0264,27.6638 C190.0264,26.5038 189.3144,26.2548 188.6684,26.2548 C187.9464,26.2548 187.1154,26.5178 186.6014,26.7818 L186.7574,26.0298 C187.2864,25.8058 187.9714,25.5948 188.7884,25.5948 C190.0014,25.5948 190.7914,26.2428 190.7914,27.6238 L190.7914,31.7008 L190.0264,31.7008 Z" id="Fill-22" fill="#FFFFFF" mask="url(#mask-2)"></path>
                        <path d="M194.5372,31.846 C193.7752,31.846 192.7332,31.451 192.7332,29.841 L192.7332,26.388 L191.8112,26.388 L191.8112,25.726 L192.7332,25.726 L192.7332,24.247 L193.4962,24.247 L193.4962,25.726 L195.6862,25.726 L195.6862,26.388 L193.4962,26.388 L193.4962,29.802 C193.4962,30.87 194.1322,31.174 194.6972,31.174 C195.2392,31.174 195.6342,31.001 195.9652,30.752 L195.9652,31.492 C195.5542,31.701 195.0652,31.846 194.5372,31.846" id="Fill-23" fill="#FFFFFF" mask="url(#mask-2)"></path>
                        <path d="M197.079,31.7 L197.842,31.7 L197.842,25.725 L197.079,25.725 L197.079,31.7 Z M197.461,24.524 L196.777,23.84 L197.461,23.154 L198.146,23.84 L197.461,24.524 Z" id="Fill-24" fill="#FFFFFF" mask="url(#mask-2)"></path>
                        <path d="M202.4551,26.281 C200.9501,26.281 200.0831,27.467 200.0831,28.721 C200.0831,29.975 200.9501,31.16 202.4551,31.16 C203.9561,31.16 204.8261,29.975 204.8261,28.721 C204.8261,27.467 203.9561,26.281 202.4551,26.281 M202.4551,31.846 C200.5981,31.846 199.3041,30.319 199.3041,28.721 C199.3041,27.124 200.5981,25.595 202.4551,25.595 C204.3141,25.595 205.6021,27.124 205.6021,28.721 C205.6021,30.319 204.3141,31.846 202.4551,31.846" id="Fill-25" fill="#FFFFFF" mask="url(#mask-2)"></path>
                        <path d="M211.4952,31.701 L211.4952,27.983 C211.4952,26.846 210.5982,26.281 209.7012,26.281 C208.9112,26.281 208.2922,26.687 207.8302,27.095 L207.8302,31.701 L207.0682,31.701 L207.0682,25.726 L207.8302,25.726 L207.8302,26.374 C208.2662,26.03 208.9512,25.595 209.8082,25.595 C211.0842,25.595 212.2562,26.424 212.2562,28.048 L212.2562,31.701 L211.4952,31.701 Z" id="Fill-26" fill="#FFFFFF" mask="url(#mask-2)"></path>
                        <path d="M215.7462,31.8592 C214.8992,31.8592 214.0052,31.5552 213.6502,31.3972 L213.6502,30.6352 C214.2002,30.9352 215.0072,31.1602 215.8102,31.1602 C216.7082,31.1602 217.1692,30.7402 217.1692,30.1582 C217.1692,29.8422 216.9962,29.5652 216.1912,29.2342 C214.6112,28.5762 214.2812,28.4032 214.0712,28.1942 C213.8602,27.9832 213.6502,27.6642 213.6502,27.2422 C213.6502,26.3482 214.3862,25.5942 215.7972,25.5942 C216.5232,25.5942 216.9572,25.7652 217.5342,25.9772 L217.5342,26.7262 C216.8652,26.4372 216.3382,26.2682 215.7192,26.2682 C214.8742,26.2682 214.3862,26.6742 214.3862,27.1632 C214.3862,27.5052 214.5422,27.7562 215.4012,28.0992 C216.8652,28.6942 217.0492,28.7862 217.4072,29.0782 C217.7332,29.3412 217.9162,29.7362 217.9162,30.1312 C217.9162,31.3052 216.7862,31.8592 215.7462,31.8592" id="Fill-27" fill="#FFFFFF" mask="url(#mask-2)"></path>
                        <path d="M122.043,11.7229 C121.461,11.7229 120.499,11.6959 119.946,11.6669 C120.731,9.6819 121.342,7.8749 122.132,6.0699 C122.918,7.8749 123.998,11.0829 124.229,11.6669 C123.413,11.6959 122.83,11.7229 122.043,11.7229 M123.939,2.5109 L120.819,2.5109 C118.895,7.8449 117.033,12.7169 115.286,17.1179 L117.966,17.1179 C118.137,16.6239 118.519,15.5439 119.157,13.8819 C120.063,13.8519 121.165,13.8229 122.043,13.8229 C123.091,13.8229 123.939,13.8519 124.985,13.8819 C125.365,14.9309 125.772,15.9799 126.152,17.1179 L129.501,17.1179 C127.402,12.0159 125.567,7.1469 123.939,2.5109" id="Fill-28" fill="#FFFFFF" mask="url(#mask-2)"></path>
                        <path d="M137.8497,14.8435 L135.5457,14.8435 C135.4587,13.1815 135.4587,11.6395 135.4587,9.9445 C135.4587,8.2825 135.4587,6.4755 135.5457,4.7835 L137.8497,4.7835 C140.3797,4.7835 142.5087,6.4445 142.5087,9.8015 C142.5087,13.1815 140.3797,14.8435 137.8497,14.8435 M137.8187,2.5105 L132.4317,2.5105 C132.4907,4.9595 132.5207,7.4965 132.5207,9.9155 C132.5207,12.3645 132.4907,14.6995 132.4317,17.1185 L137.8187,17.1185 C143.9947,17.1185 145.7407,12.7735 145.7407,9.8275 C145.7407,6.8545 143.9947,2.5105 137.8187,2.5105" id="Fill-29" fill="#FFFFFF" mask="url(#mask-2)"></path>
                        <path d="M151.5626,17.118 C151.5036,15.338 151.4796,13.095 151.4796,11.433 C151.4796,9.773 151.5036,8.781 151.5626,7.117 C153.1086,9.274 154.5326,11.462 155.8436,13.678 L156.2526,13.678 C157.4756,11.723 158.9896,9.419 160.6476,6.824 C160.6776,8.457 160.7376,10.033 160.7376,11.578 C160.7376,13.472 160.7086,15.515 160.6476,17.118 L163.7386,17.118 C163.6796,14.699 163.6186,12.309 163.6186,9.856 C163.6186,7.437 163.6796,4.958 163.7386,2.511 L160.5646,2.511 C159.1646,4.928 157.7386,7.203 156.4266,9.072 C154.8846,6.942 153.4576,4.783 152.1486,2.511 L148.8866,2.511 C148.9436,5.046 149.0326,7.554 149.0326,9.975 C149.0326,12.424 148.9436,14.787 148.8866,17.118 L151.5626,17.118 Z" id="Fill-30" fill="#FFFFFF" mask="url(#mask-2)"></path>
                        <path d="M171.7432,17.118 C171.6572,15.63 171.6572,12.22 171.6572,9.773 C171.6572,7.466 171.6572,4.025 171.7432,2.511 L168.5992,2.511 C168.6882,4.025 168.6882,7.466 168.6882,9.773 C168.6882,12.22 168.6882,15.63 168.5992,17.118 L171.7432,17.118 Z" id="Fill-31" fill="#FFFFFF" mask="url(#mask-2)"></path>
                        <path d="M181.501,9.1868 L179.637,9.1868 C179.604,8.4298 179.604,7.6698 179.604,6.9118 C179.604,6.1548 179.604,5.3968 179.637,4.6368 L181.501,4.6368 C182.869,4.6368 184.064,5.3378 184.064,6.9118 C184.064,8.4888 182.869,9.1868 181.501,9.1868 M184.584,10.7898 C186.419,9.9438 187.062,8.1958 187.062,6.9118 C187.062,5.1638 185.836,2.5108 181.996,2.5108 L176.606,2.5108 C176.668,5.0458 176.723,7.5538 176.723,9.9758 C176.723,12.4238 176.668,14.7868 176.606,17.1178 L179.637,17.1178 C179.604,16.0678 179.577,14.9878 179.577,13.9388 C179.577,13.0658 179.604,12.1898 179.637,11.3168 L181.501,11.3168 C182.984,13.4728 184.264,15.4578 185.226,17.1178 L188.78,17.1178 C187.236,14.9878 185.811,12.8328 184.584,10.7898" id="Fill-32" fill="#FFFFFF" mask="url(#mask-2)"></path>
                        <path d="M197.3028,11.7229 C196.7228,11.7229 195.7598,11.6949 195.2068,11.6669 C195.9918,9.6819 196.6058,7.8749 197.3898,6.0689 C198.1738,7.8749 199.2538,11.0829 199.4888,11.6669 C198.6728,11.6949 198.0878,11.7229 197.3028,11.7229 M199.1958,2.5109 L196.0788,2.5109 C194.1578,7.8449 192.2948,12.7169 190.5448,17.1179 L193.2298,17.1179 C193.3988,16.6219 193.7788,15.5419 194.4168,13.8819 C195.3238,13.8519 196.4308,13.8199 197.3028,13.8199 C198.3508,13.8199 199.1958,13.8519 200.2408,13.8819 C200.6238,14.9309 201.0298,15.9799 201.4078,17.1179 L204.7548,17.1179 C202.6618,12.0149 200.8238,7.1459 199.1958,2.5109" id="Fill-33" fill="#FFFFFF" mask="url(#mask-2)"></path>
                        <path d="M217.046,17.118 C215.505,17.059 213.843,17.059 212.269,17.059 C210.697,17.059 209.187,17.059 207.554,17.118 C207.611,14.667 207.669,12.163 207.669,9.709 C207.669,7.292 207.611,4.928 207.554,2.511 L210.697,2.511 C210.641,4.783 210.611,7.407 210.611,9.709 C210.611,11.519 210.641,13.036 210.697,14.843 L213.553,14.843 C214.775,14.843 216.113,14.843 217.046,14.787 L217.046,17.118 Z" id="Fill-34" fill="#FFFFFF" mask="url(#mask-2)"></path>
                        <path d="M228.6573,4.8118 C227.4023,4.7548 225.8593,4.7248 224.3753,4.7248 C224.3463,6.5618 224.3143,8.5158 224.3143,10.3518 C224.3143,12.5998 224.3463,14.8718 224.3753,17.1178 L221.2293,17.1178 C221.2873,14.8718 221.3173,12.7168 221.3173,10.4118 C221.3173,8.6008 221.2873,6.5058 221.2293,4.7248 C219.6573,4.7248 218.0833,4.7548 216.9483,4.8118 L216.9483,2.5108 C218.9003,2.5668 220.8503,2.5978 222.7993,2.5978 C224.7543,2.5978 226.7043,2.5668 228.6573,2.5108 L228.6573,4.8118 Z" id="Fill-35" fill="#FFFFFF" mask="url(#mask-2)"></path>
                        <path d="M238.4903,11.9436 C238.4593,12.7326 238.4593,13.3746 238.4593,13.9256 L238.5483,17.0166 L235.4023,17.0166 C235.4323,16.2866 235.4633,15.0346 235.4633,13.7196 C235.4933,12.3516 235.4933,10.8646 235.4933,10.5446 C234.0653,8.0076 232.1983,5.1766 230.3103,2.4076 L233.9763,2.4076 C234.9953,4.3616 236.1033,6.2286 237.2973,7.9476 C238.5753,6.1716 239.7143,4.2756 240.7913,2.4076 L243.5863,2.4076 C241.4903,5.5866 239.5963,8.5026 238.5193,10.5156 C238.5193,10.6916 238.5193,11.1576 238.4903,11.9436" id="Fill-36" fill="#FFFFFF" mask="url(#mask-2)"></path>
                    </g>
                </g>
            </g>
        </g>
    </g>
</svg>