<?xml version="1.0" encoding="UTF-8"?>
<svg width="250px" height="35px" viewBox="0 0 250 35" version="1.1" xmlns="http://www.w3.org/2000/svg" xmlns:xlink="http://www.w3.org/1999/xlink">
    <!-- Generator: Sketch 55.1 (78136) - https://sketchapp.com -->
    <title>1: Atoms / logos / Admiralty / Product / e-nautical publications</title>
    <desc>Created with Sketch.</desc>
    <defs>
        <polygon id="path-1" points="0.5445 0.4614 14.129 0.4614 14.129 15.3884 0.5445 15.3884"></polygon>
        <polygon id="path-3" points="0 35 249.129 35 249.129 0 0 0"></polygon>
    </defs>
    <g id="-" stroke="none" stroke-width="1" fill="none" fill-rule="evenodd">
        <g id="1_00119009-UKHO-Styles-1" transform="translate(-703.000000, -3131.000000)">
            <g id="1:-Atoms-/-logos-/-Admiralty-/-Product-/-e-nautical-publications" transform="translate(703.000000, 3131.000000)">
                <g id="Group-50">
                    <polygon id="Fill-1" fill="#6B68A0" points="0.001 35 105.001 35 105.001 0 0.001 0"></polygon>
                    <g id="Group-49">
                        <path d="M124.7729,11.9798 C124.1779,11.9798 123.1929,11.9538 122.6269,11.9228 C123.4319,9.8948 124.0559,8.0468 124.8659,6.2048 C125.6689,8.0468 126.7699,11.3248 127.0089,11.9228 C126.1739,11.9538 125.5799,11.9798 124.7729,11.9798 M126.7129,2.5668 L123.5199,2.5668 C121.5539,8.0178 119.6469,12.9948 117.8599,17.4918 L120.6029,17.4918 C120.7769,16.9888 121.1669,15.8838 121.8199,14.1868 C122.7469,14.1548 123.8759,14.1268 124.7729,14.1268 C125.8449,14.1268 126.7129,14.1548 127.7819,14.1868 C128.1689,15.2568 128.5879,16.3308 128.9759,17.4918 L132.4029,17.4918 C130.2569,12.2788 128.3779,7.3038 126.7129,2.5668" id="Fill-2" fill="#092648"></path>
                        <path d="M140.9458,15.1682 L138.5878,15.1682 C138.4978,13.4692 138.4978,11.8952 138.4978,10.1622 C138.4978,8.4642 138.4978,6.6192 138.5878,4.8892 L140.9458,4.8892 C143.5338,4.8892 145.7118,6.5862 145.7118,10.0172 C145.7118,13.4692 143.5338,15.1682 140.9458,15.1682 M140.9108,2.5672 L135.4008,2.5672 C135.4598,5.0682 135.4928,7.6632 135.4928,10.1322 C135.4928,12.6362 135.4598,15.0202 135.4008,17.4912 L140.9108,17.4912 C147.2308,17.4912 149.0198,13.0522 149.0198,10.0442 C149.0198,7.0052 147.2308,2.5672 140.9108,2.5672" id="Fill-4" fill="#092648"></path>
                        <path d="M154.9741,17.492 C154.9141,15.674 154.8891,13.382 154.8891,11.686 C154.8891,9.985 154.9141,8.972 154.9741,7.273 C156.5571,9.477 158.0141,11.712 159.3561,13.976 L159.7721,13.976 C161.0251,11.979 162.5741,9.627 164.2731,6.975 C164.3021,8.643 164.3621,10.252 164.3621,11.831 C164.3621,13.766 164.3311,15.855 164.2731,17.492 L167.4311,17.492 C167.3711,15.021 167.3091,12.577 167.3091,10.073 C167.3091,7.602 167.3711,5.069 167.4311,2.568 L164.1861,2.568 C162.7521,5.038 161.2941,7.361 159.9511,9.268 C158.3721,7.094 156.9151,4.888 155.5761,2.568 L152.2361,2.568 C152.2961,5.159 152.3871,7.72 152.3871,10.194 C152.3871,12.695 152.2961,15.112 152.2361,17.492 L154.9741,17.492 Z" id="Fill-6" fill="#092648"></path>
                        <path d="M175.6225,17.492 C175.5345,15.971 175.5345,12.488 175.5345,9.985 C175.5345,7.63 175.5345,4.116 175.6225,2.568 L172.4035,2.568 C172.4965,4.116 172.4965,7.63 172.4965,9.985 C172.4965,12.488 172.4965,15.971 172.4035,17.492 L175.6225,17.492 Z" id="Fill-8" fill="#092648"></path>
                        <path d="M185.6049,9.3875 L183.6989,9.3875 C183.6649,8.6155 183.6649,7.8385 183.6649,7.0645 C183.6649,6.2905 183.6649,5.5155 183.6989,4.7385 L185.6049,4.7385 C187.0069,4.7385 188.2269,5.4555 188.2269,7.0645 C188.2269,8.6745 187.0069,9.3875 185.6049,9.3875 M188.7599,11.0265 C190.6399,10.1615 191.2939,8.3755 191.2939,7.0645 C191.2939,5.2775 190.0429,2.5665 186.1129,2.5665 L180.5969,2.5665 C180.6619,5.1585 180.7159,7.7195 180.7159,10.1945 C180.7159,12.6945 180.6619,15.1115 180.5969,17.4915 L183.6989,17.4915 C183.6649,16.4185 183.6399,15.3175 183.6399,14.2455 C183.6399,13.3505 183.6649,12.4585 183.6989,11.5635 L185.6049,11.5635 C187.1249,13.7665 188.4329,15.7945 189.4169,17.4915 L193.0549,17.4915 C191.4739,15.3175 190.0159,13.1135 188.7599,11.0265" id="Fill-10" fill="#092648"></path>
                        <path d="M201.7739,11.9798 C201.1779,11.9798 200.1959,11.9518 199.6299,11.9228 C200.4299,9.8948 201.0589,8.0468 201.8619,6.2028 C202.6659,8.0468 203.7709,11.3248 204.0069,11.9228 C203.1749,11.9518 202.5779,11.9798 201.7739,11.9798 M203.7109,2.5668 L200.5219,2.5668 C198.5579,8.0178 196.6529,12.9948 194.8579,17.4918 L197.6059,17.4918 C197.7799,16.9868 198.1699,15.8808 198.8209,14.1838 C199.7469,14.1548 200.8809,14.1218 201.7739,14.1218 C202.8459,14.1218 203.7109,14.1548 204.7789,14.1838 C205.1739,15.2568 205.5869,16.3308 205.9749,17.4918 L209.3979,17.4918 C207.2569,12.2788 205.3779,7.3028 203.7109,2.5668" id="Fill-12" fill="#092648"></path>
                        <path d="M221.9741,17.492 C220.3971,17.433 218.6991,17.433 217.0881,17.433 C215.4791,17.433 213.9291,17.433 212.2611,17.492 C212.3221,14.99 212.3821,12.429 212.3821,9.924 C212.3821,7.45 212.3221,5.038 212.2611,2.568 L215.4791,2.568 C215.4201,4.888 215.3891,7.57 215.3891,9.924 C215.3891,11.772 215.4201,13.32 215.4791,15.169 L218.4011,15.169 C219.6491,15.169 221.0211,15.169 221.9741,15.112 L221.9741,17.492 Z" id="Fill-14" fill="#092648"></path>
                        <path d="M233.8549,4.9178 C232.5689,4.8608 230.9919,4.8288 229.4719,4.8288 C229.4439,6.7068 229.4099,8.7038 229.4099,10.5788 C229.4099,12.8758 229.4439,15.1968 229.4719,17.4928 L226.2559,17.4928 C226.3149,15.1968 226.3449,12.9948 226.3449,10.6408 C226.3449,8.7908 226.3149,6.6478 226.2559,4.8288 C224.6469,4.8288 223.0359,4.8608 221.8729,4.9178 L221.8729,2.5668 C223.8719,2.6248 225.8689,2.6548 227.8609,2.6548 C229.8629,2.6548 231.8529,2.6248 233.8549,2.5668 L233.8549,4.9178 Z" id="Fill-16" fill="#092648"></path>
                        <g id="Group-20" transform="translate(235.000000, 2.000000)">
                            <mask id="mask-2" fill="white">
                                <use xlink:href="#path-1"></use>
                            </mask>
                            <g id="Clip-19"></g>
                            <path d="M8.9165,10.2044 C8.8845,11.0104 8.8845,11.6674 8.8845,12.2294 L8.9735,15.3884 L5.7535,15.3884 C5.7885,14.6434 5.8195,13.3644 5.8195,12.0194 C5.8475,10.6214 5.8475,9.1034 5.8475,8.7744 C4.3885,6.1824 2.4795,3.2924 0.5445,0.4614 L4.2965,0.4614 C5.3395,2.4584 6.4745,4.3644 7.6945,6.1224 C9.0015,4.3074 10.1675,2.3704 11.2695,0.4614 L14.1295,0.4614 C11.9815,3.7114 10.0475,6.6894 8.9425,8.7464 C8.9425,8.9244 8.9425,9.4014 8.9165,10.2044" id="Fill-18" fill="#092648" mask="url(#mask-2)"></path>
                        </g>
                        <path d="M30.4048,16.6067 C29.0428,16.6067 28.1748,17.4997 27.9768,18.6627 L32.6828,18.6627 C32.4858,17.1787 31.5448,16.6067 30.4048,16.6067 L30.4048,16.6067 Z M27.9028,20.8917 C27.9518,22.4037 29.1168,23.4427 31.1478,23.4427 C32.6828,23.4427 34.7158,22.7247 35.9038,21.7597 L35.9038,24.6817 C34.6168,25.5237 32.4858,26.0917 30.5288,26.0917 C26.7138,26.0917 24.3608,23.6897 24.3608,20.0507 C24.3608,16.9557 26.6388,14.0067 30.4288,14.0067 C33.0068,14.0067 36.1768,15.2477 36.2018,20.8917 L27.9028,20.8917 Z" id="Fill-21" fill="#FFFFFE"></path>
                        <mask id="mask-4" fill="white">
                            <use xlink:href="#path-3"></use>
                        </mask>
                        <g id="Clip-24"></g>
                        <polygon id="Fill-23" fill="#FFFFFE" mask="url(#mask-4)" points="38.826 21.017 46.975 21.017 46.975 18.144 38.826 18.144"></polygon>
                        <polygon id="Fill-25" fill="#FFFFFE" mask="url(#mask-4)" points="61.8374 25.7454 53.3654 14.8994 53.3654 25.7454 49.7994 25.7454 49.7994 9.1044 53.3654 9.1044 61.6144 19.6534 61.6144 9.1044 65.1834 9.1044 65.1834 25.7454"></polygon>
                        <path d="M73.7612,12.4085 L71.9282,12.4085 L71.9282,16.8215 L73.7862,16.8215 C75.1012,16.8215 76.3892,16.2765 76.3892,14.5645 C76.3892,13.4745 75.7442,12.4085 73.7612,12.4085 M74.0102,20.1425 L71.9282,20.1425 L71.9282,25.7445 L68.3572,25.7445 L68.3572,9.0875 L73.9592,9.0875 C77.9752,9.0875 80.1572,11.5155 80.1572,14.7395 C80.1572,17.9615 77.4792,20.1425 74.0102,20.1425" id="Fill-26" fill="#FFFFFE" mask="url(#mask-4)"></path>
                        <path d="M119.7114,26.9348 C118.5224,26.9348 117.7354,27.8958 117.6024,28.8298 L121.5914,28.8298 C121.5234,27.8828 120.8884,26.9348 119.7114,26.9348 L119.7114,26.9348 Z M117.5474,29.5328 C117.6274,30.8978 118.3854,31.9518 119.9954,31.9518 C120.9164,31.9518 121.6334,31.6428 122.3354,31.1668 L122.3354,31.9388 C121.6594,32.3998 120.7384,32.6558 119.8994,32.6558 C118.1684,32.6558 116.7634,31.5208 116.7634,29.3948 C116.7634,27.8418 117.8714,26.2338 119.7514,26.2338 C120.9694,26.2338 122.4434,27.2068 122.4434,29.4648 L122.4434,29.5328 L117.5474,29.5328 Z" id="Fill-27" fill="#092648" mask="url(#mask-4)"></path>
                        <polygon id="Fill-28" fill="#092648" mask="url(#mask-4)" points="123.877 29.478 128.327 29.478 128.327 28.735 123.877 28.735"></polygon>
                        <polygon id="Fill-29" fill="#092648" mask="url(#mask-4)" points="136.9897 32.4978 130.9257 24.7948 130.9257 32.4978 130.0607 32.4978 130.0607 23.4008 130.9257 23.4008 136.9897 31.1028 136.9897 23.4008 137.8557 23.4008 137.8557 32.4978"></polygon>
                        <path d="M142.8344,29.4251 C141.9814,29.4251 140.8584,29.5071 140.3584,29.7761 C139.9244,30.0071 139.6804,30.4001 139.6804,30.8741 C139.6804,31.6041 140.2764,31.9701 140.9674,31.9701 C141.6034,31.9701 142.2394,31.6581 142.8344,31.1321 L142.8344,29.4251 Z M142.8344,32.4991 L142.8344,31.8481 C142.3614,32.2531 141.7114,32.6471 140.8864,32.6471 C139.7224,32.6471 138.8834,31.9431 138.8834,30.9151 C138.8834,30.4131 139.0734,29.6831 139.9244,29.2071 C140.5064,28.8831 141.6314,28.7621 142.8344,28.7621 L142.8344,28.3541 C142.8344,27.1651 142.1044,26.9091 141.4404,26.9091 C140.6964,26.9091 139.8444,27.1771 139.3154,27.4491 L139.4784,26.6771 C140.0204,26.4471 140.7244,26.2311 141.5634,26.2311 C142.8084,26.2311 143.6204,26.8951 143.6204,28.3161 L143.6204,32.4991 L142.8344,32.4991 Z" id="Fill-30" fill="#092648" mask="url(#mask-4)"></path>
                        <path d="M149.5473,32.4978 L149.5473,31.8348 C149.1013,32.1858 148.3973,32.6338 147.5173,32.6338 C146.2033,32.6338 144.9983,31.7798 144.9983,30.1158 L144.9983,26.3658 L145.7843,26.3658 L145.7843,30.1828 C145.7843,31.3478 146.7053,31.9298 147.6243,31.9298 C148.4393,31.9298 149.0733,31.5098 149.5473,31.0908 L149.5473,26.3658 L150.3323,26.3658 L150.3323,32.4978 L149.5473,32.4978 Z" id="Fill-31" fill="#092648" mask="url(#mask-4)"></path>
                        <path d="M153.7827,32.6468 C152.9987,32.6468 151.9287,32.2408 151.9287,30.5898 L151.9287,27.0428 L150.9807,27.0428 L150.9807,26.3648 L151.9287,26.3648 L151.9287,24.8498 L152.7127,24.8498 L152.7127,26.3648 L154.9597,26.3648 L154.9597,27.0428 L152.7127,27.0428 L152.7127,30.5478 C152.7127,31.6458 153.3647,31.9568 153.9467,31.9568 C154.4997,31.9568 154.9077,31.7808 155.2437,31.5218 L155.2437,32.2808 C154.8257,32.4988 154.3237,32.6468 153.7827,32.6468" id="Fill-32" fill="#092648" mask="url(#mask-4)"></path>
                        <path d="M155.839,32.498 L156.624,32.498 L156.624,26.366 L155.839,26.366 L155.839,32.498 Z M156.234,25.133 L155.528,24.429 L156.234,23.726 L156.936,24.429 L156.234,25.133 Z" id="Fill-33" fill="#092648" mask="url(#mask-4)"></path>
                        <path d="M160.6841,32.6468 C158.7771,32.6468 157.4501,31.0758 157.4501,29.4388 C157.4501,27.7198 158.8991,26.2308 160.6841,26.2308 C161.4561,26.2308 162.0931,26.4188 162.6891,26.6908 L162.6891,27.4618 C162.0251,27.1108 161.4291,26.9338 160.6841,26.9338 C159.2231,26.9338 158.2501,28.1258 158.2501,29.4388 C158.2501,30.7238 159.1431,31.9428 160.6841,31.9428 C161.4841,31.9428 162.3651,31.5498 162.6891,31.3338 L162.6891,32.1328 C161.9981,32.4848 161.2281,32.6468 160.6841,32.6468" id="Fill-34" fill="#092648" mask="url(#mask-4)"></path>
                        <path d="M167.2905,29.4251 C166.4375,29.4251 165.3125,29.5071 164.8115,29.7761 C164.3785,30.0071 164.1345,30.4001 164.1345,30.8741 C164.1345,31.6041 164.7315,31.9701 165.4225,31.9701 C166.0575,31.9701 166.6935,31.6581 167.2905,31.1321 L167.2905,29.4251 Z M167.2905,32.4991 L167.2905,31.8481 C166.8155,32.2531 166.1655,32.6471 165.3395,32.6471 C164.1745,32.6471 163.3365,31.9431 163.3365,30.9151 C163.3365,30.4131 163.5255,29.6831 164.3785,29.2071 C164.9625,28.8831 166.0835,28.7621 167.2905,28.7621 L167.2905,28.3541 C167.2905,27.1651 166.5585,26.9091 165.8945,26.9091 C165.1505,26.9091 164.2985,27.1771 163.7695,27.4491 L163.9325,26.6771 C164.4735,26.4471 165.1775,26.2311 166.0165,26.2311 C167.2625,26.2311 168.0725,26.8951 168.0725,28.3161 L168.0725,32.4991 L167.2905,32.4991 Z" id="Fill-35" fill="#092648" mask="url(#mask-4)"></path>
                        <path d="M171.3774,32.6468 C170.4964,32.6468 169.5224,32.2408 169.5224,30.4808 L169.5224,23.4008 L170.3084,23.4008 L170.3084,30.5478 C170.3084,31.7538 170.9964,31.9428 171.4714,31.9428 C171.8504,31.9428 172.2574,31.8068 172.5544,31.5638 L172.5544,32.3228 C172.2574,32.4848 171.8774,32.6468 171.3774,32.6468" id="Fill-36" fill="#092648" mask="url(#mask-4)"></path>
                        <path d="M178.3569,24.178 L176.4209,24.178 L176.4209,28.104 L178.3709,28.104 C179.7789,28.104 180.4019,27.062 180.4019,26.126 C180.4019,25.329 180.0379,24.178 178.3569,24.178 M178.3439,28.889 L176.4209,28.889 L176.4209,32.49 L175.5549,32.49 L175.5549,23.392 L178.2769,23.392 C180.4419,23.392 181.2679,24.801 181.2679,26.101 C181.2679,27.494 180.3059,28.889 178.3439,28.889" id="Fill-37" fill="#092648" mask="url(#mask-4)"></path>
                        <path d="M186.2065,32.4895 L186.2065,31.8265 C185.7605,32.1775 185.0565,32.6255 184.1775,32.6255 C182.8625,32.6255 181.6575,31.7725 181.6575,30.1075 L181.6575,26.3575 L182.4435,26.3575 L182.4435,30.1745 C182.4435,31.3385 183.3635,31.9215 184.2835,31.9215 C185.0965,31.9215 185.7325,31.5025 186.2065,31.0825 L186.2065,26.3575 L186.9915,26.3575 L186.9915,32.4895 L186.2065,32.4895 Z" id="Fill-38" fill="#092648" mask="url(#mask-4)"></path>
                        <path d="M190.9575,26.9256 C190.4425,26.9256 189.7665,27.1816 189.2105,27.5606 L189.2105,31.1756 C189.5905,31.5706 190.2525,31.9346 190.9575,31.9346 C192.5005,31.9346 193.3535,30.7176 193.3535,29.4306 C193.3535,28.1036 192.4455,26.9256 190.9575,26.9256 M190.9575,32.6386 C190.5365,32.6386 189.7255,32.4366 189.1575,31.8676 L189.1575,32.4886 L188.4255,32.4886 L188.4255,23.3926 L189.2105,23.3926 L189.2105,26.8176 C189.7525,26.4376 190.4565,26.2206 190.9575,26.2206 C192.8115,26.2206 194.1525,27.7646 194.1525,29.4306 C194.1525,31.0686 192.8665,32.6386 190.9575,32.6386" id="Fill-39" fill="#092648" mask="url(#mask-4)"></path>
                        <path d="M196.6938,32.6389 C195.8138,32.6389 194.8398,32.2329 194.8398,30.4719 L194.8398,23.3919 L195.6258,23.3919 L195.6258,30.5419 C195.6258,31.7449 196.3158,31.9349 196.7898,31.9349 C197.1688,31.9349 197.5748,31.7989 197.8718,31.5559 L197.8718,32.3129 C197.5748,32.4749 197.1958,32.6389 196.6938,32.6389" id="Fill-40" fill="#092648" mask="url(#mask-4)"></path>
                        <path d="M198.481,32.489 L199.267,32.489 L199.267,26.357 L198.481,26.357 L198.481,32.489 Z M198.873,25.126 L198.168,24.421 L198.873,23.717 L199.578,24.421 L198.873,25.126 Z" id="Fill-41" fill="#092648" mask="url(#mask-4)"></path>
                        <path d="M203.3003,32.6389 C201.3913,32.6389 200.0643,31.0679 200.0643,29.4299 C200.0643,27.7099 201.5133,26.2219 203.3003,26.2219 C204.0723,26.2219 204.7073,26.4099 205.3033,26.6819 L205.3033,27.4539 C204.6393,27.1019 204.0433,26.9259 203.3003,26.9259 C201.8373,26.9259 200.8623,28.1179 200.8623,29.4299 C200.8623,30.7159 201.7573,31.9349 203.3003,31.9349 C204.0983,31.9349 204.9793,31.5419 205.3033,31.3249 L205.3033,32.1249 C204.6123,32.4749 203.8423,32.6389 203.3003,32.6389" id="Fill-42" fill="#092648" mask="url(#mask-4)"></path>
                        <path d="M209.8764,29.4163 C209.0234,29.4163 207.8994,29.4963 207.3984,29.7703 C206.9664,29.9993 206.7224,30.3913 206.7224,30.8653 C206.7224,31.5973 207.3164,31.9613 208.0094,31.9613 C208.6444,31.9613 209.2814,31.6493 209.8764,31.1213 L209.8764,29.4163 Z M209.8764,32.4903 L209.8764,31.8393 C209.4024,32.2463 208.7534,32.6403 207.9274,32.6403 C206.7634,32.6403 205.9224,31.9343 205.9224,30.9073 C205.9224,30.4043 206.1134,29.6743 206.9664,29.1983 C207.5494,28.8753 208.6724,28.7533 209.8764,28.7533 L209.8764,28.3463 C209.8764,27.1563 209.1464,26.8983 208.4814,26.8983 C207.7374,26.8983 206.8854,27.1703 206.3564,27.4403 L206.5194,26.6683 C207.0614,26.4383 207.7654,26.2203 208.6044,26.2203 C209.8494,26.2203 210.6614,26.8843 210.6614,28.3073 L210.6614,32.4903 L209.8764,32.4903 Z" id="Fill-43" fill="#092648" mask="url(#mask-4)"></path>
                        <path d="M214.2339,32.6389 C213.4489,32.6389 212.3789,32.2329 212.3789,30.5799 L212.3789,27.0339 L211.4299,27.0339 L211.4299,26.3569 L212.3789,26.3569 L212.3789,24.8409 L213.1639,24.8409 L213.1639,26.3569 L215.4109,26.3569 L215.4109,27.0339 L213.1639,27.0339 L213.1639,30.5419 C213.1639,31.6369 213.8139,31.9489 214.3959,31.9489 C214.9519,31.9489 215.3569,31.7729 215.6949,31.5139 L215.6949,32.2749 C215.2759,32.4899 214.7759,32.6389 214.2339,32.6389" id="Fill-44" fill="#092648" mask="url(#mask-4)"></path>
                        <path d="M215.993,32.489 L216.779,32.489 L216.779,26.357 L215.993,26.357 L215.993,32.489 Z M216.385,25.126 L215.682,24.421 L216.385,23.717 L217.089,24.421 L216.385,25.126 Z" id="Fill-45" fill="#092648" mask="url(#mask-4)"></path>
                        <path d="M220.811,26.9256 C219.268,26.9256 218.373,28.1426 218.373,29.4306 C218.373,30.7176 219.268,31.9346 220.811,31.9346 C222.354,31.9346 223.249,30.7176 223.249,29.4306 C223.249,28.1426 222.354,26.9256 220.811,26.9256 M220.811,32.6386 C218.902,32.6386 217.576,31.0686 217.576,29.4306 C217.576,27.7916 218.902,26.2206 220.811,26.2206 C222.72,26.2206 224.047,27.7916 224.047,29.4306 C224.047,31.0686 222.72,32.6386 220.811,32.6386" id="Fill-46" fill="#092648" mask="url(#mask-4)"></path>
                        <path d="M229.6909,32.4895 L229.6909,28.6725 C229.6909,27.5085 228.7699,26.9255 227.8489,26.9255 C227.0369,26.9255 226.4009,27.3455 225.9259,27.7645 L225.9259,32.4895 L225.1399,32.4895 L225.1399,26.3575 L225.9259,26.3575 L225.9259,27.0195 C226.3729,26.6695 227.0779,26.2215 227.9579,26.2215 C229.2709,26.2215 230.4749,27.0755 230.4749,28.7395 L230.4749,32.4895 L229.6909,32.4895 Z" id="Fill-47" fill="#092648" mask="url(#mask-4)"></path>
                        <path d="M233.6674,32.6531 C232.8014,32.6531 231.8804,32.3411 231.5164,32.1771 L231.5164,31.3941 C232.0824,31.7041 232.9104,31.9351 233.7344,31.9351 C234.6554,31.9351 235.1304,31.5021 235.1304,30.9061 C235.1304,30.5801 234.9534,30.2961 234.1294,29.9591 C232.5024,29.2821 232.1644,29.1051 231.9484,28.8891 C231.7314,28.6731 231.5164,28.3461 231.5164,27.9141 C231.5164,26.9921 232.2724,26.2211 233.7214,26.2211 C234.4674,26.2211 234.9124,26.3991 235.5084,26.6131 L235.5084,27.3861 C234.8174,27.0881 234.2774,26.9121 233.6414,26.9121 C232.7744,26.9121 232.2724,27.3321 232.2724,27.8341 C232.2724,28.1841 232.4364,28.4411 233.3144,28.7951 C234.8174,29.4031 235.0084,29.4971 235.3744,29.7961 C235.7124,30.0661 235.9024,30.4721 235.9024,30.8781 C235.9024,32.0831 234.7374,32.6531 233.6674,32.6531" id="Fill-48" fill="#092648" mask="url(#mask-4)"></path>
                    </g>
                </g>
            </g>
        </g>
    </g>
</svg>