<?xml version="1.0" encoding="UTF-8"?>
<svg width="269px" height="35px" viewBox="0 0 269 35" version="1.1" xmlns="http://www.w3.org/2000/svg" xmlns:xlink="http://www.w3.org/1999/xlink">
    <!-- Generator: Sketch 55.1 (78136) - https://sketchapp.com -->
    <title>1: Atoms / logos / Admiralty / Product / e-navigator planning White</title>
    <desc>Created with Sketch.</desc>
    <defs>
        <polygon id="path-1" points="0 35 268.339 35 268.339 0 0 0"></polygon>
    </defs>
    <g id="-" stroke="none" stroke-width="1" fill="none" fill-rule="evenodd">
        <g id="1_00119009-UKHO-Styles-1" transform="translate(-990.000000, -3477.000000)">
            <g id="1:-Atoms-/-logos-/-Admiralty-/-Product-/-e-navigator-planning-White" transform="translate(990.000000, 3476.000000)">
                <g id="Group-45">
                    <polygon id="Fill-1" fill="#80C41C" points="0 35.069 102.208 35.069 102.208 0.999 0 0.999"></polygon>
                    <g id="Group-44" transform="translate(0.000000, 1.000000)">
                        <path d="M24.3478,16.1651 C23.0228,16.1651 22.1778,17.0341 21.9858,18.1661 L26.5668,18.1661 C26.3738,16.7211 25.4568,16.1651 24.3478,16.1651 L24.3478,16.1651 Z M21.9128,20.3361 C21.9608,21.8081 23.0938,22.8191 25.0718,22.8191 C26.5668,22.8191 28.5448,22.1201 29.7008,21.1811 L29.7008,24.0241 C28.4478,24.8441 26.3738,25.3971 24.4678,25.3971 C20.7558,25.3971 18.4648,23.0601 18.4648,19.5171 C18.4648,16.5051 20.6838,13.6341 24.3718,13.6341 C26.8808,13.6341 29.9668,14.8411 29.9908,20.3361 L21.9128,20.3361 Z" id="Fill-2" fill="#FFFFFF"></path>
                        <mask id="mask-2" fill="white">
                            <use xlink:href="#path-1"></use>
                        </mask>
                        <g id="Clip-5"></g>
                        <polygon id="Fill-4" fill="#FFFFFF" mask="url(#mask-2)" points="32.545 20.456 40.479 20.456 40.479 17.66 32.545 17.66"></polygon>
                        <polygon id="Fill-6" fill="#FFFFFF" mask="url(#mask-2)" points="54.9454 25.0606 46.6994 14.5026 46.6994 25.0606 43.2264 25.0606 43.2264 8.8616 46.6994 8.8616 54.7284 19.1306 54.7284 8.8616 58.2004 8.8616 58.2004 25.0606"></polygon>
                        <path d="M67.0246,19.8546 C65.4326,19.9986 64.7336,20.1666 64.1556,20.4576 C63.5286,20.7456 63.2386,21.2046 63.2386,21.8086 C63.2386,22.2896 63.5516,22.9416 64.8056,22.9416 C65.0726,22.9416 66.1806,22.6736 67.0246,22.0486 L67.0246,19.8546 Z M67.1926,25.0606 L67.1926,24.0256 C66.1806,24.7246 64.8536,25.2296 63.7936,25.2296 C61.8646,25.2296 60.0806,24.0976 60.0806,21.9266 C60.0806,20.9866 60.4906,19.8546 61.9366,19.0356 C63.0696,18.3836 64.9256,17.9736 67.0246,17.8556 C66.9766,16.2376 65.7476,16.0946 64.7576,16.0946 C63.4316,16.0946 61.9126,16.6736 60.8276,17.4186 L61.4776,14.5996 C62.7316,14.0446 64.2516,13.6346 65.7226,13.6346 C68.4716,13.6346 70.3286,14.9856 70.3286,18.0956 L70.3286,25.0606 L67.1926,25.0606 Z" id="Fill-7" fill="#FFFFFF" mask="url(#mask-2)"></path>
                        <polygon id="Fill-8" fill="#FFFFFF" mask="url(#mask-2)" points="78.9591 25.0606 76.3071 25.0606 71.2421 13.9726 75.0771 13.9726 77.6341 20.6746 80.2611 13.9726 84.0231 13.9726"></polygon>
                        <path d="M121.4552,11.6612 C120.8762,11.6612 119.9172,11.6352 119.3662,11.6052 C120.1502,9.6322 120.7582,7.8322 121.5452,6.0392 C122.3272,7.8322 123.4002,11.0232 123.6322,11.6052 C122.8202,11.6352 122.2402,11.6612 121.4552,11.6612 M123.3432,2.4992 L120.2342,2.4992 C118.3212,7.8042 116.4652,12.6492 114.7262,17.0262 L117.3952,17.0262 C117.5652,16.5372 117.9452,15.4622 118.5812,13.8082 C119.4832,13.7772 120.5822,13.7502 121.4552,13.7502 C122.5002,13.7502 123.3432,13.7772 124.3852,13.8082 C124.7622,14.8512 125.1692,15.8962 125.5472,17.0262 L128.8842,17.0262 C126.7942,11.9522 124.9652,7.1092 123.3432,2.4992" id="Fill-9" fill="#FFFFFF" mask="url(#mask-2)"></path>
                        <path d="M137.1984,14.7647 L134.9034,14.7647 C134.8144,13.1117 134.8144,11.5777 134.8144,9.8917 C134.8144,8.2397 134.8144,6.4417 134.9034,4.7597 L137.1984,4.7597 C139.7164,4.7597 141.8354,6.4107 141.8354,9.7497 C141.8354,13.1117 139.7164,14.7647 137.1984,14.7647 M137.1654,2.4987 L131.8014,2.4987 C131.8574,4.9337 131.8894,7.4577 131.8894,9.8627 C131.8894,12.2987 131.8574,14.6197 131.8014,17.0267 L137.1654,17.0267 C143.3174,17.0267 145.0564,12.7047 145.0564,9.7777 C145.0564,6.8197 143.3174,2.4987 137.1654,2.4987" id="Fill-10" fill="#FFFFFF" mask="url(#mask-2)"></path>
                        <path d="M150.8537,17.0265 C150.7947,15.2565 150.7707,13.0255 150.7707,11.3755 C150.7707,9.7195 150.7947,8.7335 150.8537,7.0805 C152.3947,9.2255 153.8137,11.4005 155.1197,13.6055 L155.5237,13.6055 C156.7437,11.6605 158.2517,9.3715 159.9057,6.7895 C159.9337,8.4125 159.9927,9.9795 159.9927,11.5155 C159.9927,13.3995 159.9607,15.4325 159.9057,17.0265 L162.9807,17.0265 C162.9217,14.6205 162.8607,12.2425 162.8607,9.8055 C162.8607,7.3995 162.9217,4.9335 162.9807,2.4995 L159.8217,2.4995 C158.4257,4.9045 157.0057,7.1665 155.6987,9.0225 C154.1627,6.9065 152.7437,4.7575 151.4397,2.4995 L148.1887,2.4995 C148.2467,5.0215 148.3337,7.5145 148.3337,9.9225 C148.3337,12.3565 148.2467,14.7095 148.1887,17.0265 L150.8537,17.0265 Z" id="Fill-11" fill="#FFFFFF" mask="url(#mask-2)"></path>
                        <path d="M170.9533,17.0265 C170.8673,15.5465 170.8673,12.1555 170.8673,9.7195 C170.8673,7.4275 170.8673,4.0065 170.9533,2.4995 L167.8203,2.4995 C167.9093,4.0065 167.9093,7.4275 167.9093,9.7195 C167.9093,12.1555 167.9093,15.5465 167.8203,17.0265 L170.9533,17.0265 Z" id="Fill-12" fill="#FFFFFF" mask="url(#mask-2)"></path>
                        <path d="M180.6701,9.1378 L178.8141,9.1378 C178.7811,8.3858 178.7811,7.6298 178.7811,6.8758 C178.7811,6.1218 178.7811,5.3678 178.8141,4.6118 L180.6701,4.6118 C182.0341,4.6118 183.2221,5.3108 183.2221,6.8758 C183.2221,8.4438 182.0341,9.1378 180.6701,9.1378 M183.7421,10.7328 C185.5711,9.8908 186.2091,8.1538 186.2091,6.8758 C186.2091,5.1378 184.9911,2.4978 181.1661,2.4978 L175.7971,2.4978 C175.8581,5.0208 175.9111,7.5148 175.9111,9.9218 C175.9111,12.3578 175.8581,14.7098 175.7971,17.0268 L178.8141,17.0268 C178.7811,15.9818 178.7561,14.9088 178.7561,13.8668 C178.7561,12.9958 178.7811,12.1268 178.8141,11.2558 L180.6701,11.2558 C182.1491,13.3998 183.4231,15.3758 184.3811,17.0268 L187.9221,17.0268 C186.3831,14.9088 184.9641,12.7648 183.7421,10.7328" id="Fill-13" fill="#FFFFFF" mask="url(#mask-2)"></path>
                        <path d="M196.4093,11.6612 C195.8293,11.6612 194.8733,11.6342 194.3233,11.6052 C195.1013,9.6322 195.7143,7.8322 196.4953,6.0382 C197.2763,7.8322 198.3523,11.0232 198.5843,11.6052 C197.7723,11.6342 197.1903,11.6612 196.4093,11.6612 M198.2943,2.4992 L195.1913,2.4992 C193.2803,7.8042 191.4243,12.6492 189.6793,17.0262 L192.3523,17.0262 C192.5203,16.5352 192.9013,15.4592 193.5343,13.8072 C194.4373,13.7772 195.5393,13.7472 196.4093,13.7472 C197.4523,13.7472 198.2943,13.7772 199.3343,13.8072 C199.7183,14.8512 200.1203,15.8962 200.4993,17.0262 L203.8323,17.0262 C201.7473,11.9522 199.9183,7.1072 198.2943,2.4992" id="Fill-14" fill="#FFFFFF" mask="url(#mask-2)"></path>
                        <path d="M216.0714,17.0265 C214.5374,16.9695 212.8834,16.9695 211.3154,16.9695 C209.7494,16.9695 208.2434,16.9695 206.6174,17.0265 C206.6754,14.5895 206.7354,12.0975 206.7354,9.6605 C206.7354,7.2535 206.6754,4.9045 206.6174,2.4995 L209.7494,2.4995 C209.6924,4.7575 209.6624,7.3675 209.6624,9.6605 C209.6624,11.4595 209.6924,12.9645 209.7494,14.7645 L212.5934,14.7645 C213.8094,14.7645 215.1444,14.7645 216.0714,14.7095 L216.0714,17.0265 Z" id="Fill-15" fill="#FFFFFF" mask="url(#mask-2)"></path>
                        <path d="M227.6378,4.7872 C226.3858,4.7312 224.8508,4.6992 223.3698,4.6992 C223.3428,6.5272 223.3098,8.4712 223.3098,10.2972 C223.3098,12.5322 223.3428,14.7932 223.3698,17.0262 L220.2398,17.0262 C220.2988,14.7932 220.3278,12.6492 220.3278,10.3572 C220.3278,8.5552 220.2988,6.4722 220.2398,4.6992 C218.6748,4.6992 217.1068,4.7312 215.9738,4.7872 L215.9738,2.4992 C217.9198,2.5532 219.8638,2.5852 221.8028,2.5852 C223.7498,2.5852 225.6898,2.5532 227.6378,2.4992 L227.6378,4.7872 Z" id="Fill-16" fill="#FFFFFF" mask="url(#mask-2)"></path>
                        <path d="M237.4318,11.88 C237.4008,12.664 237.4008,13.305 237.4008,13.851 L237.4878,16.926 L234.3538,16.926 C234.3868,16.201 234.4168,14.955 234.4168,13.646 C234.4448,12.287 234.4448,10.808 234.4448,10.487 C233.0238,7.966 231.1638,5.151 229.2828,2.395 L232.9348,2.395 C233.9498,4.34 235.0538,6.195 236.2418,7.905 C237.5138,6.14 238.6498,4.254 239.7228,2.395 L242.5048,2.395 C240.4158,5.559 238.5328,8.459 237.4578,10.461 C237.4578,10.634 237.4578,11.098 237.4318,11.88" id="Fill-17" fill="#FFFFFF" mask="url(#mask-2)"></path>
                        <path d="M116.6163,26.2022 C115.4443,26.2022 114.6733,27.1482 114.5393,28.0662 L118.4663,28.0662 C118.3993,27.1352 117.7743,26.2022 116.6163,26.2022 L116.6163,26.2022 Z M114.4863,28.7582 C114.5663,30.1032 115.3113,31.1402 116.8963,31.1402 C117.8013,31.1402 118.5063,30.8352 119.1973,30.3692 L119.1973,31.1272 C118.5333,31.5812 117.6273,31.8332 116.8023,31.8332 C115.0983,31.8332 113.7143,30.7152 113.7143,28.6262 C113.7143,27.0942 114.8053,25.5112 116.6553,25.5112 C117.8533,25.5112 119.3043,26.4692 119.3043,28.6912 L119.3043,28.7582 L114.4863,28.7582 Z" id="Fill-18" fill="#FFFFFF" mask="url(#mask-2)"></path>
                        <polygon id="Fill-19" fill="#FFFFFF" mask="url(#mask-2)" points="120.501 28.705 124.88 28.705 124.88 27.973 120.501 27.973"></polygon>
                        <polygon id="Fill-20" fill="#FFFFFF" mask="url(#mask-2)" points="133.3712 31.6729 127.4082 24.1009 127.4082 31.6729 126.5562 31.6729 126.5562 22.7299 127.4082 22.7299 133.3712 30.3019 133.3712 22.7299 134.2242 22.7299 134.2242 31.6729"></polygon>
                        <path d="M139.4913,28.6515 C138.6523,28.6515 137.5483,28.7325 137.0563,28.9975 C136.6293,29.2235 136.3883,29.6105 136.3883,30.0765 C136.3883,30.7955 136.9763,31.1545 137.6543,31.1545 C138.2803,31.1545 138.9053,30.8475 139.4913,30.3295 L139.4913,28.6515 Z M139.4913,31.6725 L139.4913,31.0345 C139.0253,31.4335 138.3873,31.8205 137.5753,31.8205 C136.4293,31.8205 135.6043,31.1275 135.6043,30.1155 C135.6043,29.6225 135.7913,28.9045 136.6293,28.4375 C137.2023,28.1195 138.3063,28.0015 139.4913,28.0015 L139.4913,27.6005 C139.4913,26.4285 138.7723,26.1755 138.1203,26.1755 C137.3883,26.1755 136.5503,26.4415 136.0313,26.7095 L136.1903,25.9505 C136.7223,25.7235 137.4153,25.5115 138.2403,25.5115 C139.4643,25.5115 140.2623,26.1645 140.2623,27.5605 L140.2623,31.6725 L139.4913,31.6725 Z" id="Fill-21" fill="#FFFFFF" mask="url(#mask-2)"></path>
                        <polygon id="Fill-22" fill="#FFFFFF" mask="url(#mask-2)" points="144.3751 31.6729 143.7091 31.6729 141.0351 25.6439 141.9121 25.6439 144.0411 30.6219 146.1711 25.6439 147.0501 25.6439"></polygon>
                        <path d="M148.125,31.673 L148.897,31.673 L148.897,25.645 L148.125,25.645 L148.125,31.673 Z M148.511,24.433 L147.819,23.741 L148.511,23.049 L149.204,23.741 L148.511,24.433 Z" id="Fill-23" fill="#FFFFFF" mask="url(#mask-2)"></path>
                        <path d="M152.506,26.1495 C151.373,26.1495 150.907,27.0415 150.907,27.6545 C150.907,28.5575 151.706,29.1045 152.624,29.1045 C153.85,29.1045 154.316,28.2135 154.316,27.6545 C154.316,26.6955 153.529,26.1495 152.506,26.1495 L152.506,26.1495 Z M151.866,31.4465 C150.935,31.9785 150.308,32.4045 150.308,33.1635 C150.308,33.7355 150.881,34.3345 152.571,34.3345 C153.984,34.3345 154.902,33.8295 154.902,32.9105 C154.902,31.9515 153.49,31.9125 151.866,31.4465 L151.866,31.4465 Z M154.449,26.3085 C154.74,26.6025 155.061,27.1615 155.061,27.6545 C155.061,28.7445 154.076,29.7435 152.719,29.7435 C152.372,29.7435 152.08,29.7035 151.785,29.5965 C151.387,29.8765 151.174,30.0765 151.174,30.2895 C151.174,30.5815 151.294,30.6485 153.224,31.0605 C154.887,31.4205 155.646,31.8195 155.646,32.9375 C155.646,34.0155 154.502,35.0005 152.599,35.0005 C150.121,35.0005 149.564,33.7885 149.564,33.1635 C149.564,32.4715 150.07,31.7395 151.121,31.2195 C150.616,31.0355 150.389,30.7805 150.389,30.3955 C150.389,29.9965 150.722,29.6895 151.214,29.3715 C150.483,28.9315 150.162,28.3185 150.162,27.6545 C150.162,26.4565 151.174,25.4835 152.532,25.4835 C152.852,25.4835 153.171,25.5385 153.49,25.6445 L155.752,25.6445 L155.752,26.3085 L154.449,26.3085 Z" id="Fill-24" fill="#FFFFFF" mask="url(#mask-2)"></path>
                        <path d="M160.1701,28.6515 C159.3311,28.6515 158.2271,28.7325 157.7351,28.9975 C157.3091,29.2235 157.0691,29.6105 157.0691,30.0765 C157.0691,30.7955 157.6541,31.1545 158.3331,31.1545 C158.9591,31.1545 159.5841,30.8475 160.1701,30.3295 L160.1701,28.6515 Z M160.1701,31.6725 L160.1701,31.0345 C159.7041,31.4335 159.0661,31.8205 158.2541,31.8205 C157.1081,31.8205 156.2831,31.1275 156.2831,30.1155 C156.2831,29.6225 156.4701,28.9045 157.3091,28.4375 C157.8811,28.1195 158.9851,28.0015 160.1701,28.0015 L160.1701,27.6005 C160.1701,26.4285 159.4521,26.1755 158.8001,26.1755 C158.0671,26.1755 157.2291,26.4415 156.7101,26.7095 L156.8691,25.9505 C157.4011,25.7235 158.0951,25.5115 158.9201,25.5115 C160.1441,25.5115 160.9411,26.1645 160.9411,27.5605 L160.9411,31.6725 L160.1701,31.6725 Z" id="Fill-25" fill="#FFFFFF" mask="url(#mask-2)"></path>
                        <path d="M164.9601,31.8194 C164.1871,31.8194 163.1371,31.4204 163.1371,29.7974 L163.1371,26.3094 L162.2041,26.3094 L162.2041,25.6434 L163.1371,25.6434 L163.1371,24.1544 L163.9071,24.1544 L163.9071,25.6434 L166.1171,25.6434 L166.1171,26.3094 L163.9071,26.3094 L163.9071,29.7564 C163.9071,30.8354 164.5461,31.1404 165.1191,31.1404 C165.6651,31.1404 166.0641,30.9674 166.3971,30.7154 L166.3971,31.4604 C165.9841,31.6724 165.4911,31.8194 164.9601,31.8194" id="Fill-26" fill="#FFFFFF" mask="url(#mask-2)"></path>
                        <path d="M170.0558,26.2022 C168.5388,26.2022 167.6598,27.4002 167.6598,28.6652 C167.6598,29.9292 168.5388,31.1272 170.0558,31.1272 C171.5748,31.1272 172.4518,29.9292 172.4518,28.6652 C172.4518,27.4002 171.5748,26.2022 170.0558,26.2022 M170.0558,31.8192 C168.1798,31.8192 166.8748,30.2762 166.8748,28.6652 C166.8748,27.0552 168.1798,25.5112 170.0558,25.5112 C171.9338,25.5112 173.2388,27.0552 173.2388,28.6652 C173.2388,30.2762 171.9338,31.8192 170.0558,31.8192" id="Fill-27" fill="#FFFFFF" mask="url(#mask-2)"></path>
                        <path d="M177.1749,26.2423 C176.5229,26.2423 175.9769,26.6953 175.5899,27.1613 L175.5899,31.6743 L174.8199,31.6743 L174.8199,25.6443 L175.5899,25.6443 L175.5899,26.4163 C175.9379,26.0433 176.5489,25.5383 177.3209,25.5383 C177.5469,25.5383 177.8929,25.6173 178.1069,25.7373 L178.1069,26.5893 C177.8409,26.3363 177.5209,26.2423 177.1749,26.2423" id="Fill-28" fill="#FFFFFF" mask="url(#mask-2)"></path>
                        <path d="M184.7326,23.5011 L182.8306,23.5011 L182.8306,27.3611 L184.7466,27.3611 C186.1306,27.3611 186.7426,26.3361 186.7426,25.4181 C186.7426,24.6321 186.3826,23.5011 184.7326,23.5011 M184.7186,28.1321 L182.8306,28.1321 L182.8306,31.6741 L181.9776,31.6741 L181.9776,22.7291 L184.6516,22.7291 C186.7816,22.7291 187.5946,24.1131 187.5946,25.3911 C187.5946,26.7621 186.6496,28.1321 184.7186,28.1321" id="Fill-29" fill="#FFFFFF" mask="url(#mask-2)"></path>
                        <path d="M190.6408,31.8194 C189.7758,31.8194 188.8178,31.4204 188.8178,29.6894 L188.8178,22.7284 L189.5888,22.7284 L189.5888,29.7564 C189.5888,30.9404 190.2688,31.1274 190.7348,31.1274 C191.1068,31.1274 191.5068,30.9944 191.7978,30.7564 L191.7978,31.4994 C191.5068,31.6594 191.1328,31.8194 190.6408,31.8194" id="Fill-30" fill="#FFFFFF" mask="url(#mask-2)"></path>
                        <path d="M196.297,28.6515 C195.458,28.6515 194.355,28.7325 193.861,28.9975 C193.435,29.2235 193.194,29.6105 193.194,30.0765 C193.194,30.7955 193.782,31.1545 194.46,31.1545 C195.085,31.1545 195.712,30.8475 196.297,30.3295 L196.297,28.6515 Z M196.297,31.6725 L196.297,31.0345 C195.831,31.4335 195.192,31.8205 194.38,31.8205 C193.234,31.8205 192.409,31.1275 192.409,30.1155 C192.409,29.6225 192.596,28.9045 193.435,28.4375 C194.008,28.1195 195.112,28.0015 196.297,28.0015 L196.297,27.6005 C196.297,26.4285 195.578,26.1755 194.926,26.1755 C194.193,26.1755 193.356,26.4415 192.837,26.7095 L192.996,25.9505 C193.528,25.7235 194.221,25.5115 195.046,25.5115 C196.27,25.5115 197.068,26.1645 197.068,27.5605 L197.068,31.6725 L196.297,31.6725 Z" id="Fill-31" fill="#FFFFFF" mask="url(#mask-2)"></path>
                        <path d="M203.4015,31.6729 L203.4015,27.9199 C203.4015,26.7759 202.4975,26.2029 201.5915,26.2029 C200.7945,26.2029 200.1695,26.6149 199.7015,27.0279 L199.7015,31.6729 L198.9295,31.6729 L198.9295,25.6439 L199.7015,25.6439 L199.7015,26.2959 C200.1415,25.9499 200.8335,25.5099 201.6985,25.5099 C202.9905,25.5099 204.1725,26.3489 204.1725,27.9859 L204.1725,31.6729 L203.4015,31.6729 Z" id="Fill-32" fill="#FFFFFF" mask="url(#mask-2)"></path>
                        <path d="M210.4816,31.6729 L210.4816,27.9199 C210.4816,26.7759 209.5766,26.2029 208.6706,26.2029 C207.8736,26.2029 207.2486,26.6149 206.7806,27.0279 L206.7806,31.6729 L206.0086,31.6729 L206.0086,25.6439 L206.7806,25.6439 L206.7806,26.2959 C207.2206,25.9499 207.9126,25.5099 208.7786,25.5099 C210.0696,25.5099 211.2526,26.3489 211.2526,27.9859 L211.2526,31.6729 L210.4816,31.6729 Z" id="Fill-33" fill="#FFFFFF" mask="url(#mask-2)"></path>
                        <path d="M213.169,31.673 L213.94,31.673 L213.94,25.645 L213.169,25.645 L213.169,31.673 Z M213.555,24.433 L212.862,23.741 L213.555,23.049 L214.246,23.741 L213.555,24.433 Z" id="Fill-34" fill="#FFFFFF" mask="url(#mask-2)"></path>
                        <path d="M220.2081,31.6729 L220.2081,27.9199 C220.2081,26.7759 219.3031,26.2029 218.3981,26.2029 C217.6001,26.2029 216.9751,26.6149 216.5091,27.0279 L216.5091,31.6729 L215.7361,31.6729 L215.7361,25.6439 L216.5091,25.6439 L216.5091,26.2959 C216.9471,25.9499 217.6391,25.5099 218.5051,25.5099 C219.7961,25.5099 220.9801,26.3489 220.9801,27.9859 L220.9801,31.6729 L220.2081,31.6729 Z" id="Fill-35" fill="#FFFFFF" mask="url(#mask-2)"></path>
                        <path d="M224.8917,26.1495 C223.7597,26.1495 223.2957,27.0415 223.2957,27.6545 C223.2957,28.5575 224.0937,29.1045 225.0117,29.1045 C226.2357,29.1045 226.7037,28.2135 226.7037,27.6545 C226.7037,26.6955 225.9167,26.1495 224.8917,26.1495 L224.8917,26.1495 Z M224.2527,31.4465 C223.3217,31.9785 222.6957,32.4045 222.6957,33.1635 C222.6957,33.7355 223.2687,34.3345 224.9577,34.3345 C226.3697,34.3345 227.2877,33.8295 227.2877,32.9105 C227.2877,31.9515 225.8777,31.9125 224.2527,31.4465 L224.2527,31.4465 Z M226.8347,26.3085 C227.1287,26.6025 227.4477,27.1615 227.4477,27.6545 C227.4477,28.7445 226.4627,29.7435 225.1057,29.7435 C224.7577,29.7435 224.4667,29.7035 224.1727,29.5965 C223.7737,29.8765 223.5597,30.0765 223.5597,30.2895 C223.5597,30.5815 223.6807,30.6485 225.6107,31.0605 C227.2747,31.4205 228.0327,31.8195 228.0327,32.9375 C228.0327,34.0155 226.8877,35.0005 224.9857,35.0005 C222.5097,35.0005 221.9507,33.7885 221.9507,33.1635 C221.9507,32.4715 222.4567,31.7395 223.5077,31.2195 C223.0007,31.0355 222.7757,30.7805 222.7757,30.3955 C222.7757,29.9965 223.1097,29.6895 223.6007,29.3715 C222.8687,28.9315 222.5497,28.3185 222.5497,27.6545 C222.5497,26.4565 223.5597,25.4835 224.9167,25.4835 C225.2397,25.4835 225.5577,25.5385 225.8777,25.6445 L228.1387,25.6445 L228.1387,26.3085 L226.8347,26.3085 Z" id="Fill-36" fill="#FFFFFF" mask="url(#mask-2)"></path>
                        <path d="M234.2726,31.8194 C232.7936,31.8194 232.0896,31.0074 231.6496,30.0764 L232.3426,29.7034 C232.7286,30.5144 233.3136,31.0604 234.2976,31.0604 C235.4826,31.0604 236.0686,30.1294 236.0686,29.2784 C236.0686,27.3474 232.1156,26.8284 232.1156,24.5794 C232.1156,23.5284 232.9546,22.5814 234.3666,22.5814 C234.9916,22.5814 235.7896,22.8484 236.3886,23.7014 L235.7756,24.1934 C235.4826,23.7014 234.9366,23.3404 234.3256,23.3404 C233.5276,23.3404 232.9956,23.8864 232.9956,24.5514 C232.9956,26.2024 236.9466,26.8684 236.9466,29.2234 C236.9466,30.7424 235.7366,31.8194 234.2726,31.8194" id="Fill-37" fill="#FFFFFF" mask="url(#mask-2)"></path>
                        <path d="M240.5802,31.8194 C239.8082,31.8194 238.7572,31.4204 238.7572,29.7974 L238.7572,26.3094 L237.8252,26.3094 L237.8252,25.6434 L238.7572,25.6434 L238.7572,24.1544 L239.5282,24.1544 L239.5282,25.6434 L241.7372,25.6434 L241.7372,26.3094 L239.5282,26.3094 L239.5282,29.7564 C239.5282,30.8354 240.1672,31.1404 240.7392,31.1404 C241.2852,31.1404 241.6842,30.9674 242.0172,30.7154 L242.0172,31.4604 C241.6052,31.6724 241.1122,31.8194 240.5802,31.8194" id="Fill-38" fill="#FFFFFF" mask="url(#mask-2)"></path>
                        <path d="M246.1163,28.6515 C245.2773,28.6515 244.1733,28.7325 243.6813,28.9975 C243.2553,29.2235 243.0153,29.6105 243.0153,30.0765 C243.0153,30.7955 243.6013,31.1545 244.2793,31.1545 C244.9063,31.1545 245.5303,30.8475 246.1163,30.3295 L246.1163,28.6515 Z M246.1163,31.6725 L246.1163,31.0345 C245.6503,31.4335 245.0133,31.8205 244.2003,31.8205 C243.0543,31.8205 242.2293,31.1275 242.2293,30.1155 C242.2293,29.6225 242.4163,28.9045 243.2553,28.4375 C243.8273,28.1195 244.9313,28.0015 246.1163,28.0015 L246.1163,27.6005 C246.1163,26.4285 245.3983,26.1755 244.7463,26.1755 C244.0133,26.1755 243.1753,26.4415 242.6563,26.7095 L242.8153,25.9505 C243.3473,25.7235 244.0413,25.5115 244.8663,25.5115 C246.0913,25.5115 246.8873,26.1645 246.8873,27.5605 L246.8873,31.6725 L246.1163,31.6725 Z" id="Fill-39" fill="#FFFFFF" mask="url(#mask-2)"></path>
                        <path d="M250.8927,31.8194 C250.1217,31.8194 249.0697,31.4204 249.0697,29.7974 L249.0697,26.3094 L248.1367,26.3094 L248.1367,25.6434 L249.0697,25.6434 L249.0697,24.1544 L249.8417,24.1544 L249.8417,25.6434 L252.0497,25.6434 L252.0497,26.3094 L249.8417,26.3094 L249.8417,29.7564 C249.8417,30.8354 250.4807,31.1404 251.0527,31.1404 C251.5987,31.1404 251.9967,30.9674 252.3307,30.7154 L252.3307,31.4604 C251.9167,31.6724 251.4247,31.8194 250.8927,31.8194" id="Fill-40" fill="#FFFFFF" mask="url(#mask-2)"></path>
                        <path d="M253.115,31.673 L253.886,31.673 L253.886,25.645 L253.115,25.645 L253.115,31.673 Z M253.502,24.433 L252.811,23.741 L253.502,23.049 L254.193,23.741 L253.502,24.433 Z" id="Fill-41" fill="#FFFFFF" mask="url(#mask-2)"></path>
                        <path d="M258.3459,26.2022 C256.8279,26.2022 255.9499,27.4002 255.9499,28.6652 C255.9499,29.9292 256.8279,31.1272 258.3459,31.1272 C259.8629,31.1272 260.7419,29.9292 260.7419,28.6652 C260.7419,27.4002 259.8629,26.2022 258.3459,26.2022 M258.3459,31.8192 C256.4689,31.8192 255.1639,30.2762 255.1639,28.6652 C255.1639,27.0552 256.4689,25.5112 258.3459,25.5112 C260.2239,25.5112 261.5269,27.0552 261.5269,28.6652 C261.5269,30.2762 260.2239,31.8192 258.3459,31.8192" id="Fill-42" fill="#FFFFFF" mask="url(#mask-2)"></path>
                        <path d="M267.5666,31.6729 L267.5666,27.9199 C267.5666,26.7759 266.6616,26.2029 265.7566,26.2029 C264.9586,26.2029 264.3336,26.6149 263.8676,27.0279 L263.8676,31.6729 L263.0946,31.6729 L263.0946,25.6439 L263.8676,25.6439 L263.8676,26.2959 C264.3056,25.9499 264.9976,25.5099 265.8636,25.5099 C267.1546,25.5099 268.3386,26.3489 268.3386,27.9859 L268.3386,31.6729 L267.5666,31.6729 Z" id="Fill-43" fill="#FFFFFF" mask="url(#mask-2)"></path>
                    </g>
                </g>
            </g>
        </g>
    </g>
</svg>