<?xml version="1.0" encoding="UTF-8"?>
<svg width="250px" height="35px" viewBox="0 0 250 35" version="1.1" xmlns="http://www.w3.org/2000/svg" xmlns:xlink="http://www.w3.org/1999/xlink">
    <!-- Generator: Sketch 55.1 (78136) - https://sketchapp.com -->
    <title>1: Atoms / logos / Admiralty / Product / Raster Chart Service</title>
    <desc>Created with Sketch.</desc>
    <defs>
        <polygon id="path-1" points="0 35 249.106 35 249.106 0 0 0"></polygon>
    </defs>
    <g id="-" stroke="none" stroke-width="1" fill="none" fill-rule="evenodd">
        <g id="1_00119009-UKHO-Styles-1" transform="translate(-990.000000, -3131.000000)">
            <g id="1:-Atoms-/-logos-/-Admiralty-/-Product-/-Raster-Chart-Service" transform="translate(990.000000, 3131.000000)">
                <g id="Group-53">
                    <polygon id="Fill-1" fill="#DC3E37" points="0 35 105.006 35 105.006 0 0 0"></polygon>
                    <path d="M30.2863,13.6699 L28.2843,19.2399 L32.2653,19.2399 L30.2863,13.6699 Z M34.5893,25.7259 L33.3773,22.3089 L27.1703,22.3089 L25.9593,25.7259 L22.1753,25.7259 L28.6293,9.0899 L31.9193,9.0899 L38.3723,25.7259 L34.5893,25.7259 Z" id="Fill-2" fill="#FFFFFE"></path>
                    <g id="Group-52">
                        <path d="M45.6647,12.4072 L44.0817,12.4072 L44.0817,16.2952 L45.6157,16.2952 C47.3217,16.2952 47.9647,15.3762 47.9647,14.3132 C47.9647,13.1502 47.1477,12.4072 45.6647,12.4072 L45.6647,12.4072 Z M49.7937,25.7252 L45.3917,19.4862 L44.0817,19.4862 L44.0817,25.7252 L40.5207,25.7252 L40.5207,9.0892 L46.0107,9.0892 C50.6337,9.0892 51.5247,12.6562 51.5247,14.2392 C51.5247,16.3452 50.3387,17.7282 48.8787,18.5702 L54.2687,25.7252 L49.7937,25.7252 Z" id="Fill-3" fill="#FFFFFE"></path>
                        <path d="M64.1594,12.0864 C60.7724,12.0864 58.6944,14.7334 58.6944,17.4074 C58.6944,20.6264 61.3174,22.7324 64.1844,22.7324 C66.0884,22.7324 67.8924,21.8874 69.4264,20.5264 L69.4264,24.5114 C67.8184,25.4764 65.6174,26.0694 63.9104,26.0694 C59.0154,26.0694 54.9114,22.0874 54.9114,17.4074 C54.9114,12.4574 59.0404,8.7434 63.9374,8.7434 C65.8154,8.7434 68.0164,9.3124 69.4504,10.0314 L69.4504,13.9414 C67.6454,12.7534 65.8154,12.0864 64.1594,12.0864" id="Fill-5" fill="#FFFFFE"></path>
                        <path d="M77.3859,26.0707 C74.2449,26.0707 72.5399,23.9437 71.6739,22.0867 L74.8159,20.4277 C75.0879,21.4907 75.7299,22.8527 77.4099,22.8527 C78.3989,22.8527 79.3649,22.0607 79.3649,20.9487 C79.3649,18.1017 72.3919,18.5467 72.3919,13.5217 C72.3919,11.0457 74.5669,8.7427 77.5099,8.7427 C79.5129,8.7427 81.3419,9.7577 82.5299,11.6887 L79.5619,13.3487 C79.1419,12.6057 78.4259,11.9867 77.5099,11.9867 C76.5459,11.9867 76.0019,12.5317 76.0019,13.2737 C76.0019,15.4757 83.0729,15.1807 83.0729,20.5767 C83.0729,23.1267 81.1209,26.0707 77.3859,26.0707" id="Fill-7" fill="#FFFFFE"></path>
                        <path d="M120.2531,24.0551 L118.6621,24.0551 L118.6621,27.3991 L120.4611,27.3991 C121.7021,27.3991 122.2751,26.7041 122.2751,25.6571 C122.2751,24.8921 121.7161,24.0551 120.2531,24.0551 L120.2531,24.0551 Z M123.3771,32.6171 L120.1961,28.2101 L118.6621,28.2101 L118.6621,32.6171 L117.7701,32.6171 L117.7701,23.2451 L120.1821,23.2451 C122.4161,23.2451 123.1681,24.6961 123.1681,25.6311 C123.1681,26.7751 122.5831,27.8211 121.2301,28.1271 L124.4801,32.6171 L123.3771,32.6171 Z" id="Fill-9" fill="#092648"></path>
                        <path d="M129.3659,29.4496 C128.4889,29.4496 127.3299,29.5326 126.8139,29.8136 C126.3679,30.0506 126.1159,30.4536 126.1159,30.9416 C126.1159,31.6956 126.7309,32.0696 127.4419,32.0696 C128.0979,32.0696 128.7509,31.7496 129.3659,31.2076 L129.3659,29.4496 Z M129.3659,32.6166 L129.3659,31.9476 C128.8799,32.3626 128.2109,32.7706 127.3579,32.7706 C126.1579,32.7706 125.2939,32.0466 125.2939,30.9846 C125.2939,30.4706 125.4879,29.7156 126.3679,29.2266 C126.9679,28.8916 128.1259,28.7686 129.3659,28.7686 L129.3659,28.3476 C129.3659,27.1216 128.6139,26.8576 127.9279,26.8576 C127.1649,26.8576 126.2859,27.1366 125.7409,27.4166 L125.9079,26.6216 C126.4669,26.3836 127.1899,26.1606 128.0559,26.1606 C129.3399,26.1606 130.1759,26.8426 130.1759,28.3066 L130.1759,32.6166 L129.3659,32.6166 Z" id="Fill-11" fill="#092648"></path>
                        <path d="M133.9689,32.7836 C133.0759,32.7836 132.1279,32.4636 131.7529,32.2956 L131.7529,31.4866 C132.3379,31.8076 133.1889,32.0466 134.0399,32.0466 C134.9899,32.0466 135.4749,31.5966 135.4749,30.9846 C135.4749,30.6506 135.2929,30.3566 134.4449,30.0076 C132.7669,29.3116 132.4199,29.1306 132.1979,28.9066 C131.9749,28.6826 131.7529,28.3486 131.7529,27.9046 C131.7529,26.9556 132.5309,26.1596 134.0259,26.1596 C134.7939,26.1596 135.2529,26.3426 135.8659,26.5666 L135.8659,27.3586 C135.1559,27.0516 134.5959,26.8716 133.9429,26.8716 C133.0489,26.8716 132.5309,27.3036 132.5309,27.8206 C132.5309,28.1816 132.7009,28.4466 133.6059,28.8086 C135.1559,29.4376 135.3499,29.5336 135.7249,29.8416 C136.0759,30.1186 136.2709,30.5376 136.2709,30.9546 C136.2709,32.1986 135.0719,32.7836 133.9689,32.7836" id="Fill-13" fill="#092648"></path>
                        <path d="M139.9816,32.77 C139.1736,32.77 138.0706,32.35 138.0706,30.651 L138.0706,26.998 L137.0946,26.998 L137.0946,26.299 L138.0706,26.299 L138.0706,24.739 L138.8786,24.739 L138.8786,26.299 L141.1956,26.299 L141.1956,26.998 L138.8786,26.998 L138.8786,30.607 C138.8786,31.737 139.5476,32.058 140.1486,32.058 C140.7196,32.058 141.1406,31.877 141.4896,31.613 L141.4896,32.392 C141.0556,32.617 140.5396,32.77 139.9816,32.77" id="Fill-15" fill="#092648"></path>
                        <path d="M145.3176,26.8852 C144.0896,26.8852 143.2786,27.8742 143.1416,28.8342 L147.2546,28.8342 C147.1836,27.8632 146.5296,26.8852 145.3176,26.8852 L145.3176,26.8852 Z M143.0846,29.5632 C143.1676,30.9682 143.9486,32.0582 145.6086,32.0582 C146.5576,32.0582 147.2976,31.7372 148.0226,31.2492 L148.0226,32.0462 C147.3246,32.5202 146.3756,32.7842 145.5126,32.7842 C143.7266,32.7842 142.2756,31.6122 142.2756,29.4232 C142.2756,27.8212 143.4196,26.1602 145.3576,26.1602 C146.6116,26.1602 148.1336,27.1632 148.1336,29.4922 L148.1336,29.5632 L143.0846,29.5632 Z" id="Fill-17" fill="#092648"></path>
                        <path d="M152.1999,26.9257 C151.5189,26.9257 150.9489,27.3997 150.5439,27.8877 L150.5439,32.6157 L149.7329,32.6157 L149.7329,26.2987 L150.5439,26.2987 L150.5439,27.1087 C150.9059,26.7187 151.5469,26.1887 152.3579,26.1887 C152.5939,26.1887 152.9549,26.2727 153.1779,26.3997 L153.1779,27.2907 C152.8979,27.0247 152.5639,26.9257 152.1999,26.9257" id="Fill-19" fill="#092648"></path>
                        <path d="M161.8278,32.77 C159.0658,32.77 156.8898,30.788 156.8898,27.931 C156.8898,25.183 159.1218,23.093 161.9268,23.093 C163.1398,23.093 164.0998,23.357 165.2988,23.942 L165.2988,24.861 C164.3678,24.319 163.2938,23.927 161.9268,23.927 C159.3028,23.927 157.7828,26.103 157.7828,27.931 C157.7828,30.092 159.4408,31.933 161.8278,31.933 C163.1928,31.933 164.4348,31.445 165.2988,30.899 L165.2988,31.835 C164.2408,32.405 162.9568,32.77 161.8278,32.77" id="Fill-21" fill="#092648"></path>
                        <path d="M171.5271,32.6166 L171.5271,28.6816 C171.5271,27.4856 170.5781,26.8856 169.6291,26.8856 C168.7931,26.8856 168.1361,27.3186 167.6481,27.7476 L167.6481,32.6166 L166.8391,32.6166 L166.8391,23.2446 L167.6481,23.2446 L167.6481,26.9846 C168.1091,26.6216 168.8351,26.1616 169.7411,26.1616 C171.0941,26.1616 172.3361,27.0386 172.3361,28.7546 L172.3361,32.6166 L171.5271,32.6166 Z" id="Fill-23" fill="#092648"></path>
                        <path d="M177.8112,29.4496 C176.9322,29.4496 175.7752,29.5326 175.2582,29.8136 C174.8102,30.0506 174.5602,30.4536 174.5602,30.9416 C174.5602,31.6956 175.1732,32.0696 175.8832,32.0696 C176.5412,32.0696 177.1962,31.7496 177.8112,31.2076 L177.8112,29.4496 Z M177.8112,32.6166 L177.8112,31.9476 C177.3232,32.3626 176.6512,32.7706 175.8012,32.7706 C174.6012,32.7706 173.7342,32.0466 173.7342,30.9846 C173.7342,30.4706 173.9312,29.7156 174.8102,29.2266 C175.4112,28.8916 176.5672,28.7686 177.8112,28.7686 L177.8112,28.3476 C177.8112,27.1216 177.0572,26.8576 176.3732,26.8576 C175.6072,26.8576 174.7262,27.1366 174.1832,27.4166 L174.3512,26.6216 C174.9092,26.3836 175.6342,26.1606 176.4972,26.1606 C177.7822,26.1606 178.6202,26.8426 178.6202,28.3066 L178.6202,32.6166 L177.8112,32.6166 Z" id="Fill-25" fill="#092648"></path>
                        <path d="M183.028,26.9257 C182.342,26.9257 181.771,27.3997 181.368,27.8877 L181.368,32.6157 L180.558,32.6157 L180.558,26.2987 L181.368,26.2987 L181.368,27.1087 C181.728,26.7187 182.372,26.1887 183.179,26.1887 C183.416,26.1887 183.779,26.2727 184.003,26.3997 L184.003,27.2907 C183.723,27.0247 183.389,26.9257 183.028,26.9257" id="Fill-27" fill="#092648"></path>
                        <path d="M187.7839,32.77 C186.9729,32.77 185.8709,32.35 185.8709,30.651 L185.8709,26.998 L184.8949,26.998 L184.8949,26.299 L185.8709,26.299 L185.8709,24.739 L186.6809,24.739 L186.6809,26.299 L188.9959,26.299 L188.9959,26.998 L186.6809,26.998 L186.6809,30.607 C186.6809,31.737 187.3499,32.058 187.9509,32.058 C188.5209,32.058 188.9409,31.877 189.2879,31.613 L189.2879,32.392 C188.8559,32.617 188.3399,32.77 187.7839,32.77" id="Fill-29" fill="#092648"></path>
                        <path d="M195.6369,32.77 C194.0879,32.77 193.3499,31.92 192.8879,30.941 L193.6139,30.552 C194.0179,31.404 194.6329,31.975 195.6649,31.975 C196.9059,31.975 197.5169,31.001 197.5169,30.105 C197.5169,28.082 193.3789,27.54 193.3789,25.183 C193.3789,24.083 194.2539,23.093 195.7349,23.093 C196.3909,23.093 197.2249,23.371 197.8539,24.262 L197.2119,24.78 C196.9059,24.262 196.3329,23.887 195.6929,23.887 C194.8559,23.887 194.2949,24.46 194.2949,25.156 C194.2949,26.885 198.4409,27.584 198.4409,30.05 C198.4409,31.639 197.1719,32.77 195.6369,32.77" id="Fill-31" fill="#092648"></path>
                        <path d="M202.8459,26.8852 C201.6199,26.8852 200.8119,27.8742 200.6699,28.8342 L204.7859,28.8342 C204.7169,27.8632 204.0609,26.8852 202.8459,26.8852 L202.8459,26.8852 Z M200.6149,29.5632 C200.6999,30.9682 201.4799,32.0582 203.1399,32.0582 C204.0869,32.0582 204.8279,31.7372 205.5539,31.2492 L205.5539,32.0462 C204.8559,32.5202 203.9059,32.7842 203.0439,32.7842 C201.2549,32.7842 199.8049,31.6122 199.8049,29.4232 C199.8049,27.8212 200.9499,26.1602 202.8899,26.1602 C204.1439,26.1602 205.6669,27.1632 205.6669,29.4922 L205.6669,29.5632 L200.6149,29.5632 Z" id="Fill-33" fill="#092648"></path>
                        <path d="M209.7326,26.9257 C209.0486,26.9257 208.4786,27.3997 208.0746,27.8877 L208.0746,32.6157 L207.2646,32.6157 L207.2646,26.2987 L208.0746,26.2987 L208.0746,27.1087 C208.4336,26.7187 209.0766,26.1887 209.8856,26.1887 C210.1256,26.1887 210.4866,26.2727 210.7096,26.3997 L210.7096,27.2907 C210.4296,27.0247 210.0956,26.9257 209.7326,26.9257" id="Fill-35" fill="#092648"></path>
                        <polygon id="Fill-37" fill="#092648" points="214.9719 32.6166 214.2739 32.6166 211.4719 26.2986 212.3909 26.2986 214.6239 31.5136 216.8569 26.2986 217.7769 26.2986"></polygon>
                        <mask id="mask-2" fill="white">
                            <use xlink:href="#path-1"></use>
                        </mask>
                        <g id="Clip-40"></g>
                        <path d="M218.979,32.616 L219.791,32.616 L219.791,26.299 L218.979,26.299 L218.979,32.616 Z M219.387,25.029 L218.66,24.305 L219.387,23.579 L220.113,24.305 L219.387,25.029 Z" id="Fill-39" fill="#092648" mask="url(#mask-2)"></path>
                        <path d="M224.7102,32.77 C222.7422,32.77 221.3732,31.151 221.3732,29.466 C221.3732,27.693 222.8672,26.161 224.7102,26.161 C225.5042,26.161 226.1622,26.355 226.7732,26.633 L226.7732,27.43 C226.0912,27.065 225.4762,26.885 224.7102,26.885 C223.2022,26.885 222.1962,28.111 222.1962,29.466 C222.1962,30.788 223.1192,32.047 224.7102,32.047 C225.5312,32.047 226.4392,31.639 226.7732,31.417 L226.7732,32.239 C226.0622,32.603 225.2662,32.77 224.7102,32.77" id="Fill-41" fill="#092648" mask="url(#mask-2)"></path>
                        <path d="M230.6779,26.8852 C229.4489,26.8852 228.6399,27.8742 228.5009,28.8342 L232.6149,28.8342 C232.5479,27.8632 231.8919,26.8852 230.6779,26.8852 L230.6779,26.8852 Z M228.4459,29.5632 C228.5299,30.9682 229.3109,32.0582 230.9729,32.0582 C231.9189,32.0582 232.6569,31.7372 233.3819,31.2492 L233.3819,32.0462 C232.6839,32.5202 231.7359,32.7842 230.8739,32.7842 C229.0879,32.7842 227.6359,31.6122 227.6359,29.4232 C227.6359,27.8212 228.7809,26.1602 230.7189,26.1602 C231.9749,26.1602 233.4949,27.1632 233.4949,29.4922 L233.4949,29.5632 L228.4459,29.5632 Z" id="Fill-42" fill="#092648" mask="url(#mask-2)"></path>
                        <path d="M124.7614,11.9672 C124.1684,11.9672 123.1804,11.9392 122.6154,11.9082 C123.4224,9.8842 124.0464,8.0392 124.8534,6.1952 C125.6584,8.0392 126.7624,11.3112 126.9974,11.9082 C126.1624,11.9392 125.5664,11.9672 124.7614,11.9672 M126.7014,2.5602 L123.5104,2.5602 C121.5424,8.0072 119.6364,12.9842 117.8484,17.4782 L120.5904,17.4782 C120.7664,16.9722 121.1574,15.8692 121.8094,14.1732 C122.7374,14.1402 123.8644,14.1112 124.7614,14.1112 C125.8344,14.1112 126.7014,14.1402 127.7714,14.1732 C128.1604,15.2432 128.5744,16.3172 128.9644,17.4782 L132.3914,17.4782 C130.2464,12.2672 128.3674,7.2952 126.7014,2.5602" id="Fill-43" fill="#092648" mask="url(#mask-2)"></path>
                        <path d="M140.9323,15.1552 L138.5773,15.1552 C138.4853,13.4572 138.4853,11.8802 138.4853,10.1492 C138.4853,8.4542 138.4853,6.6102 138.5773,4.8822 L140.9323,4.8822 C143.5213,4.8822 145.6993,6.5762 145.6993,10.0042 C145.6993,13.4572 143.5213,15.1552 140.9323,15.1552 M140.9013,2.5602 L135.3893,2.5602 C135.4493,5.0612 135.4793,7.6532 135.4793,10.1222 C135.4793,12.6232 135.4493,15.0072 135.3893,17.4782 L140.9013,17.4782 C147.2163,17.4782 149.0033,13.0402 149.0033,10.0342 C149.0033,6.9962 147.2163,2.5602 140.9013,2.5602" id="Fill-44" fill="#092648" mask="url(#mask-2)"></path>
                        <path d="M154.9621,17.478 C154.9001,15.658 154.8791,13.368 154.8791,11.672 C154.8791,9.976 154.9001,8.962 154.9621,7.263 C156.5431,9.466 157.9991,11.699 159.3431,13.964 L159.7611,13.964 C161.0091,11.967 162.5621,9.614 164.2581,6.965 C164.2871,8.632 164.3491,10.243 164.3491,11.818 C164.3491,13.754 164.3191,15.839 164.2581,17.478 L167.4171,17.478 C167.3581,15.006 167.2951,12.566 167.2951,10.062 C167.2951,7.591 167.3581,5.061 167.4171,2.56 L164.1711,2.56 C162.7381,5.03 161.2781,7.351 159.9381,9.259 C158.3591,7.084 156.9021,4.88 155.5621,2.56 L152.2221,2.56 C152.2811,5.148 152.3731,7.709 152.3731,10.183 C152.3731,12.684 152.2811,15.096 152.2221,17.478 L154.9621,17.478 Z" id="Fill-45" fill="#092648" mask="url(#mask-2)"></path>
                        <path d="M175.6071,17.478 C175.5191,15.958 175.5191,12.477 175.5191,9.976 C175.5191,7.62 175.5191,4.106 175.6071,2.56 L172.3911,2.56 C172.4811,4.106 172.4811,7.62 172.4811,9.976 C172.4811,12.477 172.4811,15.958 172.3911,17.478 L175.6071,17.478 Z" id="Fill-46" fill="#092648" mask="url(#mask-2)"></path>
                        <path d="M185.5876,9.3779 L183.6816,9.3779 C183.6506,8.6029 183.6506,7.8289 183.6506,7.0529 C183.6506,6.2809 183.6506,5.5079 183.6816,4.7319 L185.5876,4.7319 C186.9896,4.7319 188.2126,5.4479 188.2126,7.0529 C188.2126,8.6639 186.9896,9.3779 185.5876,9.3779 M188.7416,11.0149 C190.6236,10.1499 191.2776,8.3659 191.2776,7.0529 C191.2776,5.2679 190.0256,2.5599 186.0956,2.5599 L180.5816,2.5599 C180.6436,5.1489 180.6986,7.7099 180.6986,10.1829 C180.6986,12.6829 180.6436,15.0959 180.5816,17.4779 L183.6816,17.4779 C183.6506,16.4039 183.6196,15.2999 183.6196,14.2309 C183.6196,13.3379 183.6506,12.4449 183.6816,11.5509 L185.5876,11.5509 C187.1076,13.7539 188.4156,15.7799 189.3996,17.4779 L193.0356,17.4779 C191.4556,15.2999 189.9996,13.0999 188.7416,11.0149" id="Fill-47" fill="#092648" mask="url(#mask-2)"></path>
                        <path d="M201.757,11.9672 C201.159,11.9672 200.177,11.9392 199.611,11.9082 C200.413,9.8842 201.04,8.0392 201.845,6.1922 C202.649,8.0392 203.751,11.3112 203.99,11.9082 C203.156,11.9392 202.557,11.9672 201.757,11.9672 M203.691,2.5602 L200.504,2.5602 C198.538,8.0072 196.632,12.9842 194.843,17.4782 L197.588,17.4782 C197.764,16.9682 198.151,15.8692 198.802,14.1712 C199.728,14.1402 200.861,14.1082 201.757,14.1082 C202.829,14.1082 203.691,14.1402 204.762,14.1712 C205.153,15.2432 205.568,16.3172 205.957,17.4782 L209.38,17.4782 C207.239,12.2652 205.358,7.2932 203.691,2.5602" id="Fill-48" fill="#092648" mask="url(#mask-2)"></path>
                        <path d="M221.9543,17.478 C220.3743,17.416 218.6793,17.416 217.0673,17.416 C215.4583,17.416 213.9133,17.416 212.2433,17.478 C212.3043,14.976 212.3603,12.416 212.3603,9.912 C212.3603,7.441 212.3043,5.03 212.2433,2.56 L215.4583,2.56 C215.3993,4.88 215.3703,7.56 215.3703,9.912 C215.3703,11.758 215.3993,13.308 215.4583,15.155 L218.3803,15.155 C219.6303,15.155 221.0003,15.155 221.9543,15.096 L221.9543,17.478 Z" id="Fill-49" fill="#092648" mask="url(#mask-2)"></path>
                        <path d="M233.8303,4.9106 C232.5493,4.8516 230.9723,4.8226 229.4503,4.8226 C229.4193,6.6946 229.3883,8.6916 229.3883,10.5686 C229.3883,12.8626 229.4193,15.1836 229.4503,17.4776 L226.2323,17.4776 C226.2933,15.1836 226.3233,12.9826 226.3233,10.6306 C226.3233,8.7786 226.2933,6.6396 226.2323,4.8226 C224.6243,4.8226 223.0143,4.8516 221.8513,4.9106 L221.8513,2.5596 C223.8523,2.6186 225.8473,2.6486 227.8393,2.6486 C229.8413,2.6486 231.8333,2.6186 233.8303,2.5596 L233.8303,4.9106 Z" id="Fill-50" fill="#092648" mask="url(#mask-2)"></path>
                        <path d="M243.8928,12.1913 C243.8598,12.9973 243.8598,13.6523 243.8598,14.2163 L243.9518,17.3733 L240.7308,17.3733 C240.7648,16.6273 240.7948,15.3483 240.7948,14.0063 C240.8248,12.6083 240.8248,11.0913 240.8248,10.7643 C239.3668,8.1733 237.4558,5.2833 235.5218,2.4553 L239.2738,2.4553 C240.3168,4.4493 241.4508,6.3553 242.6718,8.1113 C243.9808,6.2963 245.1438,4.3613 246.2458,2.4553 L249.1058,2.4553 C246.9618,5.7003 245.0238,8.6783 243.9198,10.7343 C243.9198,10.9143 243.9198,11.3893 243.8928,12.1913" id="Fill-51" fill="#092648" mask="url(#mask-2)"></path>
                    </g>
                </g>
            </g>
        </g>
    </g>
</svg>