<?xml version="1.0" encoding="UTF-8"?>
<svg width="250px" height="35px" viewBox="0 0 250 35" version="1.1" xmlns="http://www.w3.org/2000/svg" xmlns:xlink="http://www.w3.org/1999/xlink">
    <!-- Generator: Sketch 55.1 (78136) - https://sketchapp.com -->
    <title>1: Atoms / logos / Admiralty / Product / Vector chart service White</title>
    <desc>Created with Sketch.</desc>
    <defs>
        <polygon id="path-1" points="0 35 249.13 35 249.13 0 0 0"></polygon>
    </defs>
    <g id="-" stroke="none" stroke-width="1" fill="none" fill-rule="evenodd">
        <g id="1_00119009-UKHO-Styles-1" transform="translate(-1289.000000, -3374.000000)">
            <g id="1:-Atoms-/-logos-/-Admiralty-/-Product-/-Vector-chart-service-White" transform="translate(1289.000000, 3374.000000)">
                <g id="Group-49">
                    <polygon id="Fill-1" fill="#F0047F" points="0 35 105.001 35 105.001 0 0 0"></polygon>
                    <polygon id="Fill-2" fill="#FFFFFF" points="122.4501 32.3701 121.7131 32.3701 118.0541 23.3621 118.9781 23.3621 122.0871 31.0031 125.1841 23.3621 126.1111 23.3621"></polygon>
                    <g id="Group-48">
                        <path d="M129.1415,26.8599 C127.9615,26.8599 127.1835,27.8129 127.0485,28.7379 L131.0055,28.7379 C130.9365,27.7989 130.3065,26.8599 129.1415,26.8599 L129.1415,26.8599 Z M126.9965,29.4349 C127.0765,30.7889 127.8255,31.8349 129.4195,31.8349 C130.3325,31.8349 131.0425,31.5269 131.7415,31.0579 L131.7415,31.8239 C131.0705,32.2769 130.1585,32.5329 129.3275,32.5329 C127.6105,32.5329 126.2175,31.4039 126.2175,29.2999 C126.2175,27.7589 127.3175,26.1619 129.1815,26.1619 C130.3865,26.1619 131.8475,27.1299 131.8475,29.3669 L131.8475,29.4349 L126.9965,29.4349 Z" id="Fill-3" fill="#FFFFFF"></path>
                        <path d="M136.2176,32.5196 C134.3266,32.5196 133.0106,30.9626 133.0106,29.3406 C133.0106,27.6376 134.4456,26.1626 136.2176,26.1626 C136.9806,26.1626 137.6106,26.3526 138.2006,26.6206 L138.2006,27.3836 C137.5446,27.0366 136.9546,26.8596 136.2176,26.8596 C134.7666,26.8596 133.8046,28.0406 133.8046,29.3406 C133.8046,30.6146 134.6886,31.8226 136.2176,31.8226 C137.0086,31.8226 137.8776,31.4326 138.2006,31.2176 L138.2006,32.0066 C137.5166,32.3576 136.7536,32.5196 136.2176,32.5196" id="Fill-5" fill="#FFFFFF"></path>
                        <path d="M141.8671,32.5196 C141.0891,32.5196 140.0311,32.1146 140.0311,30.4816 L140.0311,26.9686 L139.0931,26.9686 L139.0931,26.2976 L140.0311,26.2976 L140.0311,24.7966 L140.8071,24.7966 L140.8071,26.2976 L143.0331,26.2976 L143.0331,26.9686 L140.8071,26.9686 L140.8071,30.4386 C140.8071,31.5276 141.4531,31.8346 142.0281,31.8346 C142.5771,31.8346 142.9811,31.6606 143.3141,31.4046 L143.3141,32.1566 C142.8991,32.3716 142.4031,32.5196 141.8671,32.5196" id="Fill-7" fill="#FFFFFF"></path>
                        <path d="M147.2215,26.8599 C145.6925,26.8599 144.8075,28.0659 144.8075,29.3399 C144.8075,30.6149 145.6925,31.8239 147.2215,31.8239 C148.7495,31.8239 149.6345,30.6149 149.6345,29.3399 C149.6345,28.0659 148.7495,26.8599 147.2215,26.8599 M147.2215,32.5189 C145.3305,32.5189 144.0175,30.9619 144.0175,29.3399 C144.0175,27.7189 145.3305,26.1619 147.2215,26.1619 C149.1125,26.1619 150.4285,27.7189 150.4285,29.3399 C150.4285,30.9619 149.1125,32.5189 147.2215,32.5189" id="Fill-9" fill="#FFFFFF"></path>
                        <path d="M154.3548,26.9014 C153.6968,26.9014 153.1468,27.3554 152.7578,27.8244 L152.7578,32.3704 L151.9808,32.3704 L151.9808,26.2974 L152.7578,26.2974 L152.7578,27.0754 C153.1078,26.6984 153.7248,26.1904 154.5008,26.1904 C154.7288,26.1904 155.0758,26.2714 155.2908,26.3914 L155.2908,27.2504 C155.0218,26.9934 154.7038,26.9014 154.3548,26.9014" id="Fill-11" fill="#FFFFFF"></path>
                        <path d="M163.6029,32.5196 C160.9479,32.5196 158.8559,30.6146 158.8559,27.8656 C158.8559,25.2266 161.0029,23.2136 163.6959,23.2136 C164.8649,23.2136 165.7889,23.4696 166.9409,24.0336 L166.9409,24.9166 C166.0449,24.3936 165.0099,24.0186 163.6959,24.0186 C161.1779,24.0186 159.7149,26.1096 159.7149,27.8656 C159.7149,29.9446 161.3089,31.7136 163.6029,31.7136 C164.9169,31.7136 166.1109,31.2456 166.9409,30.7236 L166.9409,31.6206 C165.9209,32.1706 164.6869,32.5196 163.6029,32.5196" id="Fill-13" fill="#FFFFFF"></path>
                        <path d="M172.9232,32.3701 L172.9232,28.5911 C172.9232,27.4351 172.0132,26.8591 171.1012,26.8591 C170.2982,26.8591 169.6662,27.2761 169.1982,27.6921 L169.1982,32.3701 L168.4212,32.3701 L168.4212,23.3621 L169.1982,23.3621 L169.1982,26.9551 C169.6392,26.6041 170.3362,26.1621 171.2102,26.1621 C172.5092,26.1621 173.7022,27.0091 173.7022,28.6571 L173.7022,32.3701 L172.9232,32.3701 Z" id="Fill-15" fill="#FFFFFF"></path>
                        <path d="M178.9613,29.3272 C178.1193,29.3272 177.0043,29.4062 176.5103,29.6762 C176.0803,29.9032 175.8383,30.2922 175.8383,30.7612 C175.8383,31.4852 176.4293,31.8472 177.1103,31.8472 C177.7413,31.8472 178.3723,31.5392 178.9613,31.0172 L178.9613,29.3272 Z M178.9613,32.3702 L178.9613,31.7272 C178.4943,32.1292 177.8503,32.5202 177.0323,32.5202 C175.8783,32.5202 175.0473,31.8232 175.0473,30.8022 C175.0473,30.3082 175.2353,29.5822 176.0803,29.1112 C176.6563,28.7902 177.7703,28.6722 178.9613,28.6722 L178.9613,28.2682 C178.9613,27.0882 178.2383,26.8342 177.5823,26.8342 C176.8453,26.8342 176.0003,27.1032 175.4783,27.3702 L175.6373,26.6042 C176.1743,26.3772 176.8713,26.1622 177.7023,26.1622 C178.9353,26.1622 179.7413,26.8192 179.7413,28.2292 L179.7413,32.3702 L178.9613,32.3702 Z" id="Fill-17" fill="#FFFFFF"></path>
                        <path d="M183.9759,26.9014 C183.3159,26.9014 182.7679,27.3554 182.3799,27.8244 L182.3799,32.3704 L181.6029,32.3704 L181.6029,26.2974 L182.3799,26.2974 L182.3799,27.0754 C182.7289,26.6984 183.3459,26.1904 184.1219,26.1904 C184.3509,26.1904 184.6989,26.2714 184.9119,26.3914 L184.9119,27.2504 C184.6429,26.9934 184.3239,26.9014 183.9759,26.9014" id="Fill-19" fill="#FFFFFF"></path>
                        <path d="M188.5453,32.5196 C187.7683,32.5196 186.7093,32.1146 186.7093,30.4816 L186.7093,26.9686 L185.7733,26.9686 L185.7733,26.2976 L186.7093,26.2976 L186.7093,24.7966 L187.4853,24.7966 L187.4853,26.2976 L189.7113,26.2976 L189.7113,26.9686 L187.4853,26.9686 L187.4853,30.4386 C187.4853,31.5276 188.1313,31.8346 188.7073,31.8346 C189.2573,31.8346 189.6583,31.6606 189.9943,31.4046 L189.9943,32.1566 C189.5783,32.3716 189.0813,32.5196 188.5453,32.5196" id="Fill-21" fill="#FFFFFF"></path>
                        <path d="M196.0921,32.5196 C194.6051,32.5196 193.8941,31.7006 193.4541,30.7616 L194.1491,30.3866 C194.5391,31.2036 195.1261,31.7536 196.1211,31.7536 C197.3161,31.7536 197.9031,30.8136 197.9031,29.9586 C197.9031,28.0126 193.9221,27.4906 193.9221,25.2266 C193.9221,24.1666 194.7651,23.2136 196.1861,23.2136 C196.8171,23.2136 197.6211,23.4816 198.2251,24.3406 L197.6091,24.8346 C197.3161,24.3406 196.7641,23.9796 196.1461,23.9796 C195.3431,23.9796 194.8071,24.5276 194.8071,25.1996 C194.8071,26.8596 198.7871,27.5306 198.7871,29.9046 C198.7871,31.4326 197.5711,32.5196 196.0921,32.5196" id="Fill-23" fill="#FFFFFF"></path>
                        <path d="M203.0238,26.8599 C201.8428,26.8599 201.0648,27.8129 200.9318,28.7379 L204.8858,28.7379 C204.8178,27.7989 204.1898,26.8599 203.0238,26.8599 L203.0238,26.8599 Z M200.8778,29.4349 C200.9598,30.7889 201.7098,31.8349 203.3038,31.8349 C204.2168,31.8349 204.9258,31.5269 205.6248,31.0579 L205.6248,31.8239 C204.9548,32.2769 204.0428,32.5329 203.2118,32.5329 C201.4948,32.5329 200.1008,31.4039 200.1008,29.2999 C200.1008,27.7589 201.1998,26.1619 203.0638,26.1619 C204.2698,26.1619 205.7328,27.1299 205.7328,29.3669 L205.7328,29.4349 L200.8778,29.4349 Z" id="Fill-25" fill="#FFFFFF"></path>
                        <path d="M209.64,26.9014 C208.984,26.9014 208.432,27.3554 208.046,27.8244 L208.046,32.3704 L207.266,32.3704 L207.266,26.2974 L208.046,26.2974 L208.046,27.0754 C208.394,26.6984 209.011,26.1904 209.788,26.1904 C210.015,26.1904 210.363,26.2714 210.577,26.3914 L210.577,27.2504 C210.31,26.9934 209.989,26.9014 209.64,26.9014" id="Fill-27" fill="#FFFFFF"></path>
                        <polygon id="Fill-29" fill="#FFFFFF" points="214.6752 32.3701 214.0042 32.3701 211.3112 26.2971 212.1952 26.2971 214.3412 31.3101 216.4852 26.2971 217.3712 26.2971"></polygon>
                        <mask id="mask-2" fill="white">
                            <use xlink:href="#path-1"></use>
                        </mask>
                        <g id="Clip-32"></g>
                        <path d="M218.528,32.371 L219.304,32.371 L219.304,26.298 L218.528,26.298 L218.528,32.371 Z M218.916,25.078 L218.22,24.381 L218.916,23.683 L219.614,24.381 L218.916,25.078 Z" id="Fill-31" fill="#FFFFFF" mask="url(#mask-2)"></path>
                        <path d="M224.0326,32.5196 C222.1396,32.5196 220.8286,30.9626 220.8286,29.3406 C220.8286,27.6376 222.2616,26.1626 224.0326,26.1626 C224.7956,26.1626 225.4256,26.3526 226.0156,26.6206 L226.0156,27.3836 C225.3576,27.0366 224.7676,26.8596 224.0326,26.8596 C222.5836,26.8596 221.6186,28.0406 221.6186,29.3406 C221.6186,30.6146 222.5036,31.8226 224.0326,31.8226 C224.8236,31.8226 225.6926,31.4326 226.0156,31.2176 L226.0156,32.0066 C225.3316,32.3576 224.5686,32.5196 224.0326,32.5196" id="Fill-33" fill="#FFFFFF" mask="url(#mask-2)"></path>
                        <path d="M229.7679,26.8599 C228.5889,26.8599 227.8119,27.8129 227.6759,28.7379 L231.6299,28.7379 C231.5659,27.7989 230.9339,26.8599 229.7679,26.8599 L229.7679,26.8599 Z M227.6229,29.4349 C227.7029,30.7889 228.4539,31.8349 230.0489,31.8349 C230.9609,31.8349 231.6719,31.5269 232.3679,31.0579 L232.3679,31.8239 C231.6969,32.2769 230.7889,32.5329 229.9559,32.5329 C228.2389,32.5329 226.8449,31.4039 226.8449,29.2999 C226.8449,27.7589 227.9449,26.1619 229.8079,26.1619 C231.0159,26.1619 232.4769,27.1299 232.4769,29.3669 L232.4769,29.4349 L227.6229,29.4349 Z" id="Fill-34" fill="#FFFFFF" mask="url(#mask-2)"></path>
                        <path d="M124.7723,11.9795 C124.1773,11.9795 123.1933,11.9535 122.6253,11.9225 C123.4323,9.8945 124.0553,8.0465 124.8653,6.2045 C125.6683,8.0465 126.7713,11.3245 127.0073,11.9225 C126.1753,11.9535 125.5783,11.9795 124.7723,11.9795 M126.7123,2.5665 L123.5203,2.5665 C121.5533,8.0175 119.6463,12.9945 117.8583,17.4925 L120.6023,17.4925 C120.7763,16.9885 121.1673,15.8845 121.8203,14.1865 C122.7463,14.1545 123.8753,14.1265 124.7723,14.1265 C125.8463,14.1265 126.7123,14.1545 127.7823,14.1865 C128.1683,15.2575 128.5893,16.3305 128.9753,17.4925 L132.4043,17.4925 C130.2573,12.2795 128.3793,7.3045 126.7123,2.5665" id="Fill-35" fill="#FFFFFF" mask="url(#mask-2)"></path>
                        <path d="M140.9466,15.1685 L138.5876,15.1685 C138.4986,13.4695 138.4986,11.8955 138.4986,10.1605 C138.4986,8.4645 138.4986,6.6175 138.5876,4.8895 L140.9466,4.8895 C143.5336,4.8895 145.7116,6.5855 145.7116,10.0155 C145.7116,13.4695 143.5336,15.1685 140.9466,15.1685 M140.9106,2.5675 L135.4016,2.5675 C135.4606,5.0685 135.4926,7.6615 135.4926,10.1325 C135.4926,12.6355 135.4606,15.0205 135.4016,17.4915 L140.9106,17.4915 C147.2316,17.4915 149.0196,13.0525 149.0196,10.0445 C149.0196,7.0055 147.2316,2.5675 140.9106,2.5675" id="Fill-36" fill="#FFFFFF" mask="url(#mask-2)"></path>
                        <path d="M154.975,17.4917 C154.914,15.6737 154.89,13.3817 154.89,11.6857 C154.89,9.9847 154.914,8.9717 154.975,7.2727 C156.558,9.4767 158.015,11.7117 159.357,13.9757 L159.772,13.9757 C161.023,11.9787 162.574,9.6267 164.273,6.9747 C164.303,8.6427 164.363,10.2527 164.363,11.8307 C164.363,13.7657 164.332,15.8547 164.273,17.4917 L167.432,17.4917 C167.371,15.0187 167.31,12.5767 167.31,10.0737 C167.31,7.6017 167.371,5.0687 167.432,2.5677 L164.187,2.5677 C162.753,5.0377 161.295,7.3607 159.952,9.2687 C158.373,7.0937 156.916,4.8877 155.576,2.5677 L152.235,2.5677 C152.297,5.1587 152.388,7.7197 152.388,10.1937 C152.388,12.6947 152.297,15.1097 152.235,17.4917 L154.975,17.4917 Z" id="Fill-37" fill="#FFFFFF" mask="url(#mask-2)"></path>
                        <path d="M175.6229,17.4917 C175.5349,15.9707 175.5349,12.4887 175.5349,9.9847 C175.5349,7.6297 175.5349,4.1157 175.6229,2.5677 L172.4039,2.5677 C172.4969,4.1157 172.4969,7.6297 172.4969,9.9847 C172.4969,12.4887 172.4969,15.9707 172.4039,17.4917 L175.6229,17.4917 Z" id="Fill-38" fill="#FFFFFF" mask="url(#mask-2)"></path>
                        <path d="M185.6048,9.3877 L183.6978,9.3877 C183.6648,8.6157 183.6648,7.8387 183.6648,7.0647 C183.6648,6.2907 183.6648,5.5147 183.6978,4.7387 L185.6048,4.7387 C187.0068,4.7387 188.2278,5.4547 188.2278,7.0647 C188.2278,8.6737 187.0068,9.3877 185.6048,9.3877 M188.7608,11.0267 C190.6398,10.1617 191.2948,8.3757 191.2948,7.0647 C191.2948,5.2777 190.0438,2.5667 186.1128,2.5667 L180.5978,2.5667 C180.6628,5.1587 180.7158,7.7197 180.7158,10.1937 C180.7158,12.6947 180.6628,15.1107 180.5978,17.4917 L183.6978,17.4917 C183.6648,16.4187 183.6408,15.3177 183.6408,14.2447 C183.6408,13.3507 183.6648,12.4577 183.6978,11.5637 L185.6048,11.5637 C187.1248,13.7667 188.4328,15.7947 189.4178,17.4917 L193.0538,17.4917 C191.4738,15.3177 190.0158,13.1137 188.7608,11.0267" id="Fill-39" fill="#FFFFFF" mask="url(#mask-2)"></path>
                        <path d="M201.7748,11.9795 C201.1778,11.9795 200.1958,11.9515 199.6308,11.9225 C200.4308,9.8945 201.0608,8.0465 201.8628,6.2025 C202.6658,8.0465 203.7718,11.3245 204.0078,11.9225 C203.1748,11.9515 202.5778,11.9795 201.7748,11.9795 M203.7118,2.5665 L200.5218,2.5665 C198.5588,8.0175 196.6528,12.9945 194.8578,17.4925 L197.6058,17.4925 C197.7808,16.9865 198.1698,15.8805 198.8218,14.1855 C199.7468,14.1545 200.8818,14.1225 201.7748,14.1225 C202.8468,14.1225 203.7118,14.1545 204.7788,14.1855 C205.1738,15.2575 205.5868,16.3305 205.9758,17.4925 L209.3988,17.4925 C207.2578,12.2795 205.3788,7.3025 203.7118,2.5665" id="Fill-40" fill="#FFFFFF" mask="url(#mask-2)"></path>
                        <path d="M221.974,17.4917 C220.397,17.4327 218.7,17.4327 217.088,17.4327 C215.479,17.4327 213.93,17.4327 212.262,17.4917 C212.322,14.9897 212.382,12.4287 212.382,9.9237 C212.382,7.4497 212.322,5.0377 212.262,2.5677 L215.479,2.5677 C215.42,4.8877 215.389,7.5697 215.389,9.9237 C215.389,11.7717 215.42,13.3197 215.479,15.1687 L218.402,15.1687 C219.65,15.1687 221.021,15.1687 221.974,15.1097 L221.974,17.4917 Z" id="Fill-41" fill="#FFFFFF" mask="url(#mask-2)"></path>
                        <path d="M233.8558,4.918 C232.5688,4.861 230.9938,4.828 229.4718,4.828 C229.4448,6.707 229.4108,8.704 229.4108,10.579 C229.4108,12.876 229.4448,15.197 229.4718,17.492 L226.2558,17.492 C226.3168,15.197 226.3458,12.995 226.3458,10.641 C226.3458,8.79 226.3168,6.648 226.2558,4.828 C224.6468,4.828 223.0378,4.861 221.8728,4.918 L221.8728,2.567 C223.8718,2.624 225.8688,2.655 227.8608,2.655 C229.8628,2.655 231.8538,2.624 233.8558,2.567 L233.8558,4.918 Z" id="Fill-42" fill="#FFFFFF" mask="url(#mask-2)"></path>
                        <path d="M243.9173,12.2041 C243.8843,13.0111 243.8843,13.6671 243.8843,14.2291 L243.9743,17.3881 L240.7533,17.3881 C240.7893,16.6431 240.8193,15.3641 240.8193,14.0191 C240.8483,12.6211 240.8483,11.1031 240.8483,10.7741 C239.3883,8.1821 237.4793,5.2921 235.5453,2.4611 L239.2973,2.4611 C240.3393,4.4581 241.4753,6.3641 242.6943,8.1221 C244.0023,6.3071 245.1683,4.3701 246.2693,2.4611 L249.1303,2.4611 C246.9823,5.7111 245.0473,8.6891 243.9423,10.7461 C243.9423,10.9241 243.9423,11.4011 243.9173,12.2041" id="Fill-43" fill="#FFFFFF" mask="url(#mask-2)"></path>
                        <path d="M30.7347,13.6851 L28.7267,19.2621 L32.7177,19.2621 L30.7347,13.6851 Z M35.0487,25.7601 L33.8347,22.3361 L27.6117,22.3361 L26.3967,25.7601 L22.6027,25.7601 L29.0747,9.0961 L32.3717,9.0961 L38.8437,25.7601 L35.0487,25.7601 Z" id="Fill-44" fill="#FFFFFF" mask="url(#mask-2)"></path>
                        <polygon id="Fill-45" fill="#FFFFFF" mask="url(#mask-2)" points="47.1 25.7598 43.727 25.7598 37.405 9.0958 41.248 9.0958 45.463 20.8728 49.629 9.0958 53.422 9.0958"></polygon>
                        <path d="M63.1659,12.0957 C59.7679,12.0957 57.6859,14.7497 57.6859,17.4277 C57.6859,20.6517 60.3149,22.7577 63.1909,22.7577 C65.0999,22.7577 66.9099,21.9157 68.4469,20.5527 L68.4469,24.5437 C66.8359,25.5107 64.6289,26.1047 62.9169,26.1047 C58.0089,26.1047 53.8929,22.1157 53.8929,17.4277 C53.8929,12.4687 58.0339,8.7487 62.9419,8.7487 C64.8279,8.7487 67.0339,9.3187 68.4719,10.0367 L68.4719,13.9557 C66.6619,12.7657 64.8279,12.0957 63.1659,12.0957" id="Fill-46" fill="#FFFFFF" mask="url(#mask-2)"></path>
                        <path d="M76.6957,26.1045 C73.5467,26.1045 71.8367,23.9765 70.9677,22.1145 L74.1177,20.4525 C74.3907,21.5205 75.0347,22.8835 76.7197,22.8835 C77.7137,22.8835 78.6797,22.0885 78.6797,20.9755 C78.6797,18.1205 71.6867,18.5685 71.6867,13.5345 C71.6867,11.0555 73.8687,8.7485 76.8207,8.7485 C78.8287,8.7485 80.6637,9.7665 81.8547,11.6985 L78.8777,13.3605 C78.4567,12.6155 77.7367,11.9965 76.8207,11.9965 C75.8517,11.9965 75.3067,12.5415 75.3067,13.2875 C75.3067,15.4935 82.3977,15.1955 82.3977,20.6015 C82.3977,23.1555 80.4417,26.1045 76.6957,26.1045" id="Fill-47" fill="#FFFFFF" mask="url(#mask-2)"></path>
                    </g>
                </g>
            </g>
        </g>
    </g>
</svg>