<svg xmlns="http://www.w3.org/2000/svg" viewBox="0 0 243 41.24"><title>ukho--line</title><rect width="1.63" height="41.24" style="fill:#09315b"/><path d="M57.1,22.58c0,3.5-2,5.34-5.45,5.34S46,26.27,46,22.58V13.74h1.84v8.84c0,2.45,1.4,3.79,3.84,3.79s3.61-1.34,3.61-3.79V13.74H57.1Z"/><path d="M59.87,13.74h1.84v6.9l7-6.9h2.39l-5.84,5.59,6.07,8.26H69l-5-7-2.31,2.15v4.85H59.87Z"/><path d="M77.61,13.74h1.85v6h7.29v-6h1.84V27.59H86.75V21.25H79.46v6.34H77.61Z"/><path d="M94.76,28.93c-.76,2-1.44,2.68-2.91,2.68a3.22,3.22,0,0,1-1.15-.18V29.92a3.27,3.27,0,0,0,1,.23A1.43,1.43,0,0,0,93,29.24l.68-1.71-4-10H91.6l2.93,8.21h0l2.82-8.21h1.74Z"/><path d="M108.7,27.59h-1.65V26.23h0a3.36,3.36,0,0,1-3.2,1.59c-3.08,0-4.62-2.44-4.62-5.27s1.52-5.22,4.58-5.22A3.85,3.85,0,0,1,107,18.9h0V13.74h1.65ZM104,26.37c2.21,0,3.07-1.9,3.07-3.78s-.89-3.81-3.16-3.81-3,1.92-3,3.88S101.91,26.37,104,26.37Z"/><path d="M110.7,17.56h1.55v2.12h0A3.64,3.64,0,0,1,116,17.33v1.74c-2.66,0-3.63,1.52-3.63,4.06v4.46H110.7Z"/><path d="M121,17.33c3.18,0,4.87,2.31,4.87,5.26s-1.69,5.23-4.87,5.23-4.87-2.31-4.87-5.23S117.85,17.33,121,17.33Zm0,9c1.73,0,3.12-1.36,3.12-3.78s-1.39-3.81-3.12-3.81-3.12,1.36-3.12,3.81S119.3,26.37,121,26.37Z"/><path d="M136.09,26.74c0,3.26-1.49,4.92-4.65,4.92-1.89,0-4.06-.75-4.16-2.94h1.65c.08,1.2,1.52,1.63,2.6,1.63,2.16,0,3-1.56,3-3.81v-.66h0a3.34,3.34,0,0,1-3.12,1.83c-3,0-4.48-2.35-4.48-5.09,0-2.36,1.16-5.29,4.63-5.29a3.27,3.27,0,0,1,3,1.67h0V17.56h1.55Zm-1.63-4.37c0-1.76-.77-3.59-2.85-3.59s-3,1.73-3,3.65.66,3.82,2.83,3.82S134.46,24.25,134.46,22.37Z"/><path d="M138.07,17.56h1.55v2.12h0a3.63,3.63,0,0,1,3.68-2.35v1.74c-2.65,0-3.62,1.52-3.62,4.06v4.46h-1.65Z"/><path d="M153.07,27.55a2.17,2.17,0,0,1-1.18.27c-.86,0-1.4-.46-1.4-1.55A4.44,4.44,0,0,1,147,27.82c-1.83,0-3.32-.81-3.32-2.81,0-2.27,1.69-2.75,3.4-3.08s3.37-.24,3.37-1.48c0-1.43-1.18-1.67-2.23-1.67-1.4,0-2.43.43-2.5,1.9H144c.1-2.48,2-3.35,4.25-3.35,1.8,0,3.76.4,3.76,2.75v5.16c0,.78,0,1.13.52,1.13a1.38,1.38,0,0,0,.51-.1Zm-2.68-5.14a8.3,8.3,0,0,1-3,.68c-1.08.19-2,.58-2,1.8s.93,1.48,1.94,1.48c2.17,0,3.06-1.36,3.06-2.27Z"/><path d="M154.24,17.56h1.65v1.36h0a3.36,3.36,0,0,1,3.2-1.59c3.08,0,4.62,2.44,4.62,5.27s-1.52,5.22-4.58,5.22a3.82,3.82,0,0,1-3.24-1.57h0v5.18h-1.65Zm4.66,1.22c-2.22,0-3.07,1.9-3.07,3.79s.89,3.8,3.16,3.8,3-1.92,3-3.88S161,18.78,158.9,18.78Z"/><path d="M165.26,13.74h1.65V19h0a3.39,3.39,0,0,1,3.16-1.7c2.64,0,3.46,1.51,3.46,3.66v6.6h-1.65V20.8a1.9,1.9,0,0,0-2-2,2.82,2.82,0,0,0-3,3.15v5.66h-1.65Z"/><path d="M177.25,15.76H175.6v-2h1.65Zm-1.65,1.8h1.65v10H175.6Z"/><path d="M186.16,20.78a2.34,2.34,0,0,0-2.49-2c-2.38,0-3.12,1.88-3.12,3.92,0,1.84.83,3.67,2.93,3.67a2.59,2.59,0,0,0,2.75-2.45h1.69a4.16,4.16,0,0,1-4.42,3.9c-3.07,0-4.7-2.13-4.7-5.12s1.56-5.37,4.74-5.37c2.27,0,4.09,1.06,4.32,3.45Z"/><path d="M34.14,29c1.18.62.34,2.11-1.64,1.94.74.92-.3,1.8-1.89,1.09l-.05-.26c1.24.5,2.34.09,1.45-.85-.1-.19-.12-.33.17-.36,1.61.15,2.42-.58,1.83-1.16-.11-.09-.36-.14-.53-.25s-.16-.34.07-.41A2.49,2.49,0,0,0,35.08,28c.21-.31.07-.59-.54-.7-.35-.05-.23-.31.06-.45.46-.57.21-.89-.2-.76-.19.07-.26,0-.19-.2s-.15-1-.72-.46c-.08.14-.15.09-.2,0-.32-.54-.68-.36-.84.23-.12.29-.2.14-.27-.06-.22-.62-1.13-.78-1.3,1.35,0,.4-.27.42-.34.18-.31-1-1.37-.28-1,1.14.08.23-.1.76-.27.24a1.3,1.3,0,0,0-.11-.32c-.32-.94-1.64.24-.34,2.16,1.11-.56,1.95,0,1.5,1.4.16.4,0,.78-.39,1.19a3.83,3.83,0,0,1,.56,0c.26-.07.55-.17.82-.26l-.72.37a2.89,2.89,0,0,1-1.26,1.07c-.15.21-1.35.59-.41,1.19-1.12-.22-1.59.09-1.4.63a1.41,1.41,0,0,0,1,.46,1.07,1.07,0,0,0,1-.46c-.05.19-.21.43-.18.57s.16.43.48.52.91.22,1.35.35a13,13,0,0,1,1.35.6,1.79,1.79,0,0,0,1,.4c-.17.17-.46,0-.83,0-.62,0-1.09.43-2,.28-.66-.16-1.52.21-1,1a.83.83,0,0,1-.37-.54c-.19-.69-.57-1.05-1.56-1.33-2.22-.54-2.22,1.77-.36.85-.39.48-.33.93.26,1a3,3,0,0,1,.55.33,3,3,0,0,1,.73.73,1.83,1.83,0,0,0,1.1.41c0,.11-.25.18-.59.11a1.32,1.32,0,0,0-.39,0A3.18,3.18,0,0,1,27.53,41c-.8-.23-1.31-.92-1.6-.92a1.63,1.63,0,0,0-1.06.47c1.05-1.93-1.7-2.2-1.82-.75l0,.48v-.48c0-1.42-2.88-1.12-1.84.78a1.68,1.68,0,0,0-1.06-.47c-.29,0-.8.7-1.61.92a3.26,3.26,0,0,1-1.46.17.85.85,0,0,0-.41,0c-.33.07-.58,0-.58-.1a1.86,1.86,0,0,0,1.09-.42,3.25,3.25,0,0,1,.73-.73,4.7,4.7,0,0,1,.55-.33c.6-.08.65-.53.27-1,1.9.8,1.88-1.4-.37-.84-1,.27-1.37.64-1.54,1.33a.83.83,0,0,1-.39.53c.54-.74-.31-1.1-1-1a5.47,5.47,0,0,1-2-.27c-.39,0-.68.13-.86-.06a1.91,1.91,0,0,0,1-.38,10.12,10.12,0,0,1,1.36-.62c.45-.12.89-.22,1.34-.35s.49-.24.47-.52c0-.12-.11-.38-.17-.57a1,1,0,0,0,1,.47,1.41,1.41,0,0,0,1-.47c.19-.54-.28-.83-1.39-.62.93-.61-.27-1-.42-1.2A2.9,2.9,0,0,1,15.41,33l-.7-.36.81.28a2.17,2.17,0,0,1,.75,0h0c-.53-.4-.68-.83-.43-1.28-.44-1.37.29-1.91,1.42-1.35,1.31-1.86.12-3-.26-2.22a3.19,3.19,0,0,0-.1.35c-.27.57-.41-.07-.32-.26.41-1.41-.62-2.13-.93-1.13-.13.26-.42.22-.35-.19-.23-2.08-1-1.87-1.29-1.35-.12.23-.22.38-.27.07-.24-.5-.51-.78-.84-.23-.06.16-.15.18-.25,0-.43-.25-.72-.21-.69.5.06.17,0,.22-.16.16-.54-.06-.67.24-.14.84.2.18.27.3,0,.35-.62.12-.77.43-.58.75a2.5,2.5,0,0,0,1.52.76c.22,0,.27.26.07.39s-.36.16-.48.25c-.72.55.08,1.3,1.77,1.18.29,0,.33.15.22.34-.88.94.21,1.33,1.46.85l-.06.25c-2,.53-2.39-.29-1.67-1.2-2.17.24-3-1.28-1.48-1.84-1.42-.29-2.5-1.37-1-1.94-.47-.78-.48-1.26.28-1.26.07-.69.36-1,1.08-.69.29-.47.68-.45,1.18,0,.9-.8,1.4-.12,1.72,1.16.69-.43,1.15.07,1.45,1.13.91-.9,1.08,1.93,1.6,1.43a1,1,0,0,1,1.06-.21.65.65,0,0,1,.26.45c0,.28.31.3.47.39s.44.81.59.67l.26-.79.66.71L22.42,29l.62.87.63-.76.48,1,.65-.54.34.9a1,1,0,0,0,.24-.15c.06-.07-.16-.62.22-.81.13-.08.32-.06.41-.2.29-.44.54-.91,1.08-.66.2.1.77.51.85.16s.26-1.07.64-1.14c.58-.11.66.06.7.1,0-1.52.94-1.65,1.33-1.11.26-1.4.83-2.2,1.67-1.34.29-.53.75-.65,1.16-.17.72-.34,1.08-.19,1.15.49.77,0,.78.76.46,1.33C36.24,27.53,35.42,28.76,34.14,29ZM20.3,33.28c1.45-.38.85-1.94-1.13-1.53,1-.51,1.62-1.93.6-2-.07-.64-.51-.88-1-.36-.77-.35-1.25.73-.87,2-1-1.49-2.51-1-1.76.41-.79.7.94,1.77,2,.85C19,34.65,20.67,34.06,20.3,33.28ZM18,33.54a3.56,3.56,0,0,0,.41.17,5.75,5.75,0,0,1-.36-.8,2,2,0,0,1-.25.13C17.87,33.21,17.94,33.38,18,33.54Zm9.89-1.07c1.09.93,2.81-.16,2-.84.75-1.47-.77-1.92-1.76-.43.37-1.23-.11-2.3-.88-1.94-.46-.53-.9-.29-1,.37-1,.08-.42,1.5.58,2-2-.4-2.57,1.16-1.12,1.53C25.4,34,27.11,34.54,27.9,32.47Zm.37.47L28,32.83a7,7,0,0,1-.36.8l.41-.18Zm-4.92-1.32.62-1v1.1l.7-.67-.22.92.77-.45.22-1-.7.44,0-1.13-.74.64-.39-1-.56.77-.55-.77-.39,1-.73-.64,0,1.13-.7-.44.22,1,.77.45-.22-.92.7.67,0-1.1.61,1L23,30.41Zm-.42,6.67c-.12-.71-.26-.89-.89-.84A1.84,1.84,0,0,1,20.6,36a2.53,2.53,0,0,1-.11-.73,9.14,9.14,0,0,1,.08-1.09c-.8,1.49-2-.9-4.76-1,.73.75,2.15,1.25,1.86,1.84,1.81,0,1.33,2-.79,1.49.07,1.12-2.15.74-3.4,1.76.52,0,.91.26,1.3.28.77,0,1.4-.14,1.86.23a2.24,2.24,0,0,1,1.23-1.06c2.05-1,3.59,1.51,1.25,1.25.2.91-.84.6-2.08,2,2.18.43,2.66-1.77,3.75-.9-.26-1.65,1.51-1.85,2.2-.77.7-1.08,2.5-.88,2.22.77,1.1-.87,1.59,1.33,3.76.9-1.25-1.44-2.27-1.13-2.07-2-2.34.26-.8-2.22,1.25-1.25a2.1,2.1,0,0,1,1.21,1.06c.48-.37,1.11-.21,1.88-.23.39,0,.79-.26,1.3-.28-1.27-1-3.48-.64-3.42-1.76-2.11.46-2.57-1.53-.76-1.49-.3-.59,1.12-1.09,1.86-1.84-2.75.14-4,2.53-4.77,1a6.31,6.31,0,0,1,.07,1.09l-.1.73A1.82,1.82,0,0,1,24,37.45c-.63-.05-.77.13-.88.84,0,.05-.05.12-.09.13S22.94,38.32,22.93,38.29Zm-2.21-3.5a2.23,2.23,0,0,0,1.15,2.27,3.07,3.07,0,0,0-.1-.63c.06.11.46.7.47.59a2.82,2.82,0,0,0-.06-.76,2.46,2.46,0,0,0,.49.87,2.24,2.24,0,0,0,0-1c.19.08.38,1.12.34,1,.16-.07.33-1.08.29-1,.12,0,.07.79.09,1,.15,0,.51-1.06.44-.94.12.09,0,.61,0,.82s.44-.59.46-.63-.24.68-.2.66a2.4,2.4,0,0,0,1.19-2.28A2.39,2.39,0,0,0,23,32.07,2.72,2.72,0,0,0,20.72,34.79Z"/><path d="M9.89,13.73c-.75-1.18-.86-2.82.54-2.25-.34-1-.1-2.55,1-1.78.34-.73.74-1.11,1.23-.54.5-.17.75,0,.82.48.51,0,.62.49.32,1,.82.38.33,1.41-.52,2,.52.66-.17,1.58-1.18,1.84a1,1,0,0,0-.17-.35c.44-.1,1.74-1.14.68-1.33-.56,0-.27-.21,0-.3.8-.07,1.73-1.83.66-1.47-.32.09-.29-.16.11-.41.24-.33.41-.65.1-.72s-.29-.05-.25-.24-.14-.38-.44-.26-.2-.15-.4-.21-.51.25-.65.59-.17.54-.33.23c-.71-.82-.95.45-.73,1.33.14.47,0,.56-.21.43-1.27-.72-.92,1-.27,2A1.17,1.17,0,0,0,9.89,13.73Z"/><path d="M12.28,8.83c-.36-1.71.34-2.13,1.09-1.63-.07-1.44.7-2.09,1.33-1.19.28-.77.82-1,1.18-.35.6,0,.75.28.65.8.39.19.48.47.1.9.57.59,0,1.28-.94,1.56.48,1.09-1.45,1.38-1.6,1.31A.78.78,0,0,0,14,9.8c.67.14,1.86-.5.94-1-.58-.28.05-.28.22-.28,1.17,0,1.56-.85.91-1-.39,0-.34-.17,0-.29s.61-.39.34-.57-.19-.17-.14-.35c.05-.35-.08-.47-.36-.42-.13,0-.24,0-.27-.15-.24-.35-.46-.28-.68.29-.06.09-.29.52-.43.21-.41-.85-1-.21-1,.9.09.48,0,.62-.29.3-.88-.71-1,.51-.76,1.47A.73.73,0,0,0,12.28,8.83Z"/><path d="M11.37,25.72a1,1,0,0,0-.32.17c-1.47-.24-2.89-1.65-1.35-2.34-1.45-1-1.47-2.56-.22-2.37-.55-1-.14-1.63.6-1.39a.64.64,0,0,1,1.19-.14c.57-.29,1.09.23,1,.94.81-.19,1.28.66.75,1.85,1-.1,1.27,1.13.43,2.29a1.06,1.06,0,0,0-.56,0c1-1.22.68-2.4-.29-1.59-.24.07-.45,0-.34-.21.61-.77.93-2.65-.45-1.76-.22.07-.22-.19-.13-.31.3-.54,0-1.2-.45-.89,0,.06-.24,0-.24-.1-.08-.38-.66-.47-.75.1,0,.23-.3.07-.34.06-.51-.16-.63.39-.15,1.17.06.07.19.44-.24.3-1.33-.38-.57,1.45.51,1.94.19.08.12.29-.08.31C8.54,24.11,9.69,25.46,11.37,25.72Z"/><path d="M9.77,19.69a.56.56,0,0,0-.27,0c-1.11-.76-2-2.91-.4-2.81-.8-.91-1-2.61.29-2.23a.63.63,0,0,1,.92-.74c.38-.39.71-.31,1,.14.68-.13.73.34.73.84,1.08.16.7,1.58.17,2.31,1,.36.46,1.66-.22,2.37a.83.83,0,0,0-.43-.1c.76-.66,1.16-2.07.18-1.89-.4.21-.45-.05-.11-.37.55-.58,1.08-2,.16-1.87-.21.12-.28.06-.21-.2s.09-.94-.26-.78c-.11.1-.21.1-.25-.16s-.27-.36-.56-.12c-.09.1-.19.16-.29.09-.47-.19-.63,0-.5.65.05.26,0,.26-.2.21a.69.69,0,0,0-.38-.17c-.6-.05-.51.95.24,2,.24.17.19.62-.19.36C8.4,16.87,8,18.15,9.77,19.69Z"/><path d="M15.51,5.18c0-1.1.85-2,1.34-1.06.36-.83,1.4-1.7,1.64-.69.75-.64,1.47-.63,1.4.19.67,0,.77.48.38,1,.65.4.31,1.19-.53,1.21.07.59-.33.9-1.16.94,0,.83-1.06,1-1.86.64.17-.09.22-.33.26-.37,1.12.27,1.29-.2.73-.69-.12-.14,0-.21.19-.17,1.05.27,1.86,0,1-.66-.12-.26.22-.16.21-.17,1,.22,1.43-.32.85-.61-.09,0-.14-.1,0-.19.48-.34.35-.73-.29-.62-.13.05-.16,0-.1-.11C20,3,19,3.13,18.44,3.83c-.12.12-.22.06-.2-.07.19-1-.79-.61-1.3.78-.1.15-.22.17-.24,0-.13-1.09-1-.47-1,.71A1.6,1.6,0,0,0,15.51,5.18Z"/><path d="M29.32,7.26c0-.09-.09-.16-.14-.25-.68.25-1.48.12-.9-.59.29-.17.13-.38-.16-.2-.49.22-1.93,0-1-.66.24-.11.07-.32-.16-.21s-1.58-.09-.89-.61c.24,0,.24-.17,0-.27-.43-.2-.15-.73.27-.59.19.15.38,0,.19-.12-.36-1,1-.36,1.09,0s.35.19.28,0c-.11-1.16,1.17,0,1.24.68.05.34.36.39.31,0,.2-1,.91-.23,1,.69A.77.77,0,0,1,30.75,5c-.14-.9-.8-2-1.52-1.18-.34-1-1.45-1.38-1.74-.62-.6-.66-1.64-.33-1.31.41a.53.53,0,0,0-.35,1c-.73.59.21,1.21.81,1-.41.69.71,1.11,1.26.83C27.58,7.72,29.06,7.26,29.32,7.26Z"/><path d="M32,10.08a.3.3,0,0,1,.12-.24c-1.13-.06-2-.45-.95-1.08.12,0,.35-.22-.1-.22-.76.19-2.11-.71-1-1,.26,0,.24-.24,0-.24s-.72-.31-.45-.57c0,0,.28-.16.14-.38-.15-.73.74-.19.68-.59,0,0,.31-.71.74.45.07,0,.31.45.39,0,.21-.78,1.18-.15.9,1.06q-.09.57.24.21c1-.71,1,.48.84,1.26a1.3,1.3,0,0,1,.39,0c.26-1.23-.1-2.24-1.07-1.76,0-1.11-.77-2.05-1.47-1.16-.15-.56-.87-1.08-1.23-.16-.63,0-.7.45-.6.82a.52.52,0,0,0,.07.91c-.73.64.41,1.42,1.06,1.37C30.19,9.82,31,10,32,10.08Z"/><path d="M34.12,14.41a1.62,1.62,0,0,1,.1-.18c-.68-.22-1.83-1.19-.74-1.4.35.05.35-.22,0-.28-.63,0-1.84-1.71-.77-1.52.31.24.39,0,.09-.26s-.58-.85-.19-.87c.07.09.32,0,.2-.17a.28.28,0,0,1,.4-.29c.17.12.27.08.32-.07.34-.44.75.13.8.52s.21.43.35.12c.78-.64.9.24.71,1.36-.17.56,0,.6.31.39,1.47-.5.5,1.47.22,2a2.88,2.88,0,0,1,.41,0c.31-.52,1.22-2.75-.49-2.44C36,10,35.67,9,34.64,9.59c-.17-.57-.87-1.1-1.31-.36-.24-.23-.84.09-.75.47-.52.05-.46.76-.09,1.1-1.11.25.26,1.82.67,1.89C32.14,13,33.4,14.32,34.12,14.41Z"/><path d="M34.59,19.64c-.65-.61-1.35-2.13-.17-1.94.29.1.34,0,.17-.28-.44-.29-1.31-2.15-.31-2,.13.17.42,0,.21-.26s-.05-.85.27-.71.24,0,.23-.12c.08-.31.27-.37.56-.23.12.21.26.21.41.09.51-.07.51.26.46.66s0,.31.24.19c1-.35.87.81.14,1.78-.33.43-.31.69.18.42,1.23,0,.33,1.63-.49,2.35.34,0,.27.11.41.16.73-.43,1.84-2.76.44-3,.48-.83,1-2.33-.58-2.26,0-.54-.29-.82-1-.54-.49-.38-.76-.21-.93.22-.54-.08-.72.25-.54,1-1.07-.24-.81,1.39,0,2.22-1.38.1-.48,1.82.07,2.25A.26.26,0,0,1,34.59,19.64Z"/><path d="M33.06,24.69s-.35,0-.33,0c-.87-1.64-.49-2.28.55-2-.58-1.59-.17-2.16.76-1.85-.2-1,.14-1.25.81-1.08.34-.57.84-.53,1.13,0,1.26-.32,1.12.51.78,1.35,1.56.1.81,1.45-.08,2.33,1.57,1-.33,2.43-1.42,2.57.07,0-.14-.4-.22-.38,1-.14,2.58-1.54,1.1-1.89-.28-.05-.32-.16,0-.35.93-.59,1.78-2.18.39-1.85-.15,0-.42.07-.2-.31s.58-1.39-.24-1.15c-.07,0-.24.07-.29-.17-.2-.36-.44-.43-.7-.07,0,.19-.17.24-.31.12-.61-.19-.54.3-.49.78.25.42.08.59-.23.35-.84-.35-1.09.21-.44,1.62.23.37.26.61-.2.37C32.61,22.53,32.06,23.12,33.06,24.69Z"/><path d="M15.83,30.34l-.56-.47a12,12,0,0,1-2.15.14c-.18,0-.18-.09,0-.07a18.74,18.74,0,0,0,2-.19,14.52,14.52,0,0,1-1.28-1.32s-1.77-.29-1.83-.31c-.23-.05-.15-.1,0-.08a13.55,13.55,0,0,0,1.66.24l-.8-1.2a5.36,5.36,0,0,1-1-.36c-.1,0-.06-.1,0,0a5,5,0,0,0,.81.24l-.44-1c-.07-.12,0-.14.07,0a8.86,8.86,0,0,0,.67,1.24,9.91,9.91,0,0,0,.08-1.45c0-.12.06-.11.07,0a15,15,0,0,1,0,1.64,5.84,5.84,0,0,0,.92,1.13,15.8,15.8,0,0,0,.34-2.17c0-.08.06-.05.06,0,0-.09-.25,2.16-.3,2.27s1.35,1.3,1.36,1.26.26-2.32.28-2.37.1-.14.06,0a22.25,22.25,0,0,0-.2,2.46,3.2,3.2,0,0,0,.27.22A.34.34,0,0,0,15.83,30.34Z"/><path d="M14.38,31.39c.39-.19.71-.31,1.11-.5a.25.25,0,0,0,0,.12c-.38.18-.7.3-1.08.47C14.3,31.53,14.24,31.45,14.38,31.39Z"/><path d="M17,28.83c0-.07.05-.07.07,0-.12.38-.22.78-.31,1.19h-.15C16.78,29.63,16.92,29.23,17,28.83Z"/><path d="M11.84,25a.7.7,0,0,1-.09-.17,9.05,9.05,0,0,0-1.45-.28c-.32,0-.19-.07,0-.07l1.35.16S11,23.15,11,23.13a5.17,5.17,0,0,1-1.24-.72c-.19-.12-.17-.19,0-.07,0,0,1.11.58,1.13.58-.09-.2-.36-1.59-.36-1.6L10,20.8c-.16-.11-.12-.19,0-.09l.49.4v-.92c0-.17.08-.17.07,0a7,7,0,0,0,.06,1.23l.58-.78c.14-.24.19-.19.05.05a6.91,6.91,0,0,1-.59.92,9.83,9.83,0,0,0,.46,1.63,15.32,15.32,0,0,0,.9-1.32c.19-.27.11,0,.07.07-.29.47-.56,1-.9,1.4a6.85,6.85,0,0,0,.7,1.44,8.81,8.81,0,0,1,.78-1c.19-.14.09,0,.07.07A5.82,5.82,0,0,0,12,25,.67.67,0,0,1,11.84,25Z"/><path d="M10.45,19.27c0-.14,0-.31,0-.45-.32-.26-.68-.52-1-.76-.09,0,0-.12,0-.09l1,.63-.07-1.75s-.92-.92-.92-1-.05-.18,0-.05a8.25,8.25,0,0,0,.89.79s.09-1.32.1-1.32-.49-.67-.49-.69,0-.17.05,0a3.19,3.19,0,0,0,.46.55c0-.28.09-.55.16-.85,0-.1.06-.08.05,0-.05.4-.12.78-.17,1.18a3.72,3.72,0,0,0,.68-.64c.12-.12.15-.07.05.07a5.53,5.53,0,0,1-.75.78c0,.45,0,.92-.05,1.37.46-.37,1.12-.92,1.14-.92.26-.24.14,0,0,.07a11.4,11.4,0,0,1-1.17,1,13.64,13.64,0,0,0,.14,1.8,6.76,6.76,0,0,1,1-.61c.19-.1.17,0,0,.07a5.71,5.71,0,0,0-1,.7l0,0C10.52,19.24,10.49,19.27,10.45,19.27Z"/><path d="M10.83,13.61l.1-.31c-.24-.31-.46-.61-.72-.92-.13-.12-.08-.19,0-.05l.71.8c.17-.44.34-.87.52-1.3-.18-.33-.36-.64-.53-1-.11-.12,0-.15.05,0,.19.28.37.55.54.82.23-.4.45-.84.67-1.25,0-.17-.08-.35-.12-.54s0-.17.05,0,.1.31.14.46l.46-.64c.12-.12.09,0,0,.07l-.53.75c.26,0,.53-.11.79-.14s.07.1,0,.08a5.66,5.66,0,0,1-.9.21c-.22.44-.43.9-.65,1.35A8.78,8.78,0,0,0,13,11.67c.17,0,.19,0,0,.07a6.73,6.73,0,0,1-1.55.36c-.17.47-.34.94-.46,1.41a5.51,5.51,0,0,1,1.09-.18c.14,0,.36.05,0,.07a5.62,5.62,0,0,0-1.07.28Z"/><path d="M13.27,9.09a1.57,1.57,0,0,0,.17-.21A6.87,6.87,0,0,0,13.06,8c-.06-.11,0-.14.06,0s.42.8.41.8c.3-.38.63-.76.94-1.13l-.36-.89c-.06-.2.06-.06.06,0,.13.28.24.56.38.81.27-.25.54-.52.82-.79,0-.21,0-.44,0-.64s.05-.14.07,0,.07.34.09.52A4.51,4.51,0,0,0,16,6.2c.07-.07.12,0,.05,0l-.58.54c.19,0,.38,0,.57,0s.19.1,0,.07-.46,0-.69,0l-.88.92a7,7,0,0,0,1,.08c.16,0,.12.07,0,.09-.34,0-.8,0-1.12,0-.3.36-.59.74-.88,1.11.31.07.62.08.92.12s.28.08,0,.08a5.83,5.83,0,0,1-1-.07Z"/><path d="M16.51,5.7l1.06-.64c0-.35.07-.71.1-1.06,0-.17.09,0,.07,0,0,.33,0,.64,0,1a11.26,11.26,0,0,1,1.23-.57c.07-.21.13-.42.19-.63s.1-.12.06,0-.06.37-.1.56l.53-.16c.17-.05.17,0,0,.07s-.49.16-.73.24a2.63,2.63,0,0,0,.68.31c.14.07.14.12,0,.07S19,4.69,18.7,4.6a9.52,9.52,0,0,0-1.15.58,4.79,4.79,0,0,0,.79.57c.15.07.12.14,0,.07,0,0-.91-.51-.91-.54l-.82.54A.21.21,0,0,0,16.51,5.7Z"/><path d="M16.14,5.58a.61.61,0,0,0,.13,0c0-.24,0-.5,0-.74s-.07-.14-.09,0S16.15,5.33,16.14,5.58Z"/><path d="M16.68,6.06a.41.41,0,0,1,0,.12c.22.14.42.28.64.44s.13,0,0-.09Z"/><path d="M30.19,30.31l.58-.47A15,15,0,0,0,32.9,30c.17,0,.19-.1,0-.08a16.66,16.66,0,0,1-2-.2s1.31-1.28,1.29-1.31S34,28.12,34,28.09c.26,0,.17-.1,0-.07a14.71,14.71,0,0,1-1.65.22l.8-1.19a6.48,6.48,0,0,0,1-.35c.11-.05.08-.12,0-.07a6.48,6.48,0,0,1-.82.26l.47-1c0-.14,0-.14-.08-.05A7.75,7.75,0,0,1,33,27.13a10.35,10.35,0,0,1-.08-1.47c0-.12-.06-.1-.07,0s0,1.65,0,1.65a5.59,5.59,0,0,1-.9,1.14,16,16,0,0,1-.34-2.18c0-.09-.09-.05-.09,0,0-.08.26,2.17.31,2.27a14.83,14.83,0,0,1-1.37,1.27,22.53,22.53,0,0,0-.27-2.38c-.05-.17-.08-.14-.07,0,.12.83.19,1.61.23,2.46l-.29.22A.36.36,0,0,1,30.19,30.31Z"/><path d="M31.62,31.38c-.39-.19-.7-.32-1.11-.5a.53.53,0,0,1,0,.13c.39.16.69.28,1.07.45C31.72,31.53,31.78,31.43,31.62,31.38Z"/><path d="M29,28.83c0-.07-.05-.07-.07,0,.12.38.22.78.31,1.18l.15,0C29.21,29.61,29.08,29.21,29,28.83Z"/><path d="M34.27,24.94a.58.58,0,0,1,.08-.18,8.57,8.57,0,0,1,1.46-.28c.3,0,.18-.06,0-.06s-1.37.15-1.35.15.63-1.5.61-1.52a5.86,5.86,0,0,0,1.23-.73c.19-.12.17-.17,0-.05l-1.1.57c.06-.21.34-1.59.34-1.59s.56-.54.54-.54c.16-.1.12-.19,0-.07l-.5.38,0-.92c0-.17-.09-.17-.07,0a5.44,5.44,0,0,1-.07,1.23l-.58-.77c-.13-.25-.19-.2,0,.07a7.82,7.82,0,0,0,.6.9,8.63,8.63,0,0,1-.46,1.62S34,21.86,34,21.84c-.18-.28-.1,0,0,.06a13.28,13.28,0,0,0,.89,1.41,8.94,8.94,0,0,1-.68,1.43,10.41,10.41,0,0,0-.81-1c-.16-.14-.08,0-.06.07a5.08,5.08,0,0,1,.76,1.09Z"/><path d="M35.67,19.33c0-.16,0-.32,0-.47.34-.26.68-.51,1-.75.09-.07.05-.14,0-.08l-1,.62.07-1.77s.92-.9.92-.93.05-.18,0-.07a7.39,7.39,0,0,1-.89.8s-.09-1.32-.1-1.32a7.44,7.44,0,0,0,.49-.68c.07-.13,0-.17,0,0a6.09,6.09,0,0,1-.46.55c0-.27-.09-.57-.15-.85,0-.1-.07-.08-.06,0,.06.4.12.78.17,1.18a4.57,4.57,0,0,1-.68-.64c-.12-.12-.15-.07-.05,0a3.8,3.8,0,0,0,.77.78c0,.47,0,.94,0,1.39-.46-.36-1.13-.92-1.13-.92-.27-.26-.15,0,0,.07a11.21,11.21,0,0,0,1.17,1,13.25,13.25,0,0,1-.14,1.8,8.67,8.67,0,0,0-1-.6c-.19-.09-.17,0,0,.08a4.55,4.55,0,0,1,1,.7s0,0,0,0Z"/><path d="M35.29,13.63a.88.88,0,0,0-.1-.3c.24-.31.48-.62.72-.91.14-.14.08-.2,0-.06l-.71.78c-.17-.41-.34-.86-.52-1.3.19-.31.36-.62.54-.95.1-.12,0-.16-.06,0s-.36.53-.55.79c-.22-.39-.44-.83-.66-1.24,0-.18.09-.35.12-.52s0-.18-.05,0-.1.31-.14.47c-.15-.21-.3-.42-.46-.62s-.08,0-.05.05l.53.74a7.27,7.27,0,0,1-.79-.14c-.34-.08-.06.11,0,.11a4.36,4.36,0,0,0,.9.19L34.61,12a11.19,11.19,0,0,1-1.49-.29c-.15-.06-.18,0,0,0a6.85,6.85,0,0,0,1.55.36c.17.47.34.94.46,1.4-.36-.06-.7-.14-1.09-.17-.14,0-.36.07,0,.07a5.62,5.62,0,0,1,1.07.28A1.6,1.6,0,0,1,35.29,13.63Z"/><path d="M32.87,9.13a1.57,1.57,0,0,1-.17-.21A7.2,7.2,0,0,1,33.07,8c.07-.1,0-.15,0,0s-.42.8-.41.8C32.3,8.42,32,8,31.67,7.65c.12-.28.24-.6.36-.88S32,6.7,32,6.74c-.14.25-.26.53-.39.81-.28-.26-.55-.54-.82-.8,0-.22,0-.43,0-.66s-.06-.13-.07,0-.07.37-.09.54c-.17-.13-.32-.28-.48-.4s-.11-.05,0,0,.4.36.58.53a5,5,0,0,1-.56.07c-.21,0-.19.09,0,.07s.46,0,.68,0c.31.31.6.62.89.93-.29,0-.73.07-1,.09s-.12.05,0,.07c.34,0,.8,0,1.14,0,.27.39.56.75.85,1.13a4.71,4.71,0,0,1-.92.1c-.25,0-.27.09,0,.11a8.78,8.78,0,0,0,1-.09Z"/><path d="M29.61,5.75l-1-.66c0-.35-.09-.69-.12-1.06,0-.17-.09-.05-.07,0,0,.33,0,.66,0,1a9.86,9.86,0,0,0-1.23-.57c-.05-.21-.13-.41-.18-.62s-.11-.12-.07,0,.07.38.1.55l-.53-.16c-.15,0-.17,0,0,.07l.74.25a3.92,3.92,0,0,1-.69.31c-.13.07-.13.12,0,.07l.85-.28a9.19,9.19,0,0,1,1.13.57,3.85,3.85,0,0,1-.79.57c-.15.09-.12.14,0,.07a4.67,4.67,0,0,0,.9-.54c.27.18.55.39.82.54C29.56,5.83,29.57,5.76,29.61,5.75Z"/><path d="M30,5.63l-.11,0c0-.26,0-.5,0-.76,0-.09.07-.12.08,0Z"/><path d="M29.44,6.11a.53.53,0,0,0,0,.12l-.65.42c-.1.07-.11,0,0-.07Z"/><path d="M21.34,33.49A1.66,1.66,0,0,0,21.7,33c0,.13,0,.25,0,.39Z"/><path d="M22.06,32.71a1.66,1.66,0,0,0,.36-.52c0,.14-.08.31-.08.44A1.29,1.29,0,0,0,22.06,32.71Z"/><path d="M21.53,32.94c.16-.14.26-.33.41-.49,0,0,.09-.12.09-.05s-.26.31-.26.42S21.65,32.88,21.53,32.94Z"/><path d="M20.88,33.77c.12-.17.27-.35.4-.52,0,.12-.14.23-.18.36S21,33.72,20.88,33.77Z"/><path d="M21.26,34.24a2.26,2.26,0,0,0,.38-.64c0,.13.08.34.08.48A2.8,2.8,0,0,0,21.26,34.24Z"/><path d="M20.75,34.65A2.61,2.61,0,0,0,21,34c0,.14.05.25.05.38S20.87,34.6,20.75,34.65Z"/><path d="M21.05,35.26c.1-.35,0-.56.05-.71,0,.12.21.41.24.53A1.75,1.75,0,0,0,21.05,35.26Z"/><path d="M20.78,35.53c.07-.33-.08-.5,0-.65,0,.12.17.36.2.48S20.88,35.45,20.78,35.53Z"/><path d="M21.12,36c0-.3-.13-.33-.08-.49,0,.12.22.23.25.35S21.21,35.88,21.12,36Z"/><path d="M21.34,36.57c-.06-.26-.15-.22-.15-.41a4,4,0,0,1,.34.28A.43.43,0,0,0,21.34,36.57Z"/><path d="M21.48,35.74a2.18,2.18,0,0,1,0-.52c0,.11.21.26.29.4A1,1,0,0,0,21.48,35.74Z"/><path d="M21.94,36.19a4.61,4.61,0,0,1,0-.5c0,.12.25.28.35.42A1.54,1.54,0,0,0,21.94,36.19Z"/><path d="M21.57,36.44c0-.3-.16-.35-.13-.51a1.87,1.87,0,0,1,.38.37A.45.45,0,0,0,21.57,36.44Z"/><path d="M22,35.55c.05-.29.07-.42.1-.57a2.3,2.3,0,0,0,.26.48C22.21,35.52,22.08,35.48,22,35.55Z"/><path d="M22.59,35.45c.05-.3.14-.42.16-.57a3.33,3.33,0,0,0,.27.53A2.86,2.86,0,0,0,22.59,35.45Z"/><path d="M22.42,36.09c0-.3,0-.36,0-.52,0,.1.3.35.38.47A1.77,1.77,0,0,0,22.42,36.09Z"/><path d="M23.09,36.07a4.64,4.64,0,0,0,.1-.48,2.33,2.33,0,0,0,.32.5C23.39,36.11,23.19,36,23.09,36.07Z"/><path d="M23.67,36.11a4.71,4.71,0,0,0,.1-.49,3,3,0,0,1,.31.57C24,36.19,23.77,36.09,23.67,36.11Z"/><path d="M23.29,35.41a1.69,1.69,0,0,0,.16-.53,1.29,1.29,0,0,1,.2.58C23.55,35.45,23.39,35.38,23.29,35.41Z"/><path d="M23.82,35.5c.1-.28.21-.35.21-.5a1.71,1.71,0,0,1,.2.59C24.11,35.59,23.94,35.48,23.82,35.5Z"/><path d="M21,36.16c0-.31-.12-.18-.12-.37,0,0,.19.11.22.23S21,36.07,21,36.16Z"/><path d="M21.55,35a3.51,3.51,0,0,0,.21-.71,2.7,2.7,0,0,0,.18.57A2.24,2.24,0,0,0,21.55,35Z"/><path d="M22.23,34.75a5.18,5.18,0,0,0,.29-.65,4.5,4.5,0,0,0,.17.6C22.56,34.74,22.34,34.72,22.23,34.75Z"/><path d="M22.93,34.7a2.91,2.91,0,0,0,.34-.64,2.41,2.41,0,0,1,.12.64C23.26,34.72,23,34.67,22.93,34.7Z"/><path d="M23.62,34.75a1.6,1.6,0,0,0,.25-.57,1.9,1.9,0,0,1,.14.66C23.87,34.84,23.72,34.74,23.62,34.75Z"/><path d="M24.15,34.84a1.88,1.88,0,0,0,.18-.55,2,2,0,0,1,.16.69A1.39,1.39,0,0,1,24.15,34.84Z"/><path d="M24.64,35.07c.15-.26.05-.44.1-.59.14.1.12.6.12.72C24.73,35.17,24.73,35.1,24.64,35.07Z"/><path d="M24.38,35.67a1.63,1.63,0,0,0,.16-.45c.11.11.11.47.11.59A1.13,1.13,0,0,1,24.38,35.67Z"/><path d="M24.16,36.26a2.64,2.64,0,0,1,.14-.48,1.18,1.18,0,0,1,.12.62C24.28,36.37,24.25,36.3,24.16,36.26Z"/><path d="M24.93,35.22c.1-.26,0-.36.09-.57a1.52,1.52,0,0,1,.06.73C25,35.33,25,35.27,24.93,35.22Z"/><path d="M24.76,35.88c.07-.24,0-.26.1-.45.1.12.07.45.07.57A.35.35,0,0,1,24.76,35.88Z"/><path d="M24.49,36.42c.16-.21.08-.21.22-.38a1.34,1.34,0,0,1-.07.57C24.56,36.5,24.52,36.49,24.49,36.42Z"/><path d="M25.06,34.48c0-.26,0-.22,0-.42a.64.64,0,0,1,.12.47Z"/><path d="M22,33.27a2,2,0,0,0,.36-.49c0,.12,0,.28,0,.42A1.59,1.59,0,0,0,22,33.27Z"/><path d="M22.69,33.15a1.64,1.64,0,0,0,.21-.42.78.78,0,0,1,.15.42A1.08,1.08,0,0,0,22.69,33.15Z"/><path d="M22.59,32.59c.12-.14.1-.28.21-.47.06.05.06.33.06.45S22.71,32.55,22.59,32.59Z"/><path d="M23.12,32.57c.1-.15.05-.24.09-.45a1.19,1.19,0,0,1,.25.49C23.36,32.61,23.24,32.54,23.12,32.57Z"/><path d="M23.29,33.15c.14-.13.12-.23.26-.4a.78.78,0,0,1,.1.43A1.05,1.05,0,0,0,23.29,33.15Z"/><path d="M23.63,32.63a.83.83,0,0,0,0-.4c0,.07.22.31.2.45A.85.85,0,0,0,23.63,32.63Z"/><path d="M24,32.71a.59.59,0,0,0,0-.34c.05.07.21.31.19.43S24.11,32.73,24,32.71Z"/><path d="M24.32,32.83c0-.15,0-.15,0-.26a.75.75,0,0,1,.15.35C24.4,32.88,24.4,32.85,24.32,32.83Z"/><path d="M24.61,33c0-.15-.05-.09-.05-.19a.86.86,0,0,1,.17.24C24.65,33,24.69,33,24.61,33Z"/><path d="M23.82,33.23c.09-.14.05-.21.12-.38a.94.94,0,0,1,.17.47A1.61,1.61,0,0,0,23.82,33.23Z"/><path d="M24.21,33.37c.09-.14,0-.19.11-.37a1.11,1.11,0,0,1,.1.46Z"/><path d="M24.59,33.49c.08-.14,0-.17.05-.33a.87.87,0,0,1,.1.44C24.65,33.54,24.69,33.53,24.59,33.49Z"/><path d="M22.78,33.91a5.51,5.51,0,0,0,.34-.56,1.72,1.72,0,0,1,.12.56A1.77,1.77,0,0,0,22.78,33.91Z"/><path d="M23.46,33.91a1.23,1.23,0,0,0,.24-.5,1,1,0,0,1,.14.57C23.73,34,23.57,33.91,23.46,33.91Z"/><path d="M24,34c.12-.11.12-.26.21-.47.08.05.12.43.1.57A2.81,2.81,0,0,1,24,34Z"/><path d="M24.42,34.11a4.32,4.32,0,0,1,.12-.45,1,1,0,0,1,.11.56Z"/><path d="M24.79,34.3a3.2,3.2,0,0,0,.07-.41c.09,0,.16.4.14.53C24.9,34.39,24.88,34.34,24.79,34.3Z"/><path d="M21.94,34a1.74,1.74,0,0,0,.46-.66,4.07,4.07,0,0,0,.07.56A4.94,4.94,0,0,0,21.94,34Z"/><path d="M24.84,33.37l.06.31s.05,0,.06,0A.9.9,0,0,0,24.84,33.37Z"/><path d="M22,2.22c.12-.45-.58-.84-.67-.38a1,1,0,0,1-.24.84c-.22.39.47.51.69.14a.34.34,0,0,1-.51-.07.65.65,0,0,0,.29-.81C21.77,1.82,22,2,22,2.22Z"/><path d="M23.33,1.68c.47-.05.56-.82.1-.73a1,1,0,0,1-.86,0c-.42-.07-.29.63.11.7a.36.36,0,0,1-.11-.5.64.64,0,0,0,.86,0C23.6,1.3,23.48,1.56,23.33,1.68Z"/><path d="M24.18,2.77c.17.45.9.33.72-.09a1.07,1.07,0,0,1-.28-.83c-.05-.4-.65-.05-.61.35.08-.18.19-.31.42-.24a.66.66,0,0,0,.26.77C24.61,3,24.33,2.93,24.18,2.77Z"/><path d="M23.46,4c-.36.32,0,1,.34.66s.31-.34.7-.52-.17-.69-.56-.5c.19,0,.41.07.41.33a.66.66,0,0,0-.67.52C23.43,4.52,23.38,4.22,23.46,4Z"/><path d="M22.09,3.63c-.4-.23-.9.33-.49.54s.41.19.72.5.58-.4.27-.69c.05.18.07.4-.17.49-.05-.25-.44-.56-.7-.47C21.64,3.76,21.89,3.62,22.09,3.63Z"/><path d="M20.66,4c-.39-.13-.48-.35-.2-.64A1.71,1.71,0,0,1,21.19,1c0-.45.15-.57.55-.4a1.67,1.67,0,0,1,2.49,0c.42-.2.6-.06.53.41a1.67,1.67,0,0,1,.77,2.41c.3.33.36.59-.16.69,0,.88-1.4,1.8-2,1.47-.31.59-.65.14-.7,0A1.69,1.69,0,0,1,20.66,4Zm1.47-.85c-2.59.88.8,3.57.89.66-.07,2.75,3.74.41.85-.71,2.68,1,1.39-3.38-.34-1,1.69-2.49-2.78-2.16-1.08,0C20.59-.19,19.62,4.07,22.13,3.17Zm-.27-1.89a1.17,1.17,0,0,1,0-.59.56.56,0,0,1-.41.05.63.63,0,0,1-.19.38A1.23,1.23,0,0,1,21.86,1.28Zm2.27,0a4.33,4.33,0,0,1,.51-.17c-.05,0-.14-.28-.12-.41-.09.1-.22.1-.41,0A.86.86,0,0,1,24.13,1.24Zm1,2.74c-.09-.09.34-.22.34-.26a1.27,1.27,0,0,1-.14-.38,1,1,0,0,1-.46.19A.6.6,0,0,1,25.17,4ZM20.9,4a.81.81,0,0,1,.34-.5.72.72,0,0,1-.56-.21.84.84,0,0,1-.14.42A.52.52,0,0,1,20.9,4Zm1.83,1.35a.6.6,0,0,1,.27.25.55.55,0,0,1,.38-.26A1.37,1.37,0,0,1,23,4.88C22.91,5,22.83,5.18,22.73,5.31Z"/><path d="M23,1.56a1,1,0,0,0,1.18.9A1.14,1.14,0,0,0,23.73,4a1,1,0,0,0-1.5,0,1,1,0,0,0-.51-1.49C22.32,2.68,23.17,2,23,1.56ZM23.39,3a.38.38,0,0,1-.17-.41.42.42,0,0,1-.41,0,.44.44,0,0,1-.13.43.39.39,0,0,1,.34.24C23,3.19,23.26,3,23.39,3Z"/><path d="M26.14,8.74s0,0,0,0"/><path d="M27.61,9.71s0,0-.05,0"/><path d="M16.39,33.49a7.08,7.08,0,0,1,2.1.95c1,.71,1.28,1,2,.92"/><path d="M14.21,38.1a6.22,6.22,0,0,0,3.46-.9,12.68,12.68,0,0,1,2.94-1.3"/><path d="M17.64,40.7a9.73,9.73,0,0,0,4.29-3.38"/><path d="M29.52,33.49a7.34,7.34,0,0,0-2.11.95c-1,.71-1.27,1-2,.92"/><path d="M31.71,38.1a6.25,6.25,0,0,1-3.47-.9,12.46,12.46,0,0,0-2.93-1.3"/><path d="M28.28,40.7A9.91,9.91,0,0,1,24,37.32"/><path d="M19.17,26.33l.36-.1-.36-.09.19-.33L19,26l-.09-.36-.1.36-.32-.19.18.33-.36.09.36.1-.18.32.32-.18.1.36.09-.36.33.18Zm8,0,.36-.1-.36-.09.19-.33L27,26l-.09-.36-.1.36-.32-.19.18.33-.36.09.36.1-.18.32.32-.18.1.36.09-.36.33.18Zm.34-4.42,0,0h-.05a1.84,1.84,0,0,1-.57-.11,3.57,3.57,0,0,1-2.26,1.62,5.07,5.07,0,0,0-1.35.8l-.07.06L23,24.26a4.36,4.36,0,0,0-1.28-.75,3.39,3.39,0,0,1-2.31-1.75,1.32,1.32,0,0,1-.56.24h0l-.09,0v0a5.84,5.84,0,0,1-.38-3.34l.09-.32.14.3a6,6,0,0,0,1.67,2.18l.11.08-.1.1a.52.52,0,0,0-.19.4.86.86,0,0,0,.38.54h0a1.84,1.84,0,0,0,.87.56.16.16,0,0,1,0-.12c0-.53.54-1.11,1-.88a.77.77,0,0,1,.37-.58l-.06-2.92a.63.63,0,0,1-.28-.05.77.77,0,0,1-1.27-.38.84.84,0,0,1-.6-1.24,1,1,0,0,1-.09-1v-.47h-.25V15h-.71v-.45h-.74l.1-1h.59v-.17h.83v.19h.47V13.3h.65v0a4.16,4.16,0,0,1,.25-.52A1.79,1.79,0,0,1,21.4,12a1.77,1.77,0,0,1,3.53,0,1.78,1.78,0,0,1-.61,1.32,1.55,1.55,0,0,1,0,.22h.48v-.22h.88v.2h.46v-.18H27v.2h.76l.14.93H27V15h-.81v-.19h-.48v.58h-.89v-.19l-.45,0-.55,1h0a1.16,1.16,0,0,1-.06.92v.17l0,0a.67.67,0,0,1,1,.25c.61-.12.89.25.92.9.39.14.37.95.06,1,.21.44-.25,1.08-.61.9,0,.48-.58,1-.84.72a.81.81,0,0,1-.7.83V22a.94.94,0,0,1,.18.12,1.29,1.29,0,0,0,.84.3,1.55,1.55,0,0,0,1.29-.67c.3-.45.3-.67,0-.92l-.12-.09.13-.1a20.75,20.75,0,0,0,1.79-2.1l.07-.1.09.07c.1.06.16.2.18.44A7.08,7.08,0,0,1,27.46,21.91ZM20.58,15.1a1.25,1.25,0,0,1,1-.18s.24-.14.29-.19C21.59,14.52,20.7,14.52,20.58,15.1Zm1.36.42a.6.6,0,0,0-.35-.33c-.05,0-.22.31-.14.54C21.54,15.67,21.75,15.49,21.94,15.52Zm-.42.48a.53.53,0,0,0,.38.26.65.65,0,0,0,.09-.54A1.5,1.5,0,0,0,21.52,16Zm.52.84c-.19-.45-.28-.26-.66-.61A.46.46,0,0,0,22,16.84Zm.44-1.58c0-.6-.7-1.13-1.18-.87A1.52,1.52,0,0,1,22.48,15.26Zm.42-.78a3.33,3.33,0,0,0,.12-.72,1.59,1.59,0,0,1-.56-.14,1.19,1.19,0,0,0-.19.42C22.64,14.09,22.77,14.38,22.9,14.48Zm-.58-.3a1.72,1.72,0,0,1,.42.64l.11-.22A1.06,1.06,0,0,0,22.32,14.18Zm-.57,0a1.43,1.43,0,0,1,.87.85.35.35,0,0,1,.07-.09C22.64,14.57,22,14,21.75,14.2Zm.48,1.92c.6.12,1-.21,1.32-.86,1.13-2.47-.39-3.46-1.09-3a.67.67,0,0,0,.4.45,1.22,1.22,0,0,1,.36,1c0,.05-.13,1.52-1,1.87A.69.69,0,0,1,22.23,16.12Zm1.64-3.93v-.14a.74.74,0,0,0-.73-.74.72.72,0,0,0-.72.63A1.17,1.17,0,0,1,23.87,12.19Zm-.92,5c.48,0,.66-.64.45-1C23,16.32,23,16.6,23,17.18Zm-.14.53.1,3.07.34,0-.12-.19,0-3.37ZM24,20.53c-.63,0-.58.35-.68,1C23.9,21.71,24.13,20.83,24,20.53Zm.67-.69c-.48,0-.52.62-.43.95C24.82,20.85,24.9,20,24.7,19.84Zm.28-.72a1.39,1.39,0,0,0,.09.92C25.62,20,25.54,19.37,25,19.12Zm-.14-.67c-.1.11.45.67.7.76C25.76,18.8,25.66,18.47,24.84,18.45Zm-.57-.5c-.12.11.76.32,1.08.29C25.21,17.71,24.86,17.48,24.27,18Zm-.56-.06H24a.61.61,0,0,0,.22-.09l.32-.2a1.14,1.14,0,0,0-.47-.25.58.58,0,0,0-.39.11Zm0,.19-.09,2.3A.52.52,0,0,1,24,20.3c0-.33.31-.77.65-.67a1.08,1.08,0,0,1,.11-.7,1,1,0,0,1-.17-.53c-.3-.11-.54-.2-.61-.34S23.77,18.09,23.67,18.08Zm.7-4.18v.31l3.21-.1-.06-.21ZM23,13.46a2.91,2.91,0,0,0-.12-.39,1,1,0,0,1-.79-1,1,1,0,1,1,1.95,0,1,1,0,0,1,0,.32,2.06,2.06,0,0,1,.21.42,1.57,1.57,0,0,0,.26-.83,1.46,1.46,0,1,0-2.91,0A1.45,1.45,0,0,0,23,13.46Zm-1.72.74h.13a.6.6,0,0,1,.32-.14,1.89,1.89,0,0,1,.29-.69,1.93,1.93,0,0,1-.31-.33A4.16,4.16,0,0,0,21.3,14.2Zm-.2-.06v-.31H19l-.06.22ZM20.58,16a1,1,0,0,1,.57-.5,1.22,1.22,0,0,1,.14-.35C20.8,15,20.3,15.53,20.58,16Zm.58-.22a1,1,0,0,0-.42.44.75.75,0,0,0,.31.26,1.36,1.36,0,0,1,.17-.47A1.31,1.31,0,0,0,21.16,15.75Zm.39,1.41a.67.67,0,0,1-.45-.4,3.21,3.21,0,0,1-.41-.27C20.6,17.11,21.1,17.42,21.55,17.16Zm.66.55a.69.69,0,0,1-.38-.39,1.55,1.55,0,0,1-.5.16C21.54,17.9,21.85,17.92,22.21,17.71Zm.51-1c-.14-.07-.43.39-.7.45C22.21,17.82,22.9,17.41,22.72,16.68ZM22.46,22c.44.21.82-.65.68-1C22.44,21,22.62,21.45,22.46,22Zm-.89.35c.56.25.78-.52.7-.68C22,21.52,21.62,21.75,21.57,22.36Zm6.16-3.29a1,1,0,0,0,0-.2,23.58,23.58,0,0,1-1.62,1.91c.36.39.19.77-.06,1.13a1.76,1.76,0,0,1-1.49.79,1.49,1.49,0,0,1-1-.35.79.79,0,0,0-.41-.2.81.81,0,0,0-.4.2,1.43,1.43,0,0,1-1,.37A1.91,1.91,0,0,1,20.33,22a1,1,0,0,1-.46-.71.71.71,0,0,1,.18-.49A6,6,0,0,1,18.56,19a4.46,4.46,0,0,0,.54,2.35,1.49,1.49,0,0,0,.46-.26l.13-.1.08.59c.56,1.07,1.2,1.15,2.07,1.45.47.16.91-.19,1.28.08.27-.19.58-.1.92-.09l.41,0a2.64,2.64,0,0,0,2.11-1.63l-.12-.58.28.51c.23.1.3-.18.37-.34A3.42,3.42,0,0,0,27.73,19.07Zm-4.85,7.51v-1.5h-.59V26.6a.7.7,0,1,1-1.4,0V25.08h-.58v1.5a1.29,1.29,0,0,0,2.57,0Zm3.31,1.23-1.43-1.39,1.33-1.34H25.3L24.25,26.2V25.08h-.59v2.73h.59V26.65l1.13,1.16Z"/><path d="M17.69,22.6l-.85.51.61,1,.86-.51.15.25L16.66,25l-.16-.26.72-.43-.62-1-.72.43-.15-.26,1.8-1.08Z"/><path d="M16.08,21.21l1-.3.09.28-.95.3-.83,1-.11-.34.67-.77-1-.24-.11-.34Z"/><path d="M16.64,19.08l.08.68L14.63,20l-.07-.67a1.08,1.08,0,0,1,.92-1.24A1.06,1.06,0,0,1,16.64,19.08Zm-1.81.21,0,.37,1.54-.17,0-.35a.75.75,0,0,0-.86-.74A.78.78,0,0,0,14.83,19.29Z"/><path d="M16.65,16.1l-1,.57,0,.28.94.08,0,.3-2.1-.19.06-.6a.6.6,0,0,1,.64-.61.56.56,0,0,1,.49.42l1-.61Zm-1.88.51,0,.26.62.05,0-.26c0-.28-.11-.4-.28-.41S14.79,16.37,14.77,16.61Z"/><path d="M17.08,14.36A1.1,1.1,0,1,1,16.36,13,1.08,1.08,0,0,1,17.08,14.36Zm-1.83-.56a.82.82,0,1,0,1-.52A.79.79,0,0,0,15.25,13.8Z"/><path d="M18.23,11.88a1.1,1.1,0,1,1-1.85-1.17,1.65,1.65,0,0,1,.61-.55l.27.18a1.34,1.34,0,0,0-.64.52.82.82,0,0,0,1.38.87,1.25,1.25,0,0,0,.17-.49L17.75,11l-.27.41-.23-.14.43-.67.78.49A1.8,1.8,0,0,1,18.23,11.88Z"/><path d="M20,9.91,18.9,9.62l-.21.17.61.72-.23.19L17.71,9.1l.46-.39a.6.6,0,0,1,.88,0,.55.55,0,0,1,.06.64l1.18.3Zm-1.7-1-.19.16.4.48.2-.17c.21-.18.19-.37.08-.49S18.5,8.79,18.31,9Z"/><path d="M22.08,9l-.38-.43-.9.33,0,.57-.3.11.11-2.29.26-.1,1.54,1.7ZM20.83,7.51l0,1,.69-.25Z"/><path d="M23.47,8.06h-.35l0,.83h-.3l.1-2.1.64,0c.53,0,.71.36.69.66A.64.64,0,0,1,23.47,8.06Zm0-1h-.31l0,.71.33,0c.25,0,.42-.1.43-.34S23.81,7.09,23.48,7.07Z"/><path d="M25.93,9.69l.43-.89-1.08-.53-.43.89L24.58,9l.92-1.89.27.13L25.4,8l1.08.52.37-.75.27.13-.93,1.89Z"/><path d="M26.66,10.26l1.39-1.58.23.2-1.4,1.58Z"/><path d="M29.51,10.67a.81.81,0,0,0-1.32.95,1.29,1.29,0,0,0,.63.45l-.26.19a1.34,1.34,0,0,1-.6-.48,1.1,1.1,0,1,1,1.78-1.28,1.46,1.46,0,0,1,.26.73l-.26.19A1.48,1.48,0,0,0,29.51,10.67Z"/><path d="M29.27,14.7a1.09,1.09,0,1,1,2.11-.57,1.09,1.09,0,1,1-2.11.57Zm1.84-.5a.81.81,0,0,0-1.57.42.8.8,0,0,0,1,.56A.79.79,0,0,0,31.11,14.2Z"/><path d="M31.49,16.56l-.57,0,0,.76-.27,0-.05-.76-1,.06,0-.3,2.1-.13.08,1.28-.27,0Z"/><path d="M31.5,18.65l-.57,0-.07.76-.27,0,.07-.76-1-.09,0-.3,2.1.19-.12,1.29-.27,0Z"/><path d="M29.46,20l2.06.46-.07.29-2.05-.45Z"/><path d="M30.59,22.63a.81.81,0,0,0-1.51-.6,1.3,1.3,0,0,0,0,.78l-.3-.12a1.41,1.41,0,0,1,.08-.76,1.09,1.09,0,1,1,2,.81,1.48,1.48,0,0,1-.47.61l-.3-.12A1.45,1.45,0,0,0,30.59,22.63Z"/><path d="M28.27,23.15,30,24.36l-.77,1.09L29,25.29l.6-.84-.47-.33-.46.66-.22-.16L28.9,24l-.59-.42-.59.84-.22-.16Z"/><path d="M200.82,13.41c4.4,0,6.63,3.49,6.63,7.25s-2.23,7.26-6.63,7.26-6.64-3.49-6.64-7.26S196.42,13.41,200.82,13.41Zm0,13c3.37,0,4.79-2.91,4.79-5.71s-1.42-5.7-4.79-5.7S196,17.87,196,20.66,197.44,26.37,200.82,26.37Z"/><path d="M209.9,19h-1.69V17.56h1.69V16.07c0-1.63,1-2.49,2.78-2.49a3.89,3.89,0,0,1,1.06.16v1.43a3.31,3.31,0,0,0-.93-.13c-.79,0-1.26.25-1.26,1.12v1.4h1.94V19h-1.94v8.57H209.9Z"/><path d="M215.73,19H214V17.56h1.69V16.07c0-1.63,1-2.49,2.77-2.49a4,4,0,0,1,1.07.16v1.43a3.31,3.31,0,0,0-.93-.13c-.8,0-1.27.25-1.27,1.12v1.4h1.95V19h-1.95v8.57h-1.64Z"/><path d="M222.16,15.76h-1.65v-2h1.65Zm-1.65,1.8h1.65v10h-1.65Z"/><path d="M231.07,20.78a2.35,2.35,0,0,0-2.49-2c-2.38,0-3.12,1.88-3.12,3.92,0,1.84.83,3.67,2.93,3.67a2.59,2.59,0,0,0,2.75-2.45h1.69a4.16,4.16,0,0,1-4.42,3.9c-3.07,0-4.7-2.13-4.7-5.12s1.56-5.37,4.74-5.37c2.27,0,4.09,1.06,4.32,3.45Z"/><path d="M242.84,24.41a4,4,0,0,1-4.29,3.41c-3.2,0-4.71-2.21-4.81-5.27s2-5.22,4.71-5.22c3.55,0,4.64,3.32,4.54,5.74h-7.5a3,3,0,0,0,3.12,3.3,2.42,2.42,0,0,0,2.6-2Zm-1.59-2.8a2.89,2.89,0,0,0-2.89-2.83,2.85,2.85,0,0,0-2.87,2.83Z"/></svg>