<?xml version="1.0" encoding="UTF-8"?>
<svg width="386px" height="22px" viewBox="0 0 386 22" version="1.1" xmlns="http://www.w3.org/2000/svg" xmlns:xlink="http://www.w3.org/1999/xlink">
    <!-- Generator: Sketch 54.1 (76490) - https://sketchapp.com -->
    <title>Group 2</title>
    <desc>Created with Sketch.</desc>
    <g id="Symbols" stroke="none" stroke-width="1" fill="none" fill-rule="evenodd">
        <g id="-" transform="translate(-13.000000, -10.000000)">
            <g id="Group-2" transform="translate(13.000000, 0.000000)">
                <g id="Admiralty-Logo" fill="#09315B">
                    <g id="Group-2" transform="translate(0.000000, 0.000000)">
                        <path d="M109.767,25 L108.871,25 L108.871,17.02 L105.203,21.542 L101.535,17.02 L101.535,25 L100.639,25 L100.639,15.592 L101.535,15.592 L105.203,20.128 L108.871,15.592 L109.767,15.592 L109.767,25 Z M116.401,25 L115.589,25 L115.589,24.328 C115.099,24.748 114.427,25.154 113.573,25.154 C112.369,25.154 111.501,24.426 111.501,23.362 C111.501,22.844 111.697,22.088 112.579,21.598 C113.181,21.262 114.343,21.136 115.589,21.136 L115.589,20.716 C115.589,19.484 114.833,19.218 114.147,19.218 C113.377,19.218 112.495,19.498 111.949,19.778 L112.117,18.98 C112.677,18.742 113.405,18.518 114.273,18.518 C115.561,18.518 116.401,19.204 116.401,20.674 L116.401,25 Z M115.589,23.586 L115.589,21.822 C114.707,21.822 113.545,21.906 113.027,22.186 C112.579,22.424 112.327,22.83 112.327,23.32 C112.327,24.076 112.943,24.454 113.657,24.454 C114.315,24.454 114.973,24.132 115.589,23.586 Z M121.901,19.652 C121.621,19.386 121.285,19.288 120.921,19.288 C120.235,19.288 119.661,19.764 119.255,20.254 L119.255,25 L118.443,25 L118.443,18.658 L119.255,18.658 L119.255,19.47 C119.619,19.078 120.263,18.546 121.075,18.546 C121.313,18.546 121.677,18.63 121.901,18.756 L121.901,19.652 Z M124.237,16.656 L123.509,17.384 L122.781,16.656 L123.509,15.928 L124.237,16.656 Z M123.915,25 L123.103,25 L123.103,18.658 L123.915,18.658 L123.915,25 Z M131.403,25 L130.591,25 L130.591,21.052 C130.591,19.848 129.639,19.246 128.687,19.246 C127.847,19.246 127.189,19.68 126.699,20.114 L126.699,25 L125.887,25 L125.887,18.658 L126.699,18.658 L126.699,19.344 C127.161,18.98 127.889,18.518 128.799,18.518 C130.157,18.518 131.403,19.4 131.403,21.122 L131.403,25 Z M138.947,21.934 L133.879,21.934 C133.963,23.348 134.747,24.44 136.413,24.44 C137.365,24.44 138.107,24.118 138.835,23.628 L138.835,24.426 C138.135,24.902 137.183,25.168 136.315,25.168 C134.523,25.168 133.067,23.992 133.067,21.794 C133.067,20.184 134.215,18.518 136.161,18.518 C137.421,18.518 138.947,19.526 138.947,21.864 L138.947,21.934 Z M138.065,21.206 C137.995,20.226 137.337,19.246 136.119,19.246 C134.887,19.246 134.075,20.24 133.935,21.206 L138.065,21.206 Z M151.263,20.296 C151.263,23.054 149.037,25 146.251,25 L143.507,25 L143.507,15.592 L146.251,15.592 C149.023,15.592 151.263,17.58 151.263,20.296 Z M150.367,20.296 C150.367,18.154 148.603,16.404 146.111,16.404 L144.403,16.404 L144.403,24.188 L145.971,24.188 C148.463,24.188 150.367,22.69 150.367,20.296 Z M157.421,25 L156.609,25 L156.609,24.328 C156.119,24.748 155.447,25.154 154.593,25.154 C153.389,25.154 152.521,24.426 152.521,23.362 C152.521,22.844 152.717,22.088 153.599,21.598 C154.201,21.262 155.363,21.136 156.609,21.136 L156.609,20.716 C156.609,19.484 155.853,19.218 155.167,19.218 C154.397,19.218 153.515,19.498 152.969,19.778 L153.137,18.98 C153.697,18.742 154.425,18.518 155.293,18.518 C156.581,18.518 157.421,19.204 157.421,20.674 L157.421,25 Z M156.609,23.586 L156.609,21.822 C155.727,21.822 154.565,21.906 154.047,22.186 C153.599,22.424 153.347,22.83 153.347,23.32 C153.347,24.076 153.963,24.454 154.677,24.454 C155.335,24.454 155.993,24.132 156.609,23.586 Z M163.229,24.776 C162.795,25 162.277,25.154 161.717,25.154 C160.905,25.154 159.799,24.734 159.799,23.026 L159.799,19.358 L158.819,19.358 L158.819,18.658 L159.799,18.658 L159.799,17.09 L160.611,17.09 L160.611,18.658 L162.935,18.658 L162.935,19.358 L160.611,19.358 L160.611,22.984 C160.611,24.118 161.283,24.44 161.885,24.44 C162.459,24.44 162.879,24.258 163.229,23.992 L163.229,24.776 Z M168.435,25 L167.623,25 L167.623,24.328 C167.133,24.748 166.461,25.154 165.607,25.154 C164.403,25.154 163.535,24.426 163.535,23.362 C163.535,22.844 163.731,22.088 164.613,21.598 C165.215,21.262 166.377,21.136 167.623,21.136 L167.623,20.716 C167.623,19.484 166.867,19.218 166.181,19.218 C165.411,19.218 164.529,19.498 163.983,19.778 L164.151,18.98 C164.711,18.742 165.439,18.518 166.307,18.518 C167.595,18.518 168.435,19.204 168.435,20.674 L168.435,25 Z M167.623,23.586 L167.623,21.822 C166.741,21.822 165.579,21.906 165.061,22.186 C164.613,22.424 164.361,22.83 164.361,23.32 C164.361,24.076 164.977,24.454 165.691,24.454 C166.349,24.454 167.007,24.132 167.623,23.586 Z M178.567,22.424 C178.567,24.02 177.293,25.154 175.753,25.154 C174.199,25.154 173.457,24.3 172.995,23.32 L173.723,22.928 C174.129,23.782 174.745,24.356 175.781,24.356 C177.027,24.356 177.643,23.376 177.643,22.48 C177.643,20.45 173.485,19.904 173.485,17.538 C173.485,16.432 174.367,15.438 175.851,15.438 C176.509,15.438 177.349,15.718 177.979,16.614 L177.335,17.132 C177.027,16.614 176.453,16.236 175.809,16.236 C174.969,16.236 174.409,16.81 174.409,17.51 C174.409,19.246 178.567,19.946 178.567,22.424 Z M186.853,21.836 C186.853,23.53 185.481,25.154 183.507,25.154 C181.533,25.154 180.161,23.53 180.161,21.836 C180.161,20.142 181.533,18.518 183.507,18.518 C185.481,18.518 186.853,20.142 186.853,21.836 Z M186.027,21.836 C186.027,20.506 185.103,19.246 183.507,19.246 C181.911,19.246 180.987,20.506 180.987,21.836 C180.987,23.166 181.911,24.426 183.507,24.426 C185.103,24.426 186.027,23.166 186.027,21.836 Z M191.653,24.818 C191.345,24.986 190.953,25.154 190.435,25.154 C189.525,25.154 188.517,24.734 188.517,22.914 L188.517,15.592 L189.329,15.592 L189.329,22.984 C189.329,24.23 190.043,24.426 190.533,24.426 C190.925,24.426 191.345,24.286 191.653,24.034 L191.653,24.818 Z M197.979,25 L197.167,25 L197.167,24.314 C196.705,24.678 195.977,25.14 195.067,25.14 C193.709,25.14 192.463,24.258 192.463,22.536 L192.463,18.658 L193.275,18.658 L193.275,22.606 C193.275,23.81 194.227,24.412 195.179,24.412 C196.019,24.412 196.677,23.978 197.167,23.544 L197.167,18.658 L197.979,18.658 L197.979,25 Z M203.633,24.776 C203.199,25 202.681,25.154 202.121,25.154 C201.309,25.154 200.203,24.734 200.203,23.026 L200.203,19.358 L199.223,19.358 L199.223,18.658 L200.203,18.658 L200.203,17.09 L201.015,17.09 L201.015,18.658 L203.339,18.658 L203.339,19.358 L201.015,19.358 L201.015,22.984 C201.015,24.118 201.687,24.44 202.289,24.44 C202.863,24.44 203.283,24.258 203.633,23.992 L203.633,24.776 Z M205.675,16.656 L204.947,17.384 L204.219,16.656 L204.947,15.928 L205.675,16.656 Z M205.353,25 L204.541,25 L204.541,18.658 L205.353,18.658 L205.353,25 Z M213.471,21.836 C213.471,23.53 212.099,25.154 210.125,25.154 C208.151,25.154 206.779,23.53 206.779,21.836 C206.779,20.142 208.151,18.518 210.125,18.518 C212.099,18.518 213.471,20.142 213.471,21.836 Z M212.645,21.836 C212.645,20.506 211.721,19.246 210.125,19.246 C208.529,19.246 207.605,20.506 207.605,21.836 C207.605,23.166 208.529,24.426 210.125,24.426 C211.721,24.426 212.645,23.166 212.645,21.836 Z M220.721,25 L219.909,25 L219.909,21.052 C219.909,19.848 218.957,19.246 218.005,19.246 C217.165,19.246 216.507,19.68 216.017,20.114 L216.017,25 L215.205,25 L215.205,18.658 L216.017,18.658 L216.017,19.344 C216.479,18.98 217.207,18.518 218.117,18.518 C219.475,18.518 220.721,19.4 220.721,21.122 L220.721,25 Z M226.935,23.334 C226.935,24.58 225.731,25.168 224.625,25.168 C223.729,25.168 222.777,24.846 222.399,24.678 L222.399,23.866 C222.987,24.188 223.841,24.426 224.695,24.426 C225.647,24.426 226.137,23.978 226.137,23.362 C226.137,23.026 225.955,22.732 225.101,22.382 C223.421,21.682 223.071,21.5 222.847,21.276 C222.623,21.052 222.399,20.716 222.399,20.268 C222.399,19.316 223.183,18.518 224.681,18.518 C225.451,18.518 225.913,18.7 226.529,18.924 L226.529,19.722 C225.815,19.414 225.255,19.232 224.597,19.232 C223.701,19.232 223.183,19.666 223.183,20.184 C223.183,20.548 223.351,20.814 224.261,21.178 C225.815,21.808 226.011,21.906 226.389,22.214 C226.739,22.494 226.935,22.914 226.935,23.334 Z" id="MarineDataSolutions" fill-rule="nonzero"></path>
                        <path d="M39.5319767,24.83 C39.469186,23.83 39.469186,21.56 39.469186,19.92 C39.469186,18.38 39.469186,16.08 39.5319767,15.07 L37.3290698,15.07 C37.3918605,16.07 37.3918605,18.38 37.3918605,19.92 C37.3918605,21.56 37.3918605,23.835 37.3290698,24.83 L39.5319767,24.83" id="Shape" fill-rule="nonzero"></path>
                        <path d="M48.5005814,20.6 C49.5728585,20.1415081 50.2619056,19.1225205 50.2587209,18 C50.2587209,16.83 49.4005814,15.06 46.7110465,15.06 L42.9383721,15.06 C42.9802326,16.755 43.0168605,18.43 43.0168605,20.06 C43.0168605,21.69 42.9802326,23.275 42.9383721,24.835 L45.0313953,24.835 C45.0313953,24.135 44.9895349,23.41 44.9895349,22.71 C44.9895349,22.13 44.9895349,21.545 45.0313953,20.96 L46.3395349,20.96 C47.3860465,22.4 48.2703488,23.725 48.955814,24.835 L51.4465116,24.835 C50.3633721,23.41 49.3534884,21.97 48.505814,20.605 M46.3656977,19.53 L45.0575581,19.53 C45.0575581,19.03 45.0575581,18.53 45.0575581,18.03 C45.0575581,17.53 45.0575581,17.03 45.0575581,16.53 L46.3656977,16.53 C47.3232558,16.53 48.1552326,17 48.1552326,18.03 C48.1552326,19.06 47.3232558,19.53 46.3656977,19.53" id="Shape" fill-rule="nonzero"></path>
                        <path d="M58.7511628,15.07 L56.5744186,15.07 C55.2296512,18.635 53.9215116,21.89 52.697093,24.83 L54.5755814,24.83 C54.6959302,24.5 54.9627907,23.775 55.4075581,22.67 C56.0406977,22.645 56.8203488,22.625 57.4325581,22.625 C58.1651163,22.625 58.7511628,22.625 59.4889535,22.67 C59.755814,23.37 60.0122093,24.07 60.3052326,24.83 L62.6284884,24.83 C61.1581395,21.42 59.8761628,18.165 58.7302326,15.07 M57.4116279,21.225 C56.9982558,21.225 56.3284884,21.225 55.9412791,21.19 C56.4645349,19.86 56.9197674,18.655 57.469186,17.445 C57.9924419,18.655 58.772093,20.795 58.9395349,21.19 C58.369186,21.19 57.955814,21.225 57.4116279,21.225" id="Shape" fill-rule="nonzero"></path>
                        <path d="M71.2517442,24.83 C70.1738372,24.79 69.0122093,24.79 67.9081395,24.79 C66.8040698,24.79 65.7523256,24.79 64.6063953,24.83 C64.6482558,23.195 64.6901163,21.52 64.6901163,19.88 C64.6901163,18.24 64.6482558,16.685 64.6063953,15.07 L66.8145349,15.07 C66.7726744,16.57 66.7517442,18.34 66.7517442,19.88 C66.7517442,21.09 66.7517442,22.1 66.8145349,23.31 L68.8133721,23.31 C69.6715116,23.31 70.6081395,23.31 71.2569767,23.27 L71.2569767,24.83" id="Shape" fill-rule="nonzero"></path>
                        <path d="M79.3726744,16.605 C78.4936047,16.57 77.4156977,16.55 76.3744186,16.55 C76.3744186,17.775 76.3325581,19.08 76.3325581,20.31 C76.3325581,21.81 76.3325581,23.31 76.3744186,24.81 L74.1715116,24.81 C74.2133721,23.31 74.2343023,21.87 74.2343023,20.31 C74.2343023,19.1 74.2343023,17.7 74.1715116,16.51 C73.0726744,16.51 71.9686047,16.51 71.1732558,16.565 L71.1732558,15.07 C72.544186,15.1033333 73.9098837,15.1216667 75.2703488,15.125 C76.630814,15.1283333 77.9982558,15.11 79.3726744,15.07 L79.3726744,16.605" id="Shape" fill-rule="nonzero"></path>
                        <path d="M86.269186,21.37 C86.269186,21.9 86.269186,22.33 86.269186,22.695 L86.3319767,24.76 L84.1290698,24.76 C84.1290698,24.26 84.1709302,23.435 84.1709302,22.56 C84.1709302,21.685 84.1709302,20.65 84.1709302,20.435 C83.1715116,18.74 81.8633721,16.85 80.5395349,15 L83.1087209,15 C83.8021539,16.2791795 84.5798811,17.5149987 85.4372093,18.7 C86.3170807,17.5071895 87.1326762,16.2722502 87.880814,15 L89.8377907,15 C88.3674419,17.125 87.0436047,19.075 86.2901163,20.42 C86.2901163,20.535 86.2901163,20.845 86.2901163,21.37" id="Shape" fill-rule="nonzero"></path>
                        <path d="M6.05930233,15.07 L3.87209302,15.07 C2.52732558,18.635 1.21918605,21.89 -3.30402372e-13,24.83 L1.87325581,24.83 C1.99360465,24.5 2.26046512,23.78 2.71046512,22.67 C3.34360465,22.645 4.1127907,22.625 4.73023256,22.625 C5.4627907,22.625 6.05930233,22.625 6.78662791,22.67 C7.05348837,23.37 7.34127907,24.07 7.60813953,24.83 L9.95232558,24.83 C8.48197674,21.42 7.2,18.165 6.05930233,15.07 M4.73023256,21.225 C4.32209302,21.225 3.64709302,21.225 3.25988372,21.19 C3.81453488,19.86 4.23837209,18.655 4.79302326,17.445 C5.31627907,18.655 6.09593023,20.795 6.25813953,21.19 C5.6877907,21.19 5.27965116,21.225 4.73023256,21.225" id="Shape" fill-rule="nonzero"></path>
                        <path d="M15.7761628,15.07 L12.0034884,15.07 C12.0453488,16.705 12.0662791,18.4 12.0662791,20.02 C12.0662791,21.64 12.0662791,23.215 12.0034884,24.83 L15.7761628,24.83 C20.0982558,24.83 21.3226744,21.925 21.3226744,19.96 C21.3226744,17.995 20.0982558,15.07 15.7761628,15.07 M15.7761628,23.31 L14.1854651,23.31 C14.1226744,22.2 14.1226744,21.17 14.1226744,20.035 C14.1226744,18.9 14.1226744,17.72 14.1854651,16.59 L15.797093,16.59 C17.5709302,16.59 19.0569767,17.7 19.0569767,19.94 C19.0569767,22.18 17.5709302,23.31 15.797093,23.31" id="Shape" fill-rule="nonzero"></path>
                        <path d="M25.3988372,24.83 C25.3622093,23.64 25.3412791,22.14 25.3412791,21.03 C25.3412791,19.92 25.3412791,19.26 25.3988372,18.145 C26.4802326,19.5916667 27.4813953,21.0533333 28.4023256,22.53 L28.6848837,22.53 C29.5430233,21.225 30.6,19.685 31.7563953,17.95 C31.7563953,19.045 31.819186,20.095 31.819186,21.125 C31.819186,22.395 31.819186,23.76 31.7563953,24.83 L33.9226744,24.83 C33.8860465,23.215 33.8494186,21.615 33.8494186,20 C33.8494186,18.385 33.8912791,16.725 33.9331395,15.09 L31.7040698,15.09 C30.7098837,16.685 29.7261628,18.205 28.8052326,19.455 C27.7285927,18.0439593 26.7295661,16.5803116 25.8122093,15.07 L23.5255814,15.07 C23.5674419,16.765 23.6302326,18.44 23.6302326,20.07 C23.6302326,21.7 23.5674419,23.285 23.5255814,24.845 L25.3988372,24.845" id="Shape" fill-rule="nonzero"></path>
                    </g>
                </g>
                <rect id="Rectangle" fill="#000000" fill-rule="nonzero" x="244" y="10" width="1" height="22"></rect>
                <path d="M261.46871,21.7908333 C261.46871,24.2268333 260.140939,25.5318333 257.817341,25.5318333 C255.410756,25.5318333 254,24.3573333 254,21.7908333 L254,15.5703333 L255.244785,15.5703333 L255.244785,21.7908333 C255.244785,23.5308333 256.19912,24.4443333 257.817341,24.4443333 C259.394068,24.4443333 260.223925,23.4873333 260.223925,21.7908333 L260.223925,15.5703333 L261.46871,15.5703333 L261.46871,21.7908333 Z" id="Path" fill="#000000" fill-rule="nonzero"></path>
                <polygon id="Path" fill="#000000" fill-rule="nonzero" points="263.335887 15.5703333 264.580672 15.5703333 264.580672 20.4423333 269.310855 15.5703333 270.929076 15.5703333 267.028749 19.4853333 271.095047 25.3143333 269.518319 25.3143333 266.1574 20.3988333 264.622165 21.9213333 264.622165 25.3143333 263.37738 25.3143333 263.37738 15.5703333"></polygon>
                <polygon id="Path" fill="#000000" fill-rule="nonzero" points="275.24433 15.5703333 276.489115 15.5703333 276.489115 19.7463333 281.385269 19.7463333 281.385269 15.5703333 282.630054 15.5703333 282.630054 25.3143333 281.385269 25.3143333 281.385269 20.8338333 276.489115 20.8338333 276.489115 25.3143333 275.24433 25.3143333"></polygon>
                <path d="M286.737845,26.2713333 C286.239931,27.6633333 285.783509,28.1418333 284.787681,28.1418333 C284.538724,28.1418333 284.248275,28.0983333 283.999318,28.0113333 L283.999318,26.9673333 C284.206782,27.0543333 284.414246,27.1413333 284.663203,27.1413333 C285.119624,27.1413333 285.368581,26.9238333 285.576045,26.4888333 L286.032466,25.2708333 L283.376925,18.2673333 L284.62171,18.2673333 L286.571873,24.0528333 L286.613366,24.0528333 L288.522036,18.2673333 L289.683836,18.2673333 L286.737845,26.2713333 Z" id="Path" fill="#000000" fill-rule="nonzero"></path>
                <path d="M296.115225,25.3143333 L294.994918,25.3143333 L294.994918,24.3573333 L294.953425,24.3573333 C294.57999,25.1403333 293.70864,25.4883333 292.795798,25.4883333 C290.721156,25.4883333 289.683836,23.7483333 289.683836,21.7908333 C289.683836,19.7898333 290.679664,18.1368333 292.754305,18.1368333 C293.459683,18.1368333 294.414018,18.3978333 294.911932,19.2243333 L294.953425,19.2243333 L294.953425,15.6138333 L296.073732,15.6138333 L296.073732,25.3143333 L296.115225,25.3143333 Z M292.961769,24.4443333 C294.455511,24.4443333 295.036411,23.0958333 295.036411,21.7908333 C295.036411,20.3988333 294.455511,19.0938333 292.920277,19.0938333 C291.426535,19.0938333 290.887128,20.4423333 290.887128,21.8343333 C290.887128,23.1828333 291.551013,24.4443333 292.961769,24.4443333 Z" id="Shape" fill="#000000" fill-rule="nonzero"></path>
                <path d="M297.442995,18.2673333 L298.480316,18.2673333 L298.480316,19.7463333 L298.521809,19.7463333 C299.061216,18.6153333 299.808087,18.0498333 301.011379,18.0933333 L301.011379,19.3113333 C299.227187,19.3113333 298.563302,20.3553333 298.563302,22.1823333 L298.563302,25.3143333 L297.442995,25.3143333 L297.442995,18.2673333 L297.442995,18.2673333 Z" id="Path" fill="#000000" fill-rule="nonzero"></path>
                <path d="M304.372298,18.0933333 C306.488433,18.0933333 307.650232,19.7028333 307.650232,21.7908333 C307.650232,23.8353333 306.529925,25.4883333 304.372298,25.4883333 C302.256164,25.4883333 301.094364,23.8788333 301.094364,21.7908333 C301.094364,19.7028333 302.256164,18.0933333 304.372298,18.0933333 Z M304.372298,24.4443333 C305.534097,24.4443333 306.488433,23.4873333 306.488433,21.7908333 C306.488433,20.0508333 305.534097,19.0938333 304.372298,19.0938333 C303.210499,19.0938333 302.256164,20.0508333 302.256164,21.7908333 C302.297657,23.4873333 303.210499,24.4443333 304.372298,24.4443333 Z" id="Shape" fill="#000000" fill-rule="nonzero"></path>
                <path d="M314.496549,24.7053333 C314.496549,27.0108333 313.500721,28.1853333 311.384587,28.1853333 C310.139802,28.1853333 308.64606,27.6633333 308.604567,26.0973333 L309.724874,26.0973333 C309.766366,26.9238333 310.720702,27.2283333 311.467572,27.2283333 C312.919822,27.2283333 313.500721,26.1408333 313.500721,24.5313333 L313.500721,24.0528333 L313.459228,24.0528333 C313.085793,24.9228333 312.214443,25.3578333 311.343094,25.3578333 C309.351438,25.3578333 308.35561,23.7048333 308.35561,21.7908333 C308.35561,20.1378333 309.143974,18.0498333 311.467572,18.0498333 C312.297429,18.0498333 313.085793,18.4413333 313.459228,19.2243333 L313.459228,19.2243333 L313.459228,18.2238333 L314.496549,18.2238333 L314.496549,24.7053333 L314.496549,24.7053333 Z M313.376243,21.6603333 C313.376243,20.3988333 312.836836,19.1373333 311.467572,19.1373333 C310.056816,19.1373333 309.475917,20.3553333 309.475917,21.7038333 C309.475917,22.9653333 309.932338,24.4008333 311.384587,24.4008333 C312.836836,24.3573333 313.376243,22.9653333 313.376243,21.6603333 Z" id="Shape" fill="#000000" fill-rule="nonzero"></path>
                <path d="M315.82432,18.2673333 L316.861641,18.2673333 L316.861641,19.7463333 L316.903133,19.7463333 C317.44254,18.6153333 318.189411,18.0498333 319.392703,18.0933333 L319.392703,19.3113333 C317.608512,19.3113333 316.944626,20.3553333 316.944626,22.1823333 L316.944626,25.3143333 L315.82432,25.3143333 L315.82432,18.2673333 Z" id="Path" fill="#000000" fill-rule="nonzero"></path>
                <path d="M325.865585,25.2708333 C325.658121,25.4013333 325.409164,25.4448333 325.077221,25.4448333 C324.496322,25.4448333 324.122886,25.0968333 324.122886,24.3573333 C323.500494,25.0968333 322.670637,25.4448333 321.757795,25.4448333 C320.554503,25.4448333 319.517182,24.8793333 319.517182,23.4438333 C319.517182,21.8343333 320.637488,21.4863333 321.799288,21.2688333 C323.00258,21.0078333 324.081393,21.0948333 324.081393,20.2248333 C324.081393,19.2243333 323.29303,19.0503333 322.587651,19.0503333 C321.633316,19.0503333 320.969431,19.3548333 320.927938,20.3988333 L319.807632,20.3988333 C319.890617,18.6588333 321.176895,18.0498333 322.670637,18.0498333 C323.873929,18.0498333 325.2017,18.3543333 325.2017,20.0073333 L325.2017,23.6178333 C325.2017,24.1833333 325.2017,24.4008333 325.533643,24.4008333 C325.616628,24.4008333 325.741107,24.4008333 325.865585,24.3138333 L325.865585,25.2708333 L325.865585,25.2708333 Z M324.081393,21.6603333 C323.666465,22.0083333 322.836608,22.0083333 322.089737,22.1388333 C321.342867,22.2693333 320.720474,22.5303333 320.720474,23.4003333 C320.720474,24.1833333 321.342867,24.4443333 322.006752,24.4443333 C323.459001,24.4443333 324.081393,23.4873333 324.081393,22.8348333 L324.081393,21.6603333 Z" id="Shape" fill="#000000" fill-rule="nonzero"></path>
                <path d="M326.653949,18.2673333 L327.774255,18.2673333 L327.774255,19.2243333 L327.815748,19.2243333 C328.189184,18.4413333 329.01904,18.0933333 329.973376,18.0933333 C332.048017,18.0933333 333.085338,19.8333333 333.085338,21.7908333 C333.085338,23.7918333 332.08951,25.4448333 330.014868,25.4448333 C329.30949,25.4448333 328.355155,25.1838333 327.857241,24.3573333 L327.815748,24.3573333 L327.815748,28.0113333 L326.695442,28.0113333 L326.695442,18.2673333 L326.653949,18.2673333 Z M329.807404,19.1373333 C328.313662,19.1373333 327.732763,20.4858333 327.732763,21.7908333 C327.732763,23.1828333 328.313662,24.4878333 329.848897,24.4878333 C331.342639,24.4878333 331.882046,23.1393333 331.882046,21.7473333 C331.882046,20.3988333 331.218161,19.1373333 329.807404,19.1373333 Z" id="Shape" fill="#000000" fill-rule="nonzero"></path>
                <path d="M334.081166,15.5703333 L335.201472,15.5703333 L335.201472,19.3113333 L335.242965,19.3113333 C335.616401,18.4848333 336.570736,18.0933333 337.3591,18.0933333 C339.143291,18.0933333 339.682698,19.1373333 339.682698,20.6598333 L339.682698,25.3143333 L338.562392,25.3143333 L338.562392,20.5293333 C338.562392,19.6593333 338.022985,19.0938333 337.193128,19.0938333 C335.865358,19.0938333 335.201472,20.0508333 335.201472,21.3123333 L335.201472,25.3143333 L334.081166,25.3143333 L334.081166,15.5703333 Z" id="Path" fill="#000000" fill-rule="nonzero"></path>
                <path d="M342.130775,17.0058333 L341.010469,17.0058333 L341.010469,15.5703333 L342.130775,15.5703333 L342.130775,17.0058333 Z M341.010469,18.2673333 L342.130775,18.2673333 L342.130775,25.3143333 L341.010469,25.3143333 L341.010469,18.2673333 Z" id="Shape" fill="#000000" fill-rule="nonzero"></path>
                <path d="M348.105743,20.5293333 C347.939772,19.6593333 347.358872,19.1373333 346.44603,19.1373333 C344.827809,19.1373333 344.329896,20.4423333 344.329896,21.8778333 C344.329896,23.1828333 344.869302,24.4443333 346.280059,24.4443333 C347.358872,24.4443333 347.981265,23.7918333 348.147236,22.7043333 L349.267543,22.7043333 C349.018586,24.4443333 347.981265,25.4448333 346.280059,25.4448333 C344.205417,25.4448333 343.126603,23.9223333 343.126603,21.8343333 C343.126603,19.7028333 344.163924,18.0498333 346.321551,18.0498333 C347.856786,18.0498333 349.060078,18.7893333 349.22605,20.4858333 L348.105743,20.4858333 L348.105743,20.5293333 Z" id="Path" fill="#000000" fill-rule="nonzero"></path>
                <path d="M357.921993,15 C360.813976,15 362.280333,17.4290598 362.280333,20.075 C362.280333,22.7209402 360.813976,25.15 357.921993,25.15 C355.03001,25.15 353.563653,22.7209402 353.563653,20.075 C353.522921,17.4290598 355.03001,15 357.921993,15 Z M357.921993,24.0655983 C360.162261,24.0655983 361.099101,22.0269231 361.099101,20.075 C361.099101,18.1230769 360.162261,16.0844017 357.921993,16.0844017 C355.681725,16.0844017 354.744885,18.1230769 354.744885,20.075 C354.744885,22.0269231 355.681725,24.0655983 357.921993,24.0655983 Z" id="Shape" fill="#000000" fill-rule="nonzero"></path>
                <path d="M363.852676,19.1719298 L362.739148,19.1719298 L362.739148,18.154386 L363.852676,18.154386 L363.852676,17.1792398 C363.852676,16.0769006 364.512545,15.4833333 365.708557,15.4833333 C365.914766,15.4833333 366.203459,15.525731 366.409668,15.6105263 L366.409668,16.5856725 C366.203459,16.5008772 365.99725,16.5008772 365.791041,16.5008772 C365.254898,16.5008772 364.966205,16.6704678 364.966205,17.2640351 L364.966205,18.2391813 L366.244701,18.2391813 L366.244701,19.2567251 L364.966205,19.2567251 L364.966205,25.15 L363.852676,25.15 L363.852676,19.1719298 Z" id="Path" fill="#000000" fill-rule="nonzero"></path>
                <path d="M367.523196,19.1719298 L366.409668,19.1719298 L366.409668,18.154386 L367.523196,18.154386 L367.523196,17.1792398 C367.523196,16.0769006 368.183065,15.4833333 369.379077,15.4833333 C369.585286,15.4833333 369.873979,15.525731 370.080188,15.6105263 L370.080188,16.5856725 C369.873979,16.5008772 369.66777,16.5008772 369.461561,16.5008772 C368.925417,16.5008772 368.636725,16.6704678 368.636725,17.2640351 L368.636725,18.2391813 L369.91522,18.2391813 L369.91522,19.2567251 L368.636725,19.2567251 L368.636725,25.15 L367.523196,25.15 L367.523196,19.1719298 Z" id="Path" fill="#000000" fill-rule="nonzero"></path>
                <path d="M371.997817,16.9074405 L370.997817,16.9074405 L370.997817,15.4833333 L371.997817,15.4833333 L371.997817,16.9074405 Z M370.997817,18.1589286 L371.997817,18.1589286 L371.997817,25.15 L370.997817,25.15 L370.997817,18.1589286 Z" id="Shape" fill="#000000" fill-rule="nonzero"></path>
                <path d="M378.12805,20.3308824 C377.966845,19.4779412 377.402626,18.9661765 376.515998,18.9661765 C374.944246,18.9661765 374.46063,20.2455882 374.46063,21.6529412 C374.46063,22.9323529 374.984548,24.1691176 376.354792,24.1691176 C377.402626,24.1691176 378.007146,23.5294118 378.168351,22.4632353 L379.256487,22.4632353 C379.014679,24.1691176 378.007146,25.15 376.354792,25.15 C374.339727,25.15 373.291892,23.6573529 373.291892,21.6102941 C373.291892,19.5205882 374.299425,17.9 376.395094,17.9 C377.886242,17.9 379.05498,18.625 379.216186,20.2882353 L378.12805,20.2882353 L378.12805,20.3308824 Z" id="Path" fill="#000000" fill-rule="nonzero"></path>
                <path d="M385.594007,22.7905325 C385.314069,24.3349112 384.274298,25.15 382.834615,25.15 C380.755073,25.15 379.795284,23.6056213 379.715302,21.5035503 C379.715302,19.4014793 380.99502,17.9 382.754633,17.9 C385.034131,17.9 385.753972,20.216568 385.67399,21.889645 L380.835055,21.889645 C380.795064,23.0908284 381.434923,24.1633136 382.874606,24.1633136 C383.754412,24.1633136 384.35428,23.6914201 384.554236,22.7905325 L385.594007,22.7905325 L385.594007,22.7905325 Z M384.594227,20.8171598 C384.554236,19.7446746 383.794404,18.843787 382.714641,18.843787 C381.594888,18.843787 380.915038,19.7446746 380.875046,20.8171598 L384.594227,20.8171598 Z" id="Shape" fill="#000000" fill-rule="nonzero"></path>
            </g>
        </g>
    </g>
</svg>