<?xml version="1.0" encoding="utf-8"?>
<!-- Generator: Adobe Illustrator 23.0.3, SVG Export Plug-In . SVG Version: 6.00 Build 0)  -->
<svg version="1.1" id="Layer_1" xmlns="http://www.w3.org/2000/svg" xmlns:xlink="http://www.w3.org/1999/xlink" x="0px" y="0px"
	 viewBox="0 0 268 69.31" style="enable-background:new 0 0 268 69.31;" xml:space="preserve">
<style type="text/css">
	.st0{clip-path:url(#SVGID_2_);}
	.st1{clip-path:url(#SVGID_4_);fill:#1A3358;}
	.st2{clip-path:url(#SVGID_6_);}
	.st3{clip-path:url(#SVGID_8_);fill:#1A3358;}
	.st4{clip-path:url(#SVGID_10_);}
	.st5{clip-path:url(#SVGID_12_);fill:#1A3358;}
	.st6{clip-path:url(#SVGID_14_);}
	.st7{clip-path:url(#SVGID_16_);fill:#1A3358;}
	.st8{clip-path:url(#SVGID_18_);}
	.st9{clip-path:url(#SVGID_20_);fill:#1A3358;}
	.st10{clip-path:url(#SVGID_22_);}
	.st11{clip-path:url(#SVGID_24_);fill:#1A3358;}
	.st12{clip-path:url(#SVGID_26_);}
	.st13{clip-path:url(#SVGID_28_);fill:#1A3358;}
	.st14{clip-path:url(#SVGID_30_);}
	.st15{clip-path:url(#SVGID_32_);fill:#1A3358;}
	.st16{clip-path:url(#SVGID_34_);}
	.st17{clip-path:url(#SVGID_36_);fill:#1A3358;}
	.st18{clip-path:url(#SVGID_38_);}
	.st19{clip-path:url(#SVGID_40_);fill:#1A3358;}
	.st20{clip-path:url(#SVGID_42_);}
	.st21{clip-path:url(#SVGID_44_);fill:#1A3358;}
	.st22{clip-path:url(#SVGID_46_);}
	.st23{clip-path:url(#SVGID_48_);fill:#1A3358;}
	.st24{clip-path:url(#SVGID_50_);}
	.st25{clip-path:url(#SVGID_52_);fill:#1A3358;}
	.st26{clip-path:url(#SVGID_54_);}
	.st27{clip-path:url(#SVGID_56_);fill:#1A3358;}
	.st28{clip-path:url(#SVGID_58_);}
	.st29{clip-path:url(#SVGID_60_);fill:#1A3358;}
	.st30{clip-path:url(#SVGID_62_);}
	.st31{clip-path:url(#SVGID_64_);fill:#1A3358;}
	.st32{clip-path:url(#SVGID_66_);}
	.st33{clip-path:url(#SVGID_68_);fill:#1A3358;}
	.st34{clip-path:url(#SVGID_70_);}
	.st35{clip-path:url(#SVGID_72_);fill:#1A3358;}
	.st36{clip-path:url(#SVGID_74_);}
	.st37{clip-path:url(#SVGID_76_);fill:#1A3358;}
	.st38{clip-path:url(#SVGID_78_);}
	.st39{clip-path:url(#SVGID_80_);fill:#1A3358;}
	.st40{clip-path:url(#SVGID_82_);}
	.st41{clip-path:url(#SVGID_84_);fill:#1A3358;}
	.st42{clip-path:url(#SVGID_86_);}
	.st43{clip-path:url(#SVGID_88_);fill:#1A3358;}
	.st44{clip-path:url(#SVGID_90_);}
	.st45{clip-path:url(#SVGID_92_);fill:#1A3358;}
	.st46{clip-path:url(#SVGID_94_);}
	.st47{clip-path:url(#SVGID_96_);fill:#1A3358;}
	.st48{clip-path:url(#SVGID_98_);}
	.st49{clip-path:url(#SVGID_100_);fill:#1A3358;}
	.st50{clip-path:url(#SVGID_102_);}
	.st51{clip-path:url(#SVGID_104_);fill:#1A3358;}
	.st52{clip-path:url(#SVGID_106_);}
	.st53{clip-path:url(#SVGID_108_);fill:#1A3358;}
	.st54{clip-path:url(#SVGID_110_);}
	.st55{clip-path:url(#SVGID_112_);fill:#1A3358;}
	.st56{clip-path:url(#SVGID_114_);}
	.st57{clip-path:url(#SVGID_116_);fill:#1A3358;}
	.st58{clip-path:url(#SVGID_118_);}
	.st59{clip-path:url(#SVGID_120_);fill:#1A3358;}
	.st60{clip-path:url(#SVGID_122_);}
	.st61{clip-path:url(#SVGID_124_);fill:#1A3358;}
	.st62{clip-path:url(#SVGID_126_);}
	.st63{clip-path:url(#SVGID_128_);fill:#1A3358;}
	.st64{clip-path:url(#SVGID_130_);}
	.st65{clip-path:url(#SVGID_132_);fill:#1A3358;}
	.st66{clip-path:url(#SVGID_134_);}
	.st67{clip-path:url(#SVGID_136_);fill:#1A3358;}
	.st68{clip-path:url(#SVGID_138_);}
	.st69{clip-path:url(#SVGID_140_);fill:#1A3358;}
	.st70{clip-path:url(#SVGID_142_);}
	.st71{clip-path:url(#SVGID_144_);fill:#1A3358;}
	.st72{clip-path:url(#SVGID_146_);}
	.st73{clip-path:url(#SVGID_148_);fill:#1A3358;}
	.st74{clip-path:url(#SVGID_150_);}
	.st75{clip-path:url(#SVGID_152_);fill:#1A3358;}
	.st76{clip-path:url(#SVGID_154_);}
	.st77{clip-path:url(#SVGID_156_);fill:#1A3358;}
	.st78{clip-path:url(#SVGID_158_);}
	.st79{clip-path:url(#SVGID_160_);fill:#1A3358;}
	.st80{clip-path:url(#SVGID_162_);}
	.st81{clip-path:url(#SVGID_164_);fill:#1A3358;}
	.st82{clip-path:url(#SVGID_166_);}
	.st83{clip-path:url(#SVGID_168_);fill:#1A3358;}
	.st84{clip-path:url(#SVGID_170_);}
	.st85{clip-path:url(#SVGID_172_);fill:#1A3358;}
	.st86{clip-path:url(#SVGID_174_);}
	.st87{clip-path:url(#SVGID_176_);fill:#1A3358;}
	.st88{clip-path:url(#SVGID_178_);}
	.st89{clip-path:url(#SVGID_180_);fill:#1A3358;}
	.st90{clip-path:url(#SVGID_182_);}
	.st91{clip-path:url(#SVGID_184_);fill:#1A3358;}
	.st92{clip-path:url(#SVGID_186_);}
	.st93{clip-path:url(#SVGID_188_);fill:#1A3358;}
	.st94{clip-path:url(#SVGID_190_);}
	.st95{clip-path:url(#SVGID_192_);fill:#1A3358;}
	.st96{clip-path:url(#SVGID_194_);}
	.st97{clip-path:url(#SVGID_196_);fill:#1A3358;}
	.st98{clip-path:url(#SVGID_198_);}
	.st99{clip-path:url(#SVGID_200_);fill:#1A3358;}
	.st100{clip-path:url(#SVGID_202_);}
	.st101{clip-path:url(#SVGID_204_);fill:#1A3358;}
	.st102{clip-path:url(#SVGID_206_);}
	.st103{clip-path:url(#SVGID_208_);fill:#1A3358;}
	.st104{clip-path:url(#SVGID_210_);}
	.st105{clip-path:url(#SVGID_212_);fill:#1A3358;}
	.st106{clip-path:url(#SVGID_214_);}
	.st107{clip-path:url(#SVGID_216_);fill:#1A3358;}
	.st108{clip-path:url(#SVGID_218_);}
	.st109{clip-path:url(#SVGID_220_);fill:#1A3358;}
	.st110{clip-path:url(#SVGID_222_);}
	.st111{clip-path:url(#SVGID_224_);fill:#1A3358;}
	.st112{clip-path:url(#SVGID_226_);}
	.st113{clip-path:url(#SVGID_228_);fill:#1A3358;}
	.st114{clip-path:url(#SVGID_230_);}
	.st115{clip-path:url(#SVGID_232_);fill:#1A3358;}
	.st116{clip-path:url(#SVGID_234_);}
	.st117{clip-path:url(#SVGID_236_);fill:#1A3358;}
	.st118{clip-path:url(#SVGID_238_);}
	.st119{clip-path:url(#SVGID_240_);fill:#1A3358;}
</style>
<g>
	<defs>
		<path id="SVGID_1_" d="M19.02,23.67c-1.17,0-3.1,0-4.21-0.1c1.59-3.99,2.8-7.6,4.39-11.24c1.5,3.63,3.74,10.05,4.2,11.24
			C21.77,23.57,20.6,23.67,19.02,23.67 M22.83,5.21h-6.27c-3.85,10.69-7.6,20.46-11.1,29.28h5.37c0.35-0.99,1.11-3.15,2.4-6.48
			c1.82-0.07,4.02-0.13,5.79-0.13c2.1,0,3.81,0,5.9,0.13c0.76,2.1,1.59,4.2,2.35,6.48H34C29.78,24.26,26.1,14.49,22.83,5.21"/>
	</defs>
	<clipPath id="SVGID_2_">
		<use xlink:href="#SVGID_1_"  style="overflow:visible;"/>
	</clipPath>
	<g class="st0">
		<defs>
			<rect id="SVGID_3_" x="-349" y="-1571" width="1920" height="23678"/>
		</defs>
		<clipPath id="SVGID_4_">
			<use xlink:href="#SVGID_3_"  style="overflow:visible;"/>
		</clipPath>
		<rect x="0.47" y="0.21" class="st1" width="38.53" height="39.28"/>
	</g>
</g>
<g>
	<defs>
		<path id="SVGID_5_" d="M50.69,29.93h-4.56c-0.18-3.33-0.18-6.42-0.18-9.83s0-6.94,0.18-10.33h4.62c5.08,0,9.35,3.33,9.35,10.05
			s-4.26,10.11-9.35,10.11 M50.69,5.21H39.88c0.12,4.91,0.18,9.99,0.18,14.85s0,9.58-0.18,14.43h10.81c12.39,0,15.9-8.71,15.9-14.61
			S63.08,5.21,50.69,5.21"/>
	</defs>
	<clipPath id="SVGID_6_">
		<use xlink:href="#SVGID_5_"  style="overflow:visible;"/>
	</clipPath>
	<g class="st2">
		<defs>
			<rect id="SVGID_7_" x="-349" y="-1571" width="1920" height="23678"/>
		</defs>
		<clipPath id="SVGID_8_">
			<use xlink:href="#SVGID_7_"  style="overflow:visible;"/>
		</clipPath>
		<rect x="34.88" y="0.21" class="st3" width="36.71" height="39.28"/>
	</g>
</g>
<g>
	<defs>
		<path id="SVGID_9_" d="M78.28,34.49c-0.11-3.57-0.17-8.07-0.17-11.4c0-3.33,0-5.31,0.17-8.65c3.1,4.34,5.97,8.72,8.61,13.15h0.81
			c2.46-3.92,5.49-8.53,8.81-13.74c0,3.28,0.18,6.44,0.18,9.53c0,3.81,0,7.9-0.18,11.11h6.21c-0.1-4.84-0.21-9.64-0.21-14.49
			s0.12-9.83,0.24-14.73h-6.39c-2.85,4.78-5.67,9.35-8.31,13.1c-3.09-4.23-5.95-8.62-8.58-13.16H72.9c0.12,5.08,0.3,10.11,0.3,15
			s-0.18,9.65-0.3,14.33h5.37"/>
	</defs>
	<clipPath id="SVGID_10_">
		<use xlink:href="#SVGID_9_"  style="overflow:visible;"/>
	</clipPath>
	<g class="st4">
		<defs>
			<rect id="SVGID_11_" x="-349" y="-1571" width="1920" height="23678"/>
		</defs>
		<clipPath id="SVGID_12_">
			<use xlink:href="#SVGID_11_"  style="overflow:visible;"/>
		</clipPath>
		<rect x="67.9" y="0.21" class="st5" width="39.83" height="39.33"/>
	</g>
</g>
<g>
	<defs>
		<path id="SVGID_13_" d="M118.79,34.49c-0.18-3-0.18-9.81-0.18-14.73c0-4.62,0-11.52,0.18-14.55h-6.32c0.18,3,0.18,9.93,0.18,14.55
			c0,4.92,0,11.75-0.18,14.73H118.79"/>
	</defs>
	<clipPath id="SVGID_14_">
		<use xlink:href="#SVGID_13_"  style="overflow:visible;"/>
	</clipPath>
	<g class="st6">
		<defs>
			<rect id="SVGID_15_" x="-349" y="-1571" width="1920" height="23678"/>
		</defs>
		<clipPath id="SVGID_16_">
			<use xlink:href="#SVGID_15_"  style="overflow:visible;"/>
		</clipPath>
		<rect x="107.47" y="0.21" class="st7" width="16.32" height="39.28"/>
	</g>
</g>
<g>
	<defs>
		<path id="SVGID_17_" d="M138.38,18.59h-3.75c0-1.5,0-3,0-4.5s0-3,0-4.5h3.75c2.74,0,5.13,1.41,5.13,4.5S141.12,18.59,138.38,18.59
			 M144.5,21.8c3.07-1.38,5.05-4.43,5.04-7.8c0-3.51-2.46-8.82-10.17-8.82h-10.82c0.12,5.08,0.23,10.11,0.23,15
			s-0.1,9.65-0.23,14.32h6c0-2.1-0.12-4.27-0.12-6.37c0-1.74,0-3.5,0.12-5.25h3.75c3,4.32,5.54,8.29,7.5,11.62h7.14
			c-3.11-4.27-6-8.59-8.43-12.69"/>
	</defs>
	<clipPath id="SVGID_18_">
		<use xlink:href="#SVGID_17_"  style="overflow:visible;"/>
	</clipPath>
	<g class="st8">
		<defs>
			<rect id="SVGID_19_" x="-349" y="-1571" width="1920" height="23678"/>
		</defs>
		<clipPath id="SVGID_20_">
			<use xlink:href="#SVGID_19_"  style="overflow:visible;"/>
		</clipPath>
		<rect x="123.56" y="0.18" class="st9" width="34.39" height="39.32"/>
	</g>
</g>
<g>
	<defs>
		<path id="SVGID_21_" d="M170.04,23.67c-1.18,0-3.1,0-4.21-0.1c1.5-3.99,2.8-7.6,4.38-11.24c1.5,3.63,3.74,10.05,4.21,11.24
			C172.79,23.57,171.6,23.67,170.04,23.67 M173.88,5.21h-6.24c-3.86,10.69-7.61,20.46-11.12,29.28h5.38
			c0.35-0.99,1.11-3.16,2.39-6.48c1.82-0.07,4.05-0.13,5.8-0.13c2.1,0,3.78,0,5.9,0.13c0.76,2.1,1.5,4.2,2.34,6.48H185
			c-4.21-10.23-7.89-19.99-11.18-29.28"/>
	</defs>
	<clipPath id="SVGID_22_">
		<use xlink:href="#SVGID_21_"  style="overflow:visible;"/>
	</clipPath>
	<g class="st10">
		<defs>
			<rect id="SVGID_23_" x="-349" y="-1571" width="1920" height="23678"/>
		</defs>
		<clipPath id="SVGID_24_">
			<use xlink:href="#SVGID_23_"  style="overflow:visible;"/>
		</clipPath>
		<rect x="151.53" y="0.21" class="st11" width="38.47" height="39.28"/>
	</g>
</g>
<g>
	<defs>
		<path id="SVGID_25_" d="M209.72,34.49c-3.09-0.12-6.42-0.12-9.59-0.12c-3.16,0-6.18,0-9.46,0.12c0.12-4.9,0.24-9.93,0.24-14.85
			s-0.12-9.58-0.24-14.43H197c-0.12,4.5-0.18,9.81-0.18,14.43c0,3.63,0,6.66,0.18,10.29h5.73c2.46,0,5.15,0,7.01-0.12v4.68"/>
	</defs>
	<clipPath id="SVGID_26_">
		<use xlink:href="#SVGID_25_"  style="overflow:visible;"/>
	</clipPath>
	<g class="st12">
		<defs>
			<rect id="SVGID_27_" x="-349" y="-1571" width="1920" height="23678"/>
		</defs>
		<clipPath id="SVGID_28_">
			<use xlink:href="#SVGID_27_"  style="overflow:visible;"/>
		</clipPath>
		<rect x="185.67" y="0.21" class="st13" width="29.07" height="39.28"/>
	</g>
</g>
<g>
	<defs>
		<path id="SVGID_29_" d="M233,9.81c-2.52-0.1-5.61-0.16-8.6-0.16c0,3.67-0.12,7.59-0.12,11.28c0,4.5,0,9,0.12,13.5h-6.32
			c0.12-4.5,0.18-8.82,0.18-13.5c0-3.63,0-7.83-0.18-11.4c-3.15,0-6.32,0-8.6,0.17V5.21c3.93,0.1,7.85,0.16,11.75,0.17
			c3.9,0.01,7.82-0.04,11.76-0.17V9.81"/>
	</defs>
	<clipPath id="SVGID_30_">
		<use xlink:href="#SVGID_29_"  style="overflow:visible;"/>
	</clipPath>
	<g class="st14">
		<defs>
			<rect id="SVGID_31_" x="-349" y="-1571" width="1920" height="23678"/>
		</defs>
		<clipPath id="SVGID_32_">
			<use xlink:href="#SVGID_31_"  style="overflow:visible;"/>
		</clipPath>
		<rect x="204.49" y="0.21" class="st15" width="33.51" height="39.22"/>
	</g>
</g>
<g>
	<defs>
		<path id="SVGID_33_" d="M252.77,24.11c0,1.59,0,2.88,0,3.97l0.18,6.19h-6.32c0-1.5,0.12-3.97,0.12-6.6s0-5.73,0-6.38
			c-2.87-5.08-6.62-10.76-10.41-16.31h7.37c1.99,3.84,4.22,7.54,6.67,11.1c2.52-3.58,4.86-7.28,7.01-11.1H263
			c-4.21,6.38-8.01,12.22-10.17,16.26c0,0.35,0,1.28,0,2.85"/>
	</defs>
	<clipPath id="SVGID_34_">
		<use xlink:href="#SVGID_33_"  style="overflow:visible;"/>
	</clipPath>
	<g class="st16">
		<defs>
			<rect id="SVGID_35_" x="-349" y="-1571" width="1920" height="23678"/>
		</defs>
		<clipPath id="SVGID_36_">
			<use xlink:href="#SVGID_35_"  style="overflow:visible;"/>
		</clipPath>
		<rect x="231.35" class="st17" width="36.65" height="39.28"/>
	</g>
</g>
<g>
	<defs>
		<polyline id="SVGID_37_" points="21.14,64.31 21.14,48.67 13.94,57.53 6.76,48.67 6.76,64.31 5,64.31 5,45.86 6.76,45.86 
			13.94,54.76 21.14,45.86 22.9,45.86 22.9,64.31 21.14,64.31 		"/>
	</defs>
	<clipPath id="SVGID_38_">
		<use xlink:href="#SVGID_37_"  style="overflow:visible;"/>
	</clipPath>
	<g class="st18">
		<defs>
			<rect id="SVGID_39_" x="-349" y="-1571" width="1920" height="23678"/>
		</defs>
		<clipPath id="SVGID_40_">
			<use xlink:href="#SVGID_39_"  style="overflow:visible;"/>
		</clipPath>
		<rect y="40.86" class="st19" width="27.9" height="28.45"/>
	</g>
</g>
<g>
	<defs>
		<path id="SVGID_41_" d="M33.5,58.07c-1.71-0.09-3.41,0.16-5.02,0.72c-0.85,0.41-1.39,1.28-1.38,2.22c0,1.5,1.22,2.22,2.61,2.22
			c1.43-0.09,2.78-0.69,3.8-1.69V58.07z M33.5,64.31v-1.32c-1.08,1.01-2.49,1.58-3.96,1.62c-1.01,0.11-2.03-0.2-2.8-0.87
			c-0.77-0.67-1.23-1.62-1.27-2.64c-0.01-1.46,0.81-2.8,2.11-3.46c1.88-0.72,3.9-1.03,5.91-0.9v-0.83c0.14-0.8-0.1-1.62-0.66-2.22
			c-0.56-0.59-1.37-0.88-2.17-0.78c-1.5,0.05-2.96,0.43-4.31,1.1l0.33-1.5c1.33-0.58,2.77-0.89,4.23-0.9
			c1.15-0.13,2.29,0.28,3.11,1.1s1.21,1.97,1.06,3.12v8.49H33.5z"/>
	</defs>
	<clipPath id="SVGID_42_">
		<use xlink:href="#SVGID_41_"  style="overflow:visible;"/>
	</clipPath>
	<g class="st20">
		<defs>
			<rect id="SVGID_43_" x="-349" y="-1571" width="1920" height="23678"/>
		</defs>
		<clipPath id="SVGID_44_">
			<use xlink:href="#SVGID_43_"  style="overflow:visible;"/>
		</clipPath>
		<rect x="20.47" y="46.58" class="st21" width="19.64" height="23.05"/>
	</g>
</g>
<g>
	<defs>
		<path id="SVGID_45_" d="M43.22,53.1c-1.31,0.12-2.5,0.81-3.26,1.89v9.31h-1.6V51.88h1.6v1.59c0.89-1.07,2.18-1.73,3.57-1.81
			c0.56,0.02,1.11,0.16,1.6,0.42v1.76C44.62,53.33,43.93,53.07,43.22,53.1"/>
	</defs>
	<clipPath id="SVGID_46_">
		<use xlink:href="#SVGID_45_"  style="overflow:visible;"/>
	</clipPath>
	<g class="st22">
		<defs>
			<rect id="SVGID_47_" x="-349" y="-1571" width="1920" height="23678"/>
		</defs>
		<clipPath id="SVGID_48_">
			<use xlink:href="#SVGID_47_"  style="overflow:visible;"/>
		</clipPath>
		<rect x="33.36" y="46.65" class="st23" width="16.78" height="22.66"/>
	</g>
</g>
<g>
	<defs>
		<path id="SVGID_49_" d="M46.74,51.88h1.59v12.43h-1.59V51.88z M47.54,49.37l-1.5-1.42l1.5-1.42l1.42,1.42L47.54,49.37z"/>
	</defs>
	<clipPath id="SVGID_50_">
		<use xlink:href="#SVGID_49_"  style="overflow:visible;"/>
	</clipPath>
	<g class="st24">
		<defs>
			<rect id="SVGID_51_" x="-349" y="-1571" width="1920" height="23678"/>
		</defs>
		<clipPath id="SVGID_52_">
			<use xlink:href="#SVGID_51_"  style="overflow:visible;"/>
		</clipPath>
		<rect x="41.04" y="41.52" class="st25" width="12.92" height="27.79"/>
	</g>
</g>
<g>
	<defs>
		<path id="SVGID_53_" d="M55.61,64.61c-1.6,0-3.76-0.83-3.76-4.17v-7.2H50v-1.36h1.92V48.8h1.59v3.08h4.5v1.36h-4.5v7.11
			c0,2.22,1.32,2.87,2.51,2.87c0.95,0.01,1.88-0.3,2.62-0.88v1.5c-0.93,0.48-1.96,0.73-3,0.74"/>
	</defs>
	<clipPath id="SVGID_54_">
		<use xlink:href="#SVGID_53_"  style="overflow:visible;"/>
	</clipPath>
	<g class="st26">
		<defs>
			<rect id="SVGID_55_" x="-349" y="-1571" width="1920" height="23678"/>
		</defs>
		<clipPath id="SVGID_56_">
			<use xlink:href="#SVGID_55_"  style="overflow:visible;"/>
		</clipPath>
		<rect x="45" y="43.8" class="st27" width="18.64" height="25.81"/>
	</g>
</g>
<g>
	<defs>
		<path id="SVGID_57_" d="M60.12,51.88h1.59v12.43h-1.59V51.88z M60.92,49.37l-1.5-1.42l1.5-1.42l1.43,1.42L60.92,49.37z"/>
	</defs>
	<clipPath id="SVGID_58_">
		<use xlink:href="#SVGID_57_"  style="overflow:visible;"/>
	</clipPath>
	<g class="st28">
		<defs>
			<rect id="SVGID_59_" x="-349" y="-1571" width="1920" height="23678"/>
		</defs>
		<clipPath id="SVGID_60_">
			<use xlink:href="#SVGID_59_"  style="overflow:visible;"/>
		</clipPath>
		<rect x="54.42" y="41.52" class="st29" width="12.93" height="27.79"/>
	</g>
</g>
<g>
	<defs>
		<path id="SVGID_61_" d="M82.42,64.31v-7.74c0.03-0.93-0.31-1.83-0.96-2.51C80.81,53.39,79.93,53.01,79,53
			c-1.54,0.13-2.97,0.83-4.02,1.97c0.17,0.55,0.26,1.13,0.26,1.71v7.6h-1.59v-7.71c0.03-0.93-0.31-1.84-0.96-2.51
			C72.03,53.39,71.14,53,70.21,53c-1.43,0.12-2.78,0.74-3.79,1.76v9.52h-1.59v-12.4h1.59v1.5c1.17-1.02,2.65-1.62,4.2-1.69
			c1.59,0.02,3.05,0.88,3.84,2.25c1.3-1.36,3.07-2.16,4.95-2.25c1.29,0.05,2.51,0.61,3.38,1.58c0.87,0.96,1.31,2.23,1.22,3.52v7.61
			h-1.59"/>
	</defs>
	<clipPath id="SVGID_62_">
		<use xlink:href="#SVGID_61_"  style="overflow:visible;"/>
	</clipPath>
	<g class="st30">
		<defs>
			<rect id="SVGID_63_" x="-349" y="-1571" width="1920" height="23678"/>
		</defs>
		<clipPath id="SVGID_64_">
			<use xlink:href="#SVGID_63_"  style="overflow:visible;"/>
		</clipPath>
		<rect x="59.82" y="46.68" class="st31" width="29.2" height="22.7"/>
	</g>
</g>
<g>
	<defs>
		<path id="SVGID_65_" d="M92.48,53c-2.18,0.05-3.99,1.68-4.28,3.84h8.1C96.3,54.73,94.59,53.02,92.48,53z M88.1,58.29
			c-0.07,1.33,0.44,2.63,1.38,3.57s2.25,1.43,3.58,1.35c1.71-0.03,3.37-0.59,4.74-1.6v1.5c-1.47,0.96-3.18,1.48-4.93,1.5
			c-1.76,0.08-3.46-0.6-4.68-1.87s-1.84-3-1.69-4.75c-0.06-1.66,0.55-3.28,1.69-4.48c1.14-1.21,2.72-1.9,4.38-1.94
			C95,51.6,98,53.57,98,58.16v0.13H88.1z"/>
	</defs>
	<clipPath id="SVGID_66_">
		<use xlink:href="#SVGID_65_"  style="overflow:visible;"/>
	</clipPath>
	<g class="st32">
		<defs>
			<rect id="SVGID_67_" x="-349" y="-1571" width="1920" height="23678"/>
		</defs>
		<clipPath id="SVGID_68_">
			<use xlink:href="#SVGID_67_"  style="overflow:visible;"/>
		</clipPath>
		<rect x="81.47" y="46.58" class="st33" width="21.53" height="23.04"/>
	</g>
</g>
<g>
	<defs>
		<path id="SVGID_69_" d="M110.54,47.45h-3.35v15.27h3.07c4.89,0,8.62-3,8.62-7.64c-0.06-2.13-0.98-4.15-2.56-5.59
			C114.76,48.05,112.67,47.31,110.54,47.45z M110.82,64.31h-5.32V45.86h5.39c2.54-0.12,5.01,0.8,6.86,2.53
			c1.85,1.74,2.92,4.15,2.96,6.69c0,5.4-4.36,9.22-9.82,9.22H110.82z"/>
	</defs>
	<clipPath id="SVGID_70_">
		<use xlink:href="#SVGID_69_"  style="overflow:visible;"/>
	</clipPath>
	<g class="st34">
		<defs>
			<rect id="SVGID_71_" x="-349" y="-1571" width="1920" height="23678"/>
		</defs>
		<clipPath id="SVGID_72_">
			<use xlink:href="#SVGID_71_"  style="overflow:visible;"/>
		</clipPath>
		<rect x="100.5" y="40.85" class="st35" width="25.21" height="28.46"/>
	</g>
</g>
<g>
	<defs>
		<path id="SVGID_73_" d="M130.36,58.07c-1.71-0.09-3.41,0.16-5.03,0.72c-0.84,0.42-1.38,1.28-1.37,2.22c0,1.5,1.2,2.22,2.61,2.22
			c1.42-0.08,2.77-0.69,3.78-1.69V58.07z M130.36,64.31v-1.32c-1.07,1-2.48,1.58-3.95,1.62c-1.01,0.11-2.03-0.2-2.8-0.87
			c-0.77-0.67-1.23-1.62-1.27-2.64c-0.02-1.46,0.8-2.81,2.11-3.46c1.88-0.72,3.89-1.03,5.9-0.9v-0.83c0.14-0.8-0.1-1.62-0.66-2.21
			c-0.56-0.59-1.36-0.88-2.16-0.79c-1.5,0.05-2.97,0.43-4.32,1.1l0.33-1.5c1.34-0.58,2.77-0.89,4.23-0.9
			c1.15-0.13,2.29,0.28,3.11,1.1c0.81,0.82,1.21,1.97,1.07,3.12v8.49H130.36z"/>
	</defs>
	<clipPath id="SVGID_74_">
		<use xlink:href="#SVGID_73_"  style="overflow:visible;"/>
	</clipPath>
	<g class="st36">
		<defs>
			<rect id="SVGID_75_" x="-349" y="-1571" width="1920" height="23678"/>
		</defs>
		<clipPath id="SVGID_76_">
			<use xlink:href="#SVGID_75_"  style="overflow:visible;"/>
		</clipPath>
		<rect x="117.34" y="46.58" class="st37" width="19.63" height="23.05"/>
	</g>
</g>
<g>
	<defs>
		<path id="SVGID_77_" d="M139.61,64.61c-1.59,0-3.76-0.83-3.76-4.17v-7.2H134v-1.36h1.92V48.8h1.59v3.08h4.5v1.36h-4.5v7.11
			c0,2.22,1.32,2.87,2.51,2.87c0.95,0.02,1.88-0.29,2.62-0.88v1.5c-0.93,0.48-1.96,0.74-3,0.74"/>
	</defs>
	<clipPath id="SVGID_78_">
		<use xlink:href="#SVGID_77_"  style="overflow:visible;"/>
	</clipPath>
	<g class="st38">
		<defs>
			<rect id="SVGID_79_" x="-349" y="-1571" width="1920" height="23678"/>
		</defs>
		<clipPath id="SVGID_80_">
			<use xlink:href="#SVGID_79_"  style="overflow:visible;"/>
		</clipPath>
		<rect x="129" y="43.8" class="st39" width="18.64" height="25.81"/>
	</g>
</g>
<g>
	<defs>
		<path id="SVGID_81_" d="M152,58.07c-1.71-0.09-3.41,0.16-5.02,0.72c-0.84,0.42-1.38,1.28-1.37,2.22c0,1.5,1.2,2.22,2.61,2.22
			c1.42-0.08,2.77-0.69,3.78-1.69V58.07z M152,64.31v-1.32c-1.07,1-2.48,1.58-3.95,1.62c-1,0.1-2-0.23-2.76-0.89
			c-0.76-0.66-1.21-1.61-1.25-2.62c-0.01-1.46,0.81-2.8,2.11-3.46c1.88-0.72,3.89-1.03,5.9-0.9v-0.83c0-2.42-1.5-3-2.82-3
			c-1.5,0.05-2.96,0.43-4.31,1.1l0.32-1.5c1.34-0.58,2.77-0.89,4.23-0.9c1.15-0.13,2.29,0.28,3.11,1.1
			c0.81,0.82,1.21,1.97,1.08,3.12v8.49H152z"/>
	</defs>
	<clipPath id="SVGID_82_">
		<use xlink:href="#SVGID_81_"  style="overflow:visible;"/>
	</clipPath>
	<g class="st40">
		<defs>
			<rect id="SVGID_83_" x="-349" y="-1571" width="1920" height="23678"/>
		</defs>
		<clipPath id="SVGID_84_">
			<use xlink:href="#SVGID_83_"  style="overflow:visible;"/>
		</clipPath>
		<rect x="139.05" y="46.58" class="st41" width="19.64" height="23.04"/>
	</g>
</g>
<g>
	<defs>
		<path id="SVGID_85_" d="M166.48,64.61c-2.39,0.09-4.57-1.36-5.42-3.6l1.5-0.76c0.61,1.69,2.22,2.82,4.02,2.81
			c0.98,0.03,1.93-0.36,2.63-1.05c0.69-0.7,1.07-1.65,1.03-2.64c0-3.97-8.16-5.04-8.16-9.69c0.04-1.17,0.56-2.28,1.44-3.06
			c0.88-0.78,2.04-1.16,3.21-1.05c1.69,0.03,3.25,0.9,4.17,2.31l-1.26,1c-0.63-1.06-1.77-1.72-3-1.75c-0.7-0.05-1.39,0.18-1.91,0.66
			c-0.52,0.47-0.82,1.14-0.83,1.85c0,3.4,8.16,4.77,8.16,9.63c0,1.45-0.59,2.84-1.63,3.85c-1.04,1.01-2.45,1.55-3.89,1.51"/>
	</defs>
	<clipPath id="SVGID_86_">
		<use xlink:href="#SVGID_85_"  style="overflow:visible;"/>
	</clipPath>
	<g class="st42">
		<defs>
			<rect id="SVGID_87_" x="-349" y="-1571" width="1920" height="23678"/>
		</defs>
		<clipPath id="SVGID_88_">
			<use xlink:href="#SVGID_87_"  style="overflow:visible;"/>
		</clipPath>
		<rect x="156.06" y="40.54" class="st43" width="20.99" height="29.07"/>
	</g>
</g>
<g>
	<defs>
		<path id="SVGID_89_" d="M180.9,53.03c-2.07-0.05-3.97,1.15-4.79,3.05c-0.83,1.9-0.43,4.11,1.02,5.59
			c1.45,1.48,3.65,1.94,5.56,1.15c1.92-0.78,3.17-2.65,3.16-4.72c0.06-1.34-0.43-2.66-1.37-3.62c-0.94-0.97-2.23-1.5-3.58-1.48
			V53.03z M180.9,64.61c-3.59-0.03-6.47-2.96-6.45-6.55c0.02-3.59,2.94-6.48,6.53-6.47c3.59,0.01,6.49,2.92,6.49,6.51
			c-0.01,1.73-0.7,3.39-1.94,4.62C184.31,63.94,182.64,64.62,180.9,64.61z"/>
	</defs>
	<clipPath id="SVGID_90_">
		<use xlink:href="#SVGID_89_"  style="overflow:visible;"/>
	</clipPath>
	<g class="st44">
		<defs>
			<rect id="SVGID_91_" x="-349" y="-1571" width="1920" height="23678"/>
		</defs>
		<clipPath id="SVGID_92_">
			<use xlink:href="#SVGID_91_"  style="overflow:visible;"/>
		</clipPath>
		<rect x="169.46" y="46.59" class="st45" width="23.02" height="23.02"/>
	</g>
</g>
<g>
	<defs>
		<path id="SVGID_93_" d="M193.71,64.61c-1.77,0-3.75-0.83-3.75-4.4V45.86h1.59v14.49c0,2.44,1.4,2.84,2.36,2.84
			c0.8-0.01,1.57-0.28,2.21-0.77v1.5c-0.73,0.42-1.56,0.65-2.4,0.66"/>
	</defs>
	<clipPath id="SVGID_94_">
		<use xlink:href="#SVGID_93_"  style="overflow:visible;"/>
	</clipPath>
	<g class="st46">
		<defs>
			<rect id="SVGID_95_" x="-349" y="-1571" width="1920" height="23678"/>
		</defs>
		<clipPath id="SVGID_96_">
			<use xlink:href="#SVGID_95_"  style="overflow:visible;"/>
		</clipPath>
		<rect x="184.96" y="40.86" class="st47" width="16.15" height="28.75"/>
	</g>
</g>
<g>
	<defs>
		<path id="SVGID_97_" d="M206.15,64.31v-1.35c-1.15,0.99-2.6,1.56-4.11,1.62c-1.37,0.07-2.71-0.44-3.69-1.41
			c-0.97-0.97-1.49-2.31-1.41-3.69v-7.6h1.56v7.74c-0.01,0.98,0.38,1.91,1.09,2.58c0.71,0.67,1.66,1.02,2.63,0.96
			c1.47-0.06,2.86-0.67,3.9-1.71v-9.57h1.59v12.43H206.15"/>
	</defs>
	<clipPath id="SVGID_98_">
		<use xlink:href="#SVGID_97_"  style="overflow:visible;"/>
	</clipPath>
	<g class="st48">
		<defs>
			<rect id="SVGID_99_" x="-349" y="-1571" width="1920" height="23678"/>
		</defs>
		<clipPath id="SVGID_100_">
			<use xlink:href="#SVGID_99_"  style="overflow:visible;"/>
		</clipPath>
		<rect x="191.93" y="46.88" class="st49" width="20.78" height="22.71"/>
	</g>
</g>
<g>
	<defs>
		<path id="SVGID_101_" d="M215.1,64.61c-1.6,0-3.76-0.83-3.76-4.17v-7.2h-1.92v-1.36h1.92V48.8h1.59v3.08h4.5v1.36h-4.5v7.11
			c0,2.22,1.32,2.87,2.51,2.87c0.95,0.02,1.88-0.29,2.62-0.88v1.5c-0.93,0.48-1.96,0.74-3,0.74"/>
	</defs>
	<clipPath id="SVGID_102_">
		<use xlink:href="#SVGID_101_"  style="overflow:visible;"/>
	</clipPath>
	<g class="st50">
		<defs>
			<rect id="SVGID_103_" x="-349" y="-1571" width="1920" height="23678"/>
		</defs>
		<clipPath id="SVGID_104_">
			<use xlink:href="#SVGID_103_"  style="overflow:visible;"/>
		</clipPath>
		<rect x="204.42" y="43.8" class="st51" width="18.64" height="25.81"/>
	</g>
</g>
<g>
	<defs>
		<path id="SVGID_105_" d="M219.08,51.88h1.59v12.43h-1.59V51.88z M219.88,49.37l-1.43-1.42l1.43-1.42l1.43,1.42L219.88,49.37z"/>
	</defs>
	<clipPath id="SVGID_106_">
		<use xlink:href="#SVGID_105_"  style="overflow:visible;"/>
	</clipPath>
	<g class="st52">
		<defs>
			<rect id="SVGID_107_" x="-349" y="-1571" width="1920" height="23678"/>
		</defs>
		<clipPath id="SVGID_108_">
			<use xlink:href="#SVGID_107_"  style="overflow:visible;"/>
		</clipPath>
		<rect x="213.45" y="41.52" class="st53" width="12.85" height="27.79"/>
	</g>
</g>
<g>
	<defs>
		<path id="SVGID_109_" d="M229.26,53.03c-2.07-0.06-3.97,1.14-4.8,3.04c-0.83,1.9-0.43,4.11,1.01,5.59
			c1.44,1.48,3.65,1.94,5.56,1.16c1.92-0.78,3.17-2.65,3.16-4.72c0.06-1.34-0.43-2.65-1.37-3.62c-0.93-0.97-2.23-1.5-3.57-1.48
			V53.03z M229.26,64.61c-3.59-0.02-6.48-2.95-6.46-6.54c0.02-3.59,2.94-6.49,6.52-6.48c3.59,0.01,6.49,2.92,6.5,6.51
			C235.8,61.7,232.87,64.61,229.26,64.61z"/>
	</defs>
	<clipPath id="SVGID_110_">
		<use xlink:href="#SVGID_109_"  style="overflow:visible;"/>
	</clipPath>
	<g class="st54">
		<defs>
			<rect id="SVGID_111_" x="-349" y="-1571" width="1920" height="23678"/>
		</defs>
		<clipPath id="SVGID_112_">
			<use xlink:href="#SVGID_111_"  style="overflow:visible;"/>
		</clipPath>
		<rect x="217.8" y="46.59" class="st55" width="23.02" height="23.02"/>
	</g>
</g>
<g>
	<defs>
		<path id="SVGID_113_" d="M247.67,64.31v-7.74c0.02-0.98-0.37-1.93-1.07-2.6c-0.71-0.68-1.67-1.03-2.65-0.97
			c-1.47,0.06-2.86,0.66-3.9,1.69v9.58h-1.59v-12.4h1.59v1.35c1.15-0.99,2.6-1.56,4.11-1.62c1.38-0.07,2.72,0.44,3.69,1.41
			c0.98,0.97,1.49,2.31,1.42,3.69v7.6H247.67"/>
	</defs>
	<clipPath id="SVGID_114_">
		<use xlink:href="#SVGID_113_"  style="overflow:visible;"/>
	</clipPath>
	<g class="st56">
		<defs>
			<rect id="SVGID_115_" x="-349" y="-1571" width="1920" height="23678"/>
		</defs>
		<clipPath id="SVGID_116_">
			<use xlink:href="#SVGID_115_"  style="overflow:visible;"/>
		</clipPath>
		<rect x="233.46" y="46.6" class="st57" width="20.82" height="22.71"/>
	</g>
</g>
<g>
	<defs>
		<path id="SVGID_117_" d="M256.16,64.64c-1.5-0.05-2.98-0.37-4.37-0.96v-1.59c1.39,0.72,2.93,1.09,4.5,1.1
			c1.86,0,2.82-0.89,2.82-2.09c0-0.66-0.34-1.24-2.02-1.92c-3.3-1.38-3.97-1.74-4.43-2.17c-0.54-0.52-0.86-1.23-0.87-1.98
			c0-1.86,1.5-3.42,4.5-3.42c1.25,0.01,2.48,0.28,3.62,0.8v1.5c-1.19-0.57-2.49-0.88-3.81-0.9c-1.76,0-2.78,0.85-2.78,1.86
			c0,0.72,0.33,1.24,2.12,1.95c1.5,0.44,2.91,1.13,4.17,2.04c0.68,0.53,1.07,1.33,1.08,2.19c0,2.44-2.37,3.6-4.5,3.6"/>
	</defs>
	<clipPath id="SVGID_118_">
		<use xlink:href="#SVGID_117_"  style="overflow:visible;"/>
	</clipPath>
	<g class="st58">
		<defs>
			<rect id="SVGID_119_" x="-349" y="-1571" width="1920" height="23678"/>
		</defs>
		<clipPath id="SVGID_120_">
			<use xlink:href="#SVGID_119_"  style="overflow:visible;"/>
		</clipPath>
		<rect x="246.79" y="46.6" class="st59" width="18.9" height="23.03"/>
	</g>
</g>
<g>
	<defs>
		<path id="SVGID_121_" d="M-1749.05-8722.2c-1.17,0-3.1,0-4.21-0.1c1.59-3.99,2.8-7.61,4.4-11.24c1.5,3.63,3.73,10.05,4.2,11.24
			C-1746.31-8722.3-1747.48-8722.2-1749.05-8722.2 M-1745.24-8740.66h-6.27c-3.85,10.7-7.6,20.46-11.1,29.28h5.37
			c0.34-0.99,1.11-3.15,2.4-6.48c1.82-0.08,4.02-0.13,5.79-0.13c2.1,0,3.81,0,5.9,0.13c0.77,2.1,1.59,4.2,2.35,6.48h6.72
			C-1738.3-8721.61-1741.97-8731.38-1745.24-8740.66"/>
	</defs>
	<clipPath id="SVGID_122_">
		<use xlink:href="#SVGID_121_"  style="overflow:visible;"/>
	</clipPath>
	<g class="st60">
		<defs>
			<rect id="SVGID_123_" x="-2117.08" y="-10316.87" width="1920" height="23678"/>
		</defs>
		<clipPath id="SVGID_124_">
			<use xlink:href="#SVGID_123_"  style="overflow:visible;"/>
		</clipPath>
		<rect x="-1767.61" y="-8745.66" class="st61" width="38.53" height="39.28"/>
	</g>
</g>
<g>
	<defs>
		<path id="SVGID_125_" d="M-1717.39-8715.94h-4.56c-0.18-3.33-0.18-6.42-0.18-9.83c0-3.4,0-6.94,0.18-10.33h4.62
			c5.09,0,9.35,3.33,9.35,10.05c0,6.72-4.26,10.11-9.35,10.11 M-1717.39-8740.66h-10.82c0.12,4.91,0.18,9.99,0.18,14.85
			c0,4.86,0,9.58-0.18,14.43h10.82c12.39,0,15.9-8.72,15.9-14.61C-1701.49-8731.89-1705-8740.66-1717.39-8740.66"/>
	</defs>
	<clipPath id="SVGID_126_">
		<use xlink:href="#SVGID_125_"  style="overflow:visible;"/>
	</clipPath>
	<g class="st62">
		<defs>
			<rect id="SVGID_127_" x="-2117.08" y="-10316.87" width="1920" height="23678"/>
		</defs>
		<clipPath id="SVGID_128_">
			<use xlink:href="#SVGID_127_"  style="overflow:visible;"/>
		</clipPath>
		<rect x="-1733.2" y="-8745.66" class="st63" width="36.71" height="39.28"/>
	</g>
</g>
<g>
	<defs>
		<path id="SVGID_129_" d="M-1689.8-8711.38c-0.1-3.57-0.17-8.07-0.17-11.4s0-5.31,0.17-8.66c3.1,4.34,5.97,8.73,8.61,13.16h0.81
			c2.46-3.92,5.49-8.54,8.8-13.74c0,3.29,0.18,6.44,0.18,9.53c0,3.81,0,7.91-0.18,11.12h6.21c-0.11-4.85-0.21-9.65-0.21-14.49
			s0.12-9.83,0.24-14.73h-6.39c-2.85,4.79-5.67,9.35-8.31,13.1c-3.09-4.23-5.95-8.62-8.58-13.16h-6.56c0.12,5.08,0.3,10.11,0.3,15
			s-0.18,9.64-0.3,14.33h5.37"/>
	</defs>
	<clipPath id="SVGID_130_">
		<use xlink:href="#SVGID_129_"  style="overflow:visible;"/>
	</clipPath>
	<g class="st64">
		<defs>
			<rect id="SVGID_131_" x="-2117.08" y="-10316.87" width="1920" height="23678"/>
		</defs>
		<clipPath id="SVGID_132_">
			<use xlink:href="#SVGID_131_"  style="overflow:visible;"/>
		</clipPath>
		<rect x="-1700.17" y="-8745.66" class="st65" width="39.83" height="39.33"/>
	</g>
</g>
<g>
	<defs>
		<path id="SVGID_133_" d="M-1649.29-8711.38c-0.18-3-0.18-9.81-0.18-14.73c0-4.62,0-11.52,0.18-14.55h-6.32
			c0.18,3,0.18,9.93,0.18,14.55c0,4.92,0,11.75-0.18,14.73H-1649.29"/>
	</defs>
	<clipPath id="SVGID_134_">
		<use xlink:href="#SVGID_133_"  style="overflow:visible;"/>
	</clipPath>
	<g class="st66">
		<defs>
			<rect id="SVGID_135_" x="-2117.08" y="-10316.87" width="1920" height="23678"/>
		</defs>
		<clipPath id="SVGID_136_">
			<use xlink:href="#SVGID_135_"  style="overflow:visible;"/>
		</clipPath>
		<rect x="-1660.6" y="-8745.66" class="st67" width="16.32" height="39.28"/>
	</g>
</g>
<g>
	<defs>
		<path id="SVGID_137_" d="M-1629.7-8727.28h-3.75c0-1.5,0-3,0-4.5s0-3,0-4.5h3.75c2.74,0,5.13,1.41,5.13,4.5
			S-1626.95-8727.28-1629.7-8727.28 M-1623.58-8724.07c3.07-1.38,5.05-4.43,5.04-7.8c0-3.51-2.46-8.82-10.17-8.82h-10.81
			c0.12,5.08,0.22,10.11,0.22,15c0,4.89-0.1,9.65-0.22,14.33h6c0-2.1-0.12-4.28-0.12-6.38c0-1.74,0-3.5,0.12-5.25h3.75
			c3,4.32,5.54,8.29,7.5,11.62h7.14c-3.1-4.28-6-8.59-8.43-12.69"/>
	</defs>
	<clipPath id="SVGID_138_">
		<use xlink:href="#SVGID_137_"  style="overflow:visible;"/>
	</clipPath>
	<g class="st68">
		<defs>
			<rect id="SVGID_139_" x="-2117.08" y="-10316.87" width="1920" height="23678"/>
		</defs>
		<clipPath id="SVGID_140_">
			<use xlink:href="#SVGID_139_"  style="overflow:visible;"/>
		</clipPath>
		<rect x="-1644.52" y="-8745.69" class="st69" width="34.39" height="39.32"/>
	</g>
</g>
<g>
	<defs>
		<path id="SVGID_141_" d="M-1598.03-8722.2c-1.19,0-3.1,0-4.21-0.1c1.5-3.99,2.8-7.61,4.38-11.24c1.5,3.63,3.73,10.05,4.21,11.24
			C-1595.29-8722.3-1596.47-8722.2-1598.03-8722.2 M-1594.19-8740.66h-6.24c-3.85,10.7-7.6,20.46-11.11,29.28h5.39
			c0.34-0.99,1.11-3.17,2.39-6.48c1.81-0.08,4.05-0.13,5.8-0.13c2.1,0,3.78,0,5.9,0.13c0.77,2.1,1.5,4.2,2.34,6.48h6.66
			c-4.21-10.23-7.89-20-11.17-29.28"/>
	</defs>
	<clipPath id="SVGID_142_">
		<use xlink:href="#SVGID_141_"  style="overflow:visible;"/>
	</clipPath>
	<g class="st70">
		<defs>
			<rect id="SVGID_143_" x="-2117.08" y="-10316.87" width="1920" height="23678"/>
		</defs>
		<clipPath id="SVGID_144_">
			<use xlink:href="#SVGID_143_"  style="overflow:visible;"/>
		</clipPath>
		<rect x="-1616.55" y="-8745.66" class="st71" width="38.47" height="39.28"/>
	</g>
</g>
<g>
	<defs>
		<path id="SVGID_145_" d="M-1558.36-8711.38c-3.09-0.12-6.42-0.12-9.59-0.12c-3.16,0-6.18,0-9.46,0.12
			c0.12-4.91,0.24-9.93,0.24-14.85s-0.12-9.58-0.24-14.43h6.33c-0.12,4.5-0.18,9.81-0.18,14.43c0,3.63,0,6.66,0.18,10.29h5.73
			c2.46,0,5.15,0,7.01-0.12v4.68"/>
	</defs>
	<clipPath id="SVGID_146_">
		<use xlink:href="#SVGID_145_"  style="overflow:visible;"/>
	</clipPath>
	<g class="st72">
		<defs>
			<rect id="SVGID_147_" x="-2117.08" y="-10316.87" width="1920" height="23678"/>
		</defs>
		<clipPath id="SVGID_148_">
			<use xlink:href="#SVGID_147_"  style="overflow:visible;"/>
		</clipPath>
		<rect x="-1582.41" y="-8745.66" class="st73" width="29.07" height="39.28"/>
	</g>
</g>
<g>
	<defs>
		<path id="SVGID_149_" d="M-1535.08-8736.06c-2.52-0.1-5.61-0.17-8.59-0.17c0,3.68-0.12,7.59-0.12,11.28c0,4.5,0,9,0.12,13.5h-6.31
			c0.12-4.5,0.18-8.82,0.18-13.5c0-3.63,0-7.83-0.18-11.4c-3.15,0-6.32,0-8.6,0.17v-4.49c3.93,0.1,7.85,0.16,11.74,0.17
			c3.9,0.01,7.82-0.04,11.76-0.17V-8736.06"/>
	</defs>
	<clipPath id="SVGID_150_">
		<use xlink:href="#SVGID_149_"  style="overflow:visible;"/>
	</clipPath>
	<g class="st74">
		<defs>
			<rect id="SVGID_151_" x="-2117.08" y="-10316.87" width="1920" height="23678"/>
		</defs>
		<clipPath id="SVGID_152_">
			<use xlink:href="#SVGID_151_"  style="overflow:visible;"/>
		</clipPath>
		<rect x="-1563.58" y="-8745.66" class="st75" width="33.51" height="39.22"/>
	</g>
</g>
<g>
	<defs>
		<path id="SVGID_153_" d="M-1515.31-8721.76c0,1.59,0,2.88,0,3.98l0.18,6.2h-6.32c0-1.5,0.12-3.98,0.12-6.6s0-5.73,0-6.38
			c-2.86-5.08-6.61-10.75-10.41-16.3h7.36c1.99,3.84,4.22,7.54,6.67,11.1c2.52-3.58,4.86-7.28,7.01-11.1h5.61
			c-4.21,6.38-8.01,12.22-10.17,16.26c0,0.34,0,1.28,0,2.85"/>
	</defs>
	<clipPath id="SVGID_154_">
		<use xlink:href="#SVGID_153_"  style="overflow:visible;"/>
	</clipPath>
	<g class="st76">
		<defs>
			<rect id="SVGID_155_" x="-2117.08" y="-10316.87" width="1920" height="23678"/>
		</defs>
		<clipPath id="SVGID_156_">
			<use xlink:href="#SVGID_155_"  style="overflow:visible;"/>
		</clipPath>
		<rect x="-1536.73" y="-8745.87" class="st77" width="36.65" height="39.28"/>
	</g>
</g>
<g>
	<defs>
		<polyline id="SVGID_157_" points="-1746.94,-8681.56 -1746.94,-8697.21 -1754.14,-8688.34 -1761.32,-8697.21 -1761.32,-8681.56 
			-1763.08,-8681.56 -1763.08,-8700.01 -1761.32,-8700.01 -1754.14,-8691.12 -1746.94,-8700.01 -1745.18,-8700.01 
			-1745.18,-8681.56 -1746.94,-8681.56 		"/>
	</defs>
	<clipPath id="SVGID_158_">
		<use xlink:href="#SVGID_157_"  style="overflow:visible;"/>
	</clipPath>
	<g class="st78">
		<defs>
			<rect id="SVGID_159_" x="-2117.08" y="-10316.87" width="1920" height="23678"/>
		</defs>
		<clipPath id="SVGID_160_">
			<use xlink:href="#SVGID_159_"  style="overflow:visible;"/>
		</clipPath>
		<rect x="-1768.08" y="-8705.01" class="st79" width="27.9" height="28.45"/>
	</g>
</g>
<g>
	<defs>
		<path id="SVGID_161_" d="M-1734.58-8687.8c-1.71-0.09-3.41,0.16-5.02,0.72c-0.85,0.41-1.39,1.28-1.38,2.22
			c0,1.5,1.21,2.22,2.61,2.22c1.43-0.09,2.78-0.69,3.79-1.69V-8687.8z M-1734.58-8681.56v-1.32c-1.08,1.01-2.49,1.58-3.96,1.62
			c-1.01,0.11-2.03-0.2-2.8-0.87c-0.77-0.67-1.23-1.62-1.27-2.64c-0.01-1.46,0.81-2.8,2.11-3.46c1.88-0.72,3.9-1.03,5.91-0.9v-0.82
			c0.14-0.8-0.1-1.62-0.66-2.22c-0.56-0.59-1.37-0.88-2.17-0.78c-1.5,0.05-2.96,0.43-4.31,1.09l0.33-1.5
			c1.33-0.58,2.77-0.89,4.23-0.9c1.15-0.13,2.29,0.28,3.1,1.1c0.81,0.82,1.21,1.97,1.07,3.12v8.49H-1734.58z"/>
	</defs>
	<clipPath id="SVGID_162_">
		<use xlink:href="#SVGID_161_"  style="overflow:visible;"/>
	</clipPath>
	<g class="st80">
		<defs>
			<rect id="SVGID_163_" x="-2117.08" y="-10316.87" width="1920" height="23678"/>
		</defs>
		<clipPath id="SVGID_164_">
			<use xlink:href="#SVGID_163_"  style="overflow:visible;"/>
		</clipPath>
		<rect x="-1747.6" y="-8699.29" class="st81" width="19.64" height="23.05"/>
	</g>
</g>
<g>
	<defs>
		<path id="SVGID_165_" d="M-1724.86-8692.77c-1.31,0.12-2.5,0.82-3.26,1.89v9.31h-1.61V-8694h1.61v1.59
			c0.89-1.07,2.18-1.73,3.57-1.82c0.56,0.02,1.11,0.16,1.6,0.42v1.75C-1723.45-8692.54-1724.15-8692.8-1724.86-8692.77"/>
	</defs>
	<clipPath id="SVGID_166_">
		<use xlink:href="#SVGID_165_"  style="overflow:visible;"/>
	</clipPath>
	<g class="st82">
		<defs>
			<rect id="SVGID_167_" x="-2117.08" y="-10316.87" width="1920" height="23678"/>
		</defs>
		<clipPath id="SVGID_168_">
			<use xlink:href="#SVGID_167_"  style="overflow:visible;"/>
		</clipPath>
		<rect x="-1734.72" y="-8699.22" class="st83" width="16.78" height="22.66"/>
	</g>
</g>
<g>
	<defs>
		<path id="SVGID_169_" d="M-1721.33-8694h1.59v12.43h-1.59V-8694z M-1720.54-8696.5l-1.5-1.42l1.5-1.43l1.43,1.43L-1720.54-8696.5z
			"/>
	</defs>
	<clipPath id="SVGID_170_">
		<use xlink:href="#SVGID_169_"  style="overflow:visible;"/>
	</clipPath>
	<g class="st84">
		<defs>
			<rect id="SVGID_171_" x="-2117.08" y="-10316.87" width="1920" height="23678"/>
		</defs>
		<clipPath id="SVGID_172_">
			<use xlink:href="#SVGID_171_"  style="overflow:visible;"/>
		</clipPath>
		<rect x="-1727.04" y="-8704.35" class="st85" width="12.92" height="27.79"/>
	</g>
</g>
<g>
	<defs>
		<path id="SVGID_173_" d="M-1712.47-8681.26c-1.6,0-3.76-0.82-3.76-4.17v-7.2h-1.85v-1.37h1.92v-3.08h1.59v3.08h4.5v1.37h-4.5v7.11
			c0,2.22,1.32,2.87,2.51,2.87c0.95,0.01,1.88-0.3,2.62-0.88v1.5c-0.93,0.48-1.96,0.73-3,0.73"/>
	</defs>
	<clipPath id="SVGID_174_">
		<use xlink:href="#SVGID_173_"  style="overflow:visible;"/>
	</clipPath>
	<g class="st86">
		<defs>
			<rect id="SVGID_175_" x="-2117.08" y="-10316.87" width="1920" height="23678"/>
		</defs>
		<clipPath id="SVGID_176_">
			<use xlink:href="#SVGID_175_"  style="overflow:visible;"/>
		</clipPath>
		<rect x="-1723.08" y="-8702.07" class="st87" width="18.64" height="25.81"/>
	</g>
</g>
<g>
	<defs>
		<path id="SVGID_177_" d="M-1707.95-8694h1.59v12.43h-1.59V-8694z M-1707.16-8696.5l-1.5-1.42l1.5-1.43l1.43,1.43L-1707.16-8696.5z
			"/>
	</defs>
	<clipPath id="SVGID_178_">
		<use xlink:href="#SVGID_177_"  style="overflow:visible;"/>
	</clipPath>
	<g class="st88">
		<defs>
			<rect id="SVGID_179_" x="-2117.08" y="-10316.87" width="1920" height="23678"/>
		</defs>
		<clipPath id="SVGID_180_">
			<use xlink:href="#SVGID_179_"  style="overflow:visible;"/>
		</clipPath>
		<rect x="-1713.66" y="-8704.35" class="st89" width="12.93" height="27.79"/>
	</g>
</g>
<g>
	<defs>
		<path id="SVGID_181_" d="M-1685.66-8681.56v-7.74c0.03-0.93-0.31-1.83-0.96-2.51c-0.64-0.67-1.53-1.06-2.46-1.06
			c-1.54,0.13-2.97,0.83-4.02,1.96c0.17,0.55,0.26,1.13,0.26,1.71v7.61h-1.59v-7.71c0.03-0.93-0.31-1.84-0.96-2.51
			c-0.65-0.67-1.54-1.05-2.47-1.06c-1.43,0.12-2.78,0.74-3.8,1.75v9.53h-1.59V-8694h1.59v1.5c1.17-1.02,2.65-1.62,4.2-1.7
			c1.59,0.02,3.05,0.88,3.84,2.25c1.3-1.36,3.07-2.16,4.95-2.25c1.29,0.05,2.51,0.61,3.38,1.58s1.31,2.23,1.22,3.53v7.6h-1.59"/>
	</defs>
	<clipPath id="SVGID_182_">
		<use xlink:href="#SVGID_181_"  style="overflow:visible;"/>
	</clipPath>
	<g class="st90">
		<defs>
			<rect id="SVGID_183_" x="-2117.08" y="-10316.87" width="1920" height="23678"/>
		</defs>
		<clipPath id="SVGID_184_">
			<use xlink:href="#SVGID_183_"  style="overflow:visible;"/>
		</clipPath>
		<rect x="-1708.26" y="-8699.19" class="st91" width="29.2" height="22.7"/>
	</g>
</g>
<g>
	<defs>
		<path id="SVGID_185_" d="M-1675.6-8692.87c-2.18,0.05-3.99,1.68-4.27,3.84h8.1C-1671.78-8691.14-1673.49-8692.85-1675.6-8692.87z
			 M-1679.98-8687.58c-0.07,1.33,0.44,2.63,1.38,3.57c0.95,0.94,2.25,1.43,3.58,1.35c1.71-0.03,3.37-0.59,4.74-1.61v1.5
			c-1.47,0.96-3.18,1.49-4.94,1.5c-1.76,0.08-3.46-0.6-4.68-1.87c-1.22-1.27-1.84-3-1.69-4.75c-0.06-1.66,0.55-3.28,1.69-4.48
			s2.72-1.91,4.38-1.94c2.43,0.03,5.43,2,5.43,6.58v0.13H-1679.98z"/>
	</defs>
	<clipPath id="SVGID_186_">
		<use xlink:href="#SVGID_185_"  style="overflow:visible;"/>
	</clipPath>
	<g class="st92">
		<defs>
			<rect id="SVGID_187_" x="-2117.08" y="-10316.87" width="1920" height="23678"/>
		</defs>
		<clipPath id="SVGID_188_">
			<use xlink:href="#SVGID_187_"  style="overflow:visible;"/>
		</clipPath>
		<rect x="-1686.6" y="-8699.29" class="st93" width="21.53" height="23.04"/>
	</g>
</g>
<g>
	<defs>
		<path id="SVGID_189_" d="M-1657.54-8698.42h-3.34v15.27h3.07c4.89,0,8.62-3,8.62-7.63c-0.06-2.13-0.98-4.15-2.55-5.59
			C-1653.31-8697.82-1655.41-8698.56-1657.54-8698.42z M-1657.25-8681.56h-5.33v-18.45h5.39c2.54-0.12,5.01,0.8,6.86,2.54
			c1.85,1.74,2.92,4.15,2.96,6.69c0,5.4-4.36,9.22-9.83,9.22H-1657.25z"/>
	</defs>
	<clipPath id="SVGID_190_">
		<use xlink:href="#SVGID_189_"  style="overflow:visible;"/>
	</clipPath>
	<g class="st94">
		<defs>
			<rect id="SVGID_191_" x="-2117.08" y="-10316.87" width="1920" height="23678"/>
		</defs>
		<clipPath id="SVGID_192_">
			<use xlink:href="#SVGID_191_"  style="overflow:visible;"/>
		</clipPath>
		<rect x="-1667.58" y="-8705.02" class="st95" width="25.21" height="28.46"/>
	</g>
</g>
<g>
	<defs>
		<path id="SVGID_193_" d="M-1637.72-8687.8c-1.71-0.09-3.41,0.16-5.02,0.72c-0.84,0.42-1.38,1.28-1.36,2.22
			c0,1.5,1.2,2.22,2.61,2.22c1.42-0.08,2.77-0.69,3.78-1.69V-8687.8z M-1637.72-8681.56v-1.32c-1.07,1-2.48,1.58-3.94,1.62
			c-1.01,0.11-2.03-0.2-2.8-0.87c-0.77-0.67-1.23-1.62-1.27-2.64c-0.02-1.46,0.8-2.81,2.11-3.46c1.88-0.72,3.89-1.03,5.89-0.9v-0.82
			c0.14-0.8-0.1-1.62-0.66-2.21s-1.36-0.88-2.16-0.79c-1.5,0.05-2.97,0.43-4.32,1.09l0.33-1.5c1.34-0.58,2.77-0.89,4.23-0.9
			c1.15-0.13,2.29,0.28,3.1,1.1c0.81,0.82,1.21,1.97,1.07,3.12v8.49H-1637.72z"/>
	</defs>
	<clipPath id="SVGID_194_">
		<use xlink:href="#SVGID_193_"  style="overflow:visible;"/>
	</clipPath>
	<g class="st96">
		<defs>
			<rect id="SVGID_195_" x="-2117.08" y="-10316.87" width="1920" height="23678"/>
		</defs>
		<clipPath id="SVGID_196_">
			<use xlink:href="#SVGID_195_"  style="overflow:visible;"/>
		</clipPath>
		<rect x="-1650.73" y="-8699.29" class="st97" width="19.63" height="23.05"/>
	</g>
</g>
<g>
	<defs>
		<path id="SVGID_197_" d="M-1628.47-8681.26c-1.59,0-3.76-0.82-3.76-4.17v-7.2h-1.85v-1.37h1.92v-3.08h1.59v3.08h4.5v1.37h-4.5
			v7.11c0,2.22,1.32,2.87,2.51,2.87c0.95,0.02,1.88-0.29,2.62-0.88v1.5c-0.93,0.48-1.96,0.74-3,0.73"/>
	</defs>
	<clipPath id="SVGID_198_">
		<use xlink:href="#SVGID_197_"  style="overflow:visible;"/>
	</clipPath>
	<g class="st98">
		<defs>
			<rect id="SVGID_199_" x="-2117.08" y="-10316.87" width="1920" height="23678"/>
		</defs>
		<clipPath id="SVGID_200_">
			<use xlink:href="#SVGID_199_"  style="overflow:visible;"/>
		</clipPath>
		<rect x="-1639.08" y="-8702.07" class="st99" width="18.64" height="25.81"/>
	</g>
</g>
<g>
	<defs>
		<path id="SVGID_201_" d="M-1616.08-8687.8c-1.71-0.09-3.41,0.16-5.02,0.72c-0.84,0.42-1.38,1.28-1.37,2.22
			c0,1.5,1.2,2.22,2.61,2.22c1.42-0.08,2.77-0.69,3.78-1.69V-8687.8z M-1616.08-8681.56v-1.32c-1.07,1-2.48,1.58-3.94,1.62
			c-1,0.1-2-0.23-2.76-0.89s-1.21-1.61-1.25-2.62c-0.01-1.46,0.81-2.8,2.11-3.46c1.88-0.72,3.89-1.03,5.9-0.9v-0.82
			c0-2.42-1.5-3-2.82-3c-1.5,0.05-2.96,0.43-4.3,1.09l0.31-1.5c1.34-0.58,2.77-0.89,4.23-0.9c1.15-0.13,2.29,0.28,3.11,1.1
			s1.21,1.97,1.08,3.12v8.49H-1616.08z"/>
	</defs>
	<clipPath id="SVGID_202_">
		<use xlink:href="#SVGID_201_"  style="overflow:visible;"/>
	</clipPath>
	<g class="st100">
		<defs>
			<rect id="SVGID_203_" x="-2117.08" y="-10316.87" width="1920" height="23678"/>
		</defs>
		<clipPath id="SVGID_204_">
			<use xlink:href="#SVGID_203_"  style="overflow:visible;"/>
		</clipPath>
		<rect x="-1629.03" y="-8699.29" class="st101" width="19.64" height="23.04"/>
	</g>
</g>
<g>
	<defs>
		<path id="SVGID_205_" d="M-1601.6-8681.26c-2.39,0.09-4.57-1.36-5.42-3.6l1.5-0.76c0.61,1.69,2.22,2.82,4.02,2.8
			c0.98,0.03,1.93-0.36,2.63-1.05c0.69-0.7,1.07-1.65,1.03-2.64c0-3.97-8.16-5.04-8.16-9.69c0.04-1.17,0.56-2.28,1.44-3.06
			c0.88-0.78,2.04-1.16,3.21-1.05c1.69,0.03,3.25,0.9,4.17,2.31l-1.26,1c-0.63-1.06-1.77-1.72-3-1.75c-0.7-0.05-1.39,0.18-1.91,0.66
			c-0.52,0.47-0.82,1.14-0.83,1.85c0,3.41,8.16,4.77,8.16,9.63c0,1.45-0.59,2.84-1.63,3.85c-1.04,1.01-2.45,1.55-3.89,1.51"/>
	</defs>
	<clipPath id="SVGID_206_">
		<use xlink:href="#SVGID_205_"  style="overflow:visible;"/>
	</clipPath>
	<g class="st102">
		<defs>
			<rect id="SVGID_207_" x="-2117.08" y="-10316.87" width="1920" height="23678"/>
		</defs>
		<clipPath id="SVGID_208_">
			<use xlink:href="#SVGID_207_"  style="overflow:visible;"/>
		</clipPath>
		<rect x="-1612.02" y="-8705.33" class="st103" width="20.99" height="29.07"/>
	</g>
</g>
<g>
	<defs>
		<path id="SVGID_209_" d="M-1587.17-8692.84c-2.07-0.06-3.97,1.15-4.79,3.05c-0.83,1.9-0.43,4.11,1.02,5.59
			c1.45,1.48,3.65,1.94,5.56,1.16c1.92-0.78,3.17-2.65,3.16-4.72c0.06-1.34-0.43-2.66-1.37-3.62c-0.94-0.97-2.23-1.5-3.58-1.48
			V-8692.84z M-1587.17-8681.26c-3.59-0.03-6.47-2.96-6.45-6.55c0.02-3.59,2.94-6.48,6.53-6.47c3.59,0.01,6.49,2.92,6.49,6.51
			c-0.01,1.73-0.7,3.4-1.94,4.62S-1585.44-8681.25-1587.17-8681.26z"/>
	</defs>
	<clipPath id="SVGID_210_">
		<use xlink:href="#SVGID_209_"  style="overflow:visible;"/>
	</clipPath>
	<g class="st104">
		<defs>
			<rect id="SVGID_211_" x="-2117.08" y="-10316.87" width="1920" height="23678"/>
		</defs>
		<clipPath id="SVGID_212_">
			<use xlink:href="#SVGID_211_"  style="overflow:visible;"/>
		</clipPath>
		<rect x="-1598.62" y="-8699.28" class="st105" width="23.02" height="23.02"/>
	</g>
</g>
<g>
	<defs>
		<path id="SVGID_213_" d="M-1574.36-8681.26c-1.77,0-3.75-0.82-3.75-4.39v-14.36h1.59v14.49c0,2.45,1.4,2.83,2.35,2.83
			c0.8-0.01,1.57-0.28,2.2-0.76v1.5c-0.73,0.42-1.56,0.65-2.4,0.66"/>
	</defs>
	<clipPath id="SVGID_214_">
		<use xlink:href="#SVGID_213_"  style="overflow:visible;"/>
	</clipPath>
	<g class="st106">
		<defs>
			<rect id="SVGID_215_" x="-2117.08" y="-10316.87" width="1920" height="23678"/>
		</defs>
		<clipPath id="SVGID_216_">
			<use xlink:href="#SVGID_215_"  style="overflow:visible;"/>
		</clipPath>
		<rect x="-1583.11" y="-8705.01" class="st107" width="16.15" height="28.75"/>
	</g>
</g>
<g>
	<defs>
		<path id="SVGID_217_" d="M-1561.93-8681.56v-1.35c-1.15,0.99-2.6,1.56-4.11,1.62c-1.37,0.07-2.71-0.44-3.69-1.41
			c-0.97-0.97-1.49-2.31-1.41-3.69v-7.6h1.56v7.74c-0.01,0.97,0.38,1.91,1.09,2.58c0.71,0.67,1.66,1.02,2.63,0.96
			c1.47-0.06,2.86-0.67,3.9-1.71v-9.57h1.59v12.43H-1561.93"/>
	</defs>
	<clipPath id="SVGID_218_">
		<use xlink:href="#SVGID_217_"  style="overflow:visible;"/>
	</clipPath>
	<g class="st108">
		<defs>
			<rect id="SVGID_219_" x="-2117.08" y="-10316.87" width="1920" height="23678"/>
		</defs>
		<clipPath id="SVGID_220_">
			<use xlink:href="#SVGID_219_"  style="overflow:visible;"/>
		</clipPath>
		<rect x="-1576.15" y="-8699" class="st109" width="20.78" height="22.71"/>
	</g>
</g>
<g>
	<defs>
		<path id="SVGID_221_" d="M-1552.97-8681.26c-1.6,0-3.76-0.82-3.76-4.17v-7.2h-1.92v-1.37h1.92v-3.08h1.59v3.08h4.5v1.37h-4.5v7.11
			c0,2.22,1.32,2.87,2.51,2.87c0.95,0.02,1.88-0.29,2.62-0.88v1.5c-0.93,0.48-1.96,0.74-3,0.73"/>
	</defs>
	<clipPath id="SVGID_222_">
		<use xlink:href="#SVGID_221_"  style="overflow:visible;"/>
	</clipPath>
	<g class="st110">
		<defs>
			<rect id="SVGID_223_" x="-2117.08" y="-10316.87" width="1920" height="23678"/>
		</defs>
		<clipPath id="SVGID_224_">
			<use xlink:href="#SVGID_223_"  style="overflow:visible;"/>
		</clipPath>
		<rect x="-1563.66" y="-8702.07" class="st111" width="18.64" height="25.81"/>
	</g>
</g>
<g>
	<defs>
		<path id="SVGID_225_" d="M-1549-8694h1.59v12.43h-1.59V-8694z M-1548.2-8696.5l-1.42-1.42l1.42-1.43l1.43,1.43L-1548.2-8696.5z"/>
	</defs>
	<clipPath id="SVGID_226_">
		<use xlink:href="#SVGID_225_"  style="overflow:visible;"/>
	</clipPath>
	<g class="st112">
		<defs>
			<rect id="SVGID_227_" x="-2117.08" y="-10316.87" width="1920" height="23678"/>
		</defs>
		<clipPath id="SVGID_228_">
			<use xlink:href="#SVGID_227_"  style="overflow:visible;"/>
		</clipPath>
		<rect x="-1554.63" y="-8704.35" class="st113" width="12.85" height="27.79"/>
	</g>
</g>
<g>
	<defs>
		<path id="SVGID_229_" d="M-1538.81-8692.84c-2.07-0.06-3.97,1.14-4.8,3.04c-0.83,1.9-0.43,4.11,1.01,5.59
			c1.44,1.48,3.65,1.94,5.56,1.16c1.92-0.78,3.17-2.65,3.16-4.72c0.06-1.34-0.43-2.65-1.37-3.62c-0.93-0.97-2.23-1.5-3.57-1.48
			V-8692.84z M-1538.81-8681.26c-3.59-0.02-6.48-2.95-6.46-6.54c0.02-3.59,2.94-6.49,6.52-6.48c3.59,0.01,6.49,2.92,6.5,6.51
			C-1532.28-8684.17-1535.21-8681.26-1538.81-8681.26z"/>
	</defs>
	<clipPath id="SVGID_230_">
		<use xlink:href="#SVGID_229_"  style="overflow:visible;"/>
	</clipPath>
	<g class="st114">
		<defs>
			<rect id="SVGID_231_" x="-2117.08" y="-10316.87" width="1920" height="23678"/>
		</defs>
		<clipPath id="SVGID_232_">
			<use xlink:href="#SVGID_231_"  style="overflow:visible;"/>
		</clipPath>
		<rect x="-1550.28" y="-8699.28" class="st115" width="23.02" height="23.02"/>
	</g>
</g>
<g>
	<defs>
		<path id="SVGID_233_" d="M-1520.41-8681.56v-7.74c0.02-0.98-0.37-1.93-1.07-2.6c-0.71-0.68-1.67-1.03-2.65-0.97
			c-1.47,0.06-2.86,0.66-3.9,1.7v9.58h-1.59V-8694h1.59v1.35c1.15-0.99,2.6-1.56,4.11-1.62c1.38-0.07,2.72,0.44,3.69,1.41
			c0.98,0.97,1.49,2.31,1.42,3.69v7.6H-1520.41"/>
	</defs>
	<clipPath id="SVGID_234_">
		<use xlink:href="#SVGID_233_"  style="overflow:visible;"/>
	</clipPath>
	<g class="st116">
		<defs>
			<rect id="SVGID_235_" x="-2117.08" y="-10316.87" width="1920" height="23678"/>
		</defs>
		<clipPath id="SVGID_236_">
			<use xlink:href="#SVGID_235_"  style="overflow:visible;"/>
		</clipPath>
		<rect x="-1534.62" y="-8699.27" class="st117" width="20.82" height="22.71"/>
	</g>
</g>
<g>
	<defs>
		<path id="SVGID_237_" d="M-1511.92-8681.23c-1.5-0.05-2.98-0.37-4.36-0.96v-1.59c1.39,0.72,2.93,1.09,4.5,1.09
			c1.86,0,2.82-0.88,2.82-2.08c0-0.66-0.34-1.25-2.02-1.92c-3.3-1.38-3.98-1.74-4.43-2.17c-0.54-0.52-0.86-1.23-0.87-1.98
			c0-1.86,1.5-3.42,4.5-3.42c1.25,0.01,2.48,0.29,3.61,0.79v1.5c-1.19-0.57-2.49-0.88-3.81-0.9c-1.76,0-2.78,0.85-2.78,1.86
			c0,0.72,0.33,1.25,2.11,1.95c1.5,0.44,2.91,1.13,4.17,2.04c0.68,0.53,1.07,1.33,1.08,2.19c0,2.44-2.37,3.6-4.5,3.6"/>
	</defs>
	<clipPath id="SVGID_238_">
		<use xlink:href="#SVGID_237_"  style="overflow:visible;"/>
	</clipPath>
	<g class="st118">
		<defs>
			<rect id="SVGID_239_" x="-2117.08" y="-10316.87" width="1920" height="23678"/>
		</defs>
		<clipPath id="SVGID_240_">
			<use xlink:href="#SVGID_239_"  style="overflow:visible;"/>
		</clipPath>
		<rect x="-1521.28" y="-8699.27" class="st119" width="18.9" height="23.03"/>
	</g>
</g>
</svg>
