<?xml version="1.0" standalone="no"?>
<!DOCTYPE svg PUBLIC "-//W3C//DTD SVG 1.1//EN" "http://www.w3.org/Graphics/SVG/1.1/DTD/svg11.dtd" >
<svg>
<metadata>
Created by FontForge 20120731 at Mon Apr  1 14:37:36 2019
 By www-data
Copyright 1999 International Typeface Corporation. All rights reserved. "ITC" is a trademark of International Typeface Corporation Registered in the U.S. Patent and Trademark Office and may be registered in certain jurisdictions;"Johnston"  is a trademark of International Typeface Corporation and may be registered in certain jurisdictions.
</metadata>
<defs>
<font id="JohnstonITCStd-MediumItalic" horiz-adv-x="553" >
  <font-face 
    font-family="Johnston ITC Std Medium"
    font-weight="500"
    font-style="italic"
    font-stretch="normal"
    units-per-em="1000"
    panose-1="2 0 6 6 5 0 0 9 0 3"
    ascent="800"
    descent="-200"
    x-height="453"
    cap-height="672"
    bbox="-169 -240 1119 911"
    underline-thickness="79"
    underline-position="-31"
    slope="-12"
    stemh="80"
    stemv="102"
    unicode-range="U+0020-FB02"
  />
<missing-glyph horiz-adv-x="500" 
d="M12 0v665h475v-665h-475zM88 618l162 -243l161 243h-323zM60 575v-484c0 -1 161 242 161 242zM440 575l-162 -242l162 -243v485zM411 48l-161 242l-162 -242h323z" />
    <glyph glyph-name="f_i" unicode="fi" horiz-adv-x="585" 
d="M577 586l-77 -71l-65 71l77 70zM538 453l-41 -453h-89l41 453h89zM393 670l-8 -87c-27 14 -63 23 -88 23c-60 0 -78 -31 -86 -112l-4 -41h141l-7 -79h-140l-33 -374h-89l33 374h-84l7 79h83l5 52c10 109 50 181 171 181c28 0 62 -4 99 -16z" />
    <glyph glyph-name="f_l" unicode="fl" horiz-adv-x="634" 
d="M617 84l-6 -77c-22 -9 -51 -16 -84 -16c-77 0 -110 45 -110 110c0 11 3 46 4 57l45 514h89l-46 -517c-1 -9 -3 -39 -3 -47c0 -31 19 -42 48 -42c15 0 42 7 63 18zM393 670l-8 -87c-27 14 -63 23 -88 23c-60 0 -78 -31 -86 -112l-4 -41h141l-7 -79h-140l-33 -374h-89
l33 374h-84l7 79h83l5 52c10 109 50 181 171 181c28 0 62 -4 99 -16z" />
    <glyph glyph-name=".notdef" horiz-adv-x="500" 
d="M12 0v665h475v-665h-475zM88 618l162 -243l161 243h-323zM60 575v-484c0 -1 161 242 161 242zM440 575l-162 -242l162 -243v485zM411 48l-161 242l-162 -242h323z" />
    <glyph glyph-name="space" unicode=" " horiz-adv-x="230" 
 />
    <glyph glyph-name="exclam" unicode="!" horiz-adv-x="263" 
d="M231 672l-12 -137l-61 -363h-48l3 363l12 137h106zM198 50l-81 -72l-66 78l79 72z" />
    <glyph glyph-name="quotedbl" unicode="&#x22;" horiz-adv-x="379" 
d="M356 566l-27 -148h-42l-27 148v106h96v-106zM177 566l-27 -148h-42l-27 148v106h96v-106z" />
    <glyph glyph-name="numbersign" unicode="#" horiz-adv-x="624" 
d="M636 492l-15 -75h-107l-34 -163h108l-15 -75h-109l-46 -218h-86l46 218h-177l-46 -218h-86l46 218h-105l15 75h106l34 163h-107l15 75h108l46 219h86l-46 -219h177l46 219h86l-46 -219h106zM428 417h-177l-34 -163h177z" />
    <glyph glyph-name="dollar" unicode="$" 
d="M488 200c0 -117 -94 -197 -196 -212l-7 -83h-67l7 83c-87 11 -145 62 -180 119l71 52c16 -30 54 -78 116 -89l22 251c-76 38 -155 85 -155 192c0 95 80 170 187 173l8 87h67l-8 -93c49 -10 96 -33 134 -70l-56 -65c-23 24 -54 41 -86 51l-17 -205
c78 -40 160 -87 160 -191zM279 604c-53 -4 -90 -40 -90 -85c0 -42 32 -69 75 -94zM396 193c0 43 -33 71 -77 95l-19 -215c52 13 96 52 96 120z" />
    <glyph glyph-name="percent" unicode="%" horiz-adv-x="752" 
d="M369 541c0 -91 -78 -170 -169 -170c-80 0 -143 62 -143 142c0 91 79 169 170 169c80 0 142 -61 142 -141zM671 672l-459 -672h-105l459 672h105zM720 161c0 -91 -78 -170 -169 -170c-80 0 -143 62 -143 142c0 91 79 169 170 169c80 0 142 -61 142 -141zM293 534
c0 41 -31 72 -72 72c-46 0 -88 -39 -88 -86c0 -41 33 -73 74 -73c47 0 86 41 86 87zM644 154c0 41 -32 72 -73 72c-46 0 -87 -39 -87 -86c0 -41 32 -73 73 -73c47 0 87 41 87 87z" />
    <glyph glyph-name="ampersand" unicode="&#x26;" horiz-adv-x="636" 
d="M618 0h-122l-65 76c-64 -68 -144 -87 -198 -87c-124 0 -192 85 -192 176c0 84 45 141 145 196c-49 54 -73 93 -73 152c0 86 70 159 185 159c106 0 162 -67 162 -148c0 -78 -64 -133 -144 -177l121 -139c31 40 58 96 73 136h85c-19 -49 -59 -135 -106 -196zM376 521
c0 44 -26 73 -86 73c-63 0 -88 -41 -88 -74c0 -35 21 -72 66 -118c70 39 108 73 108 119zM382 135l-144 170c-76 -39 -108 -79 -108 -136c0 -50 45 -101 115 -101c47 0 97 22 137 67z" />
    <glyph glyph-name="quoteright" unicode="&#x2019;" horiz-adv-x="204" 
d="M210 672l-9 -103c-8 -88 -86 -138 -179 -138c-7 0 -12 1 -18 2c80 29 93 58 100 132l10 107h96z" />
    <glyph glyph-name="parenleft" unicode="(" horiz-adv-x="304" 
d="M363 808c-129 -199 -179 -360 -179 -520c0 -163 32 -304 99 -462h-91c-56 137 -98 295 -98 462c0 154 47 314 175 520h94z" />
    <glyph glyph-name="parenright" unicode=")" horiz-adv-x="304" 
d="M241 346c0 -154 -47 -314 -175 -520h-94c129 199 179 360 179 520c0 163 -32 304 -99 462h91c56 -137 98 -295 98 -462z" />
    <glyph glyph-name="asterisk" unicode="*" horiz-adv-x="374" 
d="M386 445l-41 -71l-105 81l19 -138h-82l19 138l-105 -81l-41 71l122 50l-122 49l41 71l105 -81l-19 138h82l-19 -138l105 81l41 -71l-122 -50z" />
    <glyph glyph-name="plus" unicode="+" 
d="M498 296h-164v-174h-79v174h-164v79h164v174h79v-174h164v-79z" />
    <glyph glyph-name="comma" unicode="," horiz-adv-x="213" 
d="M153 111l-12 -139c-7 -85 -60 -143 -184 -143c-7 0 -21 1 -27 2c78 26 102 63 109 137l13 143h101z" />
    <glyph glyph-name="hyphen" unicode="-" horiz-adv-x="424" 
d="M391 295l-8 -89h-329l8 89h329z" />
    <glyph glyph-name="period" unicode="." horiz-adv-x="213" 
d="M155 111l-10 -111h-106l10 111h106z" />
    <glyph glyph-name="slash" unicode="/" horiz-adv-x="418" 
d="M419 800l-327 -929h-93l327 929h93z" />
    <glyph glyph-name="zero" unicode="0" 
d="M516 388c0 -174 -69 -400 -248 -400c-150 0 -196 168 -196 298c0 203 89 400 250 400c151 0 194 -177 194 -298zM415 394c0 61 -15 201 -101 201c-107 0 -141 -193 -141 -315c0 -90 22 -201 101 -201c113 0 141 195 141 315z" />
    <glyph glyph-name="one" unicode="1" 
d="M367 698l-61 -698h-100l56 638z" />
    <glyph glyph-name="two" unicode="2" 
d="M485 520c0 -51 -18 -100 -72 -178l-174 -253h235l-8 -89h-400l242 354c45 66 69 109 69 154c0 67 -54 86 -87 86c-69 0 -133 -45 -173 -87l10 120c52 38 107 59 180 59c108 0 178 -77 178 -166z" />
    <glyph glyph-name="three" unicode="3" 
d="M511 672l-159 -262c76 -11 141 -65 141 -189c0 -114 -90 -233 -241 -233c-91 0 -163 53 -198 129l76 66c13 -50 60 -108 129 -108c73 0 135 58 135 151c0 94 -82 118 -128 118c-23 0 -46 -2 -64 -5l147 244h-229l8 89h383z" />
    <glyph glyph-name="four" unicode="4" 
d="M530 258l-7 -80h-84l-16 -178h-100l16 178h-319l415 494h47l-36 -414h84zM364 470l-176 -212h158z" />
    <glyph glyph-name="five" unicode="5" 
d="M506 672l-35 -89h-211l-27 -168c11 2 26 4 48 4c110 0 196 -70 196 -206c0 -96 -74 -225 -235 -225c-100 0 -167 61 -199 106l69 74c20 -38 65 -91 134 -91c75 0 129 59 129 136c0 74 -50 128 -135 128c-44 0 -89 -10 -110 -18l60 349h316z" />
    <glyph glyph-name="six" unicode="6" 
d="M497 205c0 -88 -68 -219 -230 -219c-97 0 -204 66 -204 230c0 127 55 261 254 456h134c-103 -89 -189 -182 -232 -272c22 8 44 13 89 13c85 0 189 -62 189 -208zM395 207c0 73 -55 116 -116 116c-40 0 -82 -14 -99 -21c-12 -26 -17 -65 -17 -86c0 -97 55 -138 114 -138
c73 0 118 57 118 129z" />
    <glyph glyph-name="seven" unicode="7" 
d="M547 672l-366 -672h-105l319 583h-288l8 89h432z" />
    <glyph glyph-name="eight" unicode="8" 
d="M500 202c0 -80 -74 -213 -235 -213c-119 0 -204 72 -204 191c0 91 51 146 153 194c-51 37 -85 85 -85 144c0 66 51 168 202 168c87 0 159 -59 159 -155c0 -77 -59 -121 -116 -154c78 -43 126 -89 126 -175zM395 523c0 49 -38 75 -78 75c-57 0 -93 -38 -93 -84
c0 -37 25 -69 73 -93c70 27 98 67 98 102zM398 198c0 56 -41 97 -106 133c-87 -40 -132 -84 -132 -147c0 -60 40 -107 112 -107c69 0 126 51 126 121z" />
    <glyph glyph-name="nine" unicode="9" 
d="M521 446c0 -114 -59 -255 -254 -446h-134c100 80 189 182 232 272c-22 -8 -45 -13 -79 -13c-96 0 -199 71 -199 208c0 88 68 219 230 219c90 0 204 -64 204 -240zM421 456c0 97 -55 138 -114 138c-73 0 -118 -57 -118 -129c0 -73 51 -123 112 -123c40 0 66 6 99 21
c12 26 21 72 21 93z" />
    <glyph glyph-name="colon" unicode=":" horiz-adv-x="213" 
d="M179 383l-10 -111h-106l10 111h106zM155 111l-10 -111h-106l10 111h106z" />
    <glyph glyph-name="semicolon" unicode=";" horiz-adv-x="213" 
d="M178 383l-10 -111h-106l10 111h106zM149 111l-12 -139c-7 -85 -60 -143 -184 -143c-7 0 -21 1 -27 2c78 26 102 63 109 137l13 143h101z" />
    <glyph glyph-name="less" unicode="&#x3c;" 
d="M498 122l-407 174v79l407 174v-79l-315 -134l315 -135v-79z" />
    <glyph glyph-name="equal" unicode="=" 
d="M498 369h-407v79h407v-79zM498 223h-407v79h407v-79z" />
    <glyph glyph-name="greater" unicode="&#x3e;" 
d="M498 296l-407 -174v79l315 134l-315 135v79l407 -174v-79z" />
    <glyph glyph-name="question" unicode="?" horiz-adv-x="458" 
d="M443 526c0 -137 -196 -214 -196 -269c0 -17 7 -29 21 -43l-65 -59c-41 41 -50 62 -50 99c0 114 196 169 196 271c0 43 -32 79 -89 79c-52 0 -96 -33 -128 -62l-56 64c60 53 108 80 194 80c111 0 173 -77 173 -160zM270 50l-81 -72l-66 78l79 72z" />
    <glyph glyph-name="at" unicode="@" horiz-adv-x="955" 
d="M907 262c0 -129 -74 -283 -211 -283c-56 0 -103 25 -125 77c-45 -38 -102 -65 -161 -65c-112 0 -164 93 -164 195c0 40 9 80 26 116c51 111 156 161 275 161c42 0 83 -5 125 -11l-30 -329c-4 -39 22 -79 64 -79c87 0 123 136 123 213c0 181 -150 314 -327 314
c-159 0 -285 -77 -342 -227c-16 -42 -26 -88 -26 -133c0 -216 141 -355 357 -355c67 0 162 18 223 45l23 -65c-72 -29 -174 -51 -252 -51c-251 0 -431 166 -431 420c0 66 15 132 43 191c78 164 233 246 411 246c214 0 399 -160 399 -380zM586 387c-24 3 -47 6 -72 6
c-113 0 -183 -112 -183 -216c0 -67 39 -114 108 -114c47 0 89 32 122 61z" />
    <glyph glyph-name="A" unicode="A" horiz-adv-x="662" 
d="M634 0h-103l-43 175h-287l-83 -175h-103l333 679h102zM467 257l-78 317l-150 -317h228z" />
    <glyph glyph-name="B" unicode="B" horiz-adv-x="579" 
d="M534 213c0 -123 -98 -213 -231 -213h-239l59 672h199c98 0 182 -49 182 -158c0 -35 -16 -112 -98 -147c80 -21 128 -79 128 -154zM406 508c0 57 -55 79 -106 79h-88l-17 -192h64c94 0 147 39 147 113zM434 212c0 81 -70 101 -138 101h-109l-19 -227h114
c77 0 152 25 152 126z" />
    <glyph glyph-name="C" unicode="C" horiz-adv-x="670" 
d="M667 640l-9 -97c-55 31 -131 53 -215 53c-167 0 -269 -142 -269 -290c0 -141 96 -230 227 -230c86 0 167 38 221 76l-10 -103c-71 -43 -149 -63 -224 -63c-181 0 -316 122 -316 320c0 217 164 380 377 380c81 0 160 -16 218 -46z" />
    <glyph glyph-name="D" unicode="D" horiz-adv-x="689" 
d="M656 373c0 -168 -107 -373 -374 -373h-218l59 672h213c179 0 320 -111 320 -299zM554 366c0 142 -88 221 -224 221h-118l-45 -502h113c208 0 274 151 274 281z" />
    <glyph glyph-name="E" unicode="E" horiz-adv-x="547" 
d="M544 672l-7 -84h-325l-17 -187h251l-7 -84h-251l-21 -233h320l-7 -84h-416l59 672h421z" />
    <glyph glyph-name="F" unicode="F" horiz-adv-x="540" 
d="M544 672l-7 -84h-325l-17 -187h251l-7 -84h-251l-28 -317h-96l59 672h421z" />
    <glyph glyph-name="G" unicode="G" horiz-adv-x="706" 
d="M674 635l-9 -97c-55 31 -150 58 -234 58c-167 0 -269 -142 -269 -290c0 -141 96 -230 227 -230c52 0 104 16 151 38l15 164h-154l8 85h247l-26 -300c-77 -46 -168 -77 -254 -77c-181 0 -316 122 -316 320c0 217 164 380 377 380c81 0 179 -21 237 -51z" />
    <glyph glyph-name="H" unicode="H" horiz-adv-x="707" 
d="M676 672l-59 -672h-96l28 317h-363l-26 -317h-96l59 672h96l-24 -268h361l24 268h96z" />
    <glyph glyph-name="I" unicode="I" horiz-adv-x="256" 
d="M223 672l-59 -672h-98l59 672h98z" />
    <glyph glyph-name="J" unicode="J" horiz-adv-x="434" 
d="M406 672l-43 -489c-10 -109 -57 -195 -193 -195c-122 0 -158 91 -159 138l92 45c0 -53 23 -98 70 -98c44 0 85 20 92 94l45 505h96z" />
    <glyph glyph-name="K" unicode="K" horiz-adv-x="609" 
d="M599 672l-325 -291l314 -381h-126l-272 344l-30 -344h-96l59 672h96l-23 -263l281 263h122z" />
    <glyph glyph-name="L" unicode="L" horiz-adv-x="485" 
d="M470 84l-7 -84h-399l59 672h96l-52 -588h303z" />
    <glyph glyph-name="M" unicode="M" horiz-adv-x="796" 
d="M765 672l-59 -672h-96l45 514l-257 -316l-193 313l-45 -511h-96l59 672h96l194 -318l256 318h96z" />
    <glyph glyph-name="N" unicode="N" horiz-adv-x="736" 
d="M705 672l-59 -672h-96l-345 518l-45 -518h-96l59 672h96l345 -518l45 518h96z" />
    <glyph glyph-name="O" unicode="O" horiz-adv-x="806" 
d="M771 370c0 -226 -166 -384 -381 -384c-190 0 -320 133 -320 316c0 226 166 384 381 384c190 0 320 -133 320 -316zM669 361c0 142 -93 235 -226 235c-168 0 -271 -131 -271 -285c0 -142 93 -235 226 -235c168 0 271 131 271 285z" />
    <glyph glyph-name="P" unicode="P" horiz-adv-x="534" 
d="M530 490c0 -124 -83 -222 -232 -222h-114l-24 -268h-96l59 672h203c99 0 204 -55 204 -182zM428 483c0 76 -59 104 -127 104h-89l-21 -234h94c61 0 143 24 143 130z" />
    <glyph glyph-name="Q" unicode="Q" horiz-adv-x="806" 
d="M771 370c0 -101 -32 -188 -88 -254l67 -74l-68 -61l-67 74c-62 -44 -140 -69 -225 -69c-190 0 -320 133 -320 316c0 226 166 384 381 384c190 0 320 -133 320 -316zM669 361c0 142 -93 235 -226 235c-168 0 -271 -131 -271 -285c0 -142 93 -235 226 -235
c61 0 114 18 156 47l-68 74l68 61l64 -70c33 48 51 108 51 173z" />
    <glyph glyph-name="R" unicode="R" horiz-adv-x="592" 
d="M564 0h-116l-170 292h-92l-26 -292h-96l59 672h197c131 0 193 -78 193 -172c0 -88 -53 -160 -134 -191zM413 498c0 66 -55 89 -111 89h-90l-19 -210h88c66 0 132 36 132 121z" />
    <glyph glyph-name="S" unicode="S" horiz-adv-x="536" 
d="M509 563l-75 -62c-19 67 -67 96 -124 96c-54 0 -98 -28 -98 -87c0 -114 287 -123 287 -317c0 -116 -97 -205 -232 -205c-126 0 -210 79 -226 181l95 42c0 -76 46 -136 135 -136c63 0 127 35 127 101c0 133 -287 129 -287 325c0 98 79 185 205 185c87 0 153 -42 193 -123z
" />
    <glyph glyph-name="T" unicode="T" horiz-adv-x="505" 
d="M538 672l-7 -84h-192l-52 -588h-96l52 588h-198l7 84h486z" />
    <glyph glyph-name="U" unicode="U" horiz-adv-x="724" 
d="M697 672l-34 -385c-17 -195 -147 -301 -315 -301c-134 0 -265 85 -265 272c0 13 0 30 1 40l35 374h96l-34 -389c-1 -10 -1 -18 -1 -27c0 -137 99 -180 176 -180c74 0 197 45 211 207l34 389h96z" />
    <glyph glyph-name="V" unicode="V" horiz-adv-x="630" 
d="M674 672l-333 -679h-102l-184 679h103l142 -574l271 574h103z" />
    <glyph glyph-name="W" unicode="W" horiz-adv-x="970" 
d="M1006 672l-280 -679h-100l-110 503l-199 -503h-100l-160 679h101l122 -538l208 538h87l114 -538l216 538h101z" />
    <glyph glyph-name="X" unicode="X" horiz-adv-x="634" 
d="M639 672l-253 -318l223 -354h-117l-168 276l-211 -276h-117l277 353l-199 319h116l147 -240l186 240h116z" />
    <glyph glyph-name="Y" unicode="Y" horiz-adv-x="581" 
d="M626 672l-267 -353l-28 -319h-96l28 319l-205 353h114l147 -270l193 270h114z" />
    <glyph glyph-name="Z" unicode="Z" horiz-adv-x="608" 
d="M627 672l-458 -588h392l-7 -84h-571l459 588h-349l7 84h527z" />
    <glyph glyph-name="bracketleft" unicode="[" horiz-adv-x="244" 
d="M303 808l-6 -71h-99l-72 -814h99l-6 -71h-185l84 956h185z" />
    <glyph glyph-name="backslash" unicode="\" horiz-adv-x="312" 
d="M354 -129h-93l-246 929h93z" />
    <glyph glyph-name="bracketright" unicode="]" horiz-adv-x="244" 
d="M226 808l-84 -956h-185l6 71h99l72 814h-99l6 71h185z" />
    <glyph glyph-name="asciicircum" unicode="^" 
d="M508 360h-79l-134 252l-135 -252h-79l174 326h79z" />
    <glyph glyph-name="underscore" unicode="_" horiz-adv-x="413" 
d="M413 -105l-6 -59h-407l6 59h407z" />
    <glyph glyph-name="quoteleft" unicode="&#x2018;" horiz-adv-x="204" 
d="M282 684c-80 -29 -93 -58 -100 -132l-10 -107h-96l9 103c8 88 86 138 179 138c7 0 12 -1 18 -2z" />
    <glyph glyph-name="a" unicode="a" horiz-adv-x="527" 
d="M482 451l-41 -451h-81l4 46c-39 -33 -94 -55 -150 -55c-95 0 -165 72 -165 196c0 113 88 276 306 276c31 0 68 -2 127 -12zM388 379c-20 3 -36 5 -65 5c-85 0 -181 -79 -181 -206c0 -61 34 -107 101 -107c39 0 82 24 121 58z" />
    <glyph glyph-name="b" unicode="b" horiz-adv-x="526" 
d="M484 256c0 -129 -82 -268 -278 -268c-62 0 -104 5 -155 12l59 672h89l-22 -247c32 20 73 38 129 38c114 0 178 -106 178 -207zM389 255c0 76 -47 128 -110 128c-40 0 -84 -26 -108 -45l-22 -263c14 -2 45 -4 54 -4c130 0 186 83 186 184z" />
    <glyph glyph-name="c" unicode="c" horiz-adv-x="479" 
d="M449 426l-9 -96c-44 32 -86 47 -133 47c-97 0 -158 -89 -158 -177c0 -80 40 -131 124 -131c50 0 110 19 149 52l-9 -93c-38 -22 -96 -40 -158 -40c-126 0 -201 79 -201 209c0 158 118 266 263 266c48 0 90 -12 132 -37z" />
    <glyph glyph-name="d" unicode="d" horiz-adv-x="545" 
d="M527 672l-59 -672h-81l4 48c-35 -33 -83 -60 -149 -60c-124 0 -191 95 -191 211c0 107 68 264 239 264c50 0 99 -22 126 -40l22 249h89zM408 338c-33 28 -75 45 -118 45c-94 0 -144 -88 -144 -177c0 -86 39 -139 113 -139c52 0 93 25 130 58z" />
    <glyph glyph-name="e" unicode="e" horiz-adv-x="481" 
d="M448 334c0 -64 -48 -168 -229 -168c-18 0 -63 4 -80 12c0 -63 38 -110 107 -110c78 0 145 30 191 60l-7 -88c-48 -31 -124 -54 -188 -54c-100 0 -195 62 -195 196c0 121 86 281 259 281c91 0 142 -60 142 -129zM352 323c0 37 -31 60 -69 60c-68 0 -123 -73 -134 -133
c16 -5 53 -9 68 -9c96 0 135 41 135 82z" />
    <glyph glyph-name="f" unicode="f" horiz-adv-x="357" 
d="M393 670l-8 -87c-27 14 -63 23 -88 23c-60 0 -75 -31 -85 -112l-5 -41h141l-7 -79h-140l-33 -374h-89l33 374h-84l7 79h83l5 52c10 109 50 181 171 181c28 0 62 -4 99 -16z" />
    <glyph glyph-name="g" unicode="g" horiz-adv-x="533" 
d="M492 451l-40 -446c-11 -121 -53 -242 -222 -242c-61 0 -124 19 -184 46l6 88c41 -23 111 -50 168 -50c93 0 139 43 143 201c-34 -27 -76 -48 -132 -48c-89 0 -175 60 -175 186c0 119 98 277 306 277c41 0 77 -3 130 -12zM391 380c-8 1 -38 3 -46 3
c-116 0 -197 -98 -197 -194c0 -62 38 -110 96 -110c43 0 84 21 125 56z" />
    <glyph glyph-name="h" unicode="h" horiz-adv-x="528" 
d="M479 291c0 -10 -1 -38 -2 -50l-22 -241h-89l22 246c1 6 1 13 1 19c0 72 -28 112 -95 112c-49 0 -92 -26 -125 -51l-29 -326h-89l59 672h89l-23 -258c35 24 78 49 136 49c97 0 167 -67 167 -172z" />
    <glyph glyph-name="i" unicode="i" horiz-adv-x="228" 
d="M220 586l-77 -71l-65 71l77 70zM181 453l-41 -453h-89l41 453h89z" />
    <glyph glyph-name="j" unicode="j" horiz-adv-x="223" 
d="M215 586l-77 -71l-65 71l77 70zM181 453l-48 -541c-7 -74 -53 -140 -152 -140c-23 0 -44 3 -54 5l7 85c10 -4 24 -6 34 -6c46 0 73 17 78 72l46 525h89z" />
    <glyph glyph-name="k" unicode="k" horiz-adv-x="499" 
d="M479 453l-243 -200l240 -253h-122l-196 213l-18 -213h-89l58 672h89l-34 -390l193 171h122z" />
    <glyph glyph-name="l" unicode="l" horiz-adv-x="277" 
d="M260 84l-6 -77c-22 -9 -51 -16 -84 -16c-77 0 -110 45 -110 110c0 11 3 46 4 57l45 514h89l-46 -517c-1 -9 -3 -39 -3 -47c0 -31 19 -42 48 -42c15 0 42 7 63 18z" />
    <glyph glyph-name="m" unicode="m" horiz-adv-x="843" 
d="M794 291c0 -10 -1 -38 -2 -50l-22 -241h-89l22 246c1 6 1 13 1 19c0 72 -28 112 -95 112c-52 0 -98 -30 -132 -56c1 -10 2 -20 2 -30s-1 -38 -2 -50l-22 -241h-89l22 246c1 6 1 13 1 19c0 72 -28 112 -95 112c-48 0 -92 -26 -125 -51l-29 -326h-89l40 453h85l-3 -41
c36 25 79 51 139 51c62 0 113 -27 142 -75c40 31 103 75 173 75c97 0 167 -67 167 -172z" />
    <glyph glyph-name="n" unicode="n" horiz-adv-x="528" 
d="M479 291c0 -10 -1 -38 -2 -50l-22 -241h-89l22 246c1 6 1 13 1 19c0 72 -28 112 -95 112c-48 0 -92 -26 -125 -51l-29 -326h-89l40 453h85l-3 -41c36 25 79 51 139 51c97 0 167 -67 167 -172z" />
    <glyph glyph-name="o" unicode="o" horiz-adv-x="557" 
d="M514 247c0 -89 -57 -258 -256 -258c-143 0 -209 99 -209 210c0 136 92 264 256 264c125 0 209 -80 209 -216zM422 239c0 90 -45 144 -127 144c-109 0 -154 -97 -154 -176c0 -94 55 -138 126 -138c112 0 155 96 155 170z" />
    <glyph glyph-name="p" unicode="p" horiz-adv-x="556" 
d="M508 252c0 -107 -68 -264 -239 -264c-51 0 -99 23 -126 41l-22 -248h-89l59 672h81l-5 -50c35 33 83 60 150 60c124 0 191 -95 191 -211zM413 245c0 86 -39 139 -113 139c-52 0 -94 -25 -131 -58l-19 -213c33 -28 76 -45 119 -45c94 0 144 88 144 177z" />
    <glyph glyph-name="q" unicode="q" horiz-adv-x="526" 
d="M485 451l-61 -670h-89l24 265c-39 -33 -86 -55 -142 -55c-95 0 -165 72 -165 196c0 113 88 276 306 276c31 0 68 -2 127 -12zM391 379c-20 3 -36 5 -65 5c-85 0 -181 -79 -181 -206c0 -61 34 -107 101 -107c39 0 82 24 121 58z" />
    <glyph glyph-name="r" unicode="r" horiz-adv-x="355" 
d="M361 453l-12 -97c-16 9 -38 18 -66 18c-47 0 -88 -30 -115 -58l-28 -316h-89l40 453h85l-5 -58c38 35 80 68 130 68c25 0 40 -3 60 -10z" />
    <glyph glyph-name="s" unicode="s" horiz-adv-x="396" 
d="M362 432l-8 -88c-43 23 -90 39 -133 39c-44 0 -66 -19 -66 -42c0 -69 199 -107 199 -223c0 -60 -45 -130 -165 -130c-65 0 -110 12 -159 32l7 89c49 -28 106 -41 148 -41c56 0 75 16 75 40c0 65 -201 104 -201 222c0 70 55 133 171 133c44 0 81 -10 132 -31z" />
    <glyph glyph-name="t" unicode="t" horiz-adv-x="361" 
d="M330 453l-7 -79h-115l-20 -226c-1 -10 -1 -19 -1 -27c0 -39 12 -55 51 -55c29 0 64 13 84 26l-6 -76c-32 -16 -66 -24 -106 -24c-62 0 -112 20 -112 119c0 9 0 19 1 30l20 233h-81l7 79h81l12 138h89l-12 -138h115z" />
    <glyph glyph-name="u" unicode="u" horiz-adv-x="516" 
d="M485 453l-40 -453h-85l4 51c-37 -32 -85 -61 -145 -61c-97 0 -162 67 -162 172c0 10 1 38 2 50l22 241h89l-22 -246c-1 -6 -1 -18 -1 -24c0 -72 28 -107 95 -107c49 0 91 26 125 59l29 318h89z" />
    <glyph glyph-name="v" unicode="v" horiz-adv-x="468" 
d="M481 453l-253 -453h-82l-118 453h98l75 -341l182 341h98z" />
    <glyph glyph-name="w" unicode="w" horiz-adv-x="762" 
d="M777 453l-251 -453h-83l-65 315l-144 -315h-84l-112 453h96l71 -338l155 338h73l68 -337l182 337h94z" />
    <glyph glyph-name="x" unicode="x" horiz-adv-x="494" 
d="M485 453l-181 -221l150 -232h-106l-102 166l-137 -166h-108l199 235l-150 218h110l97 -155l118 155h110z" />
    <glyph glyph-name="y" unicode="y" horiz-adv-x="467" 
d="M494 453l-318 -560c-52 -92 -105 -122 -175 -122c-10 0 -37 2 -50 5l7 83c11 -4 29 -6 37 -6c43 0 71 15 101 65l77 128l-150 407h92l114 -309l174 309h91z" />
    <glyph glyph-name="z" unicode="z" horiz-adv-x="468" 
d="M479 453l-292 -370h247l-7 -83h-417l292 370h-230l7 83h400z" />
    <glyph glyph-name="braceleft" unicode="{" horiz-adv-x="286" 
d="M343 804l-6 -71c-86 0 -91 -6 -97 -85l-15 -189c-8 -98 -28 -119 -84 -137c46 -16 69 -39 60 -137l-15 -172c-6 -70 1 -90 92 -90l-6 -71h-37c-116 0 -145 64 -137 161l14 168c5 63 -1 98 -66 111l5 65c75 6 81 52 86 108l16 189c11 134 48 150 151 150h39z" />
    <glyph glyph-name="bar" unicode="|" horiz-adv-x="219" 
d="M167 -238h-79v924h79v-924z" />
    <glyph glyph-name="braceright" unicode="}" horiz-adv-x="286" 
d="M261 364l-5 -65c-75 -6 -81 -52 -86 -108l-16 -189c-11 -134 -48 -150 -151 -150h-39l6 71c86 0 91 6 97 85l15 189c8 98 28 119 84 137c-46 16 -69 39 -60 137l15 172c6 70 -1 90 -92 90l6 71h37c116 0 145 -64 137 -161l-14 -168c-5 -63 1 -98 66 -111z" />
    <glyph glyph-name="asciitilde" unicode="~" 
d="M519 297c-37 -24 -78 -48 -123 -48c-76 0 -138 69 -197 69c-43 0 -94 -40 -130 -62v103c38 24 85 47 130 47c73 0 144 -69 196 -69c39 0 91 42 124 62v-102z" />
    <glyph glyph-name="exclamdown" unicode="&#xa1;" horiz-adv-x="263" 
d="M231 394l-79 -72l-68 78l81 72zM172 278l-3 -363l-12 -137h-106l12 137l61 363h48z" />
    <glyph glyph-name="cent" unicode="&#xa2;" 
d="M490 427l-9 -102c-34 24 -73 45 -114 52l-26 -298c44 5 91 23 123 50l-9 -102c-34 -20 -79 -31 -121 -35l-8 -87h-65l8 87c-110 13 -190 93 -190 211c0 134 101 244 230 261l8 87h65l-8 -87c40 -5 83 -17 116 -37zM302 375c-75 -17 -125 -85 -125 -165
c0 -68 40 -115 99 -129z" />
    <glyph glyph-name="sterling" unicode="&#xa3;" 
d="M526 632l-41 -80c-29 26 -63 47 -111 47c-42 0 -68 -22 -84 -88c-12 -50 -19 -99 -27 -147h176l-35 -87h-156c-12 -69 -27 -133 -57 -190h303l-35 -87h-423c69 86 101 182 120 277h-83l35 87h63c10 62 17 122 30 177c23 95 92 145 175 145c60 0 109 -20 150 -54z" />
    <glyph glyph-name="fraction" unicode="&#x2044;" horiz-adv-x="379" 
d="M574 800l-646 -929h-97l645 929h98z" />
    <glyph glyph-name="yen" unicode="&#xa5;" 
d="M592 672l-243 -322h123l-7 -71h-143l-7 -79h143l-7 -71h-143l-11 -129h-96l11 129h-145l7 71h145l7 79h-145l7 71h121l-185 322h114l147 -268l193 268h114z" />
    <glyph glyph-name="florin" unicode="&#x192;" 
d="M524 666l-14 -83c-30 12 -60 22 -88 22c-71 0 -91 -52 -108 -152h173l-16 -85h-173l-71 -388c-30 -166 -98 -198 -194 -198c-10 0 -39 2 -48 3l15 83c7 -1 29 -4 42 -4c42 0 69 19 87 117l71 387h-69l16 85h69c22 131 62 233 199 233c44 0 82 -11 109 -20z" />
    <glyph glyph-name="section" unicode="&#xa7;" horiz-adv-x="528" 
d="M508 575l-85 -57c-19 47 -58 79 -110 79c-48 0 -91 -26 -91 -78c0 -103 273 -130 273 -285c0 -85 -61 -136 -135 -158c49 -32 87 -70 87 -125c0 -118 -113 -191 -221 -191c-79 0 -159 43 -197 114l80 60c20 -47 73 -85 125 -85c46 0 106 30 106 82
c0 98 -288 127 -288 278c0 88 67 139 145 160c-45 32 -81 75 -81 137c0 111 110 180 212 180c80 0 143 -41 180 -111zM395 220c0 43 -53 69 -113 100c-53 -6 -130 -34 -130 -93c0 -40 54 -68 115 -99c53 5 128 30 128 92z" />
    <glyph glyph-name="currency" unicode="&#xa4;" horiz-adv-x="639" 
d="M545 174c-16 -16 -31 -32 -48 -49c-22 23 -45 45 -67 67c-34 -24 -75 -37 -117 -37c-34 0 -78 9 -116 37c-23 -22 -45 -44 -68 -67c-16 17 -32 33 -48 49c23 22 46 44 69 65c-24 36 -38 76 -38 115s13 81 38 115c-23 22 -46 43 -69 66c16 16 32 32 48 49
c23 -23 45 -45 68 -67c40 27 82 37 116 37c37 0 82 -12 116 -37c23 22 46 44 68 67c17 -17 32 -33 48 -49c-22 -23 -45 -44 -68 -66c27 -38 37 -80 37 -115c0 -39 -12 -78 -37 -115c23 -21 46 -43 68 -65zM446 355c0 77 -66 131 -132 131c-76 0 -133 -61 -133 -131
c0 -72 60 -132 132 -132c73 0 133 60 133 132z" />
    <glyph glyph-name="quotesingle" unicode="'" horiz-adv-x="204" 
d="M178 566l-27 -148h-42l-27 148v106h96v-106z" />
    <glyph glyph-name="quotedblleft" unicode="&#x201c;" horiz-adv-x="379" 
d="M453 684c-80 -29 -93 -58 -100 -132l-10 -107h-96l9 103c8 88 86 138 179 138c7 0 12 -1 18 -2zM277 671c-80 -29 -93 -58 -100 -132l-9 -94h-96l8 90c8 88 85 138 178 138c7 0 13 -1 19 -2z" />
    <glyph glyph-name="guillemotleft" unicode="&#xab;" horiz-adv-x="455" 
d="M488 417l-165 -191l131 -191h-105l-131 191l165 191h105zM290 417l-165 -191l131 -191h-105l-131 191l165 191h105z" />
    <glyph glyph-name="guilsinglleft" unicode="&#x2039;" horiz-adv-x="290" 
d="M290 417l-165 -191l131 -191h-105l-131 191l165 191h105z" />
    <glyph glyph-name="guilsinglright" unicode="&#x203a;" horiz-adv-x="290" 
d="M270 226l-165 -191h-105l165 191l-131 191h105z" />
    <glyph glyph-name="endash" unicode="&#x2013;" horiz-adv-x="490" 
d="M457 295l-6 -79h-412l6 79h412z" />
    <glyph glyph-name="dagger" unicode="&#x2020;" horiz-adv-x="424" 
d="M418 453l-7 -82h-137l-46 -525h-93l46 525h-137l7 82h137l19 219h93l-19 -219h137z" />
    <glyph glyph-name="daggerdbl" unicode="&#x2021;" horiz-adv-x="424" 
d="M418 453l-7 -82h-137l-10 -107h137l-7 -82h-137l-29 -336h-93l29 336h-137l7 82h137l10 107h-137l7 82h137l19 219h93l-19 -219h137z" />
    <glyph glyph-name="periodcentered" unicode="&#xb7;" horiz-adv-x="230" 
d="M186 280h-106v111h106v-111z" />
    <glyph glyph-name="paragraph" unicode="&#xb6;" horiz-adv-x="590" 
d="M590 672l-72 -822h-82l65 747h-102l-65 -747h-82l32 364c-47 0 -105 0 -144 29c-57 41 -80 93 -80 163c0 99 42 179 125 233c44 28 107 33 158 33h247z" />
    <glyph glyph-name="bullet" unicode="&#x2022;" horiz-adv-x="500" 
d="M388 302c0 -66 -54 -120 -120 -120s-120 54 -120 120s54 120 120 120s120 -54 120 -120z" />
    <glyph glyph-name="quotesinglbase" unicode="&#x201a;" horiz-adv-x="204" 
d="M150 96l-9 -103c-8 -88 -86 -138 -179 -138c-7 0 -12 1 -18 2c80 29 93 58 100 132l10 107h96z" />
    <glyph glyph-name="quotedblbase" unicode="&#x201e;" horiz-adv-x="379" 
d="M317 96l-8 -90c-8 -88 -85 -138 -178 -138c-7 0 -13 1 -19 2c80 29 93 58 100 132l9 94h96zM142 96l-9 -103c-8 -88 -86 -138 -179 -138c-7 0 -12 1 -18 2c80 29 93 58 100 132l10 107h96z" />
    <glyph glyph-name="quotedblright" unicode="&#x201d;" horiz-adv-x="379" 
d="M377 672l-8 -90c-8 -88 -85 -138 -178 -138c-7 0 -13 1 -19 2c80 29 93 58 100 132l9 94h96zM202 672l-9 -103c-8 -88 -86 -138 -179 -138c-7 0 -12 1 -18 2c80 29 93 58 100 132l10 107h96z" />
    <glyph glyph-name="guillemotright" unicode="&#xbb;" horiz-adv-x="455" 
d="M456 226l-165 -191h-105l165 191l-131 191h105zM258 226l-165 -191h-105l165 191l-131 191h105z" />
    <glyph glyph-name="ellipsis" unicode="&#x2026;" horiz-adv-x="747" 
d="M671 111l-10 -111h-106l10 111h106zM421 111l-10 -111h-106l10 111h106zM171 111l-10 -111h-106l10 111h106z" />
    <glyph glyph-name="perthousand" unicode="&#x2030;" horiz-adv-x="1118" 
d="M1086 161c0 -91 -78 -170 -169 -170c-80 0 -143 62 -143 142c0 91 79 169 170 169c80 0 142 -61 142 -141zM369 541c0 -91 -78 -170 -169 -170c-80 0 -143 62 -143 142c0 91 79 169 170 169c80 0 142 -61 142 -141zM671 672l-459 -672h-105l459 672h105zM720 161
c0 -91 -78 -170 -169 -170c-80 0 -143 62 -143 142c0 91 79 169 170 169c80 0 142 -61 142 -141zM1010 154c0 41 -32 72 -73 72c-46 0 -87 -39 -87 -86c0 -41 32 -73 73 -73c47 0 87 41 87 87zM293 534c0 41 -31 72 -72 72c-46 0 -88 -39 -88 -86c0 -41 33 -73 74 -73
c47 0 86 41 86 87zM644 154c0 41 -32 72 -73 72c-46 0 -87 -39 -87 -86c0 -41 32 -73 73 -73c47 0 87 41 87 87z" />
    <glyph glyph-name="questiondown" unicode="&#xbf;" horiz-adv-x="458" 
d="M335 398l-79 -72l-68 78l81 72zM382 -152c-60 -53 -108 -80 -194 -80c-111 0 -173 77 -173 160c0 137 196 214 196 269c0 17 -7 29 -21 43l65 59c41 -41 50 -62 50 -99c0 -114 -196 -169 -196 -271c0 -43 32 -79 89 -79c52 0 96 33 128 62z" />
    <glyph glyph-name="grave" unicode="`" horiz-adv-x="500" 
d="M366 508h-108l-124 122h108z" />
    <glyph glyph-name="acute" unicode="&#xb4;" horiz-adv-x="500" 
d="M377 630l-145 -122h-109l145 122h109z" />
    <glyph glyph-name="circumflex" unicode="&#x2c6;" horiz-adv-x="500" 
d="M407 508h-94l-56 73l-69 -73h-95l122 122h91z" />
    <glyph glyph-name="tilde" unicode="&#x2dc;" horiz-adv-x="500" 
d="M416 620c-13 -62 -43 -105 -97 -105c-45 0 -108 41 -140 41c-14 0 -25 -11 -28 -39h-67c9 59 40 109 92 109c48 0 106 -41 143 -41c14 0 26 9 30 35h67z" />
    <glyph glyph-name="macron" unicode="&#xaf;" horiz-adv-x="500" 
d="M391 608l-7 -78h-275l7 78h275z" />
    <glyph glyph-name="breve" unicode="&#x2d8;" horiz-adv-x="500" 
d="M401 658c-7 -83 -80 -150 -163 -150c-79 0 -138 60 -138 137v13h73v-7c0 -39 30 -70 70 -70c43 0 80 34 84 77h74z" />
    <glyph glyph-name="dotaccent" unicode="&#x2d9;" horiz-adv-x="500" 
d="M302 615l-8 -96h-96l8 96h96z" />
    <glyph glyph-name="dieresis" unicode="&#xa8;" horiz-adv-x="500" 
d="M386 615l-8 -96h-97l8 96h97zM218 615l-7 -96h-97l8 96h96z" />
    <glyph glyph-name="ring" unicode="&#x2da;" horiz-adv-x="500" 
d="M347 605c0 -56 -48 -97 -106 -97c-54 0 -88 43 -88 97c0 48 43 97 105 97c54 0 89 -42 89 -97zM299 605c0 28 -18 49 -45 49c-30 0 -53 -27 -53 -49c0 -27 17 -49 44 -49s54 22 54 49z" />
    <glyph glyph-name="cedilla" unicode="&#xb8;" horiz-adv-x="500" 
d="M323 -104c0 -55 -51 -91 -118 -91c-5 0 -23 1 -28 2l4 50c7 -4 19 -7 28 -7c19 0 51 9 51 43c0 23 -18 39 -51 41l27 88h53l-16 -57c25 -6 50 -29 50 -69z" />
    <glyph glyph-name="hungarumlaut" unicode="&#x2dd;" horiz-adv-x="500" 
d="M453 630l-138 -122h-92l121 122h109zM276 630l-137 -122h-92l121 122h108z" />
    <glyph glyph-name="ogonek" unicode="&#x2db;" horiz-adv-x="500" 
d="M328 -142l-7 -71c-13 -4 -32 -6 -43 -6c-71 0 -106 46 -106 111c0 43 48 109 69 137l61 -7c-29 -37 -62 -83 -62 -118c0 -46 35 -54 51 -54c11 0 27 3 37 8z" />
    <glyph glyph-name="caron" unicode="&#x2c7;" horiz-adv-x="500" 
d="M407 630l-122 -122h-91l-101 122h94l56 -73l69 73h95z" />
    <glyph glyph-name="emdash" unicode="&#x2014;" horiz-adv-x="904" 
d="M875 295l-6 -79h-824l6 79h824z" />
    <glyph glyph-name="AE" unicode="&#xc6;" horiz-adv-x="986" 
d="M983 672l-7 -84h-325l-17 -187h251l-7 -84h-251l-21 -233h320l-7 -84h-416l15 175h-267l-129 -175h-107l496 672h472zM555 587l-247 -335h217z" />
    <glyph glyph-name="ordfeminine" unicode="&#xaa;" horiz-adv-x="337" 
d="M337 679l-27 -271h-65l1 18c-23 -14 -53 -23 -82 -23c-63 0 -109 45 -109 119c0 68 58 164 196 164c20 0 42 -1 86 -7zM261 624c-8 0 -17 1 -30 1c-48 0 -103 -41 -103 -108c0 -30 18 -52 54 -52c20 0 44 11 66 28z" />
    <glyph glyph-name="Lslash" unicode="&#x141;" horiz-adv-x="485" 
d="M470 84l-7 -84h-399l24 268l-66 -47l8 88l65 47l28 316h96l-21 -243l151 109l-8 -88l-151 -108l-23 -258h303z" />
    <glyph glyph-name="Oslash" unicode="&#xd8;" horiz-adv-x="806" 
d="M771 370c0 -226 -166 -384 -381 -384c-71 0 -133 18 -184 51l-87 -94l-50 43l86 93c-54 56 -85 134 -85 223c0 226 166 384 381 384c80 0 149 -24 202 -64l61 67l50 -43l-64 -69c45 -54 71 -126 71 -207zM669 361c0 55 -13 102 -38 140l-359 -391c35 -22 78 -34 126 -34
c168 0 271 131 271 285zM586 550c-38 30 -87 46 -143 46c-168 0 -271 -131 -271 -285c0 -64 19 -117 51 -157z" />
    <glyph glyph-name="OE" unicode="&#x152;" horiz-adv-x="1122" 
d="M1119 672l-7 -84h-325l-17 -187h251l-7 -84h-251l-21 -233h320l-7 -84h-416l7 82c-67 -64 -150 -96 -256 -96c-190 0 -320 133 -320 316c0 226 166 384 381 384c113 0 188 -43 239 -105l8 91h421zM669 361c0 142 -93 235 -226 235c-168 0 -271 -131 -271 -285
c0 -142 93 -235 226 -235c168 0 271 131 271 285z" />
    <glyph glyph-name="ordmasculine" unicode="&#xba;" horiz-adv-x="361" 
d="M373 556c0 -53 -37 -154 -166 -154c-93 0 -137 63 -137 130c0 81 60 154 166 154c72 0 137 -45 137 -130zM299 552c0 47 -24 73 -69 73c-61 0 -86 -50 -86 -92c0 -48 28 -70 68 -70c63 0 87 50 87 89z" />
    <glyph glyph-name="ae" unicode="&#xe6;" horiz-adv-x="800" 
d="M767 334c0 -64 -48 -168 -229 -168c-18 0 -63 4 -80 12c0 -63 38 -110 107 -110c78 0 145 30 191 60l-7 -88c-48 -31 -124 -54 -188 -54c-56 0 -115 19 -165 86c-61 -56 -111 -81 -182 -81c-95 0 -165 72 -165 196c0 113 88 276 306 276c28 0 71 -6 112 -15l-3 -44
c41 36 95 59 161 59c91 0 142 -60 142 -129zM671 323c0 37 -31 60 -69 60c-68 0 -123 -73 -134 -133c16 -5 53 -9 68 -9c96 0 135 41 135 82zM392 377c-21 5 -40 7 -69 7c-85 0 -181 -79 -181 -206c0 -61 34 -107 101 -107c39 0 90 26 131 71c-3 17 -5 37 -5 60
c0 52 10 114 23 175z" />
    <glyph glyph-name="dotlessi" unicode="&#x131;" horiz-adv-x="228" 
d="M181 453l-41 -453h-89l41 453h89z" />
    <glyph glyph-name="lslash" unicode="&#x142;" horiz-adv-x="277" 
d="M286 508l-7 -82l-110 -78l-17 -193c-1 -9 -3 -39 -3 -47c0 -31 19 -42 48 -42c15 0 42 7 63 18l-6 -77c-22 -9 -51 -16 -84 -16c-77 0 -110 45 -110 110c0 11 3 46 4 57l11 119l-51 -36l7 82l51 36l27 313h89l-22 -242z" />
    <glyph glyph-name="oslash" unicode="&#xf8;" horiz-adv-x="557" 
d="M516 460l-50 -65c31 -36 48 -86 48 -148c0 -89 -57 -258 -256 -258c-36 0 -67 6 -93 17l-54 -70l-50 37l51 67c-43 39 -63 97 -63 159c0 136 92 264 256 264c43 0 81 -10 113 -28l48 62zM422 239c0 31 -6 57 -16 79l-186 -241c15 -5 30 -8 47 -8c112 0 155 96 155 170z
M364 366c-19 11 -42 17 -69 17c-109 0 -154 -97 -154 -176c0 -41 11 -73 28 -95z" />
    <glyph glyph-name="oe" unicode="&#x153;" horiz-adv-x="847" 
d="M814 334c0 -64 -48 -168 -229 -168c-18 0 -63 4 -80 12c0 -63 38 -110 107 -110c78 0 145 30 191 60l-7 -88c-48 -31 -124 -54 -188 -54c-73 0 -131 31 -164 82c-40 -46 -100 -79 -186 -79c-143 0 -209 99 -209 210c0 136 92 264 256 264c79 0 142 -36 177 -95
c43 54 106 95 190 95c91 0 142 -60 142 -129zM718 323c0 37 -31 60 -69 60c-68 0 -123 -73 -134 -133c16 -5 53 -9 68 -9c96 0 135 41 135 82zM422 239c0 90 -45 144 -127 144c-109 0 -154 -97 -154 -176c0 -94 55 -138 126 -138c112 0 155 96 155 170z" />
    <glyph glyph-name="germandbls" unicode="&#xdf;" horiz-adv-x="549" 
d="M501 218c0 -143 -97 -227 -216 -227c-27 0 -54 3 -80 9l8 84c18 -7 44 -12 62 -12c80 0 131 61 131 140c0 101 -81 136 -168 138l6 74c10 -1 23 -2 34 -2c62 0 121 27 121 101c0 54 -42 84 -96 84c-84 0 -113 -79 -119 -151l-40 -456h-93l41 469c13 146 97 217 218 217
c113 0 180 -69 180 -156c0 -79 -46 -122 -107 -143c68 -28 118 -85 118 -169z" />
    <glyph glyph-name="onesuperior" unicode="&#xb9;" horiz-adv-x="207" 
d="M192 698l-39 -391h-83l35 349z" />
    <glyph glyph-name="logicalnot" unicode="&#xac;" 
d="M498 223h-87v146h-320v79h407v-225z" />
    <glyph glyph-name="mu" unicode="&#xb5;" horiz-adv-x="562" 
d="M521 523l-76 -357c-6 -29 -11 -51 -11 -65c0 -24 10 -33 35 -33c5 0 10 0 16 1l-15 -70c-19 -4 -36 -5 -53 -5c-42 0 -61 18 -73 63c-29 -43 -73 -64 -132 -64c-53 0 -91 17 -125 57l-54 -259h-88l155 732h88l-63 -293c-5 -22 -7 -43 -7 -65c0 -65 36 -101 98 -101
c90 0 133 62 162 197l56 262h87z" />
    <glyph glyph-name="trademark" unicode="&#x2122;" horiz-adv-x="408" 
d="M415 489h-45v106l-48 -57l-50 57v-106h-44v183h37l56 -66l57 66h37v-183zM207 630h-53v-141h-44v141h-53v42h150v-42z" />
    <glyph glyph-name="Eth" unicode="&#xd0;" horiz-adv-x="689" 
d="M656 373c0 -168 -107 -373 -374 -373h-218l28 317h-68l8 87h67l24 268h213c179 0 320 -111 320 -299zM554 366c0 142 -88 221 -224 221h-118l-17 -183h180l-8 -87h-179l-21 -232h113c208 0 274 151 274 281z" />
    <glyph glyph-name="onehalf" unicode="&#xbd;" horiz-adv-x="751" 
d="M702 281c0 -35 -11 -60 -51 -108l-90 -108h136l-7 -65h-269l157 200c27 35 37 49 37 69c0 26 -21 38 -42 38c-41 0 -80 -21 -113 -51l8 86c37 23 72 35 118 35c82 0 116 -42 116 -96zM588 686l-421 -698h-97l420 698h98zM199 698l-39 -391h-83l35 349z" />
    <glyph glyph-name="plusminus" unicode="&#xb1;" 
d="M498 296h-164v-174h-79v174h-164v79h164v174h79v-174h164v-79zM498 0h-407v79h407v-79z" />
    <glyph glyph-name="Thorn" unicode="&#xde;" horiz-adv-x="534" 
d="M517 362c0 -124 -83 -222 -232 -222h-113l-12 -140h-96l59 672h96l-11 -128h105c99 0 204 -55 204 -182zM415 355c0 76 -59 104 -127 104h-88l-20 -234h92c61 0 143 24 143 130z" />
    <glyph glyph-name="onequarter" unicode="&#xbc;" horiz-adv-x="704" 
d="M684 132l-6 -61h-51l-7 -71h-80l7 71h-215l4 19l303 309h21l-27 -267h51zM588 686l-421 -698h-97l420 698h98zM199 698l-39 -391h-83l35 349zM563 228l-93 -96h83z" />
    <glyph glyph-name="divide" unicode="&#xf7;" 
d="M342 445h-96v96h96v-96zM496 296h-405v79h405v-79zM342 130h-96v96h96v-96z" />
    <glyph glyph-name="brokenbar" unicode="&#xa6;" horiz-adv-x="219" 
d="M167 426h-79v382h79v-382zM167 -148h-79v382h79v-382z" />
    <glyph glyph-name="degree" unicode="&#xb0;" horiz-adv-x="341" 
d="M340 558c0 -81 -70 -152 -151 -152c-73 0 -129 55 -129 128c0 81 70 152 151 152c73 0 129 -55 129 -128zM273 553c0 37 -29 66 -66 66c-43 0 -80 -37 -80 -80c0 -37 29 -66 66 -66c43 0 80 37 80 80z" />
    <glyph glyph-name="thorn" unicode="&#xfe;" horiz-adv-x="556" 
d="M508 252c0 -107 -68 -264 -239 -264c-52 0 -101 23 -128 42l-21 -247h-89l77 889h89l-23 -262c34 30 81 53 143 53c124 0 191 -95 191 -211zM413 245c0 86 -39 139 -113 139c-53 0 -96 -26 -133 -60l-18 -209c33 -29 77 -47 120 -47c94 0 144 88 144 177z" />
    <glyph glyph-name="threequarters" unicode="&#xbe;" horiz-adv-x="832" 
d="M812 132l-6 -61h-51l-7 -71h-80l7 71h-215l4 19l303 309h21l-27 -267h51zM716 686l-421 -698h-97l420 698h98zM346 672l-98 -140c43 -11 78 -42 78 -105c0 -75 -62 -131 -155 -131c-58 0 -105 29 -131 79l64 48c11 -37 36 -63 72 -63c39 0 71 27 71 70
c0 39 -31 60 -64 60c-16 0 -37 -3 -59 -9l88 126h-131l7 65h258zM690 227l-92 -95h83z" />
    <glyph glyph-name="twosuperior" unicode="&#xb2;" horiz-adv-x="333" 
d="M316 590c0 -35 -11 -60 -51 -108l-90 -108h136l-7 -65h-269l157 200c27 35 37 49 37 69c0 26 -21 38 -42 38c-41 0 -80 -21 -113 -51l8 86c37 23 72 35 118 35c82 0 116 -42 116 -96z" />
    <glyph glyph-name="registered" unicode="&#xae;" horiz-adv-x="377" 
d="M375 551c0 -80 -68 -144 -147 -144c-80 0 -146 64 -146 144s66 144 146 144c79 0 147 -64 147 -144zM335 551c0 58 -50 104 -107 104c-58 0 -106 -46 -106 -104s48 -104 106 -104c57 0 107 46 107 104zM302 481h-43l-37 60h-5v-60h-37v150h48c26 0 56 -14 56 -44
c0 -17 -9 -32 -24 -40zM247 587c0 9 -12 9 -18 9h-12v-21h15c9 0 15 3 15 12z" />
    <glyph glyph-name="minus" unicode="&#x2212;" 
d="M498 296h-407v79h407v-79z" />
    <glyph glyph-name="eth" unicode="&#xf0;" horiz-adv-x="557" 
d="M505 610l-88 -38c48 -96 86 -202 86 -304c0 -130 -79 -279 -255 -279c-119 0 -199 96 -199 212c0 126 96 252 226 252c34 0 81 -6 107 -29c-9 33 -26 73 -45 113l-103 -45l-20 57l96 42c-16 30 -33 58 -47 81h99c9 -15 18 -31 27 -47l96 42zM409 258c0 13 -4 57 -12 68
c-24 33 -76 51 -108 51c-103 0 -148 -100 -148 -165c0 -89 56 -141 121 -141c96 0 147 92 147 187z" />
    <glyph glyph-name="multiply" unicode="&#xd7;" 
d="M473 213l-56 -56l-123 123l-123 -123l-56 55l124 124l-124 123l56 56l124 -123l122 122l56 -55l-123 -123z" />
    <glyph glyph-name="threesuperior" unicode="&#xb3;" horiz-adv-x="350" 
d="M346 672l-98 -140c43 -11 78 -42 78 -105c0 -75 -62 -131 -155 -131c-58 0 -105 29 -131 79l64 48c11 -37 36 -63 72 -63c39 0 71 27 71 70c0 39 -31 60 -64 60c-16 0 -37 -3 -59 -9l88 126h-131l7 65h258z" />
    <glyph glyph-name="copyright" unicode="&#xa9;" horiz-adv-x="726" 
d="M700 305c0 -176 -145 -319 -323 -319s-323 143 -323 319s145 319 323 319s323 -143 323 -319zM632 305c0 139 -113 252 -255 252s-256 -113 -256 -252s114 -252 256 -252s255 113 255 252zM514 157c-32 -22 -74 -44 -136 -44c-123 0 -185 100 -185 193
c0 105 75 193 190 193c46 0 84 -12 131 -37v-76c-64 39 -98 46 -131 46c-85 0 -117 -76 -117 -126c0 -63 33 -125 112 -125c40 0 72 8 136 54v-78z" />
    <glyph glyph-name="Aacute" unicode="&#xc1;" horiz-adv-x="662" 
d="M571 854l-145 -122h-108l145 122h108zM634 0h-103l-43 175h-287l-83 -175h-103l333 679h102zM467 257l-78 317l-150 -317h228z" />
    <glyph glyph-name="Acircumflex" unicode="&#xc2;" horiz-adv-x="662" 
d="M548 732h-94l-56 73l-69 -73h-94l122 122h91zM634 0h-103l-43 175h-287l-83 -175h-103l333 679h102zM467 257l-78 317l-150 -317h228z" />
    <glyph glyph-name="Adieresis" unicode="&#xc4;" horiz-adv-x="662" 
d="M535 834l-8 -96h-96l8 96h96zM368 834l-8 -96h-96l8 96h96zM634 0h-103l-43 175h-287l-83 -175h-103l333 679h102zM467 257l-78 317l-150 -317h228z" />
    <glyph glyph-name="Agrave" unicode="&#xc0;" horiz-adv-x="662" 
d="M485 732h-108l-123 122h108zM634 0h-103l-43 175h-287l-83 -175h-103l333 679h102zM467 257l-78 317l-150 -317h228z" />
    <glyph glyph-name="Aring" unicode="&#xc5;" horiz-adv-x="662" 
d="M499 814c0 -56 -48 -97 -106 -97c-54 0 -88 43 -88 97c0 48 43 97 105 97c54 0 89 -42 89 -97zM634 0h-103l-43 175h-287l-83 -175h-103l333 679h102zM451 814c0 28 -18 49 -45 49c-30 0 -53 -27 -53 -49c0 -27 17 -49 44 -49s54 22 54 49zM467 257l-78 317l-150 -317
h228z" />
    <glyph glyph-name="Atilde" unicode="&#xc3;" horiz-adv-x="662" 
d="M559 854c-13 -62 -43 -105 -97 -105c-45 0 -108 41 -140 41c-14 0 -25 -11 -28 -39h-67c9 59 40 109 92 109c48 0 106 -41 143 -41c14 0 26 9 30 35h67zM634 0h-103l-43 175h-287l-83 -175h-103l333 679h102zM467 257l-78 317l-150 -317h228z" />
    <glyph glyph-name="Ccedilla" unicode="&#xc7;" horiz-adv-x="670" 
d="M667 640l-9 -97c-55 31 -131 53 -215 53c-167 0 -269 -142 -269 -290c0 -141 96 -230 227 -230c86 0 167 38 221 76l-10 -103c-60 -36 -124 -56 -188 -61l-13 -47c25 -6 50 -29 50 -69c0 -55 -51 -91 -118 -91c-5 0 -23 1 -28 2l4 50c7 -4 19 -7 28 -7c19 0 51 9 51 43
c0 23 -18 39 -51 41l23 76c-172 8 -298 128 -298 320c0 217 164 380 377 380c81 0 160 -16 218 -46z" />
    <glyph glyph-name="Eacute" unicode="&#xc9;" horiz-adv-x="547" 
d="M505 854l-145 -122h-108l145 122h108zM544 672l-7 -84h-325l-17 -187h251l-7 -84h-251l-21 -233h320l-7 -84h-416l59 672h421z" />
    <glyph glyph-name="Ecircumflex" unicode="&#xca;" horiz-adv-x="547" 
d="M495 732h-94l-56 73l-69 -73h-94l122 122h91zM544 672l-7 -84h-325l-17 -187h251l-7 -84h-251l-21 -233h320l-7 -84h-416l59 672h421z" />
    <glyph glyph-name="Edieresis" unicode="&#xcb;" horiz-adv-x="547" 
d="M484 834l-8 -96h-96l8 96h96zM317 834l-8 -96h-96l8 96h96zM544 672l-7 -84h-325l-17 -187h251l-7 -84h-251l-21 -233h320l-7 -84h-416l59 672h421z" />
    <glyph glyph-name="Egrave" unicode="&#xc8;" horiz-adv-x="547" 
d="M404 732h-108l-123 122h108zM544 672l-7 -84h-325l-17 -187h251l-7 -84h-251l-21 -233h320l-7 -84h-416l59 672h421z" />
    <glyph glyph-name="Iacute" unicode="&#xcd;" horiz-adv-x="256" 
d="M375 854l-145 -122h-108l145 122h108zM223 672l-59 -672h-98l59 672h98z" />
    <glyph glyph-name="Icircumflex" unicode="&#xce;" horiz-adv-x="256" 
d="M331 732h-94l-56 73l-69 -73h-94l122 122h91zM223 672l-59 -672h-98l59 672h98z" />
    <glyph glyph-name="Idieresis" unicode="&#xcf;" horiz-adv-x="256" 
d="M318 834l-8 -96h-96l8 96h96zM151 834l-8 -96h-96l8 96h96zM223 672l-59 -672h-98l59 672h98z" />
    <glyph glyph-name="Igrave" unicode="&#xcc;" horiz-adv-x="256" 
d="M236 732h-108l-123 122h108zM223 672l-59 -672h-98l59 672h98z" />
    <glyph glyph-name="Ntilde" unicode="&#xd1;" horiz-adv-x="736" 
d="M586 854c-13 -62 -43 -105 -97 -105c-45 0 -108 41 -140 41c-14 0 -25 -11 -28 -39h-67c9 59 40 109 92 109c48 0 106 -41 143 -41c14 0 26 9 30 35h67zM705 672l-59 -672h-96l-345 518l-45 -518h-96l59 672h96l345 -518l45 518h96z" />
    <glyph glyph-name="Oacute" unicode="&#xd3;" horiz-adv-x="806" 
d="M631 854l-145 -122h-108l145 122h108zM771 370c0 -220 -160 -384 -381 -384c-186 0 -320 129 -320 316c0 220 160 384 381 384c186 0 320 -129 320 -316zM669 361c0 136 -87 235 -226 235c-164 0 -271 -126 -271 -285c0 -136 87 -235 226 -235c164 0 271 126 271 285z
" />
    <glyph glyph-name="Ocircumflex" unicode="&#xd4;" horiz-adv-x="806" 
d="M601 732h-94l-56 73l-69 -73h-94l122 122h91zM771 370c0 -220 -160 -384 -381 -384c-186 0 -320 129 -320 316c0 220 160 384 381 384c186 0 320 -129 320 -316zM669 361c0 136 -87 235 -226 235c-164 0 -271 -126 -271 -285c0 -136 87 -235 226 -235
c164 0 271 126 271 285z" />
    <glyph glyph-name="Odieresis" unicode="&#xd6;" horiz-adv-x="806" 
d="M589 834l-8 -96h-96l8 96h96zM422 834l-8 -96h-96l8 96h96zM771 370c0 -226 -166 -384 -381 -384c-190 0 -320 133 -320 316c0 226 166 384 381 384c190 0 320 -133 320 -316zM669 361c0 142 -93 235 -226 235c-168 0 -271 -131 -271 -285c0 -142 93 -235 226 -235
c168 0 271 131 271 285z" />
    <glyph glyph-name="Ograve" unicode="&#xd2;" horiz-adv-x="806" 
d="M510 732h-108l-123 122h108zM771 370c0 -220 -160 -384 -381 -384c-186 0 -320 129 -320 316c0 220 160 384 381 384c186 0 320 -129 320 -316zM669 361c0 136 -87 235 -226 235c-164 0 -271 -126 -271 -285c0 -136 87 -235 226 -235c164 0 271 126 271 285z" />
    <glyph glyph-name="Otilde" unicode="&#xd5;" horiz-adv-x="806" 
d="M622 854c-13 -62 -43 -105 -97 -105c-45 0 -108 41 -140 41c-14 0 -25 -11 -28 -39h-67c9 59 40 109 92 109c48 0 106 -41 143 -41c14 0 26 9 30 35h67zM771 370c0 -226 -166 -384 -381 -384c-190 0 -320 133 -320 316c0 226 166 384 381 384c190 0 320 -133 320 -316z
M669 361c0 142 -93 235 -226 235c-168 0 -271 -131 -271 -285c0 -142 93 -235 226 -235c168 0 271 131 271 285z" />
    <glyph glyph-name="Scaron" unicode="&#x160;" horiz-adv-x="536" 
d="M482 854l-122 -122h-91l-100 122h94l56 -73l69 73h94zM509 563l-75 -62c-19 67 -67 96 -124 96c-54 0 -98 -28 -98 -87c0 -114 287 -123 287 -317c0 -116 -97 -205 -232 -205c-126 0 -210 79 -226 181l95 42c0 -76 46 -136 135 -136c63 0 127 35 127 101
c0 133 -287 129 -287 325c0 98 79 185 205 185c87 0 153 -42 193 -123z" />
    <glyph glyph-name="Uacute" unicode="&#xda;" horiz-adv-x="724" 
d="M574 854l-145 -122h-108l145 122h108zM697 672l-34 -385c-17 -195 -147 -301 -315 -301c-134 0 -265 85 -265 273c0 12 1 26 2 39l34 374h96l-34 -389c-1 -10 -1 -18 -1 -27c0 -137 99 -180 176 -180c75 0 197 45 211 207l34 389h96z" />
    <glyph glyph-name="Ucircumflex" unicode="&#xdb;" horiz-adv-x="724" 
d="M573 732h-94l-56 73l-69 -73h-94l122 122h91zM697 672l-34 -385c-17 -195 -147 -301 -315 -301c-134 0 -265 85 -265 273c0 12 1 26 2 39l34 374h96l-34 -389c-1 -10 -1 -18 -1 -27c0 -137 99 -180 176 -180c75 0 197 45 211 207l34 389h96z" />
    <glyph glyph-name="Udieresis" unicode="&#xdc;" horiz-adv-x="724" 
d="M549 834l-8 -96h-96l8 96h96zM382 834l-8 -96h-96l8 96h96zM697 672l-34 -385c-17 -195 -147 -301 -315 -301c-134 0 -265 85 -265 273c0 12 1 26 2 39l34 374h96l-34 -389c-1 -10 -1 -18 -1 -27c0 -137 99 -180 176 -180c75 0 197 45 211 207l34 389h96z" />
    <glyph glyph-name="Ugrave" unicode="&#xd9;" horiz-adv-x="724" 
d="M483 732h-108l-123 122h108zM697 672l-34 -385c-17 -195 -147 -301 -315 -301c-134 0 -265 85 -265 273c0 12 1 26 2 39l34 374h96l-34 -389c-1 -10 -1 -18 -1 -27c0 -137 99 -180 176 -180c75 0 197 45 211 207l34 389h96z" />
    <glyph glyph-name="Yacute" unicode="&#xdd;" horiz-adv-x="581" 
d="M489 854l-143 -122h-110l145 122h108zM626 672l-267 -353l-28 -319h-96l28 319l-205 353h114l147 -270l193 270h114z" />
    <glyph glyph-name="Ydieresis" unicode="&#x178;" horiz-adv-x="581" 
d="M481 834l-8 -96h-96l8 96h96zM314 834l-8 -96h-96l8 96h96zM626 672l-267 -353l-28 -319h-96l28 319l-205 353h114l147 -270l193 270h114z" />
    <glyph glyph-name="Zcaron" unicode="&#x17d;" horiz-adv-x="608" 
d="M522 854l-122 -122h-91l-100 122h94l56 -73l69 73h94zM627 672l-458 -588h392l-7 -84h-571l459 588h-349l7 84h527z" />
    <glyph glyph-name="aacute" unicode="&#xe1;" horiz-adv-x="527" 
d="M490 630l-145 -122h-108l145 122h108zM482 451l-41 -451h-81l4 46c-41 -35 -96 -55 -150 -55c-112 0 -165 94 -165 196c0 41 11 81 29 117c53 109 159 159 277 159c43 0 85 -5 127 -12zM388 379c-22 3 -43 5 -65 5c-108 0 -181 -105 -181 -206c0 -63 36 -107 101 -107
c44 0 89 30 121 58z" />
    <glyph glyph-name="acircumflex" unicode="&#xe2;" horiz-adv-x="527" 
d="M470 508h-94l-56 73l-69 -73h-94l122 122h91zM482 451l-41 -451h-81l4 46c-41 -35 -96 -55 -150 -55c-112 0 -165 94 -165 196c0 41 11 81 29 117c53 109 159 159 277 159c43 0 85 -5 127 -12zM388 379c-22 3 -43 5 -65 5c-108 0 -181 -105 -181 -206
c0 -63 36 -107 101 -107c44 0 89 30 121 58z" />
    <glyph glyph-name="adieresis" unicode="&#xe4;" horiz-adv-x="527" 
d="M449 615l-8 -96h-96l8 96h96zM282 615l-8 -96h-96l8 96h96zM482 451l-41 -451h-81l4 46c-41 -35 -96 -55 -150 -55c-112 0 -165 94 -165 196c0 41 11 81 29 117c53 109 159 159 277 159c43 0 85 -5 127 -12zM388 379c-22 3 -43 5 -65 5c-108 0 -181 -105 -181 -206
c0 -63 36 -107 101 -107c44 0 89 30 121 58z" />
    <glyph glyph-name="agrave" unicode="&#xe0;" horiz-adv-x="527" 
d="M439 508h-108l-123 122h108zM482 451l-41 -451h-81l4 46c-41 -35 -96 -55 -150 -55c-112 0 -165 94 -165 196c0 41 11 81 29 117c53 109 159 159 277 159c43 0 85 -5 127 -12zM388 379c-22 3 -43 5 -65 5c-108 0 -181 -105 -181 -206c0 -63 36 -107 101 -107
c44 0 89 30 121 58z" />
    <glyph glyph-name="aring" unicode="&#xe5;" horiz-adv-x="527" 
d="M446 605c0 -58 -51 -97 -106 -97s-88 45 -88 97c0 56 52 97 105 97c56 0 89 -44 89 -97zM482 451l-41 -451h-81l4 46c-41 -35 -96 -55 -150 -55c-112 0 -165 94 -165 196c0 41 11 81 29 117c53 109 159 159 277 159c43 0 85 -5 127 -12zM398 605c0 27 -17 49 -45 49
c-25 0 -53 -23 -53 -49s16 -49 44 -49c26 0 54 21 54 49zM388 379c-22 3 -43 5 -65 5c-108 0 -181 -105 -181 -206c0 -63 36 -107 101 -107c44 0 89 30 121 58z" />
    <glyph glyph-name="atilde" unicode="&#xe3;" horiz-adv-x="527" 
d="M491 620c-11 -51 -37 -105 -97 -105c-47 0 -104 41 -140 41c-20 0 -26 -23 -28 -39h-67c7 49 34 109 92 109c49 0 103 -41 143 -41c20 0 28 18 30 35h67zM482 451l-41 -451h-81l4 46c-41 -35 -96 -55 -150 -55c-112 0 -165 94 -165 196c0 41 11 81 29 117
c53 109 159 159 277 159c43 0 85 -5 127 -12zM388 379c-22 3 -43 5 -65 5c-108 0 -181 -105 -181 -206c0 -63 36 -107 101 -107c44 0 89 30 121 58z" />
    <glyph glyph-name="ccedilla" unicode="&#xe7;" horiz-adv-x="479" 
d="M449 426l-9 -96c-44 32 -86 47 -133 47c-97 0 -158 -89 -158 -177c0 -80 40 -131 124 -131c50 0 110 19 149 52l-9 -93c-29 -17 -68 -31 -113 -37l-7 -26c25 -6 50 -29 50 -69c0 -54 -51 -91 -118 -91c-5 0 -23 1 -28 2l4 50c7 -4 19 -7 28 -7c19 0 51 9 51 43
c0 23 -18 39 -51 41l16 54c-120 4 -191 82 -191 209c0 158 118 266 263 266c48 0 90 -12 132 -37z" />
    <glyph glyph-name="eacute" unicode="&#xe9;" horiz-adv-x="481" 
d="M428 630l-145 -122h-108l145 122h108zM448 334c0 -25 -7 -50 -19 -72c-42 -75 -130 -96 -210 -96c-22 0 -60 4 -80 12c0 -65 41 -110 107 -110c68 0 134 23 191 60l-7 -88c-51 -33 -127 -54 -188 -54c-117 0 -195 78 -195 196c0 146 107 281 259 281
c77 0 142 -48 142 -129zM352 323c0 39 -33 60 -69 60c-67 0 -123 -72 -134 -133c21 -6 46 -9 68 -9c51 0 135 16 135 82z" />
    <glyph glyph-name="ecircumflex" unicode="&#xea;" horiz-adv-x="481" 
d="M461 508h-94l-56 73l-69 -73h-94l122 122h91zM448 334c0 -25 -7 -50 -19 -72c-42 -75 -130 -96 -210 -96c-22 0 -60 4 -80 12c0 -65 41 -110 107 -110c68 0 134 23 191 60l-7 -88c-51 -33 -127 -54 -188 -54c-117 0 -195 78 -195 196c0 146 107 281 259 281
c77 0 142 -48 142 -129zM352 323c0 39 -33 60 -69 60c-67 0 -123 -72 -134 -133c21 -6 46 -9 68 -9c51 0 135 16 135 82z" />
    <glyph glyph-name="edieresis" unicode="&#xeb;" horiz-adv-x="481" 
d="M436 615l-8 -96h-96l8 96h96zM269 615l-8 -96h-96l8 96h96zM448 334c0 -64 -48 -168 -229 -168c-18 0 -63 4 -80 12c0 -63 38 -110 107 -110c78 0 145 30 191 60l-7 -88c-48 -31 -124 -54 -188 -54c-100 0 -195 62 -195 196c0 121 86 281 259 281c91 0 142 -60 142 -129z
M352 323c0 37 -31 60 -69 60c-68 0 -123 -73 -134 -133c16 -5 53 -9 68 -9c96 0 135 41 135 82z" />
    <glyph glyph-name="egrave" unicode="&#xe8;" horiz-adv-x="481" 
d="M417 508h-108l-123 122h108zM448 334c0 -25 -7 -50 -19 -72c-42 -75 -130 -96 -210 -96c-22 0 -60 4 -80 12c0 -65 41 -110 107 -110c68 0 134 23 191 60l-7 -88c-51 -33 -127 -54 -188 -54c-117 0 -195 78 -195 196c0 146 107 281 259 281c77 0 142 -48 142 -129z
M352 323c0 39 -33 60 -69 60c-67 0 -123 -72 -134 -133c21 -6 46 -9 68 -9c51 0 135 16 135 82z" />
    <glyph glyph-name="iacute" unicode="&#xed;" horiz-adv-x="228" 
d="M341 630l-145 -122h-108l145 122h108zM181 453l-41 -453h-89l41 453h89z" />
    <glyph glyph-name="icircumflex" unicode="&#xee;" horiz-adv-x="228" 
d="M301 508h-94l-56 73l-69 -73h-94l122 122h91zM181 453l-41 -453h-89l41 453h89z" />
    <glyph glyph-name="idieresis" unicode="&#xef;" horiz-adv-x="228" 
d="M281 615l-8 -96h-96l8 96h96zM114 615l-8 -96h-96l8 96h96zM181 453l-41 -453h-89l41 453h89z" />
    <glyph glyph-name="igrave" unicode="&#xec;" horiz-adv-x="228" 
d="M194 508h-108l-123 122h108zM181 453l-41 -453h-89l41 453h89z" />
    <glyph glyph-name="ntilde" unicode="&#xf1;" horiz-adv-x="528" 
d="M463 620c-13 -62 -43 -105 -97 -105c-45 0 -108 41 -140 41c-14 0 -25 -11 -28 -39h-67c9 59 40 109 92 109c48 0 106 -41 143 -41c14 0 26 9 30 35h67zM479 291c0 -10 -1 -38 -2 -50l-22 -241h-89l22 246c1 6 1 13 1 19c0 72 -28 112 -95 112c-48 0 -92 -26 -125 -51
l-29 -326h-89l40 453h85l-3 -41c36 25 79 51 139 51c97 0 167 -67 167 -172z" />
    <glyph glyph-name="oacute" unicode="&#xf3;" horiz-adv-x="557" 
d="M471 630l-145 -122h-108l145 122h108zM514 247c0 -31 -6 -63 -17 -93c-39 -108 -125 -165 -239 -165c-128 0 -209 83 -209 210c0 149 104 264 256 264c131 0 209 -87 209 -216zM422 239c0 82 -39 144 -127 144c-99 0 -154 -84 -154 -176c0 -80 42 -138 126 -138
c97 0 155 78 155 170z" />
    <glyph glyph-name="ocircumflex" unicode="&#xf4;" horiz-adv-x="557" 
d="M473 508h-94l-56 73l-69 -73h-94l122 122h91zM514 247c0 -31 -6 -63 -17 -93c-39 -108 -125 -165 -239 -165c-128 0 -209 83 -209 210c0 149 104 264 256 264c131 0 209 -87 209 -216zM422 239c0 82 -39 144 -127 144c-99 0 -154 -84 -154 -176c0 -80 42 -138 126 -138
c97 0 155 78 155 170z" />
    <glyph glyph-name="odieresis" unicode="&#xf6;" horiz-adv-x="557" 
d="M446 615l-8 -96h-96l8 96h96zM279 615l-8 -96h-96l8 96h96zM514 247c0 -31 -6 -63 -17 -93c-39 -108 -125 -165 -239 -165c-128 0 -209 83 -209 210c0 149 104 264 256 264c131 0 209 -87 209 -216zM422 239c0 82 -39 144 -127 144c-99 0 -154 -84 -154 -176
c0 -80 42 -138 126 -138c97 0 155 78 155 170z" />
    <glyph glyph-name="ograve" unicode="&#xf2;" horiz-adv-x="557" 
d="M370 508h-108l-123 122h108zM514 247c0 -31 -6 -63 -17 -93c-39 -108 -125 -165 -239 -165c-128 0 -209 83 -209 210c0 149 104 264 256 264c131 0 209 -87 209 -216zM422 239c0 82 -39 144 -127 144c-99 0 -154 -84 -154 -176c0 -80 42 -138 126 -138
c97 0 155 78 155 170z" />
    <glyph glyph-name="otilde" unicode="&#xf5;" horiz-adv-x="557" 
d="M464 620c-11 -51 -37 -105 -97 -105c-47 0 -104 41 -140 41c-20 0 -26 -23 -28 -39h-67c7 49 34 109 92 109c49 0 103 -41 143 -41c20 0 28 18 30 35h67zM514 247c0 -31 -6 -63 -17 -93c-39 -108 -125 -165 -239 -165c-128 0 -209 83 -209 210c0 149 104 264 256 264
c131 0 209 -87 209 -216zM422 239c0 82 -39 144 -127 144c-99 0 -154 -84 -154 -176c0 -80 42 -138 126 -138c97 0 155 78 155 170z" />
    <glyph glyph-name="scaron" unicode="&#x161;" horiz-adv-x="396" 
d="M404 630l-122 -122h-91l-100 122h94l56 -73l69 73h94zM362 432l-8 -88c-43 23 -90 39 -133 39c-44 0 -66 -19 -66 -42c0 -69 199 -107 199 -223c0 -60 -45 -130 -165 -130c-65 0 -110 12 -159 32l7 89c49 -28 106 -41 148 -41c56 0 75 16 75 40c0 65 -201 104 -201 222
c0 70 55 133 171 133c44 0 81 -10 132 -31z" />
    <glyph glyph-name="uacute" unicode="&#xfa;" horiz-adv-x="516" 
d="M448 630l-145 -122h-108l145 122h108zM485 453l-40 -453h-85l4 51c-37 -32 -85 -61 -145 -61c-97 0 -162 67 -162 172c0 10 1 38 2 50l22 241h89l-22 -246c-1 -6 -1 -18 -1 -24c0 -72 28 -107 95 -107c49 0 91 26 125 59l29 318h89z" />
    <glyph glyph-name="ucircumflex" unicode="&#xfb;" horiz-adv-x="516" 
d="M449 508h-94l-56 73l-69 -73h-94l122 122h91zM485 453l-40 -453h-85l4 51c-37 -32 -85 -61 -145 -61c-97 0 -162 67 -162 172c0 10 1 38 2 50l22 241h89l-22 -246c-1 -6 -1 -18 -1 -24c0 -72 28 -107 95 -107c49 0 91 26 125 59l29 318h89z" />
    <glyph glyph-name="udieresis" unicode="&#xfc;" horiz-adv-x="516" 
d="M430 615l-8 -96h-96l8 96h96zM263 615l-8 -96h-96l8 96h96zM485 453l-40 -453h-85l4 51c-37 -32 -85 -61 -145 -61c-97 0 -162 67 -162 172c0 10 1 38 2 50l22 241h89l-22 -246c-1 -6 -1 -18 -1 -24c0 -72 28 -107 95 -107c49 0 91 26 125 59l29 318h89z" />
    <glyph glyph-name="ugrave" unicode="&#xf9;" horiz-adv-x="516" 
d="M367 508h-108l-123 122h108zM485 453l-40 -453h-85l4 51c-37 -32 -85 -61 -145 -61c-97 0 -162 67 -162 172c0 10 1 38 2 50l22 241h89l-22 -246c-1 -6 -1 -18 -1 -24c0 -72 28 -107 95 -107c49 0 91 26 125 59l29 318h89z" />
    <glyph glyph-name="yacute" unicode="&#xfd;" horiz-adv-x="467" 
d="M441 630l-145 -122h-108l145 122h108zM494 453l-318 -560c-52 -92 -105 -122 -175 -122c-10 0 -37 2 -50 5l7 83c11 -4 29 -6 37 -6c43 0 71 15 101 65l77 128l-150 407h92l114 -309l174 309h91z" />
    <glyph glyph-name="ydieresis" unicode="&#xff;" horiz-adv-x="467" 
d="M402 615l-8 -96h-96l8 96h96zM235 615l-8 -96h-96l8 96h96zM494 453l-318 -560c-52 -92 -105 -122 -175 -122c-10 0 -37 2 -50 5l7 83c11 -4 29 -6 37 -6c43 0 71 15 101 65l77 128l-150 407h92l114 -309l174 309h91z" />
    <glyph glyph-name="zcaron" unicode="&#x17e;" horiz-adv-x="468" 
d="M459 630l-122 -122h-91l-100 122h94l56 -73l69 73h94zM479 453l-292 -370h247l-7 -83h-417l292 370h-230l7 83h400z" />
    <glyph glyph-name="uni00A0" unicode="&#xa0;" 
 />
    <glyph glyph-name="uni00AD" unicode="&#xad;" horiz-adv-x="424" 
d="M391 295l-8 -89h-329l8 89h329z" />
    <glyph glyph-name="uni02C9" unicode="&#x2c9;" horiz-adv-x="500" 
d="M391 608l-7 -78h-275l7 78h275z" />
    <glyph glyph-name="uni03A9" unicode="&#x3a9;" horiz-adv-x="758" 
d="M704 0h-256v84c61 52 148 139 148 292c0 139 -76 246 -218 246c-130 0 -224 -99 -224 -248c0 -151 86 -238 149 -290v-84h-257v84h164c-71 51 -165 144 -165 310c0 184 136 318 333 318c214 0 327 -137 327 -316c0 -150 -84 -254 -167 -312h166v-84z" />
    <glyph glyph-name="uni03BC" unicode="&#x3bc;" horiz-adv-x="562" 
d="M521 523l-76 -357c-6 -29 -11 -51 -11 -65c0 -24 10 -33 35 -33c5 0 10 0 16 1l-15 -70c-19 -4 -36 -5 -53 -5c-42 0 -61 18 -73 63c-29 -43 -73 -64 -132 -64c-53 0 -91 17 -125 57l-54 -259h-88l155 732h88l-63 -293c-5 -22 -7 -43 -7 -65c0 -65 36 -101 98 -101
c90 0 133 62 162 197l56 262h87z" />
    <glyph glyph-name="pi" unicode="&#x3c0;" horiz-adv-x="730" 
d="M654 77l19 -68c-20 -10 -48 -17 -83 -17c-96 0 -134 63 -134 145v286h-176v-282c0 -62 -6 -107 -17 -141h-105c13 40 19 94 19 148v275c-31 0 -78 -11 -106 -24c-8 19 -20 48 -28 68c29 16 88 33 157 33h469v-77h-110v-273c0 -49 16 -81 60 -81c13 0 25 4 35 8z" />
    <glyph glyph-name="Euro" unicode="&#x20ac;" 
d="M595 626l-38 -89c-53 45 -106 58 -153 58c-111 0 -178 -65 -206 -153h287l-25 -75h-278c-2 -14 -2 -28 -2 -42v-14h266l-25 -75h-233c13 -79 67 -157 182 -157c57 0 123 18 180 63l-10 -103c-41 -27 -101 -51 -178 -51c-162 0 -249 112 -275 248h-98l25 75h65v15
c0 14 1 27 2 41h-83l25 75h74c40 131 145 244 296 244c60 0 126 -10 202 -60z" />
    <glyph glyph-name="litre" unicode="&#x2113;" horiz-adv-x="528" 
d="M440 53c-29 -28 -81 -67 -147 -67c-42 0 -73 13 -95 36c-27 28 -39 76 -39 124v90l-60 -60c-11 16 -23 32 -34 48c31 32 62 64 94 96v215c0 123 52 193 140 193c81 0 108 -65 108 -114c0 -96 -49 -176 -118 -258c-11 -13 -27 -33 -36 -43v-159c0 -68 26 -94 65 -94
c38 0 69 27 89 48c11 -19 22 -37 33 -55zM342 601c0 30 -12 53 -37 53c-34 0 -52 -35 -52 -105v-148c7 8 17 21 22 29c41 57 67 121 67 171z" />
    <glyph glyph-name="Omega" unicode="&#x2126;" horiz-adv-x="758" 
d="M704 0h-256v84c61 52 148 139 148 292c0 139 -76 246 -218 246c-130 0 -224 -99 -224 -248c0 -151 86 -238 149 -290v-84h-257v84h164c-71 51 -165 144 -165 310c0 184 136 318 333 318c214 0 327 -137 327 -316c0 -150 -84 -254 -167 -312h166v-84z" />
    <glyph glyph-name="estimated" unicode="&#x212e;" horiz-adv-x="689" 
d="M642 307h-472v-212c45 -44 101 -68 167 -68c112 0 177 57 228 139c12 -7 24 -15 37 -22c-62 -93 -134 -156 -265 -156c-182 0 -299 144 -299 319c0 177 114 320 301 320c189 0 299 -144 303 -320zM508 345v174c-43 42 -105 70 -169 70c-66 0 -125 -23 -169 -69v-175h338z
" />
    <glyph glyph-name="partialdiff" unicode="&#x2202;" horiz-adv-x="623" 
d="M573 471c0 -63 -9 -127 -26 -189c-43 -153 -141 -293 -294 -293c-119 0 -200 81 -200 199c0 201 144 307 270 307c73 0 124 -35 144 -73h2c2 18 4 37 4 61c0 104 -52 168 -144 168c-35 0 -75 -11 -105 -29c-8 22 -16 46 -24 69c28 19 84 38 145 38
c140 0 228 -96 228 -258zM456 338c-14 46 -52 84 -116 84c-97 0 -184 -101 -184 -238c0 -69 38 -116 100 -116c95 0 170 117 200 270z" />
    <glyph glyph-name="Delta" unicode="&#x2206;" horiz-adv-x="667" 
d="M657 0h-627v47c83 218 165 435 248 653h133c82 -218 164 -435 246 -653v-47zM533 85l-174 468c-9 25 -13 46 -16 59h-4c-3 -12 -9 -35 -16 -57c-58 -157 -117 -313 -175 -470h385z" />
    <glyph glyph-name="product" unicode="&#x220f;" horiz-adv-x="779" 
d="M693 -230h-104v841h-398v-841h-104v930h606v-930z" />
    <glyph glyph-name="summation" unicode="&#x2211;" horiz-adv-x="681" 
d="M640 -230h-619v52c114 139 227 278 341 417c-107 135 -213 269 -320 403v58h574v-84h-436c99 -125 197 -250 295 -375c-104 -129 -209 -258 -313 -387h478v-84z" />
    <glyph glyph-name="uni2215" unicode="&#x2215;" horiz-adv-x="379" 
d="M574 800l-646 -929h-97l645 929h98z" />
    <glyph glyph-name="uni2219" unicode="&#x2219;" horiz-adv-x="230" 
d="M186 280h-106v111h106v-111z" />
    <glyph glyph-name="radical" unicode="&#x221a;" horiz-adv-x="577" 
d="M573 729c-71 -247 -142 -494 -214 -741h-78c-48 109 -97 219 -146 329c-19 -12 -38 -24 -58 -36c-10 18 -20 35 -30 53c43 28 88 56 132 83c47 -106 93 -212 140 -318c61 209 121 420 181 630h73z" />
    <glyph glyph-name="infinity" unicode="&#x221e;" horiz-adv-x="854" 
d="M801 294c0 -99 -69 -177 -178 -177c-83 0 -153 48 -197 115h-2c-47 -66 -116 -115 -196 -115c-107 0 -180 70 -180 173c0 106 74 177 178 177c87 0 153 -51 198 -116h2c35 52 102 116 193 116c107 0 182 -70 182 -173zM719 293c0 54 -31 102 -104 102
c-63 0 -111 -43 -151 -103c39 -64 93 -104 152 -104c72 0 103 51 103 105zM384 292c-39 61 -96 103 -152 103c-68 0 -103 -48 -103 -105c0 -58 44 -102 104 -102c61 0 114 46 151 104z" />
    <glyph glyph-name="integral" unicode="&#x222b;" horiz-adv-x="525" 
d="M440 660c-10 4 -29 10 -49 10c-54 0 -83 -35 -83 -97v-622c0 -117 -62 -185 -171 -185c-28 0 -67 6 -85 14c7 25 14 51 20 75c13 -5 31 -9 51 -9c53 0 82 34 82 96v622c0 114 59 185 172 185c33 0 70 -8 85 -16c-7 -24 -14 -49 -22 -73z" />
    <glyph glyph-name="approxequal" unicode="&#x2248;" 
d="M534 421c-34 -51 -75 -86 -138 -86c-36 0 -74 11 -107 32c-28 17 -58 32 -90 32c-38 0 -68 -34 -87 -66l-53 60c33 47 71 86 138 86c40 0 75 -13 106 -31c33 -20 61 -33 91 -33c37 0 66 31 87 65zM534 199c-34 -51 -75 -87 -138 -87c-36 0 -74 12 -107 32
c-28 17 -58 32 -90 32c-38 0 -68 -33 -87 -65l-53 60c33 47 71 85 138 85c40 0 75 -12 106 -31c33 -20 61 -33 91 -33c37 0 66 32 87 66z" />
    <glyph glyph-name="notequal" unicode="&#x2260;" 
d="M512 145h-244l-56 -120h-86l56 120h-99v80h136l67 143h-203v80h241l59 129h87l-60 -129h102v-80h-140l-67 -143h207v-80z" />
    <glyph glyph-name="lessequal" unicode="&#x2264;" 
d="M512 0h-429v80h429v-80zM512 138l-429 189v66l429 190v-86l-319 -136v-2l319 -137v-84z" />
    <glyph glyph-name="greaterequal" unicode="&#x2265;" 
d="M512 0h-429v80h429v-80zM512 328l-429 -190v85l319 137v2l-319 136v85l429 -190v-65z" />
    <glyph glyph-name="lozenge" unicode="&#x25ca;" horiz-adv-x="611" 
d="M548 350c-75 -117 -150 -233 -225 -350h-50c-75 116 -150 233 -225 349l225 351h50c75 -117 150 -233 225 -350zM466 350l-168 261l-168 -261c56 -88 112 -174 168 -262c56 88 112 174 168 262z" />
    <glyph glyph-name="i.alt" unicode="&#xe000;" horiz-adv-x="277" 
d="M218 586l-77 -71l-65 71l77 70zM260 84l-6 -77c-22 -9 -51 -16 -84 -16c-77 0 -110 45 -110 110c0 11 3 46 4 57l25 295h93l-26 -298c-1 -9 -3 -39 -3 -47c0 -31 15 -42 44 -42c15 0 42 7 63 18z" />
    <glyph glyph-name="iacute.alt" unicode="&#xe001;" horiz-adv-x="277" 
d="M341 630l-145 -122h-108l145 122h108zM260 84l-6 -77c-22 -9 -51 -16 -84 -16c-77 0 -110 45 -110 110c0 11 3 46 4 57l25 295h93l-26 -298c-1 -9 -3 -39 -3 -47c0 -31 15 -42 44 -42c15 0 42 7 63 18z" />
    <glyph glyph-name="igrave.alt" unicode="&#xe002;" horiz-adv-x="277" 
d="M194 508h-108l-123 122h108zM260 84l-6 -77c-22 -9 -51 -16 -84 -16c-77 0 -110 45 -110 110c0 11 3 46 4 57l25 295h93l-26 -298c-1 -9 -3 -39 -3 -47c0 -31 15 -42 44 -42c15 0 42 7 63 18z" />
    <glyph glyph-name="icircumflex.alt" unicode="&#xe003;" horiz-adv-x="277" 
d="M301 508h-94l-56 73l-69 -73h-94l122 122h91zM260 84l-6 -77c-22 -9 -51 -16 -84 -16c-77 0 -110 45 -110 110c0 11 3 46 4 57l25 295h93l-26 -298c-1 -9 -3 -39 -3 -47c0 -31 15 -42 44 -42c15 0 42 7 63 18z" />
    <glyph glyph-name="idieresis.alt" unicode="&#xe004;" horiz-adv-x="277" 
d="M281 615l-8 -96h-96l8 96h96zM114 615l-8 -96h-96l8 96h96zM260 84l-6 -77c-22 -9 -51 -16 -84 -16c-77 0 -110 45 -110 110c0 11 3 46 4 57l25 295h93l-26 -298c-1 -9 -3 -39 -3 -47c0 -31 15 -42 44 -42c15 0 42 7 63 18z" />
    <glyph glyph-name="l.alt" unicode="&#xe005;" horiz-adv-x="217" 
d="M199 672l-59 -672h-89l59 672h89z" />
    <glyph glyph-name="lslash.alt" unicode="&#xe006;" horiz-adv-x="217" 
d="M266 511l-7 -84l-87 -64l-32 -363h-89l26 294l-76 -54l8 88l75 53l26 291h89l-19 -222z" />
    <glyph glyph-name="q.alt" unicode="&#xe007;" horiz-adv-x="572" 
d="M975 -98l-8 -89c-54 -32 -135 -43 -189 -43c-143 0 -319 102 -465 223c-15 -2 -32 -4 -50 -4c-143 0 -209 99 -209 210c0 136 92 264 256 264c125 0 209 -80 209 -216c0 -63 -29 -166 -117 -221c96 -79 271 -179 393 -179c60 0 138 21 180 55zM427 239
c0 90 -45 144 -127 144c-109 0 -154 -97 -154 -176c0 -94 55 -138 126 -138c112 0 155 96 155 170z" />
    <glyph glyph-name="y.alt" unicode="&#xe008;" horiz-adv-x="516" 
d="M485 453l-39 -448c-12 -140 -66 -242 -222 -242c-64 0 -126 20 -184 46l6 88c47 -26 114 -50 168 -50c132 0 135 98 145 204c-41 -36 -84 -61 -140 -61c-102 0 -162 73 -162 172c0 17 0 34 2 50l22 241h89l-22 -246c-1 -8 -1 -16 -1 -24c0 -67 24 -107 95 -107
c49 0 91 26 125 59l29 318h89z" />
    <glyph glyph-name="yacute.alt" unicode="&#xe009;" horiz-adv-x="516" 
d="M441 630l-145 -122h-108l145 122h108zM485 453l-39 -448c-12 -140 -66 -242 -222 -242c-64 0 -126 20 -184 46l6 88c47 -26 114 -50 168 -50c132 0 135 98 145 204c-41 -36 -84 -61 -140 -61c-102 0 -162 73 -162 172c0 17 0 34 2 50l22 241h89l-22 -246
c-1 -8 -1 -16 -1 -24c0 -67 24 -107 95 -107c49 0 91 26 125 59l29 318h89z" />
    <glyph glyph-name="ydieresis.alt" unicode="&#xe00a;" horiz-adv-x="516" 
d="M422 615l-8 -96h-96l8 96h96zM255 615l-8 -96h-96l8 96h96zM485 453l-39 -448c-12 -140 -66 -242 -222 -242c-64 0 -126 20 -184 46l6 88c47 -26 114 -50 168 -50c132 0 135 98 145 204c-41 -36 -84 -61 -140 -61c-102 0 -162 73 -162 172c0 17 0 34 2 50l22 241h89
l-22 -246c-1 -8 -1 -16 -1 -24c0 -67 24 -107 95 -107c49 0 91 26 125 59l29 318h89z" />
    <glyph glyph-name="fi.alt" unicode="&#xe00b;" horiz-adv-x="634" 
d="M575 586l-77 -71l-65 71l77 70zM617 84l-6 -77c-22 -9 -51 -16 -84 -16c-77 0 -110 45 -110 110c0 11 3 46 4 57l25 295h93l-26 -298c-1 -9 -3 -39 -3 -47c0 -31 15 -42 44 -42c15 0 42 7 63 18zM393 670l-8 -87c-27 14 -63 23 -88 23c-60 0 -78 -31 -86 -112l-4 -41h141
l-7 -79h-140l-33 -374h-89l33 374h-84l7 79h83l5 52c10 109 50 181 171 181c28 0 62 -4 99 -16z" />
    <glyph glyph-name="fl.alt" unicode="&#xe00c;" horiz-adv-x="568" 
d="M550 672l-59 -672h-89l59 672h89zM393 670l-8 -87c-27 14 -63 23 -88 23c-60 0 -78 -31 -86 -112l-4 -41h141l-7 -79h-140l-33 -374h-89l33 374h-84l7 79h83l5 52c10 109 50 181 171 181c28 0 62 -4 99 -16z" />
    <glyph glyph-name="zero.oldstyle" unicode="&#xf730;" 
d="M509 281c0 -100 -57 -292 -256 -292c-143 0 -209 111 -209 237c0 154 92 299 256 299c125 0 209 -90 209 -244zM417 272c0 102 -45 166 -127 166c-109 0 -154 -112 -154 -202c0 -106 55 -160 126 -160c112 0 155 112 155 196z" />
    <glyph glyph-name="one.oldstyle" unicode="&#xf731;" horiz-adv-x="250" 
d="M201 542l-48 -542h-100l43 482z" />
    <glyph glyph-name="two.oldstyle" unicode="&#xf732;" horiz-adv-x="481" 
d="M431 369c0 -80 -45 -143 -129 -218l-69 -62h191l-8 -89h-400l237 228c49 47 78 88 78 130c0 65 -49 80 -89 80c-69 0 -139 -50 -179 -92l10 120c52 38 110 59 183 59c108 0 175 -52 175 -156z" />
    <glyph glyph-name="three.oldstyle" unicode="&#xf733;" horiz-adv-x="503" 
d="M461 514l-159 -262c76 -11 141 -65 141 -189c0 -114 -90 -233 -241 -233c-91 0 -163 53 -198 129l76 66c13 -50 60 -108 129 -108c73 0 135 58 135 151c0 94 -82 118 -128 118c-23 0 -46 -2 -64 -5l147 244h-229l8 89h383z" />
    <glyph glyph-name="four.oldstyle" unicode="&#xf734;" horiz-adv-x="564" 
d="M494 80l-7 -80h-84l-14 -158h-100l14 158h-319l425 514h39l-38 -434h84zM329 300l-178 -220h159z" />
    <glyph glyph-name="five.oldstyle" unicode="&#xf735;" horiz-adv-x="496" 
d="M451 514l-35 -89h-211l-27 -168c11 2 26 4 48 4c110 0 196 -70 196 -206c0 -96 -74 -225 -235 -225c-100 0 -167 61 -199 106l69 74c20 -38 65 -91 134 -91c75 0 129 59 129 136c0 74 -50 128 -135 128c-44 0 -89 -10 -110 -18l60 349h316z" />
    <glyph glyph-name="six.oldstyle" unicode="&#xf736;" horiz-adv-x="547" 
d="M502 205c0 -88 -68 -219 -230 -219c-97 0 -204 66 -204 230c0 127 55 261 254 456h134c-103 -89 -189 -182 -232 -272c22 8 44 13 89 13c85 0 189 -62 189 -208zM400 207c0 73 -55 116 -116 116c-40 0 -82 -14 -99 -21c-12 -26 -17 -65 -17 -86c0 -97 55 -138 114 -138
c73 0 118 57 118 129z" />
    <glyph glyph-name="seven.oldstyle" unicode="&#xf737;" horiz-adv-x="523" 
d="M507 514l-366 -672h-105l319 583h-288l8 89h432z" />
    <glyph glyph-name="eight.oldstyle" unicode="&#xf738;" horiz-adv-x="540" 
d="M484 202c0 -80 -74 -213 -235 -213c-119 0 -204 72 -204 191c0 91 51 146 153 194c-51 37 -85 85 -85 144c0 66 51 168 202 168c87 0 159 -59 159 -155c0 -77 -59 -121 -116 -154c78 -43 126 -89 126 -175zM379 523c0 49 -38 75 -78 75c-57 0 -93 -38 -93 -84
c0 -37 25 -69 73 -93c70 27 98 67 98 102zM382 198c0 56 -41 97 -106 133c-87 -40 -132 -84 -132 -147c0 -60 40 -107 112 -107c69 0 126 51 126 121z" />
    <glyph glyph-name="nine.oldstyle" unicode="&#xf739;" horiz-adv-x="539" 
d="M487 285c0 -114 -56 -252 -251 -443h-134c100 80 186 179 229 269c-22 -8 -45 -13 -79 -13c-96 0 -199 71 -199 208c0 88 68 219 230 219c90 0 204 -64 204 -240zM387 295c0 97 -55 138 -114 138c-73 0 -118 -57 -118 -129c0 -73 51 -123 112 -123c40 0 66 6 99 21
c12 26 21 72 21 93z" />
    </font>
</defs>
</svg>
